<svg width="7" height="10" viewBox="0 0 7 10" fill="none" xmlns="http://www.w3.org/2000/svg">
<g clip-path="url(#clip0_1_571)">
<path d="M3.26 0.109976C3.36 0.109976 3.45 0.119976 3.55 0.129976C3.65 0.139976 3.74 0.159976 3.83 0.179976C3.83 0.179976 3.83 0.179976 3.84 0.179976C3.89 0.189976 3.94 0.199976 4 0.219976C4.05 0.239976 4.11 0.249976 4.16 0.269976C4.29 0.319976 4.41 0.359976 4.54 0.419976C4.89 0.579976 5.19 0.809976 5.46 1.08998C5.54 1.16998 5.61 1.26998 5.69 1.35998C5.69 1.35998 5.69 1.36998 5.7 1.37998C5.81 1.52998 5.91 1.68998 5.99 1.84998C6.09 2.04998 6.16 2.25998 6.21 2.46998C6.21 2.48998 6.21 2.49998 6.21 2.51998C6.23 2.61998 6.25 2.70998 6.26 2.80998C6.26 2.94998 6.28 3.09998 6.29 3.23998C6.29 3.25998 6.29 3.27998 6.29 3.28998C6.29 3.36998 6.28 3.45998 6.26 3.53998C6.22 3.73998 6.16 3.93998 6.09 4.12998C5.91 4.58998 5.68 5.02998 5.43 5.45998C5.24 5.76998 5.05 6.08998 4.84 6.38998C4.66 6.64998 4.48 6.90998 4.29 7.16998C4.1 7.42998 3.9 7.68998 3.7 7.93998C3.59 8.07998 3.47 8.21998 3.36 8.34998C3.29 8.43998 3.11 8.44998 3.03 8.33998C3.01 8.30998 2.99 8.28998 2.97 8.25998C2.95 8.22998 2.92 8.19998 2.9 8.16998C2.88 8.14997 2.87 8.12998 2.85 8.10997C2.74 7.96997 2.63 7.83998 2.53 7.68998C2.29 7.36998 2.05 7.03998 1.81 6.71998C1.65 6.48998 1.49 6.24998 1.33 6.01998C1.31 5.98998 1.29 5.96998 1.28 5.93998L1.09 5.63998C1.09 5.63998 1.04 5.55998 1.02 5.52998C1.02 5.52998 1.01 5.50998 1 5.49998C0.960003 5.42998 0.910003 5.34998 0.870003 5.27998C0.790003 5.13998 0.720003 4.99998 0.650003 4.86998C0.510003 4.60998 0.390003 4.32998 0.290003 4.04998C0.290003 4.04998 0.290003 4.04998 0.280003 4.03998C0.280003 4.03998 0.280003 4.01998 0.280003 4.00998C0.260003 3.95998 0.250003 3.89998 0.230003 3.84998C0.210003 3.78998 0.200003 3.73998 0.180003 3.67998C0.180003 3.67998 0.180003 3.65998 0.180003 3.64998C0.170003 3.58998 0.150003 3.52998 0.140003 3.46998C0.130003 3.37998 0.120003 3.29998 0.120003 3.20998C0.120003 3.11998 0.120003 3.03998 0.120003 2.94998C0.120003 2.91998 0.120003 2.87998 0.130003 2.84998C0.140003 2.75998 0.160003 2.66998 0.170003 2.57998C0.180003 2.51998 0.200003 2.44998 0.210003 2.38998C0.210003 2.38998 0.210003 2.36998 0.220003 2.36998C0.250003 2.28998 0.270003 2.19998 0.300003 2.11998C0.300003 2.08998 0.320003 2.06998 0.320003 2.03998C0.320003 2.03998 0.330003 2.02998 0.330003 2.01998C0.360003 1.94998 0.400003 1.87998 0.430003 1.79998C0.460003 1.74998 0.490003 1.68998 0.520003 1.63998C0.540003 1.59998 0.570003 1.55998 0.590003 1.51998C0.840003 1.12998 1.16 0.819976 1.55 0.569976C1.58 0.549976 1.61 0.529976 1.64 0.509976C1.68 0.489976 1.72 0.469976 1.76 0.449976C1.86 0.409976 1.95 0.359976 2.05 0.319976C2.16 0.279976 2.28 0.239976 2.39 0.199976C2.57 0.159976 2.76 0.119976 2.95 0.0999756C3.05 0.0999756 3.15 0.0999756 3.24 0.0999756L3.26 0.109976ZM0.580003 2.77998C0.580003 2.77998 0.580003 2.82998 0.570003 2.84998C0.550003 3.01998 0.540003 3.17998 0.560003 3.34998C0.570003 3.42998 0.590003 3.50998 0.600003 3.59998C0.620003 3.65998 0.630003 3.72998 0.650003 3.78998C0.700003 3.95998 0.770003 4.11998 0.840003 4.28998C0.910003 4.43998 0.990003 4.59998 1.07 4.74998C1.09 4.79998 1.12 4.83998 1.14 4.88998C1.2 4.98998 1.25 5.09998 1.31 5.19998C1.53 5.56998 1.76 5.92998 2.01 6.28998C2.14 6.47998 2.27 6.65998 2.41 6.84998C2.44 6.89998 2.48 6.93998 2.51 6.98998C2.51 6.98998 2.51 7.00998 2.52 7.00998C2.65 7.17998 2.78 7.34998 2.91 7.51998C2.96 7.58998 3.02 7.65998 3.08 7.72998C3.11 7.76998 3.15 7.81998 3.18 7.85998C3.2 7.88998 3.21 7.88998 3.23 7.85998C3.36 7.68998 3.49 7.52998 3.61 7.35998L3.68 7.26998C3.76 7.15998 3.84 7.04998 3.92 6.93998C3.97 6.86998 4.02 6.79998 4.08 6.72998C4.08 6.72998 4.08 6.71998 4.09 6.70998C4.14 6.63998 4.19 6.56998 4.24 6.49998C4.29 6.42998 4.34 6.35998 4.39 6.28998C4.42 6.24998 4.44 6.20998 4.47 6.16998C4.49 6.13998 4.51 6.10998 4.54 6.07998C4.61 5.96998 4.68 5.86998 4.75 5.75998C4.75 5.75998 4.75 5.75998 4.76 5.74998C4.86 5.58998 4.96 5.43998 5.05 5.27998C5.12 5.16998 5.18 5.05998 5.24 4.93998C5.32 4.78998 5.4 4.62998 5.48 4.47998C5.49 4.45998 5.5 4.43998 5.51 4.41998C5.55 4.33998 5.58 4.24998 5.62 4.16998C5.63 4.13998 5.65 4.11998 5.66 4.08998C5.7 3.95998 5.75 3.83998 5.78 3.70998C5.81 3.59998 5.83 3.48998 5.85 3.37998C5.86 3.29998 5.85 3.20998 5.85 3.11998C5.85 3.05998 5.85 2.99998 5.85 2.93998C5.85 2.92998 5.85 2.90998 5.84 2.89998C5.84 2.85998 5.84 2.82998 5.83 2.78998C5.82 2.70998 5.8 2.63998 5.78 2.55998C5.76 2.47998 5.73 2.39998 5.7 2.31998C5.66 2.20998 5.61 2.09998 5.56 1.98998L5.46 1.82998C5.38 1.71998 5.3 1.59998 5.21 1.49998C5.1 1.36998 4.98 1.24998 4.84 1.14998C4.75 1.08998 4.66 1.01998 4.56 0.959976C4.39 0.849976 4.2 0.769976 4.01 0.709976C3.93 0.689976 3.86 0.669976 3.78 0.649976C3.71 0.629976 3.64 0.629976 3.57 0.619976C3.48 0.609976 3.4 0.599976 3.31 0.589976C3.22 0.589976 3.14 0.589976 3.05 0.589976C3.02 0.589976 2.98 0.589976 2.95 0.589976C2.87 0.599976 2.78 0.619976 2.7 0.629976C2.52 0.659976 2.34 0.719976 2.17 0.789976C1.88 0.909976 1.62 1.07998 1.39 1.29998C1.11 1.55998 0.890003 1.86998 0.750003 2.22998C0.700003 2.34998 0.660003 2.46998 0.630003 2.59998C0.610003 2.66998 0.600003 2.73998 0.590003 2.79998C0.590003 2.79998 0.590003 2.79998 0.590003 2.80998L0.580003 2.77998Z" fill="#3B3666"/>
<path d="M3.19 8.53C3.09 8.53 3 8.48 2.94 8.41C2.93 8.39 2.91 8.37 2.89 8.35L2.65 8.05C2.58 7.96 2.5 7.86 2.43 7.77L2.32 7.62C2.12 7.35 1.91 7.07 1.71 6.79C1.59 6.63 1.48 6.46 1.37 6.3L0.86 5.48C0.86 5.48 0.8 5.38 0.77 5.33C0.71 5.22 0.64 5.1 0.58 4.99L0.53 4.9C0.38 4.61 0.27 4.35 0.18 4.1L0.16 4.04L0.05 3.63C0.05 3.63 0.03 3.54 0.02 3.49C0.02 3.43 0.01 3.37 0 3.31V3.22V2.95C0 2.92 0 2.9 0 2.88L0.02 2.76C0.02 2.7 0.04 2.63 0.05 2.56C0.05 2.52 0.07 2.48 0.08 2.43L0.13 2.28L0.23 1.97L0.5 1.46C0.76 1.06 1.09 0.73 1.49 0.48C1.51 0.47 1.53 0.45 1.55 0.44L1.71 0.35L2 0.22L2.35 0.1C2.57 0.05 2.76 0.02 2.94 0C3.04 0 3.14 0 3.23 0H3.34C3.41 0.01 3.47 0.02 3.54 0.02C3.6 0.02 3.67 0.04 3.74 0.05H3.81H3.82L4.07 0.11C4.07 0.11 4.14 0.13 4.18 0.15L4.27 0.19C4.37 0.23 4.47 0.26 4.56 0.31C4.91 0.47 5.23 0.71 5.51 1.01C5.57 1.07 5.62 1.13 5.67 1.2L5.74 1.28C5.86 1.45 5.96 1.62 6.05 1.79C6.15 1.99 6.23 2.21 6.28 2.44C6.28 2.46 6.28 2.48 6.28 2.5L6.33 2.78L6.36 3.22C6.36 3.22 6.36 3.27 6.36 3.29V3.38C6.35 3.44 6.34 3.5 6.33 3.56C6.29 3.76 6.23 3.97 6.16 4.17C6.01 4.58 5.79 5 5.49 5.51C5.32 5.79 5.12 6.12 4.9 6.44L4.78 6.61C4.64 6.81 4.5 7.02 4.35 7.22C4.17 7.47 3.98 7.71 3.79 7.95L3.75 8C3.68 8.09 3.6 8.18 3.52 8.28L3.41 8.42C3.35 8.49 3.26 8.53 3.16 8.53H3.19ZM1.11 5.47L1.56 6.17C1.67 6.33 1.78 6.5 1.89 6.65C2.09 6.93 2.29 7.2 2.5 7.47L2.61 7.62C2.68 7.71 2.75 7.8 2.82 7.89L3.04 8.17C3.04 8.17 3.09 8.23 3.1 8.25C3.12 8.28 3.16 8.29 3.17 8.28C3.2 8.28 3.23 8.27 3.24 8.25L3.35 8.11C3.42 8.02 3.5 7.93 3.57 7.84L3.61 7.79C3.8 7.55 3.98 7.31 4.16 7.07C4.31 6.87 4.45 6.67 4.59 6.47L4.71 6.3C4.93 5.98 5.13 5.66 5.29 5.38C5.58 4.88 5.79 4.47 5.94 4.07C6.01 3.88 6.07 3.69 6.11 3.5C6.12 3.45 6.12 3.4 6.13 3.34V3.25C6.13 3.25 6.14 3.21 6.15 3.19L6.12 2.79L6.06 2.47C6.01 2.26 5.94 2.06 5.85 1.87C5.77 1.7 5.67 1.55 5.57 1.41L5.49 1.31C5.44 1.25 5.39 1.19 5.34 1.13C5.08 0.85 4.78 0.63 4.46 0.48C4.37 0.44 4.28 0.4 4.19 0.37L4.09 0.33C4.09 0.33 4.03 0.31 3.99 0.3L3.93 0.28C3.93 0.28 3.85 0.26 3.81 0.25L3.68 0.23C3.62 0.22 3.56 0.21 3.5 0.2C3.44 0.2 3.38 0.19 3.31 0.18H3.22C3.13 0.18 3.03 0.18 2.93 0.18C2.77 0.2 2.59 0.23 2.39 0.27L2.06 0.38L1.65 0.58C1.65 0.58 1.61 0.61 1.58 0.63C1.21 0.86 0.9 1.17 0.66 1.54L0.5 1.81L0.39 2.04C0.39 2.04 0.38 2.09 0.37 2.11L0.27 2.44C0.27 2.44 0.25 2.52 0.25 2.56C0.24 2.62 0.23 2.69 0.22 2.75L0.2 2.86C0.2 2.86 0.2 2.9 0.2 2.91V3.17V3.24C0.2 3.3 0.2 3.35 0.22 3.41C0.22 3.45 0.23 3.49 0.24 3.53L0.36 3.94C0.45 4.2 0.57 4.46 0.71 4.74L0.73 4.78L0.76 4.84C0.82 4.95 0.88 5.07 0.94 5.18C0.97 5.23 1 5.27 1.02 5.32L1.07 5.4L0.99 5.49L1.09 5.43L1.11 5.47ZM3.19 7.97C3.13 7.97 3.09 7.92 3.08 7.91C3.06 7.88 3.03 7.85 3.01 7.82L2.95 7.74C2.9 7.68 2.86 7.62 2.81 7.56C2.68 7.39 2.55 7.22 2.42 7.05L2.4 7.03L1.9 6.33C1.66 5.98 1.42 5.61 1.2 5.23C1.16 5.17 1.13 5.1 1.09 5.03L1.03 4.92C1.03 4.92 0.98 4.83 0.96 4.78L0.89 4.63C0.84 4.53 0.79 4.42 0.74 4.31C0.67 4.16 0.6 3.99 0.55 3.8C0.53 3.75 0.52 3.7 0.51 3.65L0.45 3.34C0.43 3.15 0.45 2.96 0.46 2.81L0.49 2.66C0.49 2.61 0.51 2.56 0.52 2.51C0.56 2.38 0.59 2.26 0.65 2.13C0.8 1.77 1.02 1.44 1.32 1.16C1.56 0.93 1.84 0.75 2.14 0.63C2.32 0.56 2.5 0.5 2.7 0.47C2.78 0.45 2.87 0.44 2.95 0.43C2.98 0.43 3.01 0.43 3.04 0.43H3.15C3.21 0.43 3.27 0.43 3.33 0.43C3.42 0.43 3.51 0.45 3.6 0.46C3.67 0.46 3.75 0.48 3.82 0.5C3.9 0.52 3.98 0.54 4.06 0.56C4.27 0.62 4.46 0.71 4.64 0.82C4.7 0.86 4.76 0.9 4.81 0.94C4.85 0.97 4.88 0.99 4.91 1.01C5.07 1.12 5.2 1.26 5.3 1.38C5.36 1.45 5.42 1.53 5.48 1.61C5.5 1.64 5.53 1.68 5.55 1.71L5.7 1.99C5.74 2.07 5.77 2.15 5.8 2.23C5.83 2.31 5.86 2.39 5.88 2.48C5.9 2.55 5.91 2.61 5.92 2.68V2.72C5.92 2.72 5.94 2.78 5.94 2.81C5.94 2.84 5.95 2.86 5.96 2.89C5.96 2.93 5.96 2.97 5.96 3.02V3.15C5.96 3.22 5.96 3.28 5.96 3.35C5.95 3.46 5.92 3.57 5.89 3.7C5.86 3.81 5.83 3.92 5.79 4.02L5.77 4.09C5.77 4.09 5.75 4.14 5.74 4.16C5.69 4.27 5.66 4.35 5.62 4.43C5.62 4.45 5.6 4.47 5.59 4.48L5.3 5.03C5.25 5.12 5.2 5.21 5.15 5.29C5.09 5.4 5.02 5.51 4.95 5.61L4.54 6.24C4.54 6.24 4.51 6.29 4.49 6.32C4.45 6.38 4.41 6.43 4.37 6.49L4.19 6.75C4.13 6.84 4.07 6.91 4.02 6.98L3.32 7.9C3.32 7.9 3.27 7.97 3.2 7.97H3.19ZM2.97 0.66C2.97 0.66 2.96 0.66 2.95 0.66C2.87 0.67 2.79 0.69 2.71 0.7C2.53 0.73 2.36 0.78 2.2 0.85C1.92 0.97 1.67 1.13 1.45 1.34C1.17 1.6 0.97 1.9 0.83 2.23C0.78 2.34 0.75 2.46 0.71 2.58C0.7 2.62 0.69 2.67 0.68 2.71L0.65 2.86C0.63 2.99 0.62 3.16 0.64 3.32L0.69 3.6C0.69 3.6 0.71 3.69 0.73 3.73C0.79 3.91 0.85 4.07 0.91 4.21C0.96 4.31 1.01 4.42 1.06 4.52L1.13 4.67C1.13 4.67 1.18 4.76 1.2 4.81L1.26 4.92C1.3 4.98 1.33 5.05 1.37 5.11C1.59 5.48 1.82 5.85 2.06 6.19L2.56 6.88C2.7 7.07 2.83 7.24 2.96 7.41C3 7.47 3.05 7.52 3.1 7.58L3.17 7.67L3.8 6.84C3.85 6.77 3.9 6.7 3.96 6.63L4.16 6.36C4.2 6.31 4.24 6.25 4.28 6.2C4.29 6.18 4.31 6.16 4.32 6.14L4.73 5.51C4.8 5.4 4.86 5.3 4.93 5.19C4.98 5.11 5.03 5.02 5.08 4.93L5.12 4.85L5.36 4.39C5.36 4.39 5.38 4.35 5.39 4.34C5.43 4.25 5.46 4.17 5.5 4.09L5.52 4.05C5.52 4.05 5.53 4.03 5.54 4.01L5.56 3.94C5.59 3.84 5.63 3.74 5.66 3.63C5.69 3.51 5.71 3.41 5.72 3.31C5.72 3.26 5.72 3.2 5.72 3.15V3.01C5.72 3.01 5.72 2.93 5.72 2.89V2.85C5.7 2.8 5.7 2.78 5.69 2.75V2.71C5.67 2.65 5.66 2.58 5.64 2.52C5.62 2.44 5.6 2.37 5.57 2.3C5.54 2.22 5.5 2.15 5.47 2.07L5.43 1.98L5.34 1.83C5.34 1.83 5.3 1.77 5.27 1.74C5.22 1.67 5.17 1.59 5.11 1.53C4.99 1.39 4.89 1.28 4.76 1.19C4.72 1.16 4.69 1.14 4.65 1.11C4.6 1.07 4.54 1.03 4.49 1C4.33 0.9 4.16 0.82 3.97 0.77C3.9 0.75 3.82 0.73 3.75 0.71C3.68 0.7 3.62 0.69 3.55 0.68C3.47 0.67 3.38 0.66 3.3 0.65C3.25 0.65 3.19 0.65 3.13 0.65H3.04H3C3 0.65 2.98 0.65 2.97 0.65V0.66Z" fill="#3B3666"/>
<path d="M3.65 9.66996C3.6 9.66996 3.54 9.66996 3.49 9.66996C3.36 9.66996 3.23 9.66996 3.1 9.66996C3.01 9.66996 2.91 9.66996 2.82 9.66996C2.77 9.66996 2.72 9.66996 2.67 9.65996C2.6 9.65996 2.52 9.65996 2.45 9.63996C2.38 9.63996 2.32 9.61996 2.25 9.60996C2.19 9.60996 2.13 9.59996 2.07 9.58996C1.98 9.57996 1.89 9.55996 1.8 9.54996C1.73 9.53996 1.66 9.51996 1.59 9.49996C1.48 9.46996 1.37 9.43996 1.26 9.40996C1.09 9.35996 0.919997 9.28996 0.759997 9.20996C0.579997 9.12996 0.429997 9.01996 0.299997 8.86996C0.269997 8.83996 0.249997 8.79996 0.219997 8.76996C0.189997 8.68996 0.159997 8.61996 0.129997 8.53996C0.129997 8.51996 0.129997 8.50996 0.129997 8.48996C0.129997 8.44996 0.129997 8.40996 0.129997 8.36996C0.129997 8.27996 0.169997 8.20996 0.209997 8.12996C0.219997 8.10996 0.239997 8.08996 0.249997 8.05996C0.299997 8.00996 0.339997 7.94996 0.389997 7.89996C0.489997 7.80996 0.589997 7.73996 0.699997 7.67996C0.729997 7.65996 0.769997 7.63996 0.799997 7.62996C0.939997 7.57996 1.07 7.51996 1.21 7.46996C1.24 7.45996 1.26 7.44996 1.29 7.43996C1.36 7.41996 1.44 7.39996 1.51 7.37996C1.57 7.36996 1.62 7.35996 1.68 7.33996C1.75 7.32996 1.82 7.29996 1.9 7.31996C1.9 7.31996 1.92 7.31996 1.93 7.32996C2.07 7.39996 2.09 7.60996 1.96 7.68996C1.92 7.71996 1.87 7.72996 1.82 7.73996C1.67 7.77996 1.52 7.80996 1.38 7.84996C1.22 7.89996 1.06 7.96996 0.899997 8.04996C0.789997 8.10996 0.689997 8.17996 0.609997 8.27996C0.539997 8.36996 0.539997 8.45996 0.609997 8.54996C0.639997 8.57996 0.659997 8.60996 0.699997 8.63996C0.849997 8.75996 1.02 8.83996 1.2 8.90996C1.27 8.93996 1.35 8.95996 1.42 8.98996C1.46 8.99996 1.49 9.00996 1.53 9.01996C1.67 9.04996 1.81 9.08996 1.95 9.11996C2.03 9.13996 2.11 9.14996 2.19 9.15996C2.28 9.16996 2.37 9.17996 2.46 9.18996C2.5 9.18996 2.53 9.19996 2.57 9.19996C2.61 9.19996 2.66 9.19996 2.7 9.19996C2.77 9.19996 2.84 9.19996 2.9 9.20996C2.99 9.20996 3.07 9.20996 3.16 9.20996C3.19 9.20996 3.22 9.20996 3.24 9.20996C3.34 9.20996 3.43 9.20996 3.53 9.20996C3.59 9.20996 3.65 9.20996 3.71 9.20996C3.82 9.20996 3.93 9.18996 4.04 9.17996C4.08 9.17996 4.12 9.17996 4.17 9.16996C4.23 9.16996 4.28 9.15996 4.34 9.14996C4.41 9.13996 4.48 9.11996 4.55 9.10996C4.59 9.10996 4.64 9.08996 4.68 9.07996C4.74 9.06996 4.8 9.04996 4.87 9.02996C4.87 9.02996 4.88 9.02996 4.89 9.02996C4.97 9.00996 5.04 8.97996 5.12 8.95996C5.18 8.93996 5.24 8.90996 5.3 8.88996C5.38 8.84996 5.47 8.80996 5.55 8.76996C5.65 8.71996 5.75 8.64996 5.82 8.55996C5.9 8.45996 5.9 8.35996 5.82 8.26996C5.75 8.18996 5.66 8.11996 5.57 8.06996C5.38 7.95996 5.17 7.87996 4.96 7.82996C4.86 7.79996 4.75 7.77996 4.64 7.74996C4.6 7.73996 4.56 7.72996 4.52 7.70996C4.44 7.66996 4.4 7.55996 4.42 7.50996C4.46 7.35996 4.56 7.28996 4.71 7.32996C4.8 7.34996 4.88 7.37996 4.97 7.39996C5.15 7.43996 5.32 7.49996 5.48 7.56996C5.69 7.65996 5.88 7.75996 6.05 7.90996C6.18 8.02996 6.27 8.16996 6.3 8.34996V8.48996C6.29 8.60996 6.24 8.70996 6.18 8.79996C6.08 8.93996 5.95 9.03996 5.8 9.12996C5.61 9.23996 5.41 9.32996 5.21 9.38996C5.06 9.43996 4.91 9.46996 4.75 9.50996C4.63 9.53996 4.51 9.55996 4.39 9.57996C4.33 9.58996 4.27 9.59996 4.21 9.59996C4.1 9.60996 3.99 9.61996 3.87 9.62996C3.83 9.62996 3.79 9.62996 3.75 9.62996C3.72 9.62996 3.69 9.62996 3.66 9.62996L3.65 9.66996Z" fill="#3B3666"/>
<path d="M3.1 9.79996C3 9.79996 2.91 9.79996 2.81 9.79996C2.76 9.79996 2.71 9.79996 2.66 9.78996H2.58C2.53 9.78996 2.48 9.77996 2.43 9.76996C2.38 9.76996 2.34 9.75996 2.29 9.74996H2.22C2.15 9.72996 2.1 9.72996 2.04 9.71996C1.95 9.70996 1.86 9.68996 1.77 9.66996C1.7 9.65996 1.62 9.63996 1.55 9.61996C1.47 9.59996 1.38 9.57996 1.3 9.54996L1.22 9.52996C1.03 9.47996 0.85 9.39996 0.7 9.32996C0.51 9.23996 0.34 9.11996 0.2 8.95996C0.18 8.92996 0.16 8.90996 0.14 8.87996L0.1 8.81996L0 8.55996C0 8.55996 0 8.51996 0 8.49996C0 8.43996 0 8.40996 0 8.36996C0 8.25996 0.05 8.16996 0.09 8.08996L0.18 7.94996C0.18 7.94996 0.25 7.86996 0.29 7.82996C0.39 7.73996 0.5 7.66996 0.62 7.58996C0.66 7.56996 0.69 7.54996 0.72 7.53996L1.22 7.33996L1.68 7.22996C1.74 7.21996 1.82 7.19996 1.9 7.22996H1.92L1.93 7.23996C2.06 7.29996 2.12 7.40996 2.13 7.52996C2.13 7.63996 2.08 7.74996 1.99 7.80996C1.93 7.84996 1.87 7.85996 1.82 7.87996C1.76 7.89996 1.7 7.90996 1.64 7.91996C1.55 7.93996 1.47 7.95996 1.38 7.98996C1.21 8.03996 1.06 8.09996 0.92 8.17996C0.8 8.23996 0.72 8.30996 0.66 8.37996C0.62 8.42996 0.62 8.45996 0.66 8.50996L0.68 8.52996C0.68 8.52996 0.71 8.56996 0.73 8.57996C0.85 8.67996 1 8.75996 1.2 8.82996L1.35 8.87996L1.65 8.95996C1.74 8.97996 1.83 8.99996 1.93 9.01996C1.99 9.02996 2.05 9.03996 2.1 9.04996H2.16C2.22 9.06996 2.28 9.06996 2.34 9.07996L2.66 9.10996C2.73 9.10996 2.79 9.10996 2.86 9.11996H3.11H3.19C3.29 9.11996 3.38 9.11996 3.48 9.11996L4.11 9.06996C4.17 9.06996 4.22 9.05996 4.28 9.04996C4.35 9.03996 4.42 9.01996 4.49 9.00996C4.53 9.00996 4.57 8.99996 4.61 8.98996C4.65 8.98996 4.68 8.96996 4.72 8.95996L5.03 8.86996C5.09 8.84996 5.15 8.82996 5.21 8.79996L5.28 8.76996C5.34 8.73996 5.39 8.71996 5.45 8.68996C5.55 8.63996 5.63 8.57996 5.68 8.50996C5.72 8.44996 5.72 8.41996 5.68 8.35996C5.63 8.29996 5.56 8.23996 5.46 8.18996C5.29 8.08996 5.1 8.01996 4.88 7.95996C4.82 7.93996 4.77 7.92996 4.71 7.91996C4.66 7.90996 4.61 7.89996 4.56 7.87996C4.51 7.86996 4.46 7.84996 4.42 7.82996C4.3 7.76996 4.23 7.59996 4.26 7.49996C4.31 7.28996 4.48 7.18996 4.69 7.23996C4.74 7.24996 4.78 7.25996 4.83 7.27996C4.87 7.28996 4.91 7.29996 4.95 7.30996C5.13 7.34996 5.31 7.40996 5.48 7.47996C5.73 7.58996 5.92 7.69996 6.08 7.84996C6.24 7.99996 6.34 8.16996 6.37 8.35996V8.51996C6.35 8.65996 6.31 8.77996 6.22 8.89996C6.12 9.02996 6 9.13996 5.81 9.25996C5.63 9.36996 5.42 9.45996 5.19 9.52996C5.07 9.56996 4.94 9.59996 4.82 9.62996L4.73 9.64996C4.61 9.67996 4.49 9.69996 4.37 9.71996C4.32 9.71996 4.27 9.72996 4.22 9.73996L3.84 9.77996C3.84 9.77996 3.78 9.77996 3.75 9.77996H3.72C3.72 9.77996 3.66 9.77996 3.64 9.77996C3.58 9.77996 3.53 9.77996 3.47 9.77996C3.34 9.77996 3.21 9.77996 3.08 9.77996L3.1 9.79996ZM0.32 8.73996L0.34 8.75996C0.34 8.75996 0.37 8.79996 0.39 8.81996C0.5 8.94996 0.65 9.04996 0.81 9.12996C0.95 9.19996 1.12 9.26996 1.3 9.31996L1.38 9.33996C1.46 9.35996 1.54 9.37996 1.62 9.39996C1.69 9.41996 1.76 9.42996 1.83 9.43996C1.92 9.45996 2 9.46996 2.09 9.47996C2.14 9.47996 2.19 9.48996 2.25 9.49996H2.34C2.34 9.49996 2.43 9.51996 2.47 9.52996C2.52 9.52996 2.57 9.52996 2.61 9.53996H2.69C2.75 9.54996 2.79 9.54996 2.84 9.55996C3.05 9.55996 3.28 9.55996 3.5 9.55996C3.55 9.55996 3.6 9.55996 3.66 9.55996C3.69 9.55996 3.72 9.55996 3.75 9.55996H3.78C3.78 9.55996 3.83 9.55996 3.86 9.55996L4.24 9.51996C4.24 9.51996 4.32 9.51996 4.37 9.49996C4.49 9.47996 4.61 9.44996 4.72 9.42996L4.81 9.40996C4.93 9.37996 5.05 9.35996 5.17 9.31996C5.38 9.24996 5.57 9.16996 5.74 9.06996C5.9 8.96996 6.01 8.87996 6.08 8.77996C6.14 8.69996 6.17 8.60996 6.18 8.51996V8.38996C6.16 8.26996 6.09 8.14996 5.97 8.02996C5.83 7.89996 5.67 7.79996 5.44 7.70996C5.28 7.63996 5.11 7.58996 4.94 7.54996C4.9 7.53996 4.85 7.52996 4.81 7.51996C4.77 7.50996 4.72 7.49996 4.68 7.48996C4.59 7.46996 4.55 7.48996 4.52 7.58996C4.52 7.60996 4.54 7.64996 4.57 7.65996C4.6 7.66996 4.63 7.68996 4.66 7.69996C4.71 7.70996 4.75 7.71996 4.8 7.72996C4.86 7.73996 4.92 7.75996 4.98 7.76996C5.22 7.82996 5.43 7.91996 5.61 8.01996C5.73 8.08996 5.82 8.15996 5.89 8.24996C6 8.38996 6 8.53996 5.89 8.67996C5.82 8.76996 5.72 8.84996 5.59 8.91996C5.53 8.94996 5.47 8.97996 5.41 9.00996L5.33 9.04996C5.26 9.07996 5.2 9.09996 5.14 9.11996L4.81 9.20996C4.81 9.20996 4.73 9.22996 4.69 9.23996C4.64 9.23996 4.6 9.25996 4.56 9.26996C4.49 9.27996 4.42 9.29996 4.35 9.30996C4.29 9.30996 4.23 9.32996 4.17 9.33996C4.14 9.33996 4.11 9.33996 4.08 9.33996L3.51 9.37996C3.41 9.37996 3.32 9.37996 3.22 9.37996C3.18 9.37996 3.15 9.37996 3.13 9.37996H2.87C2.8 9.37996 2.73 9.36996 2.66 9.35996H2.53C2.53 9.35996 2.48 9.34996 2.45 9.33996L2.32 9.31996C2.26 9.31996 2.2 9.30996 2.14 9.29996H2.09C2.03 9.27996 1.96 9.27996 1.9 9.25996C1.81 9.23996 1.71 9.21996 1.62 9.19996L1.29 9.10996C1.24 9.08996 1.19 9.06996 1.13 9.05996C0.91 8.97996 0.74 8.88996 0.6 8.76996C0.57 8.74996 0.55 8.71996 0.53 8.68996L0.51 8.65996C0.4 8.51996 0.4 8.37996 0.5 8.24996C0.58 8.14996 0.68 8.05996 0.83 7.97996C0.98 7.89996 1.15 7.82996 1.33 7.76996C1.42 7.73996 1.51 7.71996 1.61 7.69996C1.67 7.68996 1.72 7.66996 1.78 7.65996C1.82 7.65996 1.86 7.63996 1.88 7.61996C1.91 7.59996 1.92 7.56996 1.92 7.53996C1.92 7.51996 1.92 7.46996 1.86 7.44996C1.82 7.43996 1.78 7.44996 1.74 7.44996L1.24 7.57996L0.84 7.73996C0.84 7.73996 0.78 7.76996 0.75 7.78996C0.64 7.84996 0.55 7.91996 0.46 7.99996C0.43 8.02996 0.4 8.05996 0.38 8.08996L0.31 8.19996C0.28 8.24996 0.25 8.31996 0.25 8.38996C0.25 8.41996 0.25 8.43996 0.25 8.46996V8.52996L0.33 8.71996L0.32 8.73996Z" fill="#3B3666"/>
<path d="M4.48999 2.66993C4.48999 2.66993 4.50999 2.75993 4.51999 2.80993C4.51999 2.84993 4.51999 2.88993 4.51999 2.92993C4.51999 3.01993 4.50999 3.10993 4.48999 3.19993C4.45999 3.38993 4.37999 3.56993 4.25999 3.71993C4.07999 3.95993 3.83999 4.10993 3.54999 4.18993C3.38999 4.22993 3.22999 4.23993 3.05999 4.21993C2.94999 4.20993 2.84999 4.16993 2.74999 4.12993C2.49999 4.02993 2.30999 3.85993 2.15999 3.64993C2.01999 3.43993 1.95999 3.20993 1.93999 2.95993C1.93999 2.89993 1.94999 2.82993 1.95999 2.75993C1.96999 2.63993 2.00999 2.52993 2.05999 2.41993C2.12999 2.27993 2.21999 2.14993 2.32999 2.03993C2.48999 1.88993 2.67999 1.77993 2.88999 1.71993C2.90999 1.71993 2.92999 1.71993 2.94999 1.70993C2.99999 1.70993 3.03999 1.68993 3.08999 1.67993C3.12999 1.67993 3.16999 1.67993 3.20999 1.67993C3.34999 1.67993 3.48999 1.69993 3.62999 1.73993C3.96999 1.84993 4.21999 2.07993 4.37999 2.38993C4.41999 2.47993 4.44999 2.56993 4.47999 2.65993L4.48999 2.66993ZM4.07999 2.81993C4.07999 2.81993 4.05999 2.71993 4.04999 2.67993C4.04999 2.65993 4.02999 2.62993 4.01999 2.60993C3.89999 2.36993 3.70999 2.19993 3.43999 2.13993C3.33999 2.11993 3.23999 2.10993 3.13999 2.11993C2.90999 2.14993 2.72999 2.25993 2.57999 2.42993C2.43999 2.60993 2.36999 2.80993 2.38999 3.03993C2.38999 3.11993 2.40999 3.18993 2.43999 3.26993C2.46999 3.31993 2.48999 3.36993 2.51999 3.41993C2.67999 3.65993 2.89999 3.79993 3.18999 3.80993C3.23999 3.80993 3.28999 3.80993 3.33999 3.80993C3.42999 3.80993 3.50999 3.77993 3.58999 3.73993C3.63999 3.70993 3.67999 3.68993 3.72999 3.65993C3.74999 3.63993 3.76999 3.62993 3.79999 3.60993C3.89999 3.51993 3.98 3.41993 4.02999 3.29993C4.06999 3.21993 4.08999 3.12993 4.08999 3.03993C4.08999 2.98993 4.08999 2.93993 4.08999 2.88993C4.08999 2.86993 4.08999 2.84993 4.08999 2.81993H4.07999Z" fill="#3B3666"/>
<path d="M3.22 4.34996C3.16 4.34996 3.11 4.34996 3.05 4.34996C2.92 4.33996 2.81 4.29996 2.71 4.25996C2.45 4.14996 2.24 3.97996 2.07 3.72996C1.93 3.51996 1.85 3.26996 1.84 2.97996C1.84 2.91996 1.84 2.86996 1.85 2.81996V2.76996C1.87 2.63996 1.91 2.51996 1.97 2.38996C2.04 2.23996 2.14 2.09996 2.26 1.96996C2.43 1.80996 2.64 1.68996 2.87 1.61996L3.08 1.57996C3.14 1.57996 3.18 1.57996 3.22 1.57996C3.38 1.57996 3.53 1.59996 3.67 1.64996C4.04 1.76996 4.31 2.00996 4.49 2.35996C4.52 2.41996 4.55 2.48996 4.57 2.55996L4.63 2.79996V2.85996C4.63 2.85996 4.63 2.91996 4.63 2.94996C4.63 3.03996 4.62 3.13996 4.6 3.22996C4.57 3.42996 4.49 3.61996 4.35 3.79996C4.16 4.05996 3.9 4.22996 3.58 4.30996C3.46 4.33996 3.34 4.34996 3.22 4.34996ZM3.22 1.79996C3.22 1.79996 3.15 1.79996 3.11 1.79996L2.93 1.83996C2.74 1.89996 2.56 1.99996 2.42 2.12996C2.32 2.22996 2.24 2.34996 2.18 2.47996C2.13 2.58996 2.1 2.68996 2.09 2.78996V2.84996C2.09 2.84996 2.07 2.92996 2.07 2.96996C2.08 3.21996 2.14 3.41996 2.27 3.59996C2.41 3.80996 2.59 3.94996 2.81 4.03996C2.89 4.06996 2.99 4.10996 3.09 4.11996C3.25 4.13996 3.4 4.11996 3.54 4.08996C3.81 4.01996 4.02 3.87996 4.19 3.65996C4.3 3.50996 4.37 3.34996 4.39 3.18996C4.4 3.09996 4.41 3.01996 4.42 2.92996C4.42 2.90996 4.42 2.88996 4.42 2.86996L4.39 2.69996L4.36 2.61996C4.34 2.55996 4.32 2.49996 4.3 2.44996C4.15 2.14996 3.93 1.94996 3.62 1.84996C3.5 1.80996 3.37 1.78996 3.24 1.78996L3.22 1.79996ZM3.22 3.91996C3.22 3.91996 3.2 3.91996 3.18 3.91996C2.86 3.89996 2.61 3.74996 2.43 3.47996C2.41 3.43996 2.39 3.39996 2.37 3.35996L2.35 3.31996C2.31 3.23996 2.29 3.15996 2.29 3.04996C2.27 2.78996 2.34 2.55996 2.5 2.35996C2.67 2.15996 2.88 2.03996 3.13 2.00996C3.23 1.99996 3.34 2.00996 3.47 2.02996C3.76 2.09996 3.99 2.26996 4.12 2.55996C4.12 2.57996 4.14 2.59996 4.14 2.61996L4.19 2.80996H4.08L4.19 2.82996C4.19 2.84996 4.19 2.85996 4.19 2.87996C4.19 2.92996 4.19 2.98996 4.19 3.03996C4.19 3.14996 4.16 3.24996 4.12 3.33996C4.07 3.46996 3.98 3.58996 3.86 3.68996C3.84 3.70996 3.82 3.71996 3.8 3.73996C3.74 3.77996 3.69 3.80996 3.64 3.82996C3.55 3.87996 3.46 3.89996 3.34 3.90996H3.28C3.28 3.90996 3.23 3.90996 3.2 3.90996L3.22 3.91996ZM3.22 2.21996C3.22 2.21996 3.17 2.21996 3.14 2.21996C2.94 2.23996 2.79 2.32996 2.66 2.48996C2.53 2.63996 2.48 2.81996 2.5 3.01996C2.5 3.09996 2.52 3.15996 2.54 3.20996L2.56 3.24996C2.56 3.24996 2.59 3.30996 2.61 3.33996C2.75 3.54996 2.94 3.66996 3.19 3.67996C3.22 3.67996 3.25 3.67996 3.27 3.67996H3.33C3.41 3.66996 3.47 3.64996 3.53 3.61996L3.66 3.53996C3.66 3.53996 3.7 3.50996 3.71 3.49996C3.8 3.41996 3.87 3.32996 3.91 3.22996C3.94 3.15996 3.96 3.08996 3.96 3.00996C3.96 2.95996 3.96 2.91996 3.96 2.86996C3.96 2.86996 3.96 2.84996 3.96 2.83996V2.81996L3.92 2.67996C3.92 2.65996 3.91 2.64996 3.9 2.63996C3.79 2.40996 3.63 2.27996 3.4 2.22996C3.33 2.20996 3.27 2.20996 3.21 2.20996L3.22 2.21996Z" fill="#3B3666"/>
</g>
<defs>
<clipPath id="clip0_1_571">
<rect width="6.4" height="9.8" fill="white"/>
</clipPath>
</defs>
</svg>
