<svg width="9" height="6" viewBox="0 0 9 6" fill="none" xmlns="http://www.w3.org/2000/svg">
<path d="M0 0.608939C0.0594059 0.499875 0.0990099 0.372634 0.178218 0.272659C0.326733 0.0908863 0.534653 0 0.792079 0C1.08911 0 1.39604 0 1.69307 0C3.85149 0 6.0099 0 8.16832 0C8.51485 0 8.77228 0.13633 8.92079 0.418077C8.9703 0.508964 9 0.618027 9 0.718002C9 2.17218 9 3.62637 9 5.08055C9 5.48954 8.64357 5.79855 8.18812 5.79855C6.59406 5.79855 5.0099 5.79855 3.41584 5.79855C2.56436 5.79855 1.71287 5.79855 0.871287 5.79855C0.445545 5.79855 0.0891089 5.56224 0.00990099 5.1987C0.00990099 5.1987 0.00990099 5.1987 0 5.18961C0 3.66272 0 2.13583 0 0.618027L0 0.608939ZM0.910891 0.481698C0.910891 0.481698 0.950495 0.518052 0.970297 0.536229C1.9505 1.436 2.93069 2.32669 3.92079 3.22647C3.9703 3.27191 4.0297 3.31735 4.09901 3.35371C4.44554 3.53548 4.80198 3.48095 5.09901 3.21738C6.07921 2.32669 7.0495 1.436 8.0297 0.545318C8.0495 0.527141 8.06931 0.508963 8.09901 0.481698H0.910891ZM0.950495 5.30776H8.0297C7.30693 4.6352 6.56436 3.93538 5.80198 3.22647C5.65347 3.37188 5.52475 3.5173 5.37624 3.64454C4.9901 3.95356 4.54455 4.02627 4.06931 3.88085C3.86139 3.81723 3.69307 3.70816 3.54455 3.57183C3.42574 3.46277 3.30693 3.35371 3.17822 3.23555C2.42574 3.93538 1.68317 4.62611 0.950495 5.31685V5.30776ZM0.534653 4.97148C1.28713 4.26257 2.0297 3.57183 2.75248 2.89927C2.0297 2.22672 1.28713 1.53598 0.534653 0.827066V4.97148ZM8.44554 4.96239C8.44554 4.96239 8.45545 4.95331 8.46535 4.94422V0.817977C7.70297 1.52689 6.9604 2.21763 6.23762 2.89927C6.9703 3.58092 7.70297 4.27166 8.44554 4.96239Z" fill="#3B3666"/>
</svg>
