<svg width="34" height="27" viewBox="0 0 34 27" fill="none" xmlns="http://www.w3.org/2000/svg">
<g clip-path="url(#clip0_1_209)">
<path d="M4.78721 6.25661C4.70424 6.25661 4.61713 6.25247 4.53001 6.24003C3.57174 6.12808 2.90385 5.27397 2.94119 4.21254C2.97437 3.28794 3.59663 2.6204 4.53001 2.51675C5.13152 2.44626 6.21425 2.5748 6.58345 4.2084C6.59175 4.254 6.5959 4.29961 6.59175 4.34107C6.59175 4.37424 6.59175 4.41156 6.59175 4.44887C6.40507 5.59737 5.74133 6.25661 4.78721 6.25661ZM4.79551 3.37087C4.73743 3.37087 4.6835 3.37086 4.62542 3.37916C4.12347 3.4372 3.82479 3.75231 3.8082 4.24156C3.78745 4.84691 4.12347 5.31543 4.62957 5.37348C4.85358 5.4025 5.52562 5.47713 5.72474 4.34522C5.52977 3.53671 5.16056 3.36672 4.79965 3.36672L4.79551 3.37087Z" fill="#3B3666"/>
<path d="M20.4265 24.3008C20.4265 24.3008 20.4141 24.3008 20.41 24.3008C17.5891 24.1889 14.7516 24.1889 11.9763 24.2925C11.3997 24.3174 10.7609 24.2842 10.346 23.8821C9.92703 23.4799 9.86896 22.8414 9.86896 22.2111V19.9556C9.86896 19.7151 10.0639 19.5203 10.3045 19.5203C10.5451 19.5203 10.7401 19.7151 10.7401 19.9556V22.2111C10.7401 22.7875 10.8065 23.1192 10.9475 23.256C11.0886 23.3887 11.3997 23.4426 11.9431 23.426C14.7433 23.3223 17.6057 23.3223 20.4473 23.4343C20.6879 23.4426 20.8746 23.6457 20.8663 23.8862C20.858 24.1225 20.663 24.305 20.4307 24.305L20.4265 24.3008Z" fill="#3B3666"/>
<path d="M27.8397 17.9074C27.7941 17.9074 27.7484 17.8991 27.7028 17.8867C27.4746 17.812 27.3502 17.5633 27.429 17.3352C27.4414 17.302 27.4539 17.2647 27.4705 17.2316L27.4788 17.2108C27.4788 14.3375 27.4788 11.4684 27.4788 8.59919C27.4788 8.57017 27.4788 8.537 27.4788 8.50797C27.4788 8.48724 27.4788 8.47066 27.4788 8.44993L27.3294 8.2592C27.0764 7.90678 26.8607 7.59996 26.5703 7.31802C25.5332 6.31879 24.5583 5.23248 23.6166 4.1835L23.0857 3.59474C22.7538 3.22573 22.5215 2.99769 22.1191 2.99769C20.0159 3.00598 17.8795 2.98525 15.8094 2.96866C14.5483 2.95622 13.2872 2.94793 12.0261 2.94379H12.0137C11.3292 2.94379 11.1259 3.15524 11.1052 3.86839C11.0969 4.1752 11.0844 4.48202 11.0761 4.78884C11.0554 5.34858 11.0347 5.92904 11.0347 6.48878C11.0347 6.72926 10.8397 6.92413 10.5991 6.92413C10.3585 6.92413 10.1635 6.72926 10.1635 6.48878C10.1635 5.91246 10.1842 5.3237 10.205 4.75567C10.2174 4.453 10.2257 4.14618 10.234 3.84351C10.2672 2.64941 10.848 2.06894 12.0137 2.06894H12.0303C13.2914 2.07309 14.5525 2.08552 15.8136 2.09382C17.8795 2.1104 20.0159 2.12699 22.1149 2.12284H22.1191C22.9405 2.12284 23.3968 2.63282 23.7328 3.01012L24.2638 3.59888C25.193 4.63543 26.1554 5.7093 27.1718 6.6878C27.5244 7.02364 27.7733 7.37606 28.0388 7.74922L28.1923 7.96068C28.3624 8.19701 28.3541 8.41261 28.3499 8.54114V8.5909C28.3499 11.4766 28.3499 14.3624 28.3499 17.244C28.3499 17.385 28.3043 17.4928 28.2711 17.5674L28.2545 17.6047C28.1923 17.7872 28.0222 17.9032 27.8397 17.9032V17.9074Z" fill="#3B3666"/>
<path d="M24.828 13.0149H21.5176C21.277 13.0149 21.082 12.82 21.082 12.5795C21.082 12.3391 21.277 12.1442 21.5176 12.1442H24.828C25.0686 12.1442 25.2635 12.3391 25.2635 12.5795C25.2635 12.82 25.0686 13.0149 24.828 13.0149Z" fill="#3B3666"/>
<path d="M24.6786 10.5313H21.5176C21.277 10.5313 21.082 10.3364 21.082 10.096C21.082 9.85549 21.277 9.66061 21.5176 9.66061H24.6786C24.9192 9.66061 25.1142 9.85549 25.1142 10.096C25.1142 10.3364 24.9192 10.5313 24.6786 10.5313Z" fill="#3B3666"/>
<path d="M33.5603 24.3755C33.3197 24.3755 33.1247 24.1806 33.1247 23.9401V22.8911C33.1247 22.0868 33.1247 21.2824 33.1247 20.478C33.1247 20.391 33.1247 20.3163 33.1247 20.2459L32.4402 20.4615C31.652 20.7102 30.8638 20.9549 30.0756 21.1912C29.7064 21.3031 29.3331 21.4026 28.9556 21.5022C28.3624 21.6597 27.7443 21.8214 27.1676 22.0287C26.0808 22.4185 25.1017 22.4268 24.0024 22.0453C22.6086 21.5685 21.1567 21.1663 19.7545 20.7807C19.1737 20.619 18.593 20.4615 18.0122 20.2956C17.8255 20.2417 17.4397 20.1298 17.3111 19.5991C17.2696 19.4249 17.3402 19.2425 17.4854 19.1388C17.4854 19.1347 17.4978 19.1181 17.5102 19.0974C17.6015 18.9771 17.7508 18.7781 18.0869 18.6827C18.9539 18.4464 19.8167 18.1935 20.6796 17.9406C21.6088 17.6669 22.5671 17.3891 23.5171 17.1321C23.712 17.0782 23.9112 17.0035 24.1227 16.9248C24.6205 16.734 25.1806 16.5226 25.7945 16.6097C26.5786 16.7216 27.3377 16.9165 27.989 17.1694C29.0303 17.5716 30.1254 17.8784 31.1874 18.1728C31.623 18.293 32.0586 18.4174 32.49 18.5418C33.6183 18.8735 33.9958 19.201 34 20.4698C34.0041 21.2741 34 22.0826 34 22.887V23.9318C34 24.1723 33.805 24.3672 33.5644 24.3672L33.5603 24.3755ZM18.4063 19.5037C18.929 19.653 19.4558 19.7981 19.9827 19.9432C21.4014 20.3329 22.8658 20.7393 24.2845 21.2244C25.1972 21.5395 25.9688 21.5353 26.8731 21.2119C27.4871 20.9922 28.1218 20.8222 28.7316 20.6605C29.0966 20.5651 29.4617 20.4656 29.8226 20.3578C30.6108 20.1215 31.3948 19.8769 32.1747 19.6322L32.6061 19.4954C32.5024 19.4581 32.3821 19.4208 32.2369 19.3793C31.8097 19.2508 31.3782 19.1305 30.9468 19.0103C29.8682 18.7076 28.7523 18.3967 27.6696 17.982C27.0805 17.754 26.3836 17.5799 25.6659 17.4721C25.276 17.414 24.8653 17.5716 24.4297 17.7374C24.2098 17.8203 23.9817 17.9074 23.7411 17.9737C22.7994 18.2267 21.8453 18.5086 20.9243 18.7781C20.0864 19.0227 19.2484 19.2674 18.4063 19.4995V19.5037Z" fill="#3B3666"/>
<path d="M26.8316 8.57848C26.8316 8.57848 26.7984 8.57848 26.7818 8.57848C26.2716 8.57434 25.7572 8.57848 25.247 8.57434C24.9317 8.57434 24.6164 8.57434 24.3011 8.57434C23.0981 8.57434 22.3058 7.78241 22.2892 6.56758C22.2767 5.64298 22.2767 4.87593 22.2892 4.14206C22.2892 4.06328 22.285 3.98865 22.2809 3.90987C22.2601 3.6072 22.2311 3.19673 22.5339 2.82357C22.6874 2.63699 22.9612 2.60797 23.1479 2.76138C23.3346 2.91478 23.3636 3.18843 23.2101 3.37501C23.1313 3.47037 23.1313 3.58647 23.152 3.84768C23.1603 3.95548 23.1686 4.05913 23.1645 4.16279C23.1479 4.88008 23.1479 5.64298 23.1645 6.55514C23.1769 7.3056 23.571 7.70364 24.3094 7.70778C24.6247 7.70778 24.9358 7.70778 25.2511 7.70778C25.7696 7.70778 26.2799 7.70778 26.7984 7.71193C27.0266 7.71193 27.1884 7.69949 27.3211 7.62071C27.5286 7.49633 27.7941 7.56266 27.9185 7.76583C28.043 7.97314 27.9766 8.23849 27.7733 8.36288C27.4663 8.54946 27.1469 8.57848 26.8399 8.57848H26.8316Z" fill="#3B3666"/>
<path d="M9.67813 20.2666C9.09736 20.2666 8.5 20.2251 7.91923 20.1795L7.70766 20.1629C6.72865 20.0925 6.18521 19.5369 6.17691 18.5998C6.17277 18.0484 6.17277 17.4928 6.16862 16.9372C6.16862 16.1619 6.16862 15.3865 6.15202 14.6153C6.16032 12.961 6.15202 11.3855 6.14373 9.71868V9.56527C6.10639 8.78579 6.0732 8.06435 6.20595 7.31389C6.3304 6.60904 6.92362 6.18613 7.79478 6.18613H7.81967C9.72791 6.20271 11.6694 6.19857 13.5444 6.19857H16.5105C17.1784 6.19442 17.8421 6.19442 18.51 6.19857C19.5761 6.20686 20.1445 6.77074 20.1445 7.83631C20.1445 10.1084 20.1445 12.3805 20.1445 14.6568V17.1694C20.1445 17.4099 19.9495 17.6047 19.7089 17.6047C19.4683 17.6047 19.2733 17.4099 19.2733 17.1694V14.6568C19.2733 12.3847 19.2733 10.1126 19.2733 7.84046C19.2733 7.25584 19.0908 7.07756 18.5017 7.07341C17.838 7.06927 17.1742 7.07341 16.5105 7.07341H13.5444C11.6652 7.07756 9.72377 7.0817 7.81137 7.06512H7.79478C7.13933 7.06512 7.08541 7.37194 7.06881 7.47145C6.95266 8.12654 6.9817 8.7692 7.01903 9.51966C7.01903 9.52381 7.01903 9.56113 7.01903 9.56942V9.72283C7.03148 11.3937 7.03977 12.9693 7.03148 14.6195C7.04392 15.3824 7.04392 16.1619 7.04807 16.9413C7.04807 17.4928 7.04807 18.0484 7.05637 18.5998C7.05637 19.002 7.18082 19.2632 7.77818 19.3047L7.98975 19.3213C8.76135 19.3752 9.56198 19.4374 10.2713 19.3876C11.3126 19.3171 12.3621 19.3213 13.3743 19.3296C14.2123 19.3337 15.0835 19.342 15.9297 19.3005C16.1662 19.2839 16.3736 19.4747 16.386 19.7151C16.3985 19.9556 16.2118 20.1588 15.9712 20.1712C15.1 20.2127 14.2164 20.2044 13.366 20.2003C12.3663 20.192 11.3375 20.1837 10.3294 20.2542C10.1179 20.2707 9.90215 20.2749 9.68228 20.2749L9.67813 20.2666Z" fill="#3B3666"/>
<path d="M11.4993 16.7962C11.3001 16.7962 11.1093 16.7631 10.9434 16.6926C10.6198 16.5557 10.4041 16.2987 10.3377 15.967C10.2838 15.6933 10.2921 15.5068 10.3004 15.2497C10.3045 15.1377 10.3087 15.0051 10.3128 14.8309C10.3128 14.8185 10.3128 14.8061 10.3128 14.7978C10.3128 14.7895 10.3128 14.7812 10.3128 14.777C10.2921 14.2214 10.2879 13.6783 10.2797 13.1351C10.2714 12.4925 10.2631 11.8249 10.234 11.1698C10.1884 10.2701 10.624 9.84306 10.9973 9.64405C11.6528 9.29577 12.246 9.66892 12.5654 9.87209C13.4988 10.465 14.4985 11.0869 15.7182 11.8249C16.44 12.2644 16.5976 12.7578 16.6059 13.102C16.6101 13.4337 16.4773 13.9229 15.8053 14.3666C14.7308 15.0756 13.6481 15.7804 12.5613 16.477C12.2377 16.6843 11.8519 16.7962 11.4951 16.7962H11.4993ZM11.184 14.7978C11.184 14.7978 11.184 14.8226 11.184 14.8392C11.184 15.0217 11.1757 15.1668 11.1715 15.287C11.1633 15.5109 11.1591 15.627 11.1923 15.797C11.1964 15.8219 11.2047 15.8592 11.2836 15.8924C11.4536 15.9628 11.7938 15.938 12.0925 15.7472C13.1752 15.0548 14.2538 14.3541 15.3241 13.6451C15.5854 13.471 15.7348 13.2803 15.7348 13.1227C15.7348 12.9527 15.5605 12.7537 15.266 12.5754C14.0422 11.8332 13.0342 11.2072 12.0966 10.6101C11.7233 10.3738 11.5698 10.3282 11.408 10.4152C11.2462 10.5023 11.0803 10.6557 11.101 11.1325C11.1342 11.8042 11.1425 12.48 11.1508 13.131C11.155 13.6659 11.1633 14.2049 11.184 14.7522C11.184 14.7687 11.184 14.7895 11.184 14.8061V14.7978Z" fill="#3B3666"/>
<path d="M5.21035 10.1706C4.63788 10.1706 4.01977 9.97572 3.42241 9.36209C3.07809 9.00551 2.18619 9.05112 1.69254 9.45745C1.63861 9.49891 1.59298 9.55281 1.54734 9.60671C1.37726 9.79329 1.12006 10.0794 0.667891 10.0835H0.663743C0.427286 10.0835 0.232313 9.8928 0.228165 9.65232C0.228165 9.41184 0.418989 9.21282 0.659595 9.21282C0.717672 9.21282 0.763304 9.17965 0.9002 9.0221C0.97487 8.93918 1.05369 8.85211 1.14081 8.78162C1.9124 8.14725 3.32284 8.00214 4.04881 8.7526C4.62128 9.3455 5.23109 9.44086 6.15203 9.08844C6.37604 9.00137 6.62909 9.11332 6.71621 9.33721C6.80332 9.5611 6.69132 9.81402 6.46731 9.90109C6.11055 10.0379 5.67912 10.1706 5.21035 10.1706Z" fill="#3B3666"/>
<path d="M25.529 27C24.1144 27 22.7123 26.8217 21.335 26.4651C20.5676 26.2661 20.1237 25.7603 20.1154 25.0762L20.103 24.3837C20.0781 23.2145 20.0532 22.008 20.1859 20.8097C20.2108 20.5692 20.4265 20.4034 20.6671 20.4241C20.9078 20.449 21.0778 20.6646 21.0529 20.9051C20.9285 22.0494 20.9534 23.227 20.9783 24.3672L20.9907 25.0637C20.9907 25.1674 20.9949 25.4783 21.559 25.6235C24.1808 26.2993 26.8938 26.2993 29.6193 25.6152C29.8807 25.5488 30.1959 25.3913 30.1876 25.0015C30.1793 24.533 30.1876 24.0686 30.1959 23.6001C30.2125 22.7128 30.2291 21.7924 30.1213 20.9092C30.0922 20.6688 30.2623 20.4532 30.4988 20.4241C30.7394 20.391 30.9551 20.5651 30.9841 20.8014C31.1003 21.7468 31.0837 22.7004 31.0671 23.6167C31.0588 24.0728 31.0505 24.5289 31.0588 24.9849C31.0713 25.6981 30.5983 26.262 29.8309 26.4568C28.3914 26.8176 26.9561 26.9958 25.5332 26.9958L25.529 27Z" fill="#3B3666"/>
<path d="M3.46388 13.9935C2.85822 13.9935 2.24841 13.9935 1.64275 13.9935C0.576623 13.9935 0.0124451 13.4254 0.00414836 12.3557C0 11.568 0 10.7802 0 9.9924V8.96829V6.98227C0 5.23672 0 3.49117 0.00414836 1.74563C0.00829673 0.563962 0.750854 0.248852 1.398 0.107881C1.99951 -0.024797 2.56784 -0.00406601 3.12372 0.0125188C3.34773 0.0208111 3.57589 0.0291035 3.80405 0.0249573C5.09004 0.00837256 6.39263 0.0332497 7.65788 0.0581269C9.11396 0.0871502 10.624 0.116174 12.0966 0.0788578C12.7977 0.0539807 13.3038 0.223974 13.6274 0.576401C13.9136 0.887365 14.0298 1.31857 13.9758 1.86172C13.9634 1.96123 13.9675 2.06488 13.9758 2.16439C13.9758 2.22244 13.9758 2.28463 13.9758 2.34268C13.9758 2.58316 13.7809 2.77803 13.5403 2.77803C13.2997 2.77803 13.1047 2.58316 13.1047 2.34268C13.1047 2.29292 13.1047 2.23902 13.1047 2.18927C13.1047 2.0483 13.0964 1.90733 13.113 1.7705C13.142 1.48856 13.1005 1.28125 12.9927 1.16516C12.8516 1.01175 12.5488 0.937119 12.1257 0.949558C10.6323 0.986874 9.11811 0.95785 7.64959 0.928827C6.39263 0.90395 5.09419 0.879073 3.82479 0.895658C3.58004 0.895658 3.34358 0.891511 3.10298 0.883219C2.58028 0.862488 2.09078 0.845903 1.59297 0.953704C0.987311 1.08638 0.88775 1.26052 0.88775 1.74148C0.883602 3.48703 0.883602 5.23257 0.88775 6.97812V8.96415V9.98826C0.88775 10.776 0.88775 11.5597 0.88775 12.3474C0.88775 12.9362 1.07028 13.1186 1.6552 13.1186C2.75037 13.1186 3.84553 13.1186 4.93655 13.1186H6.39678C6.63738 13.1186 6.83236 13.3135 6.83236 13.554C6.83236 13.7945 6.63738 13.9893 6.39678 13.9893H4.93655C4.4512 13.9893 3.96169 13.9893 3.47633 13.9893L3.46388 13.9935Z" fill="#3B3666"/>
</g>
<defs>
<clipPath id="clip0_1_209">
<rect width="34" height="27" fill="white"/>
</clipPath>
</defs>
</svg>
