<svg width="28" height="24" viewBox="0 0 28 24" fill="none" xmlns="http://www.w3.org/2000/svg">
<g clip-path="url(#clip0_1_267)">
<path d="M2.13109 19.8118C1.08811 19.6988 0.396132 19.1636 0.0651862 18.1817C0.0501433 18.1375 0.0250716 18.0982 0 18.054C0 12.7168 0 7.37969 0 2.04254C0.135387 1.81177 0.345989 1.74303 0.601719 1.75285C0.962751 1.76267 1.32378 1.75285 1.68481 1.75285C1.70487 1.74303 1.72493 1.7283 1.73997 1.71848C1.73997 1.30113 1.73997 0.878872 1.75 0.461523C1.75 0.166924 1.91046 0.00980492 2.21633 0.00980492C5.5659 0.00980492 8.92049 -1.50509e-05 12.2701 0.0147149C12.8266 0.0147149 13.3782 0.157104 13.8245 0.544993C13.8797 0.594093 14.0652 0.584273 14.1304 0.535173C14.6017 0.162014 15.1433 -1.50509e-05 15.735 -1.50509e-05C19.0394 -1.50509e-05 22.3489 -0.00492503 25.6533 -1.50509e-05C26.0946 -1.50509e-05 26.235 0.152194 26.245 0.584273C26.255 0.957432 26.25 1.3355 26.255 1.70866C26.2751 1.71848 26.2951 1.73321 26.3102 1.74303C26.6812 1.74303 27.0573 1.74303 27.4284 1.74303C27.8295 1.75285 27.9198 1.85105 27.995 2.28313C28 2.32732 27.995 2.37151 27.995 2.4157C27.995 7.41897 27.995 12.4222 27.995 17.4255C27.995 18.0442 27.8395 18.6236 27.3883 19.0851C27.0423 19.4386 26.611 19.6546 26.1196 19.7528C26.0193 19.7725 25.914 19.7823 25.8087 19.797C25.7335 19.7823 25.6533 19.7528 25.5781 19.7528C21.0552 19.7528 16.5322 19.7528 12.0043 19.7528C11.9241 19.7528 11.8388 19.7921 11.7586 19.8118C11.7536 19.8265 11.7586 19.8461 11.7636 19.8609V23.0229C11.7636 23.0229 11.7536 23.0524 11.7636 23.072L11.8188 23.1064V23.0867C12.8718 23.0916 13.9248 23.1015 14.9828 23.1015C15.384 23.1015 15.7801 23.0916 16.1812 23.0867V23.1064C16.2013 23.0965 16.2163 23.0867 16.2364 23.072C16.2464 23.0573 16.2464 23.0376 16.2364 23.0229C16.2364 22.3846 16.2514 21.7414 16.2364 21.1031C16.2364 20.8478 16.3768 20.725 16.5824 20.6759C16.813 20.6219 17.0136 20.7152 17.0938 20.9509C17.134 21.0638 17.139 21.1964 17.144 21.3191C17.154 21.9034 17.159 22.4926 17.164 23.0769C17.159 23.0867 17.154 23.0916 17.149 23.1015C17.159 23.0965 17.164 23.0916 17.1741 23.0867C17.7658 23.0916 18.3575 23.0916 18.9491 23.1064C19.1648 23.1064 19.3804 23.1309 19.4756 23.3862C19.591 23.6907 19.3754 23.9558 19.1046 23.9902C19.0394 24 18.9792 23.9902 18.914 23.9902C15.6347 23.9902 12.3603 23.9902 9.08095 23.9902C8.93553 23.9902 8.77507 23.9607 8.6447 23.9018C8.42908 23.8036 8.43911 23.5777 8.49928 23.4157C8.54441 23.2979 8.71991 23.1555 8.84527 23.1456C9.40688 23.1064 9.9735 23.1162 10.5351 23.1064C10.6354 23.1064 10.7357 23.0965 10.8309 23.0916C10.841 23.0965 10.846 23.1015 10.856 23.1064L10.841 23.0818C10.846 22.0262 10.851 20.9754 10.856 19.9198C10.856 19.8805 10.8059 19.8363 10.7808 19.797C10.7006 19.7823 10.6254 19.7627 10.5451 19.7627C7.81734 19.7627 5.08954 19.7627 2.36676 19.7627C2.29155 19.7627 2.21132 19.7921 2.1361 19.8069L2.13109 19.8118ZM27.0673 15.054C27.0673 15.054 27.0924 15.0736 27.1024 15.0835C27.1024 15.0736 27.1024 15.0638 27.1024 15.0589C27.0874 15.0589 27.0723 15.0589 27.0623 15.0589C27.0723 14.9705 27.0874 14.8821 27.0874 14.7987C27.0874 10.8461 27.0874 6.8936 27.0874 2.94106C27.0874 2.85269 27.0723 2.76431 27.0623 2.68084C27.0774 2.68084 27.0924 2.68084 27.1024 2.68084C27.1024 2.67102 27.1024 2.66611 27.1024 2.65629C27.0924 2.66611 27.0774 2.67593 27.0673 2.68575H26.26V15.1326C26.5408 15.1031 26.8016 15.0785 27.0673 15.0491V15.054ZM0.932665 2.68575C0.932665 2.68575 0.907593 2.66611 0.897564 2.65629C0.897564 2.66611 0.897564 2.67593 0.897564 2.68084H0.937679C0.92765 2.76431 0.912607 2.85269 0.912607 2.93616C0.912607 6.97216 0.912607 11.0082 0.912607 15.0393C0.922636 15.0589 0.932665 15.0736 0.942693 15.0933C1.11318 15.0933 1.28868 15.0835 1.45917 15.1031C1.70989 15.1326 1.76003 15.0245 1.76003 14.7987C1.75501 10.8363 1.76003 6.87887 1.76003 2.91652C1.76003 2.83796 1.75 2.76431 1.75 2.67593C1.4692 2.67593 1.20344 2.67593 0.942693 2.67593L0.932665 2.68575ZM0.947708 15.9869C0.947708 15.9869 0.922636 15.9869 0.907593 15.9869C0.907593 15.9967 0.912607 16.0114 0.917622 16.0213C0.917622 16.5515 0.917622 17.0818 0.912607 17.6121C0.912607 17.6317 0.922636 17.6563 0.92765 17.6759C0.862464 18.2062 1.47923 18.9034 2.16619 18.9034C10.0236 18.9034 17.8811 18.9034 25.7385 18.9034C26.3553 18.9034 27.0623 18.3731 27.0774 17.671C27.0774 17.6514 27.0874 17.6268 27.0924 17.6072C27.0924 17.0769 27.0924 16.5466 27.0874 16.0163C27.0774 16.0065 27.0673 15.9918 27.0573 15.982C26.947 15.982 26.8367 15.982 26.7314 15.982C18.9592 15.982 11.187 15.982 3.41476 15.982C2.59241 15.982 1.77507 15.982 0.952722 15.982L0.947708 15.9869ZM12.24 0.888692H2.66261C2.66261 5.63174 2.66261 10.3404 2.66261 15.0491C2.67264 15.0638 2.68266 15.0835 2.68768 15.0982C7.49642 15.0982 12.3001 15.0982 17.1089 15.0982C19.8417 15.0982 22.5695 15.0982 25.3023 15.0982C25.3123 15.0835 25.3223 15.0638 25.3274 15.0491V0.888692C22.0981 0.888692 18.909 0.888692 15.7199 0.888692C15.1984 0.888692 14.7521 1.07527 14.4362 1.4828C14.1504 1.84614 13.8997 1.88542 13.5888 1.55154C13.2378 1.17838 12.8467 0.898512 12.3001 0.903422C12.2751 0.898512 12.255 0.893602 12.2299 0.883782L12.24 0.888692Z" fill="#3B3666"/>
<path d="M11.7636 19.8265C11.8438 19.8069 11.9291 19.7676 12.0093 19.7676C16.5322 19.7676 21.0552 19.7676 25.5831 19.7676C25.6583 19.7676 25.7385 19.797 25.8138 19.8118C25.7034 19.8118 25.5981 19.8216 25.4878 19.8216C21.0401 19.8216 16.5924 19.8216 12.1397 19.8216C12.0294 19.8216 11.9241 19.8265 11.8138 19.8314C11.7987 19.8216 11.7787 19.8216 11.7636 19.8314V19.8265Z" fill="#5B595F"/>
<path d="M2.13109 19.8118C2.2063 19.797 2.28653 19.7676 2.36175 19.7676C5.08954 19.7676 7.81734 19.7676 10.5401 19.7676C10.6203 19.7676 10.6956 19.7921 10.7758 19.8019C10.7206 19.8069 10.6705 19.8167 10.6153 19.8167C7.84241 19.8167 5.06948 19.8167 2.29656 19.8167C2.2414 19.8167 2.18625 19.8118 2.13109 19.8069V19.8118Z" fill="#5B595F"/>
<path d="M1.74499 1.71359C1.74499 1.71359 1.70488 1.73814 1.68983 1.74796C1.70989 1.73814 1.72995 1.72341 1.74499 1.71359Z" fill="#A19EA3"/>
<path d="M26.3102 1.74796C26.3102 1.74796 26.2701 1.72341 26.255 1.71359C26.2751 1.72341 26.2951 1.73814 26.3102 1.74796Z" fill="#A19EA3"/>
<path d="M11.7636 19.8265C11.7636 19.8265 11.7987 19.8216 11.8138 19.8265C11.7987 19.8412 11.7837 19.856 11.7686 19.8707C11.7586 19.856 11.7586 19.8412 11.7636 19.8216V19.8265Z" fill="#F4F3F4"/>
<path d="M11.7636 23.0818C11.7636 23.0818 11.7536 23.0475 11.7636 23.0327C11.7786 23.0524 11.7987 23.072 11.8137 23.0966V23.1162C11.7937 23.1064 11.7786 23.0966 11.7586 23.0818H11.7636Z" fill="#F4F3F4"/>
<path d="M16.2314 23.0327C16.2314 23.0327 16.2414 23.0622 16.2314 23.0818C16.2113 23.0917 16.1963 23.1015 16.1762 23.1162V23.0966C16.1913 23.0769 16.2113 23.0573 16.2264 23.0327H16.2314Z" fill="#F4F3F4"/>
<path d="M27.0724 17.6809C27.0724 17.6809 27.0824 17.6367 27.0874 17.617C27.0874 17.6367 27.0774 17.6612 27.0724 17.6809Z" fill="#827F85"/>
<path d="M12.3102 0.909161C12.3102 0.909161 12.265 0.898932 12.24 0.888702C12.265 0.893817 12.2851 0.898932 12.3102 0.909161Z" fill="#8D8A8F"/>
<path d="M0.907593 15.0442C0.907593 15.0442 0.92765 15.0786 0.937679 15.0982C0.92765 15.0786 0.917621 15.0638 0.907593 15.0442Z" fill="#848187"/>
<path d="M2.66261 15.0491C2.66261 15.0491 2.68267 15.0835 2.68768 15.0982C2.67766 15.0835 2.66763 15.0638 2.66261 15.0491Z" fill="#6A686D"/>
<path d="M27.0623 15.0589C27.0623 15.0589 27.0924 15.0589 27.1024 15.0589C27.1024 15.0687 27.1024 15.0786 27.1024 15.0835C27.0924 15.0737 27.0774 15.0638 27.0673 15.054V15.0589H27.0623Z" fill="#848187"/>
<path d="M0.947707 15.9869C0.947707 15.9869 0.92765 16.0115 0.917621 16.0213C0.917621 16.0115 0.912607 15.9967 0.907593 15.9869C0.922636 15.9869 0.932664 15.9869 0.947707 15.9869Z" fill="#827F85"/>
<path d="M27.0673 2.68577C27.0673 2.68577 27.0924 2.66613 27.1024 2.65631C27.1024 2.66613 27.1024 2.67104 27.1024 2.68086C27.0874 2.68086 27.0723 2.68086 27.0623 2.68086V2.68577H27.0673Z" fill="#848187"/>
<path d="M27.0824 16.0213C27.0824 16.0213 27.0623 15.9967 27.0523 15.9869C27.0623 15.9967 27.0723 16.0115 27.0824 16.0213Z" fill="#827F85"/>
<path d="M0.907593 17.617C0.907593 17.617 0.917621 17.6612 0.922636 17.6809C0.922636 17.6612 0.912607 17.6367 0.907593 17.617Z" fill="#827F85"/>
<path d="M25.3073 15.0982C25.3073 15.0982 25.3274 15.0638 25.3324 15.0491C25.3224 15.0638 25.3123 15.0835 25.3073 15.0982Z" fill="#6A686D"/>
<path d="M0.932662 2.67595H0.892548C0.892548 2.67595 0.892548 2.66122 0.892548 2.65631C0.902576 2.66613 0.917619 2.67595 0.927648 2.68577V2.68086L0.932662 2.67595Z" fill="#848187"/>
<path d="M10.836 23.0867L10.851 23.1113C10.851 23.1113 10.836 23.1015 10.8259 23.0966L10.836 23.0867Z" fill="#8D8A8F"/>
<path d="M11.7636 23.0818C11.7636 23.0818 11.7987 23.1015 11.8188 23.1162C11.7987 23.1064 11.7837 23.0965 11.7636 23.0818Z" fill="#8D8A8F"/>
<path d="M16.1762 23.1113C16.1762 23.1113 16.2113 23.0917 16.2314 23.0769C16.2113 23.0868 16.1963 23.0966 16.1762 23.1113Z" fill="#8D8A8F"/>
<path d="M17.1691 23.0916C17.1691 23.0916 17.154 23.1015 17.144 23.1064C17.149 23.0965 17.154 23.0916 17.159 23.0818L17.1691 23.0916Z" fill="#8D8A8F"/>
<path d="M13.5487 8.41082C13.5487 6.72669 13.5487 5.03766 13.5487 3.35353C13.5487 3.26515 13.5487 3.17677 13.5537 3.08839C13.5738 2.79871 13.6741 2.70051 13.9398 2.68578C14.2206 2.67105 14.3961 2.79871 14.4362 3.05893C14.4513 3.14731 14.4463 3.23569 14.4463 3.32407C14.4463 6.74142 14.4463 10.1539 14.4463 13.5712C14.4463 13.6498 14.4463 13.7332 14.4362 13.8118C14.4011 14.072 14.2357 14.2095 13.9599 14.1997C13.6741 14.1948 13.5587 14.0917 13.5537 13.7922C13.5437 13.2226 13.5487 12.653 13.5487 12.0786C13.5487 10.856 13.5487 9.6334 13.5487 8.41082Z" fill="#3B3666"/>
<path d="M4.59813 4.41898C6.88968 4.41898 9.18123 4.41898 11.4728 4.41898C11.4928 4.4288 11.5179 4.43862 11.538 4.44844C11.8087 4.50245 11.9441 4.66938 11.9191 4.9247C11.899 5.13583 11.7034 5.30768 11.4678 5.30768C9.17621 5.30768 6.88467 5.30768 4.59312 5.31259C4.3775 5.31259 4.17192 5.06218 4.15186 4.90506C4.12679 4.68902 4.28223 4.49754 4.52793 4.44353C4.553 4.43371 4.57306 4.4288 4.59813 4.41898Z" fill="#3B3666"/>
<path d="M23.4069 4.44355C23.6977 4.50738 23.813 4.64977 23.783 4.91982C23.7579 5.16041 23.5824 5.3028 23.3016 5.3028C21.0401 5.3028 18.7837 5.3028 16.5222 5.3028C16.2765 5.3028 16.0258 5.11622 16.0308 4.89036C16.0358 4.67923 16.1311 4.47792 16.3969 4.44355C16.4169 4.43373 16.442 4.42882 16.462 4.419C17.861 4.419 19.265 4.40918 20.664 4.40918C21.5566 4.40918 22.4491 4.40918 23.3367 4.40918C23.3567 4.419 23.3818 4.42882 23.4019 4.43864L23.4069 4.44355Z" fill="#3B3666"/>
<path d="M16.457 9.47135C16.2013 9.41243 15.9907 9.22094 16.0258 9.02454C16.0609 8.83305 16.1211 8.62192 16.3969 8.62192C16.4169 8.6121 16.437 8.59737 16.462 8.58755C17.8109 8.58755 19.1597 8.57773 20.5036 8.57773C21.4513 8.57773 22.399 8.57773 23.3467 8.58264C23.3668 8.59246 23.3868 8.60719 23.4119 8.61701C23.6375 8.62683 23.7729 8.73976 23.793 8.96071C23.808 9.19148 23.7479 9.38788 23.4671 9.42716C23.447 9.44189 23.4269 9.45171 23.4069 9.46644C21.8023 9.46644 20.1927 9.47626 18.5881 9.47626C17.8961 9.47626 17.2092 9.47135 16.5172 9.46644C16.4971 9.46644 16.4821 9.46644 16.462 9.46644L16.457 9.47135Z" fill="#3B3666"/>
<path d="M23.3467 11.5581C21.0501 11.5581 18.7536 11.5581 16.457 11.5581C16.437 11.5581 16.4169 11.5581 16.4019 11.5581C16.1612 11.4894 16.0158 11.3126 16.0358 11.0868C16.0509 10.91 16.1361 10.7038 16.3969 10.7087C16.437 10.6989 16.4771 10.6841 16.5172 10.6743C18.7937 10.6743 21.0702 10.6743 23.3517 10.6743C23.3718 10.689 23.3918 10.6989 23.4119 10.7136C23.6325 10.7136 23.7629 10.8314 23.793 11.0377C23.8381 11.3323 23.6777 11.4894 23.4069 11.5679C23.3868 11.5679 23.3668 11.5679 23.3517 11.5679L23.3467 11.5581Z" fill="#3B3666"/>
<path d="M4.64828 8.58755C6.92479 8.58755 9.20129 8.58755 11.4778 8.58755C11.4979 8.59737 11.5179 8.6121 11.538 8.62192C11.7636 8.64156 11.889 8.76922 11.914 8.98526C11.9391 9.21603 11.8539 9.38788 11.5931 9.43207C11.5731 9.4468 11.553 9.45662 11.533 9.47135C10.2192 9.47135 8.90043 9.48117 7.58668 9.48117C6.60888 9.48117 5.62608 9.47626 4.64828 9.47135C4.62823 9.47135 4.61318 9.47135 4.59312 9.47135C4.33238 9.4468 4.17694 9.27986 4.16691 9.054C4.15688 8.84778 4.25716 8.64156 4.53295 8.62192C4.57307 8.6121 4.61318 8.59737 4.64828 8.58755Z" fill="#3B3666"/>
<path d="M4.59312 10.6743C6.35817 10.6743 8.12822 10.6694 9.89327 10.6645C10.4198 10.6645 10.9513 10.6694 11.4778 10.6743C11.4979 10.689 11.5179 10.6989 11.538 10.7136C11.7586 10.7136 11.8789 10.8462 11.914 11.0376C11.9642 11.3273 11.7937 11.4795 11.533 11.563C11.5129 11.563 11.4928 11.563 11.4778 11.563C9.18123 11.563 6.88467 11.563 4.58811 11.563C4.56805 11.563 4.548 11.563 4.53295 11.563C4.29226 11.4894 4.14685 11.3175 4.16189 11.0917C4.17694 10.9149 4.26719 10.7136 4.52292 10.7136C4.54298 10.7038 4.56805 10.689 4.58811 10.6792L4.59312 10.6743Z" fill="#3B3666"/>
<path d="M8.03796 3.22095C6.91476 3.22095 5.79656 3.22095 4.67335 3.22095C4.38252 3.22095 4.17192 3.0491 4.15186 2.80851C4.1318 2.56792 4.30229 2.39116 4.60315 2.34206C4.68338 2.32733 4.76862 2.32733 4.84885 2.32733C6.98997 2.32733 9.13109 2.32733 11.2722 2.32733C11.4327 2.32733 11.6082 2.37152 11.7536 2.44517C11.9441 2.53846 11.9592 2.73486 11.904 2.91162C11.8438 3.10311 11.6984 3.21113 11.4778 3.21113C10.866 3.21113 10.2543 3.21113 9.64756 3.21113C9.11103 3.21113 8.5745 3.21113 8.03295 3.21113L8.03796 3.22095Z" fill="#3B3666"/>
<path d="M19.8918 3.22095C18.7787 3.22095 17.6705 3.22095 16.5573 3.22095C16.2564 3.22095 16.0509 3.05401 16.0258 2.79378C16.0057 2.59738 16.2264 2.38134 16.4921 2.34206C16.5623 2.33224 16.6375 2.33224 16.7077 2.33224C18.8589 2.33224 21.01 2.33224 23.1612 2.33224C23.3016 2.33224 23.457 2.34697 23.5774 2.40589C23.7729 2.50409 23.8431 2.70049 23.7779 2.90671C23.7128 3.12275 23.5423 3.22095 23.3066 3.22095C22.2385 3.22095 21.1755 3.22095 20.1075 3.22095C20.0322 3.22095 19.962 3.22095 19.8868 3.22095H19.8918Z" fill="#3B3666"/>
<path d="M16.5122 12.761C17.6605 12.761 18.8087 12.761 19.957 12.761C19.9771 12.7758 19.9971 12.7856 20.0172 12.8003C20.2328 12.8151 20.3231 12.928 20.3481 13.1342C20.3682 13.3257 20.3281 13.473 20.1425 13.5614C20.0824 13.5908 20.0222 13.6203 19.957 13.6498H19.8968C18.7686 13.6448 17.6404 13.6448 16.5122 13.6448C16.4721 13.6448 16.437 13.6448 16.3968 13.6498C16.1562 13.581 16.0057 13.4043 16.0308 13.1784C16.0509 12.9673 16.1862 12.7758 16.457 12.761C16.4771 12.761 16.4921 12.761 16.5122 12.761Z" fill="#3B3666"/>
<path d="M4.64828 12.761C5.7765 12.761 6.90974 12.761 8.03796 12.761C8.05802 12.7758 8.07808 12.7856 8.09813 12.8003C8.30372 12.8003 8.43911 12.8985 8.47421 13.0949C8.5043 13.3011 8.47922 13.5025 8.24355 13.6007C8.19341 13.6203 8.14828 13.635 8.09813 13.6547C8.07808 13.6547 8.05802 13.6547 8.03796 13.6498C6.90974 13.6498 5.78152 13.6498 4.65329 13.6498C4.61318 13.6498 4.57808 13.6498 4.53796 13.6547C4.29728 13.5712 4.13682 13.3944 4.1669 13.1538C4.19197 12.9476 4.33739 12.7758 4.59312 12.761C4.61318 12.761 4.62822 12.761 4.64828 12.761Z" fill="#3B3666"/>
<path d="M4.59313 7.38461C4.31233 7.39934 4.21204 7.19803 4.1619 6.99181C4.11175 6.78068 4.28224 6.58919 4.52794 6.53027C5.71634 6.53027 6.90975 6.53027 8.09814 6.53027C8.41404 6.58919 8.50932 6.71194 8.47422 7.02127C8.45416 7.23731 8.27364 7.38952 8.03296 7.38952C6.90473 7.38952 5.77149 7.38952 4.64327 7.3797C4.62321 7.3797 4.60817 7.3797 4.58811 7.3797L4.59313 7.38461Z" fill="#3B3666"/>
<path d="M19.957 7.38461C18.8087 7.38461 17.6605 7.38461 16.5122 7.38461C16.4921 7.38461 16.4771 7.38461 16.457 7.38461C16.2013 7.3306 15.9907 7.13911 16.0258 6.9378C16.0609 6.74631 16.1261 6.54009 16.3918 6.53027C17.5802 6.53027 18.7686 6.53027 19.962 6.53027C20.2027 6.54009 20.3281 6.66775 20.3532 6.89361C20.3782 7.14893 20.2579 7.30605 20.0122 7.3797C19.9921 7.3797 19.9771 7.3797 19.957 7.3797V7.38461Z" fill="#3B3666"/>
<path d="M8.09814 6.53519C6.90974 6.53519 5.71633 6.53519 4.52794 6.53519C4.59313 6.52046 4.65831 6.491 4.72851 6.491C5.78654 6.491 6.84456 6.491 7.90258 6.491C7.96777 6.491 8.03295 6.52046 8.09814 6.5401V6.53519Z" fill="#5C595F"/>
<path d="M19.9671 6.53519C18.7787 6.53519 17.5903 6.53519 16.3969 6.53519C16.457 6.52046 16.5122 6.491 16.5724 6.491C17.6554 6.491 18.7385 6.491 19.8267 6.491C19.8718 6.491 19.9219 6.52046 19.9671 6.5401V6.53519Z" fill="#5C595F"/>
<path d="M4.53796 13.65C4.57808 13.65 4.61318 13.65 4.65329 13.6448C4.61318 13.6448 4.57808 13.6448 4.53796 13.65Z" fill="#4D4B51"/>
<path d="M4.64827 8.58755C4.60816 8.59737 4.56804 8.6121 4.53294 8.62192C4.57306 8.6121 4.61317 8.59737 4.64827 8.58755Z" fill="#45444A"/>
<path d="M16.4019 13.65C16.442 13.65 16.4771 13.65 16.5172 13.6448C16.4771 13.6448 16.442 13.6448 16.4019 13.65Z" fill="#4D4B51"/>
<path d="M23.4119 8.62192C23.4119 8.62192 23.3718 8.59737 23.3467 8.58755C23.3668 8.59737 23.3868 8.6121 23.4119 8.62192Z" fill="#45444A"/>
<path d="M11.538 9.47135C11.538 9.47135 11.5781 9.4468 11.5981 9.43207C11.5781 9.4468 11.558 9.45662 11.538 9.47135Z" fill="#3B3666"/>
<path d="M23.4019 9.47135C23.4019 9.47135 23.442 9.4468 23.462 9.43207C23.442 9.4468 23.4219 9.45662 23.4019 9.47135Z" fill="#3B3666"/>
<path d="M4.59313 10.6743C4.59313 10.6743 4.548 10.6989 4.52794 10.7087C4.548 10.6989 4.57307 10.6841 4.59313 10.6743Z" fill="#3B3666"/>
<path d="M11.543 10.7136C11.543 10.7136 11.5029 10.689 11.4828 10.6743C11.5029 10.689 11.5229 10.6989 11.543 10.7136Z" fill="#3B3666"/>
<path d="M16.462 8.58755C16.462 8.58755 16.4219 8.6121 16.3969 8.62192C16.4169 8.6121 16.437 8.59737 16.462 8.58755Z" fill="#45444A"/>
<path d="M23.4119 10.7136C23.4119 10.7136 23.3718 10.689 23.3517 10.6743C23.3718 10.689 23.3918 10.6989 23.4119 10.7136Z" fill="#3B3666"/>
<path d="M16.467 4.42389C16.467 4.42389 16.4219 4.43862 16.4019 4.44844C16.4219 4.43862 16.447 4.43371 16.467 4.42389Z" fill="#737176"/>
<path d="M8.09814 12.8003C8.09814 12.8003 8.05802 12.7758 8.03796 12.761C8.05802 12.7758 8.07808 12.7856 8.09814 12.8003Z" fill="#3B3666"/>
<path d="M11.543 4.44352C11.543 4.44352 11.4979 4.42388 11.4778 4.41406C11.4979 4.42388 11.5229 4.4337 11.543 4.44352Z" fill="#737176"/>
<path d="M20.0172 12.8003C20.0172 12.8003 19.9771 12.7758 19.957 12.761C19.9771 12.7758 19.9971 12.7856 20.0172 12.8003Z" fill="#26262B"/>
<path d="M11.543 8.62192C11.543 8.62192 11.5029 8.59737 11.4828 8.58755C11.5029 8.59737 11.5229 8.6121 11.543 8.62192Z" fill="#45444A"/>
<path d="M8.03296 13.6448C8.03296 13.6448 8.07307 13.6448 8.09313 13.65C8.07307 13.65 8.05302 13.65 8.03296 13.6448Z" fill="#4D4B51"/>
<path d="M4.59814 4.41898C4.59814 4.41898 4.55301 4.43371 4.52794 4.44353C4.55301 4.43371 4.57307 4.4288 4.59814 4.41898Z" fill="#737176"/>
<path d="M23.4069 4.44352C23.4069 4.44352 23.3617 4.42388 23.3417 4.41406C23.3617 4.42388 23.3868 4.4337 23.4069 4.44352Z" fill="#737176"/>
</g>
<defs>
<clipPath id="clip0_1_267">
<rect width="28" height="24" fill="white"/>
</clipPath>
</defs>
</svg>
