<svg width="9" height="9" viewBox="0 0 9 9" fill="none" xmlns="http://www.w3.org/2000/svg">
<g clip-path="url(#clip0_1_28)">
<path d="M2.46 0C2.56 0.05 2.61 0.13 2.65 0.23C2.99 1.08 3.33 1.92 3.67 2.77C3.75 2.97 3.7 3.09 3.5 3.17C3.15 3.31 2.79 3.45 2.44 3.59C2.39 3.61 2.38 3.63 2.38 3.68C2.48 4.76 3.22 5.68 4.26 6C4.44 6.06 4.64 6.08 4.83 6.12C4.89 6.13 4.91 6.1 4.92 6.06C5.06 5.71 5.2 5.36 5.34 5.01C5.42 4.81 5.54 4.76 5.73 4.84C6.59 5.18 7.45 5.53 8.32 5.87C8.47 5.93 8.52 6 8.52 6.17C8.52 7.3 7.65 8.3 6.53 8.47C6.19 8.52 5.85 8.5 5.51 8.47C4.96 8.42 4.42 8.3 3.9 8.08C1.92 7.27 0.66 5.82 0.15 3.73C0.08 3.43 0.06 3.12 0.01 2.82C0.01 2.79 0 2.77 0 2.74C0 2.55 0 2.35 0 2.16C0.01 2.1 0.02 2.05 0.03 1.99C0.22 1.03 0.78 0.4 1.71 0.1C1.86 0.05 2.01 0.03 2.16 0C2.26 0 2.36 0 2.46 0ZM3.13 2.78C3.13 2.78 3.11 2.73 3.1 2.71C2.82 2.01 2.53 1.3 2.26 0.6C2.23 0.53 2.2 0.51 2.13 0.52C1.17 0.67 0.5 1.46 0.51 2.44C0.51 2.84 0.55 3.24 0.65 3.62C1.09 5.44 2.17 6.74 3.87 7.53C4.45 7.8 5.07 7.94 5.7 7.99C5.99 8.01 6.28 8.02 6.57 7.96C7.32 7.8 7.94 7.12 8.02 6.37C8.02 6.31 8.02 6.28 7.95 6.26C7.3 6 6.66 5.74 6.01 5.49C5.92 5.46 5.84 5.42 5.75 5.39C5.74 5.42 5.73 5.44 5.72 5.47C5.59 5.8 5.46 6.13 5.32 6.46C5.27 6.59 5.18 6.65 5.05 6.65C4.62 6.65 4.19 6.57 3.8 6.38C2.59 5.81 1.95 4.85 1.88 3.51C1.88 3.35 1.93 3.27 2.08 3.21C2.43 3.07 2.78 2.93 3.14 2.78H3.13Z" fill="#3B3666"/>
</g>
<defs>
<clipPath id="clip0_1_28">
<rect width="8.52" height="8.51" fill="white"/>
</clipPath>
</defs>
</svg>
