<svg width="31" height="25" viewBox="0 0 31 25" fill="none" xmlns="http://www.w3.org/2000/svg">
<g clip-path="url(#clip0_1_244)">
<path d="M1.52337 0.0131303C1.61504 0.0131303 1.70234 0 1.794 0C10.9342 0 20.0745 0 29.2191 0C29.3108 0 29.3981 0.0087535 29.4897 0.0131303C29.5115 0.0262605 29.5334 0.0437675 29.5552 0.0568978C30.0746 0.00437675 30.6901 0.494573 30.8865 1.01978C30.9171 1.10732 30.9651 1.19048 31 1.27363V16.9949C30.821 17.2575 30.6901 17.577 30.45 17.7609C30.1794 17.9709 29.8127 18.0585 29.4854 18.1942C29.4635 18.1942 29.4417 18.1942 29.4199 18.1898C29.3195 18.1898 29.2191 18.1985 29.1187 18.1985C20.0308 18.1985 10.943 18.1985 1.85511 18.1985C1.74599 18.1985 1.6325 18.1898 1.52337 18.1898C1.50155 18.1898 1.47972 18.1942 1.4579 18.1985C0.67657 18.1373 0.00436497 17.4457 0.00436497 16.6579C0.0130949 11.6728 0.0218248 6.69205 0 1.71569C0 0.866597 0.563081 0.0962885 1.40552 0.0087535C1.4448 0.0087535 1.48409 0.0087535 1.52337 0.0087535V0.0131303ZM29.4941 1.33053C29.4679 1.32178 29.4461 1.31303 29.4199 1.30427C29.3413 1.30427 29.2584 1.29552 29.1798 1.29552C20.0658 1.29552 10.9517 1.29552 1.83765 1.29552C1.75908 1.29552 1.67615 1.29989 1.59758 1.30427C1.55393 1.31303 1.51028 1.32178 1.46226 1.33053C1.40552 1.44433 1.30076 1.55812 1.30076 1.67192C1.29203 6.61327 1.29203 11.559 1.29203 16.5004C1.29203 16.6842 1.2964 16.8461 1.52337 16.8768C1.62813 16.8943 1.73726 16.9249 1.84202 16.9249C10.9517 16.9249 20.0614 16.9249 29.1711 16.9249C29.2758 16.9249 29.385 16.8943 29.4897 16.8768C29.6992 16.7542 29.7254 16.5572 29.7254 16.334C29.7254 13.1521 29.7254 9.97024 29.7254 6.78834C29.7254 5.14268 29.7254 3.49265 29.7254 1.84699C29.7254 1.64128 29.7429 1.42682 29.4941 1.32616V1.33053Z" fill="#3B3666"/>
<path d="M30.3322 23.1049C29.0096 23.1049 27.6914 23.1136 26.3688 23.1136C23.6581 23.1136 20.9431 23.1092 18.2325 23.1049C18.2106 23.1049 18.1888 23.1049 18.167 23.1092C17.9968 23.4156 17.8571 23.7395 17.6563 24.0196C17.2722 24.5536 16.7266 24.8249 16.0805 24.9475C15.2032 25.1182 14.4917 24.8293 13.885 24.2384C13.5794 23.9408 13.3306 23.5732 13.2651 23.1268C13.2258 23.118 13.1866 23.1092 13.1473 23.1049C10.6549 23.1049 8.16685 23.1136 5.67446 23.1136C3.98958 23.1136 2.3047 23.1092 0.624188 23.1049C0.602363 23.1049 0.580538 23.1049 0.558713 23.1092C0.135311 22.9561 -0.00436751 22.7635 0.0174573 22.3652C0.0305522 22.0982 0.222611 21.91 0.554348 21.84C0.580538 21.8312 0.606728 21.8181 0.628553 21.8094C2.26105 21.8094 3.89355 21.8006 5.52605 21.8006C8.08392 21.8006 10.6462 21.8006 13.204 21.8006C13.2259 21.7918 13.2433 21.7831 13.2651 21.7743C13.5008 20.8027 14.4393 19.9711 15.452 19.9536C16.0674 19.9449 16.6523 20.0105 17.1543 20.3913C17.5646 20.702 17.9095 21.0741 18.0535 21.5949C18.0753 21.6649 18.1277 21.7262 18.167 21.7918C18.1888 21.7918 18.215 21.7962 18.2368 21.8006C22.2701 21.8006 26.2989 21.8006 30.3322 21.8006C30.3583 21.8137 30.3802 21.8225 30.4064 21.8356C30.7294 21.805 30.8341 22.0807 31.0044 22.2645V22.6891C30.8036 22.8291 30.6028 22.9648 30.402 23.1049C30.3802 23.1049 30.3583 23.1049 30.3365 23.1005L30.3322 23.1049ZM16.8968 22.4659C17.0277 21.8794 16.3206 21.2535 15.7139 21.2229C14.9762 21.1879 14.4393 21.8663 14.4219 22.4571C14.4044 23.0611 15.0548 23.7439 15.6266 23.722C16.3337 23.6957 16.9623 23.1749 16.9012 22.4659H16.8968Z" fill="#3B3666"/>
<path d="M13.1429 23.1093C13.1822 23.118 13.2215 23.1268 13.2608 23.1311C13.2215 23.1224 13.1822 23.1136 13.1429 23.1093Z" fill="#454449"/>
<path d="M29.4242 18.1898C29.4461 18.1898 29.4679 18.1898 29.4897 18.1942C29.4679 18.1942 29.4461 18.1942 29.4242 18.1898Z" fill="#4D4B50"/>
<path d="M1.46227 18.1941C1.48409 18.1941 1.50591 18.1898 1.52774 18.1854C1.50591 18.1854 1.48409 18.1898 1.46227 18.1941Z" fill="#4D4B50"/>
<path d="M0.624192 21.8094C0.598002 21.8181 0.571813 21.8312 0.549988 21.84C0.576178 21.8312 0.602367 21.8181 0.624192 21.8094Z" fill="#6B686D"/>
<path d="M13.2608 21.7787C13.2608 21.7787 13.2215 21.7962 13.1997 21.805C13.2215 21.7962 13.2389 21.7875 13.2608 21.7787Z" fill="#6B686D"/>
<path d="M18.2368 21.8094C18.215 21.8094 18.1888 21.805 18.167 21.8006C18.1888 21.8006 18.215 21.805 18.2368 21.8094Z" fill="#6B686E"/>
<path d="M0.554352 23.1136C0.554352 23.1136 0.598001 23.1136 0.619826 23.1093C0.598001 23.1093 0.576177 23.1093 0.554352 23.1136Z" fill="#454449"/>
<path d="M29.5552 0.0568901C29.5552 0.0568901 29.5115 0.0262528 29.4897 0.0131226C29.5115 0.0262528 29.5334 0.0437598 29.5552 0.0568901Z" fill="#141519"/>
<path d="M18.167 23.1136C18.167 23.1136 18.2106 23.1136 18.2325 23.1093C18.2106 23.1093 18.1888 23.1093 18.167 23.1136Z" fill="#454449"/>
<path d="M30.3322 23.1049C30.3322 23.1049 30.3758 23.1049 30.3976 23.1092C30.3758 23.1092 30.354 23.1092 30.3322 23.1049Z" fill="#454449"/>
<path d="M1.52338 16.8811C1.62377 16.8811 1.72416 16.8724 1.82456 16.8724C10.9473 16.8724 20.0701 16.8724 29.1929 16.8724C29.2933 16.8724 29.3937 16.8768 29.4941 16.8811C29.3893 16.8986 29.2802 16.9293 29.1754 16.9293C20.0658 16.9293 10.9561 16.9293 1.84638 16.9293C1.74162 16.9293 1.6325 16.8986 1.52774 16.8811H1.52338Z" fill="#5B595E"/>
<path d="M1.59322 1.2999C1.54957 1.30865 1.50592 1.3174 1.4579 1.32616C1.50155 1.3174 1.5452 1.30865 1.59322 1.2999Z" fill="#A9A7AB"/>
<path d="M11.8683 4.66561C11.9644 4.13164 12.4576 4.07037 12.7981 4.25857C13.2171 4.49054 13.6012 4.78816 13.9897 5.06827C14.8671 5.69852 15.7401 6.33752 16.6218 6.96778C17.3595 7.49299 18.1059 8.00069 18.8392 8.53028C19.2844 8.84978 19.2539 9.33998 18.7825 9.67699C17.1631 10.8412 15.5437 12.001 13.9199 13.1609C13.5838 13.4016 13.2389 13.6248 12.9072 13.8699C12.3878 14.2551 11.8378 13.9268 11.8422 13.3228C11.8422 10.4648 11.8509 7.60241 11.8553 4.74439C11.8596 4.71813 11.8683 4.69187 11.8727 4.66561H11.8683ZM17.3857 9.0905C15.9671 8.07947 14.5703 7.08595 13.1691 6.08805V12.1017C14.5877 11.0907 15.9758 10.0972 17.3857 9.0905Z" fill="#3B3666"/>
</g>
<defs>
<clipPath id="clip0_1_244">
<rect width="31" height="25" fill="white"/>
</clipPath>
</defs>
</svg>
