<svg width="128" height="212" viewBox="0 0 128 212" fill="none" xmlns="http://www.w3.org/2000/svg">
<g clip-path="url(#clip0_1_665)">
<path d="M130.267 4.11189C131.511 3.4197 132.756 2.7275 134 2.03531C133.69 2.97827 133.089 3.67668 132.446 4.33364C129.479 7.37183 125.801 9.2619 121.91 10.7706C117.374 12.5301 112.654 13.4586 107.8 13.7197C106.487 13.8213 105.174 13.8295 103.862 13.7135C103.392 13.6928 102.923 13.67 102.456 13.6492C102.017 13.4959 101.527 13.7757 101.244 13.5809C101.42 13.5933 101.769 13.6161 102.028 13.8627C104.254 14.3705 106.502 14.7311 108.792 14.7559C109.985 14.8699 111.18 14.8658 112.375 14.758C113.167 14.7621 113.938 14.6399 114.738 14.3083C114.563 15.0253 114.023 15.1849 113.498 15.3258C110.529 16.1237 107.5 16.3683 104.434 16.4097C98.3146 16.4947 92.5238 14.9943 86.828 12.9322C83.9357 11.8856 81.0248 10.8722 77.9485 10.4701C76.646 10.3002 75.3414 10.3188 74.041 10.408C73.5035 10.4453 72.9618 10.5675 72.844 11.2887C72.8026 11.5395 72.5401 11.7343 72.2672 11.8338C72.1576 11.6866 72.1245 11.5167 72.1576 11.3447C72.4532 9.81109 71.4526 9.11268 70.7228 8.6526C71.4113 9.00077 72.0418 9.8256 72.1183 11.0421C72.1349 11.3074 72.046 11.6017 72.2816 11.8234C72.5649 12.8866 72.9866 13.7922 74.039 14.3891C75.4324 15.1808 76.7369 16.1341 78.0622 17.0439C78.3495 17.2408 78.5646 17.1123 78.8292 17.0563C80.1503 16.7766 81.4693 16.6211 82.7883 17.0999C85.6723 18.1485 86.8549 20.6251 85.999 23.7317C85.6227 25.0995 84.9239 26.3263 84.434 27.6444C83.8716 29.1573 83.6525 30.7033 83.6421 32.2908C83.6359 33.2172 83.4292 34.1166 83.4106 35.0472C83.3775 36.6409 83.6628 38.2035 83.6794 39.7848C83.7083 42.3587 82.5857 43.9068 80.2143 44.628C78.8374 45.0467 78.2069 45.4259 77.382 46.5513C75.8728 48.6113 73.7867 49.4568 71.3265 49.4817C69.9103 49.4962 68.5251 49.7221 67.1276 49.89C66.7823 49.9314 66.559 50.0931 66.3543 50.3335C60.9212 56.7373 55.459 63.1287 51.5123 70.6185C49.6951 74.067 48.4257 77.729 47.8096 81.5983C47.8034 81.6314 47.791 81.6646 47.7848 81.6977C47.5532 83.0697 47.7744 83.3205 49.172 83.4344C53.2428 83.764 57.0758 84.9991 60.8323 86.5244C64.5598 88.0373 68.1365 89.8321 71.434 92.1594C75.8355 95.266 80.0138 98.613 83.1604 103.073C87.4565 109.164 90.3158 115.86 91.703 123.198C92.2778 126.232 92.8339 129.273 93.0654 132.35C93.2908 135.361 93.4748 138.383 93.3259 141.409C92.9786 148.474 91.9242 155.408 89.4268 162.065C88.8107 163.708 88.0974 165.314 86.9624 166.674C86.5572 167.159 86.8384 167.917 86.2037 168.33C85.7612 165.165 83.9192 162.778 82.0771 160.243C81.8766 160.985 81.6223 161.576 80.8801 161.787C80.1668 161.99 79.497 161.918 78.9119 161.509C78.5025 161.223 78.3351 161.393 78.1056 161.694C77.9174 161.94 77.7376 162.173 77.6466 162.486C75.6495 169.304 73.6399 176.118 71.6345 182.932C70.3176 187.409 69.0089 191.887 67.6692 196.355C67.51 196.884 67.4811 197.334 67.7209 197.843C67.9173 198.258 68.184 198.411 68.6058 198.33C70.8882 197.901 73.2223 198.04 75.5089 197.702C77.7314 197.373 79.9973 197.406 82.197 196.898C82.5381 196.82 82.8565 196.735 83.1356 196.515C84.5683 195.396 86.2099 195.037 87.9858 195.213C90.1979 195.431 92.1909 196.196 93.8469 197.709C95.2052 198.95 95.7841 200.54 95.6208 202.359C95.3789 205.055 94.0082 207.053 91.7175 208.446C91.1779 208.773 90.5845 208.672 90.0098 208.684C89.6914 208.69 89.4495 208.67 89.2552 209.018C88.023 211.246 85.9039 211.805 83.5967 211.975C82.1495 212.083 80.7436 211.836 79.3564 211.426C77.3282 210.825 75.4014 209.948 73.4125 209.246C71.7276 208.651 69.9641 208.351 68.1758 208.245C66.7079 208.104 65.24 208.11 63.7721 208.243C62.7095 208.32 61.6489 208.454 60.5862 208.465C58.0082 208.489 56.5527 206.363 57.4913 203.959C58.1219 202.341 59.2403 201.043 60.6193 200.061C62.0479 199.041 62.7508 197.613 63.1126 196.049C65.7321 184.766 69.2673 173.755 72.8088 162.745C72.8895 162.494 72.9494 162.235 73.0259 161.951C71.5746 161.905 70.4499 161.522 70.4044 159.831C70.4024 159.748 70.3259 159.617 70.2556 159.59C68.982 159.122 69.1846 158.208 69.6126 157.213C64.3676 158.339 59.6001 156.722 54.8037 155.043C54.8512 155.501 54.9401 155.928 54.9318 156.355C54.907 157.81 53.6955 158.788 52.3579 158.305C51.6591 158.053 51.595 158.353 51.5165 158.817C51.012 161.804 49.8315 164.566 48.8185 167.397C45.5168 176.603 41.0801 185.291 36.8522 194.072C35.9674 195.91 35.5084 197.51 36.8626 199.365C37.6585 200.457 37.8901 201.897 38.0162 203.284C38.1485 203.99 38.1299 204.697 38.0265 205.404C37.6089 207.004 36.7881 207.636 34.8013 207.609C32.829 207.582 30.8608 207.391 28.9092 207.072C28.5722 207.016 28.2249 207.024 27.8817 207.001C26.6371 206.865 25.3925 206.89 24.1479 206.991C21.7621 206.763 19.6637 207.685 17.5425 208.589C15.0781 209.64 12.5786 210.5 9.80827 210.367C7.29015 210.247 5.48322 209.192 4.45158 206.896C4.23036 206.405 3.91818 206.249 3.47369 206.021C2.16087 205.352 1.24914 204.255 0.585499 202.921C-0.351044 201.033 -0.142234 199.255 1.10029 197.646C2.89688 195.319 5.29716 193.953 8.21636 193.533C8.92755 193.444 9.63667 193.415 10.3458 193.551C11.15 193.589 11.8716 193.904 12.5683 194.262C15.8183 195.937 19.2419 196.971 22.9095 197.122C24.0197 197.253 25.1279 197.236 26.2381 197.128C28.7851 197.53 30.0463 196.339 31.1296 194.02C35.8971 183.813 40.2552 173.442 44.1771 162.883C45.1074 160.382 46.1308 157.914 47.1707 155.278C46.4988 155.278 45.9324 155.251 45.37 155.286C44.8056 155.321 44.2743 155.203 43.7574 155.014C42.9801 154.728 42.3309 154.266 42.2172 153.377C42.1097 152.54 42.5831 151.947 43.2054 151.46C43.3667 151.334 43.5403 151.224 43.7884 151.05C42.6968 150.36 41.6176 149.736 40.7328 148.849C39.1801 147.29 37.9748 145.579 38.2271 143.222C38.2684 142.831 38.0679 142.576 37.8591 142.3C33.1185 136.043 30.2385 128.985 28.9878 121.261C28.628 119.035 28.2538 116.792 28.2559 114.519C28.1442 113.263 28.1484 112.007 28.2559 110.751C28.4957 103.098 30.466 95.9685 34.6711 89.5191C35.802 87.7845 36.9907 86.0955 38.7336 84.9079C38.9858 84.7359 39.0003 84.5473 39.0396 84.3131C40.0195 78.2658 42.6762 72.9085 45.8166 67.7482C49.0438 62.4448 52.7962 57.5207 56.6189 52.6463C56.807 52.4059 56.9931 52.1634 57.2846 51.7842C54.9504 52.2173 52.8872 52.9903 50.8177 53.7281C48.5249 54.5467 46.197 55.2389 43.8318 55.813C43.286 55.9456 42.7299 56.0099 42.1945 55.9208C41.0594 55.7301 40.4702 55.2369 40.7493 53.9851C41.5101 50.5677 42.2358 47.1502 44.0034 43.9172C43.2075 43.9172 42.5997 43.9234 41.9918 43.9172C40.125 43.8965 37.981 42.6572 38.684 39.8635C39.0954 38.2242 39.3497 36.5663 39.2298 34.8627C39.1264 33.4099 38.8659 32.0028 38.2333 30.6805C37.95 30.0857 37.6048 29.5324 37.1251 29.0785C36.2175 28.2226 36.0253 27.4102 36.6393 26.3326C37.4787 24.8611 38.6426 23.7938 40.4682 23.8311C40.8651 23.8394 40.9002 23.6343 40.9995 23.3752C42.1159 20.509 43.3832 17.734 45.7546 15.6429C46.0585 15.3735 46.166 15.1041 45.9075 14.7539C45.1116 13.67 45.3866 12.5198 45.7525 11.3944C47.0281 7.47338 50.6461 4.916 54.7644 4.98853C56.408 5.01755 57.6009 5.80714 58.1674 7.34697C58.3369 7.80912 58.4795 8.02051 59.0274 8.14278C61.3284 8.6526 63.6274 9.20801 65.8003 10.1613C66.3792 10.4142 66.7678 10.381 66.956 9.6826C67.0449 9.35101 67.2826 8.98419 67.6031 8.91787C68.6637 8.70027 69.2322 7.59359 70.3197 7.46509C70.4727 7.44644 70.5491 7.36354 70.6153 7.22676C71.9922 4.41654 74.5889 3.13785 77.2724 2.03738C81.1736 0.431242 85.2816 -0.163548 89.4702 0.0374785C94.9179 0.298606 100.062 1.68714 104.728 4.61757C104.349 5.23101 103.938 4.77093 103.593 4.60928C102.472 4.08702 101.374 3.5171 100.182 3.16479C95.811 1.68092 91.3309 0.928627 86.7061 1.13173C82.4265 1.32032 78.3371 2.21561 74.5765 4.3668C73.4291 5.02376 72.4388 5.86517 71.5663 6.84751C71.2045 7.24542 71.312 7.57908 71.6883 7.90238C72.292 8.42049 72.8109 9.01528 73.212 9.70747C73.4125 9.89192 73.6524 9.89606 73.8922 9.83596C76.6667 9.13341 79.3357 9.79244 82.0006 10.4639C85.538 11.3571 88.8707 12.8887 92.4039 13.7985C95.168 14.5114 97.9425 15.1497 100.806 15.3093C103.361 15.4979 105.917 15.7445 107.697 15.6761C104.831 15.7155 101.348 14.9383 97.9901 13.5436C96.7703 13.0379 95.4699 12.8783 94.2046 12.5633C92.5362 12.1509 90.8843 11.6784 89.2573 11.125C88.9037 11.0048 88.5233 10.9095 88.3373 10.524C88.7177 9.89192 89.2655 10.2214 89.708 10.3479C92.284 11.0856 94.9013 11.612 97.5456 12.0452C103.878 13.0814 110.167 13.0109 116.417 11.4815C122.262 10.0619 127.689 7.79668 132.34 3.59171C131.602 3.79481 131.137 4.27354 130.498 4.27561C130.397 4.25282 130.32 4.19479 130.267 4.10775V4.11189Z" fill="#030305"/>
<path d="M105.496 5.16475C105.102 5.1088 105.776 6.09942 105.037 5.66006C102.739 4.2964 100.206 3.64151 97.6154 3.15656C97.818 2.87264 98.1302 2.86849 98.4321 2.83948C99.075 2.73171 99.6932 3.07573 100.338 2.94517C101.56 3.29334 102.676 3.89227 103.822 4.42282C104.095 4.54924 104.347 4.93678 104.729 4.61763C105.029 4.73783 105.315 4.8829 105.499 5.16475H105.496Z" fill="#1D587C"/>
<path d="M63.7717 208.241C65.2396 207.94 66.7075 207.924 68.1753 208.243C66.7075 208.243 65.2396 208.243 63.7717 208.241Z" fill="#BCBCBC"/>
<path d="M24.1454 206.987C25.3921 206.707 26.6367 206.693 27.8792 206.997C26.6346 206.993 25.39 206.991 24.1454 206.987Z" fill="#4B4C4C"/>
<path d="M112.375 14.7581C111.18 15.042 109.987 15.0254 108.792 14.756C109.987 14.756 111.18 14.756 112.375 14.7581Z" fill="#030305"/>
<path d="M26.2356 197.126C25.1254 197.429 24.0152 197.375 22.907 197.12C24.0172 197.122 25.1254 197.124 26.2356 197.126Z" fill="#5C5D5D"/>
<path d="M10.3433 193.549C9.63419 193.543 8.92299 193.537 8.21387 193.531C8.92713 193.247 9.63625 193.267 10.3433 193.549Z" fill="#5A5A5A"/>
<path d="M38.024 205.397C38.0199 204.691 38.0178 203.984 38.0137 203.277C38.2949 203.982 38.3362 204.689 38.024 205.397Z" fill="#696969"/>
<path d="M102.027 13.8628C101.682 13.7902 101.335 13.7177 100.989 13.6431C101.494 13.4503 101.98 13.3882 102.455 13.6472C102.313 13.7177 102.17 13.7902 102.027 13.8607V13.8628Z" fill="#030305"/>
<path d="M61.727 147.867C61.3032 148.383 61.6402 148.836 61.8594 149.286C62.461 150.523 63.5608 151.346 64.4457 152.345C64.9646 153.025 65.6717 153.549 66.0604 154.337C66.1989 154.617 66.4387 154.915 66.2857 155.201C66.0914 155.572 65.6799 155.439 65.3471 155.396C61.5637 154.909 57.9375 153.856 54.4849 152.246C52.5828 151.359 50.7966 150.225 48.9152 149.315C41.888 145.914 38.4975 139.637 35.5803 132.916C34.7472 130.997 34.7162 128.983 34.4867 126.966C33.9864 122.587 33.2814 118.239 33.3475 113.8C33.4261 108.561 34.4557 103.537 36.215 98.6358C36.9262 96.6546 37.8235 94.7521 38.7063 92.8434C38.9358 92.3439 39.1963 91.8527 39.6159 91.4735L39.6118 91.4984C40.077 90.6072 40.139 89.486 41.0942 88.8705C42.0948 88.2736 43.0148 88.3586 44.001 89.0073C44.5819 89.3907 45.2435 89.1068 45.8161 88.7109C46.6514 88.1369 46.9532 88.3027 47.0959 89.285C47.2034 90.0207 47.2406 90.7771 47.7347 91.4693C47.7347 89.5544 47.7347 87.6415 47.7347 85.7266C47.7347 83.793 47.9952 83.6252 49.9903 84.251C53.2733 84.9432 56.236 86.4893 59.2503 87.8612C61.9379 89.084 64.4581 90.6445 66.939 92.2631C70.2303 94.4143 73.2695 96.8784 76.1928 99.5C77.9625 101.085 79.296 102.988 80.4248 105.054C83.1662 110.072 85.7588 115.161 87.729 120.539C89.6062 125.665 91.0307 130.9 91.3718 136.389C91.4338 137.388 91.4049 138.476 92.1161 139.341C92.2029 148.509 90.3919 157.284 86.6581 165.924C85.7174 163.509 84.4521 161.559 82.6018 159.895C83.8402 159.3 84.9152 158.641 85.614 157.535C85.8704 157.13 86.1578 156.72 86.2963 156.27C86.5361 155.491 86.8462 154.789 87.2845 154.078C88.0205 152.882 87.4416 151.709 86.6767 150.658C86.7904 151.64 87.5367 152.571 86.9248 153.607C85.8208 154.165 84.6486 153.906 83.5135 153.833C81.9402 153.734 80.4083 153.352 78.9817 152.664C78.1837 152.281 77.427 152.067 76.6207 152.577C76.507 152.546 76.323 152.457 76.2941 152.492C76.1349 152.689 76.3727 152.82 76.4181 152.988C76.321 153.595 75.8165 153.439 75.4609 153.444C74.7332 153.452 74.1026 153.618 73.6375 154.214C73.2446 154.722 72.7526 154.637 72.2378 154.461C68.992 153.354 66.0417 151.821 64.0901 148.834C63.9764 148.662 63.8234 148.515 63.7221 148.337C63.2239 147.462 62.5912 147.197 61.7312 147.86L61.727 147.867Z" fill="#1E5F84"/>
<path d="M57.7617 7.87964C57.892 8.33558 58.0201 8.79358 58.1504 9.24952C58.4026 8.3335 58.9939 8.66095 59.5273 8.79358C65.6034 10.3189 71.0966 13.1478 76.4078 16.3829C76.4946 16.6274 76.3416 16.7621 76.17 16.8802C76.0005 16.9963 75.7896 17.0232 75.6056 17.1061C75.1074 17.3341 74.4582 17.6118 74.5678 18.1962C74.6815 18.7931 75.3741 18.3309 75.7834 18.4781C77.4746 18.0097 79.1657 17.5393 80.9437 17.5828C81.597 17.5994 82.2503 17.6305 82.8168 18.0242C82.4137 18.762 82.5129 19.4666 82.9326 20.1671C83.1621 20.5484 83.3295 20.965 83.4846 21.3857C83.9249 22.5774 84.0717 23.6488 83.3233 24.8902C82.2359 26.6953 81.9609 28.832 81.4585 30.8671C81.2766 31.6028 81.8306 32.2598 81.5888 32.981C81.1008 33.1116 81.2208 33.497 81.2704 33.8183C81.6218 36.1394 81.1215 38.3258 80.1002 40.3755C79.48 41.6189 78.8143 42.8292 78.4442 44.1742C78.1238 43.5338 78.3429 42.8292 78.2044 42.1598C77.8901 40.6407 76.9784 39.4802 76.0005 38.3756C75.6532 37.9839 75.6821 37.731 75.8661 37.3103C77.1955 34.2659 77.3567 31.0578 77.0859 27.8041C77.0425 27.2756 76.9763 26.9813 77.6917 27.0663C78.3057 27.1409 78.9073 26.9212 79.5172 26.3533C78.4277 26.5585 77.458 26.7492 76.5504 25.8C77.4994 25.7109 78.3264 25.6632 78.9528 24.8695C78.2499 24.971 77.6606 25.0788 77.0673 25.1348C76.8213 25.1575 76.4264 25.2239 76.4264 24.8301C76.4264 24.4736 76.7923 24.6415 76.997 24.6187C77.6482 24.5462 78.2809 24.4467 78.8804 23.798C78.4587 23.8602 78.1858 23.9224 77.9087 23.939C76.8771 23.9991 75.9798 23.912 75.4423 22.7618C74.9255 21.6531 73.9889 20.8593 72.9035 20.277C72.4632 19.7879 71.8264 19.7215 71.2516 19.591C70.5446 19.4314 69.945 19.9972 69.8954 20.7474C69.8727 21.0956 70.1001 21.5142 69.5977 21.7111C67.0114 22.2541 64.6131 23.2302 62.4672 24.7969C60.4514 26.2684 58.8802 28.0859 57.985 30.7428C57.4165 28.5584 55.9506 27.7647 54.152 27.4331C53.7034 27.3502 53.6703 27.2341 53.8481 26.8466C54.6854 25.0394 54.9583 23.0975 55.1774 21.1432C55.2849 19.8252 55.2829 18.5071 55.1774 17.187C54.9686 15.3197 54.5221 13.5436 53.2113 11.9851C53.1679 12.9509 52.649 12.8079 52.1921 12.468C51.6463 12.0618 51.1398 11.5769 50.995 10.8494C50.9165 10.4619 50.749 10.6505 50.5898 10.7831C50.4844 10.8681 50.3872 10.9696 50.2611 11.0277C49.9675 11.1603 49.6099 11.2743 49.4093 10.9945C49.1819 10.6754 49.5044 10.4267 49.7298 10.2298C50.6167 9.45469 51.6235 8.87026 52.7151 8.44542C54.0321 7.93352 55.4214 7.70556 56.8107 7.49831C57.1932 7.44236 57.5756 7.41956 57.7638 7.87342L57.7617 7.87964Z" fill="#A1A1A9"/>
<path d="M44.5343 52.1075C46.2751 52.4039 47.9373 51.8485 49.6223 51.6039C54.4993 50.9014 59.1345 49.3574 63.6745 47.4694C65.8619 46.5596 67.8445 45.2602 70.0339 44.3504C70.9705 43.9629 71.6217 43.9919 72.306 44.6654C72.4446 44.8022 72.6203 44.9037 72.8084 45.0447C72.6017 43.2914 71.3054 42.2863 69.6267 42.5391C69.6577 42.9867 70.1704 42.8997 70.4454 43.3929C67.1912 44.0665 63.9702 44.2799 60.7243 44.2882C60.0338 44.0851 59.3102 44.34 58.6197 44.1432C58.3551 44.1245 58.0904 44.1079 57.8258 44.0893C58.0987 43.0696 59.0787 43.5173 59.6079 43.1836C55.3614 42.993 51.0385 42.7505 46.7279 42.3505C45.4295 42.2303 44.1126 42.4417 42.8225 42.1267C41.9356 41.9111 41.8095 41.6645 42.3305 40.9495C45.7376 36.2617 49.6946 32.1292 54.5179 28.8734C54.6895 28.7574 54.8529 28.631 55.0513 28.5605C55.1547 28.4983 55.2581 28.4963 55.3635 28.5543C56.6494 29.091 57.309 30.1045 57.5963 31.4308C57.8527 32.6059 58.1814 33.7644 58.7686 34.8234C60.3584 37.6896 62.8476 39.188 66.0479 39.59C66.9928 39.4512 67.919 39.4491 68.7832 39.9423C71.016 40.1081 73.1185 39.5962 75.1384 38.6927C75.3596 38.5932 75.4609 38.5372 75.6325 38.7569C76.5959 39.9817 77.5532 41.2024 77.6834 42.8458C77.7744 43.5463 77.8178 44.2468 77.6565 44.9452C76.323 47.2684 74.4127 48.715 71.6755 48.9056C70.985 49.0963 70.2614 48.8331 69.5729 49.0548C64.6752 49.5584 59.8457 50.3688 55.1444 51.9003C51.0963 53.2184 47.0008 54.3893 42.8577 55.382C42.0845 55.5664 41.456 55.5043 41.5056 54.4618C41.9356 53.7158 42.4835 53.0588 43.0086 52.3832C43.2794 52.035 43.5895 51.8091 44.0464 51.8423C44.2511 51.8526 44.4144 51.9459 44.5406 52.1075H44.5343Z" fill="white"/>
<path d="M39.6139 91.4735C39.5312 92.3626 38.9358 93.0382 38.5719 93.7946C36.674 97.7489 35.2806 101.859 34.3916 106.153C33.5708 110.123 33.4736 114.146 33.7052 118.156C33.8809 121.186 34.466 124.191 34.8691 127.206C34.8836 127.308 34.896 127.414 34.8898 127.515C34.6603 131.204 36.3908 134.282 37.9599 137.407C39.6904 140.853 42.1031 143.792 44.83 146.478C45.5701 147.206 46.3247 147.881 47.437 148.171C48.3632 148.414 49.1757 149.108 50.0316 149.616C54.4993 152.268 59.2668 154.121 64.3899 155.021C64.9543 155.12 65.5456 154.988 66.2195 155.425C65.8598 154.059 64.7868 153.415 64.4457 152.341C66.2919 153.597 68.0699 154.975 70.2283 155.682C71.2124 156.003 72.2233 156.196 73.2653 156.051C73.3976 156.032 73.5754 155.993 73.6416 155.897C74.5637 154.577 75.7028 155.321 76.7737 155.568C77.5366 155.744 78.2271 155.696 78.7378 155.05C78.9569 154.772 79.1657 154.741 79.4366 154.876C81.2311 155.761 83.1538 155.767 85.0848 155.707C85.5437 156.635 84.8139 157.004 84.2454 157.398C83.8733 157.657 83.3812 157.696 82.9471 157.609C80.8982 157.197 79.0128 157.922 77.1045 158.43C75.1177 158.958 73.133 159.153 71.109 158.687C70.6997 158.594 70.311 158.486 70.0112 158.171C70.0588 157.508 70.6149 157.052 70.7885 156.382C68.5537 157.389 66.3126 156.946 64.1232 156.631C59.7278 155.997 55.4648 154.855 51.4499 152.89C48.0324 151.218 45.1732 148.81 42.593 146.068C38.8717 142.111 35.7437 137.732 33.5667 132.717C31.584 128.147 30.4035 123.379 29.6903 118.444C28.702 111.601 29.7978 104.99 31.4186 98.3955C32.6177 93.5107 35.324 89.5192 38.7352 85.8842C38.6319 86.937 38.7208 87.969 38.8076 88.999C38.882 89.8798 38.9461 90.7793 39.6159 91.4714L39.6139 91.4735Z" fill="#223E6C"/>
<path d="M33.8623 194.229C34.1332 194.138 34.404 194.047 34.6748 193.953C35.0325 193.609 35.3984 193.284 35.9463 193.564C35.3199 195.309 34.4495 197.006 34.7989 198.989C35.4046 198.882 35.1689 198.293 35.6176 198.051C36.4983 200.401 37.4224 202.707 37.1661 205.277C37.0689 206.262 36.3556 206.556 35.4997 206.626C33.8768 206.761 32.2787 206.467 30.6723 206.318C30.0913 206.264 29.5083 206.22 28.9274 206.17C27.3996 206.038 25.8717 206.025 24.346 206.179C21.7824 205.86 19.4441 206.664 17.1451 207.646C15.0033 208.177 12.8015 208.307 10.6204 208.508C7.6288 208.784 6.67158 207.625 7.14916 204.643C7.52749 202.281 8.58808 200.337 10.5831 198.979C11.4473 198.393 12.1957 197.711 12.8077 196.871C13.3121 196.762 13.6863 197.472 14.2342 197.099C14.4306 196.38 14.9785 196.768 15.3155 196.83C17.8109 197.294 20.2876 197.86 22.6672 198.766C24.4349 199.437 26.2108 200.051 28.0797 200.38C28.5656 200.465 28.9543 200.38 29.3202 200.073C29.9094 199.58 30.3601 198.981 30.7074 198.297C31.1126 197.499 31.522 196.693 31.7763 195.839C32.0967 194.764 32.6343 194.076 33.8623 194.223V194.229Z" fill="white"/>
<path d="M98.5106 3.12131C98.2129 3.13374 97.9131 3.14618 97.6134 3.15861C96.6582 3.15447 95.701 3.18762 94.75 3.17519C93.7804 3.16276 94.2187 3.54616 94.3985 3.93163C94.2228 4.50569 94.6714 4.72952 95.0146 4.99272C96.1186 5.83827 97.3777 6.39369 98.6657 6.87864C103.468 8.68166 108.451 9.36971 113.547 9.02154C117.572 8.7459 121.49 7.8361 125.275 6.41648C126.483 5.96469 127.765 5.68284 128.852 4.93676C129.255 4.52849 129.913 4.59688 130.299 4.15545C131.137 3.80728 131.974 3.46119 133.066 3.00732C132.079 4.29431 131.044 5.10877 129.964 5.86107C125.929 8.67544 121.502 10.6007 116.692 11.6224C115.61 11.8214 114.521 11.9126 113.423 11.9105C108.058 11.9064 102.689 12.0784 97.3715 11.0836C94.1897 10.4888 91.0472 9.71788 87.8944 9.00288C87.2556 8.85781 86.6126 8.74383 85.9634 8.67129C85.767 8.6485 85.5189 8.63192 85.4859 8.91999C85.4631 9.12723 85.645 9.21427 85.8001 9.27645C86.3438 9.49198 86.8855 9.7158 87.454 9.8588C87.8717 9.96449 88.2355 10.1324 88.403 10.5676C91.2746 11.4981 94.2186 12.1634 97.1172 12.9757C99.4182 13.6203 101.628 14.6233 104.014 14.9964C105.67 15.2554 107.339 15.4357 109.048 15.6554C106.255 16.1528 103.512 15.8544 100.77 15.5497C95.364 13.8752 90.0176 11.9976 84.4542 10.8743C81.8699 10.352 79.2774 9.88989 76.6518 9.64948C75.831 9.57488 75.0082 9.67643 74.2019 9.85673C73.7574 9.95621 73.3232 10.0391 72.9201 9.7386C72.5893 9.03604 72.091 8.45783 71.4729 8.01848C70.9767 7.66409 70.8609 7.32835 71.233 6.8434C71.6713 7.13355 72.0703 6.98847 72.4859 6.76465C77.4105 4.13058 82.7093 3.07571 88.2438 2.77935C91.2354 2.6177 94.2207 2.6778 97.2102 2.63221C97.6712 2.62599 98.2708 2.43947 98.5065 3.11716L98.5106 3.12131Z" fill="#1E5F84"/>
<path d="M81.9898 199.338C82.7817 199.429 83.5425 199.624 84.2475 200.009C84.6382 200.782 85.2109 201.408 85.7567 202.071C87.1336 203.744 87.3899 205.752 87.0757 207.822C86.9496 208.659 86.3376 209.296 85.6285 209.764C84.6651 210.4 83.4867 210.299 82.7341 209.412C82.0333 208.585 81.1422 208.119 80.1767 207.739C76.3168 206.228 72.3433 205.124 68.2187 204.699C66.0417 204.475 63.8441 204.218 61.6402 204.492C61.2887 204.535 60.9393 204.546 60.7099 204.212C60.4618 203.853 60.6664 203.553 60.8835 203.277C62.2811 201.516 62.9634 199.398 63.6932 197.332C64.0653 196.277 64.4395 195.545 65.6696 195.657L65.6448 195.618C65.9156 195.352 66.2526 195.209 66.6124 195.137C67.0072 195.058 67.2905 195.151 67.1499 195.657C66.9183 196.418 67.0651 197.242 66.5772 197.988C66.3271 198.37 66.755 198.83 67.2801 198.952C68.1298 199.151 68.9485 198.871 69.7796 198.782C71.0966 198.89 72.4135 198.915 73.7284 198.766C75.7793 198.54 77.8323 198.341 79.879 198.082C81.2787 197.904 82.5356 197.387 83.8133 196.718C86.6188 195.243 91.1775 196.2 93.3979 198.502C94.8926 200.053 95.0746 201.899 94.4626 203.858C94.1339 204.91 93.5922 205.874 92.7508 206.631C92.2608 206.684 92.3021 206.284 92.2732 206.013C91.9652 203.217 90.4621 201.248 88.1094 199.829C87.6256 199.537 87.0199 199.35 86.778 198.743C86.6147 198.15 87.0199 197.302 85.9448 197.048C86.0709 197.423 86.1309 197.763 86.1185 198.117C86.0833 199.234 85.7402 199.483 84.7023 199.168C84.0883 198.981 83.4536 198.863 82.8272 198.716C81.9175 198.589 81.0058 198.589 80.0961 198.716C80.063 198.718 80.0279 198.718 79.9948 198.724C79.3828 198.83 78.7502 198.884 78.2685 199.35C78.8184 199.858 79.3539 199.155 79.9018 199.331C80.5964 199.228 81.2931 199.22 81.9878 199.336L81.9898 199.338Z" fill="white"/>
<path d="M72.9552 22.5525C74.1585 22.9007 75.4775 23.1349 75.2025 24.9027C76.199 26.0073 76.1266 27.4518 76.4285 28.7781C76.5567 29.7563 76.5381 30.7345 76.4367 31.7127C76.199 33.6629 75.8227 35.5778 75.066 37.4057C74.7125 38.2595 74.1915 38.7942 73.2446 39.0077C72.2399 39.2336 71.233 39.4284 70.2179 39.5983C68.8927 39.6792 67.5572 39.9424 66.265 39.3911C64.0136 38.9041 61.9834 37.9881 60.377 36.2804C59.6451 35.5011 59.0415 34.6369 58.8016 33.5655C61.2619 30.9977 63.2507 27.972 66.2237 25.8954C67.7432 24.8322 69.2401 23.7442 70.8878 22.88C71.5576 22.5277 72.2171 22.3536 72.9552 22.5525Z" fill="white"/>
<path d="M55.1444 28.633C53.8874 29.7977 52.4257 30.6972 51.115 31.7997C48.6382 33.8825 46.4033 36.1809 44.4 38.7154C43.7632 39.5216 43.1368 40.334 42.5041 41.1423C42.3822 41.2977 42.1527 41.42 42.2292 41.6521C42.3139 41.907 42.5724 41.8034 42.7626 41.8407C44.6191 42.2158 46.5108 42.0666 48.3839 42.2158C52.2996 42.5287 56.2215 42.8582 60.1558 42.8893C60.2798 42.8893 60.4018 42.9722 60.6623 43.0655C59.9387 43.4655 59.2544 43.5504 58.5949 43.6831C58.2806 43.7453 57.9809 43.7577 57.8237 44.0872C55.4689 44.2862 53.1596 43.7142 50.8193 43.6665C50.0585 43.4593 49.2687 43.71 48.5079 43.5276C46.1221 43.4779 43.7405 43.4116 41.3671 43.08C39.3865 42.8044 38.7497 41.9858 39.1549 40.019C39.3679 38.9786 39.5002 37.9217 39.6697 36.873C39.8041 35.9715 39.7937 35.068 39.6759 34.1644C39.4216 32.036 38.851 30.0444 37.2363 28.5045C36.6988 27.9906 36.6203 27.429 36.951 26.7492C37.623 25.3689 38.5967 24.3928 40.168 24.14C40.6352 24.0654 40.8254 24.1959 40.8688 24.7223C41.0693 27.1637 42.4917 28.6703 44.9044 29.06C45.3448 29.1304 45.7913 29.1677 46.2338 29.2195C47.0049 29.377 47.7761 29.3542 48.5472 29.2299C50.1288 29.0309 51.6111 28.2496 53.2547 28.4092C53.8646 28.6393 54.5448 28.2828 55.1402 28.631L55.1444 28.633Z" fill="#E3E3DF"/>
<path d="M92.1119 139.343C91.2932 139.233 91.3615 138.528 91.2891 137.996C91.0472 136.197 90.8818 134.39 90.6523 132.589C90.1913 129.001 89.1411 125.567 87.9936 122.148C86.685 118.245 85.0062 114.504 83.1807 110.838C81.6694 107.806 80.187 104.729 78.1775 101.989C76.8978 100.246 75.1425 98.9177 73.501 97.5043C71.1049 95.4422 68.564 93.5749 65.895 91.9004C63.35 90.3046 60.7636 88.7731 57.9891 87.5794C55.347 86.4437 52.7627 85.1733 49.9675 84.4313C49.951 84.4272 49.9345 84.3692 49.9386 84.3402C49.9427 84.3091 49.9717 84.2821 49.9903 84.251C54.1272 84.7236 58.0429 85.9111 61.7994 87.7203C68.2435 90.8248 74.0447 94.8412 79.1802 99.8192C79.8955 100.511 80.5116 101.305 81.1732 102.051C83.3667 104.812 85.2605 107.759 86.7263 110.975C88.6015 114.919 89.5959 119.138 90.5242 123.37C91.6033 128.288 92.176 133.27 92.1636 138.313C92.1636 138.655 92.1326 138.999 92.114 139.341L92.1119 139.343Z" fill="#2F88C1"/>
<path d="M65.6717 195.657C64.5305 195.748 64.2638 196.536 63.9412 197.504C63.3768 199.193 62.5643 200.797 61.8614 202.44C61.6795 202.867 61.3487 203.167 61.0406 203.491C60.8815 203.659 60.6499 203.824 60.8442 204.104C60.9766 204.295 61.1709 204.305 61.3942 204.287C66.3022 203.835 71.0697 204.61 75.771 205.961C77.7516 206.531 79.7053 207.161 81.566 208.061C82.0725 208.305 82.486 208.628 82.8168 209.097C83.5032 210.067 84.7561 210.174 85.6967 209.418C86.9227 208.431 87.1026 207.136 86.8752 205.692C86.6064 203.992 86.1557 202.397 84.6589 201.327C84.1978 200.998 84.2413 200.494 84.2495 200.011C86.7284 200.56 89.0108 203.319 89.0046 205.758C88.9963 208.991 87.7125 210.477 84.4769 210.993C83.435 211.101 82.3909 211.115 81.3489 210.983C79.6433 210.771 78.0349 210.226 76.4161 209.669C73.6561 208.72 70.956 207.507 67.9665 207.408C66.571 207.292 65.1755 207.285 63.78 207.408C62.6553 207.416 61.5575 207.716 60.4204 207.669C58.5597 207.59 57.5405 206.166 58.1793 204.407C58.8078 202.676 59.9821 201.279 61.357 200.156C62.4051 199.3 63.137 198.308 63.4368 197.083C63.7593 195.759 64.4891 195.437 65.6737 195.659L65.6717 195.657Z" fill="#E3E3DF"/>
<path d="M61.1192 50.947C62.6284 50.5076 64.1893 50.3874 65.959 50.0952C63.5815 52.4226 61.5596 54.7582 59.6183 57.1643C56.5667 60.9444 53.5876 64.7784 51.2266 69.0497C49.6202 71.9553 48.3425 74.9997 47.5135 78.2182C47.2923 79.0762 46.9801 79.9031 46.8354 80.7984C46.5976 82.2843 46.9946 83.735 46.8561 85.2002C46.8292 85.4738 46.8623 85.7515 46.8437 86.0271C46.8044 86.6696 46.6721 86.8623 46.0539 87.3058C45.9774 87.3618 45.9361 87.4716 45.8823 87.5566C45.107 88.7938 44.249 88.9804 43.1368 88.0229C42.6364 87.5918 42.3429 87.4758 41.8322 87.9877C41.4518 88.3711 40.8626 88.4208 40.385 88.1348C39.7255 87.739 39.5167 87.1007 39.678 86.3463C39.7958 86.251 39.9199 86.2344 40.0542 86.3069C41.2161 86.939 41.4746 86.8623 41.9211 85.565C42.8287 82.9309 43.573 80.243 44.5385 77.6296C46.6927 71.8019 49.9262 66.569 53.4677 61.5185C55.6591 58.3933 57.7514 55.2017 59.9697 52.0951C60.2922 51.6433 60.5879 51.1853 61.1151 50.9491L61.1192 50.947Z" fill="#A1A1A9"/>
<path d="M61.1192 50.947C59.2523 53.6577 57.3958 56.3767 55.5124 59.0771C53.6661 61.7236 51.76 64.3287 50.0957 67.0975C47.683 71.1056 45.5184 75.2193 44.1147 79.7227C43.4841 81.7454 42.8763 83.7847 42.1423 85.7784C42.0224 86.1038 41.9066 86.4229 41.673 86.6861C41.1128 87.3224 40.7323 87.3348 40.1514 86.6986C40.0108 86.5452 39.9178 86.3587 39.6821 86.3442C40.1163 81.789 41.5717 77.5467 43.6019 73.4826C46.2896 68.1026 49.6657 63.1557 53.1658 58.2875C54.6337 56.2462 56.0933 54.2007 57.5426 52.1469C57.7679 51.8277 57.9809 51.5666 58.4005 51.4858C59.3081 51.3117 60.1868 50.9926 61.1213 50.947H61.1192Z" fill="#7E83A9"/>
<path d="M54.5489 20.5485C54.3877 22.7536 54.0093 24.9068 53.1017 26.9461C52.8268 27.5658 52.4464 27.8911 51.7269 27.9802C50.4058 28.146 49.1075 28.4839 47.7885 28.6849C46.6369 28.861 45.475 28.9025 44.3545 28.4693C43.2505 27.514 43.4179 26.2581 43.6288 25.0478C44.0692 22.5215 45.4564 20.4718 47.1021 18.5963C48.5534 16.9425 50.2776 15.5684 51.9378 14.1343C52.2768 13.84 52.6924 13.8504 53.0666 13.7053C53.5008 13.5706 53.7819 13.6721 53.9039 14.1592C54.1685 15.2223 54.52 16.2668 54.5469 17.3777C54.6523 18.4346 54.6523 19.4915 54.5469 20.5506L54.5489 20.5485Z" fill="white"/>
<path d="M33.8623 194.229C32.3634 194.244 32.2311 195.506 31.8156 196.494C31.245 197.858 30.7343 199.246 29.5683 200.258C29.0287 200.726 28.5366 200.774 27.7986 200.614C23.3536 199.659 19.2518 197.47 14.6828 196.983C14.4968 196.963 14.3521 196.944 14.2321 197.104C13.2935 196.453 12.2908 195.968 11.1351 195.85C10.9739 195.833 10.7982 195.773 10.67 195.678C10.3351 195.425 9.95051 194.687 9.84921 195.821C9.84507 195.877 9.61145 195.92 9.48327 195.957C6.02448 196.967 4.49252 199.541 3.89296 202.873C3.75238 203.572 3.77099 204.27 3.88056 204.968C3.89917 205.169 3.9157 205.37 3.94258 205.673C3.14042 205.406 2.58015 204.989 2.14599 204.347C1.5423 203.453 1.10401 202.461 0.866256 201.447C0.55821 200.138 1.16603 198.95 2.00541 197.966C3.74824 195.92 5.9976 194.762 8.64183 194.358C9.5515 194.266 10.4591 194.25 11.3667 194.368C12.0283 194.445 12.5865 194.739 13.1654 195.066C16.1073 196.728 19.2456 197.779 22.6486 197.897C24.7429 197.97 26.8372 198.034 28.9377 197.81C28.9956 198.26 28.6545 198.513 28.5304 198.863C28.9439 199.087 29.0349 198.689 29.2354 198.494C30.3043 197.456 30.8129 196.061 31.5509 194.814C31.8693 194.273 32.1009 193.85 32.8431 194.183C33.1305 194.314 33.5191 194.219 33.8623 194.225V194.229Z" fill="#E3E3DF"/>
<path d="M98.5106 3.12133C98.4238 3.06745 98.339 2.96797 98.2522 2.96797C95.1655 2.96797 92.0809 2.82912 88.9901 3.06123C86.8069 3.22496 84.6279 3.32236 82.4653 3.72027C78.8081 4.39174 75.2873 5.42174 72.0807 7.35325C71.3922 7.76774 71.1689 7.59987 71.2372 6.8455C73.0792 4.48914 75.6491 3.24568 78.376 2.34417C84.5948 0.288311 90.8818 0.32976 97.1833 1.98771C98.246 2.26749 99.2859 2.62395 100.336 2.94518C99.7573 3.32236 99.1164 3.02807 98.5106 3.11926V3.12133Z" fill="#2E87C0"/>
<path d="M44.5343 52.1075C44.431 52.064 44.3255 52.0226 44.2222 51.9791C44.1374 51.95 44.0981 51.8899 44.1023 51.7988C44.1643 51.6454 44.2284 51.4941 44.3917 51.4174C45.6859 49.3533 46.8188 47.1876 48.2288 45.1918C48.5844 44.6882 48.9524 44.4561 49.5851 44.4913C50.6332 44.5473 51.6876 44.5058 53.0418 44.5058C52.1879 45.3866 51.5553 46.0021 51.1832 46.8125C50.9888 47.2539 51.2845 47.486 51.5718 47.7202C52.2003 47.4922 52.7544 47.0798 53.4305 46.972C55.2808 47.7347 57.2552 47.5212 59.1779 47.6995C59.8477 47.7616 59.8519 47.7181 59.6761 48.2424C55.4607 49.9087 51.0364 50.7377 46.608 51.5646C45.9071 51.6951 45.2249 51.9252 44.5343 52.1096V52.1075Z" fill="#B94238"/>
<path d="M39.2314 184.646C38.9937 184.654 38.7538 184.675 38.5161 184.667C37.0792 184.613 36.858 184.261 37.4183 182.941C37.8194 182 38.2142 181.057 38.6112 180.114C38.8365 179.913 39.0557 180.002 39.2521 180.151C39.8702 180.617 40.5442 180.601 41.3939 180.398C40.5236 180.555 39.7979 180.719 39.2707 179.973C39.157 179.718 39.0743 179.453 39.1983 179.187C39.8041 177.9 40.352 176.584 41.0363 175.335C41.1893 175.055 41.4146 174.858 41.7557 174.841C42.2705 174.74 42.7977 174.727 43.3208 174.686C42.9011 174.736 42.4855 174.833 42.101 174.551L42.1279 174.506C41.7123 174.311 41.7268 173.977 41.8839 173.639C42.4338 172.46 42.9879 171.279 43.6474 170.154C43.8666 169.783 44.2139 169.565 44.6522 169.513C45.473 169.673 46.242 169.051 47.0711 169.352C45.719 172.829 44.3338 176.288 42.6158 179.614C41.8198 181.156 41.1893 182.785 40.2734 184.269C39.9819 184.555 39.6594 184.748 39.2293 184.646H39.2314Z" fill="#FEFEFE"/>
<path d="M12.8077 196.878C12.849 197.555 12.5348 198.003 11.96 198.343C9.28892 199.916 7.66186 202.148 7.30833 205.327C7.10779 207.122 7.81072 208.218 9.5949 208.268C11.4142 208.318 13.1922 207.889 14.9971 207.75C15.7145 207.694 16.4298 207.675 17.1472 207.654C15.4478 208.479 13.6863 209.105 11.8029 209.345C10.885 209.439 9.96704 209.447 9.0491 209.341C6.6819 208.943 5.31947 207.509 4.91012 204.983C4.82122 204.278 4.80882 203.572 4.91633 202.867C5.18096 200.969 5.98725 199.348 7.3931 198.042C8.96434 196.583 10.8085 196.355 12.8097 196.88L12.8077 196.878Z" fill="#E3E3DF"/>
<path d="M88.405 10.5697C87.5471 10.2505 86.7098 9.83602 85.8249 9.64743C85.1509 9.50443 84.9338 9.00912 85.0021 8.60085C85.1075 7.98741 85.7505 8.28169 86.1102 8.35837C88.649 8.89099 91.1733 9.48785 93.7059 10.0412C96.6065 10.6774 99.5257 11.1645 102.49 11.4194C107.221 11.8276 111.959 11.4898 116.692 11.6266C114.533 12.3167 112.304 12.64 110.059 12.8576C102.92 13.5457 95.9822 12.4058 89.1266 10.5303C88.8806 10.4619 88.6242 10.2277 88.403 10.5717L88.405 10.5697Z" fill="#224170"/>
<path d="M53.0687 13.7012C50.5113 15.5477 48.1482 17.5973 46.2255 20.1299C44.8693 21.9163 43.9245 23.8457 43.7653 26.1213C43.7053 26.9855 43.9948 27.7274 44.3566 28.4673C42.7874 28.1398 41.886 27.0808 41.3774 25.6488C41.2472 25.2819 41.1872 24.7804 41.3299 24.4405C42.3201 22.0779 43.2505 19.6967 44.8011 17.6015C46.8829 14.783 49.6884 13.668 53.0707 13.7012H53.0687Z" fill="#E3E3DF"/>
<path d="M72.9552 22.5525C72.2792 22.5111 71.6817 22.7411 71.1007 23.0603C67.0217 25.2923 63.4389 28.1004 60.685 31.9054C60.1951 32.5831 59.7092 33.3313 58.8016 33.5654C58.2062 32.4049 58.1855 31.3977 58.8864 30.1314C61.3156 25.7275 64.9212 23.1162 69.8355 22.2707C70.8919 22.0883 71.9442 22.1401 72.9573 22.5546L72.9552 22.5525Z" fill="#E3E3DF"/>
<path d="M70.0112 158.175C73.4617 159.302 76.7427 158.225 80.0361 157.383C80.8155 157.184 81.5433 157.085 82.3537 157.277C83.9642 157.663 84.9524 157.047 85.0848 155.709C85.2874 155.593 85.4714 155.406 85.7401 155.532C85.2254 157.522 83.7079 158.886 81.6322 159.221C81.1959 159.292 80.8031 159.271 81.2187 159.955C81.5867 160.56 81.1463 160.983 80.4909 161.093C79.8232 161.207 79.3373 161.006 78.1548 160.166C78.0059 161.031 77.5097 161.594 76.6662 161.76C75.8454 161.922 75.2976 161.514 74.942 160.788C74.7352 160.363 74.543 160.523 74.2411 160.753C73.6788 161.182 73.011 161.356 72.2998 161.163C71.5535 160.96 71.0263 160.618 71.3798 159.696C71.539 159.279 71.5721 158.987 70.894 159.093C70.3544 159.176 69.8685 158.9 70.0112 158.173V158.175Z" fill="#1E5F84"/>
<path d="M57.7617 7.87965C56.7652 7.46516 55.8328 7.9812 54.8921 8.12627C52.9054 8.43092 51.1604 9.34072 49.6223 10.636C49.5541 10.6919 49.5334 10.8039 49.4817 10.9033C49.891 11.0733 50.2136 10.6816 50.5878 10.7873C50.5175 11.5624 50.8524 12.1862 51.6132 12.9074C50.0337 12.7893 49.583 11.6618 48.8057 10.837C48.4666 12.0826 49.4941 12.4825 50.0688 13.2058C49.461 13.2742 48.9049 13.2369 48.3756 13.0462C46.8333 12.4908 46.4281 11.409 47.2427 10.0371C49.0372 7.01337 51.7869 5.75955 55.1961 5.81343C56.6164 5.83623 57.3958 6.52428 57.7638 7.87965H57.7617Z" fill="#7E83A9"/>
<path d="M59.6762 48.2404C59.672 48.116 59.9408 47.8508 59.5811 47.9026C58.4957 48.058 57.4475 47.9813 56.3952 47.658C56.0623 47.5565 55.655 47.6746 55.287 47.7223C54.52 47.8238 53.8812 47.6352 53.4284 46.97C54.0714 46.7441 54.7205 46.5306 55.3573 46.2819C55.624 46.1783 56.0478 46.2343 56.0892 45.8343C56.1243 45.4882 55.7873 45.3203 55.5579 45.1193C55.4359 45.0115 55.287 44.9349 54.9686 44.7214C59.5046 44.6551 63.8565 45.0779 68.225 44.597C65.5228 46.2115 62.614 47.2581 59.6762 48.2362V48.2404Z" fill="#A33834"/>
<path d="M81.5577 32.9479C80.6067 31.1904 81.5453 29.5573 81.9195 27.9015C82.2503 26.43 82.7258 24.9959 83.6231 23.7545C83.8588 23.4271 83.6975 23.1784 83.6334 22.8903C83.3729 21.7463 82.9222 20.679 82.3847 19.6387C82.0622 19.0107 82.0064 18.3848 82.8147 18.0263C85.1179 19.1288 85.7877 20.5671 85.3928 23.1038C85.2088 24.2913 84.5907 25.2094 84.0841 26.2332C83.3151 27.7854 83.1765 29.5366 83.0318 31.2547C82.9967 31.665 82.9925 32.0795 82.9739 32.4919C82.8313 33.1613 82.9512 33.839 82.9036 34.5125C82.8892 34.7219 82.9967 35.0265 82.5997 35.0058C82.2896 34.3488 82.087 33.6338 81.5681 33.0909C81.566 33.0432 81.5619 32.9955 81.5598 32.9479H81.5577Z" fill="#A49EC4"/>
<path d="M61.727 147.867C62.5705 146.731 62.9675 146.689 63.7407 147.945C65.7378 151.195 68.7253 153.035 72.2295 154.21C72.7919 154.399 73.2198 154.478 73.6106 153.864C73.9393 153.348 74.514 153.189 75.1446 153.191C75.5684 153.193 76.0439 153.375 76.414 152.992C76.9309 153.385 77.4477 153.779 77.9666 154.169C78.1486 154.306 78.4773 154.36 78.3801 154.668C78.2892 154.954 77.9935 155.027 77.7123 155.06C76.8937 155.157 76.1349 154.89 75.434 154.546C74.7311 154.202 74.3135 154.204 73.8297 154.942C73.3253 155.715 72.4342 155.526 71.6548 155.35C69.7114 154.915 68.0161 153.957 66.4387 152.774C65.0907 151.763 63.8027 150.681 62.6491 149.448C62.2232 148.992 61.8573 148.497 61.7291 147.867H61.727Z" fill="#22416F"/>
<path d="M54.1148 155.269C54.0796 155.879 54.2182 156.515 53.8047 157.062C53.5338 157.418 53.1948 157.632 52.742 157.524C52.4112 157.445 52.0722 157.334 52.0081 156.909C51.9709 156.652 51.8985 156.132 51.7889 156.223C51.2721 156.643 50.5919 155.812 50.1329 156.536C49.8807 156.931 49.5727 157.603 48.9938 157.363C48.4376 157.132 48.539 156.43 48.5224 155.885C48.5162 155.68 48.4935 155.466 48.5286 155.267C48.663 154.532 48.264 154.37 47.6748 154.494C46.4839 154.747 45.3634 154.403 44.2615 154.067C43.021 153.69 42.9011 153.008 43.8645 152.171C44.3069 151.788 44.7742 151.419 45.4296 151.566C46.1283 151.587 46.7093 151.885 47.3006 152.248C49.0331 153.307 50.9268 154.011 52.8495 154.631C53.3064 154.778 53.7778 154.886 54.1127 155.269H54.1148Z" fill="#1E5E83"/>
<path d="M81.5577 32.9479C81.5639 32.9955 81.566 33.0432 81.566 33.0909C81.5247 33.4452 81.6363 33.7457 81.7728 34.0836C82.6514 36.2658 83.2117 38.5248 83.0256 40.8998C82.8768 42.8127 80.2119 44.6861 78.4421 44.1742C78.3408 43.0614 78.7791 42.1495 79.3477 41.2086C80.7039 38.9559 81.3531 36.5083 80.9706 33.8473C80.9086 33.4224 80.8114 32.8836 81.5577 32.9458V32.9479Z" fill="#A59FC4"/>
<path d="M72.9221 9.74069C74.727 9.63914 76.5174 9.55831 78.3429 9.70131C81.6342 9.95829 84.8263 10.6422 88.0143 11.409C92.1491 12.4038 96.1806 13.7322 100.179 15.1684C100.394 15.2451 100.576 15.4192 100.774 15.5497C97.419 15.4606 94.2042 14.6296 91.0121 13.6908C87.6256 12.6939 84.3715 11.2681 80.923 10.4723C78.5124 9.91684 76.0791 9.45469 73.6168 10.1821C73.1351 10.3251 73.0007 10.1303 72.9242 9.73862L72.9221 9.74069Z" fill="#22406F"/>
<path d="M86.778 198.743C88.7813 199.868 90.7268 201.054 91.7688 203.255C92.1823 204.127 92.4613 205.029 92.5089 205.996C92.5213 206.237 92.5089 206.481 92.7508 206.631C92.1574 207.424 91.3698 207.951 90.4353 208.239C90.0218 208.367 89.6455 208.454 89.8171 207.708C90.5014 204.728 89.3313 202.386 87.0964 200.527C86.5051 200.036 86.1909 199.713 86.7367 199.043C86.7904 198.977 86.7656 198.842 86.778 198.741V198.743Z" fill="#E3E3DF"/>
<path d="M54.1148 155.269C51.4065 154.532 48.787 153.578 46.4384 152.003C46.1097 151.784 45.6942 151.871 45.4295 151.568C45.5308 151.553 45.6673 151.578 45.7293 151.52C46.0353 151.236 45.6197 151.323 45.5805 151.305C43.6867 150.416 42.1196 149.096 40.7448 147.55C39.8764 146.573 39.1942 145.475 39.0391 144.273C39.8888 145.054 40.8399 145.858 41.7082 146.745C45.0243 150.13 48.9669 152.559 53.2816 154.424C53.6765 154.594 54.1995 154.631 54.1127 155.271L54.1148 155.269Z" fill="#22406D"/>
<path d="M70.3999 179.892C69.0326 180.218 68.5481 179.71 68.9465 178.367C69.3806 176.891 69.8003 175.411 70.2283 173.934C70.3275 173.633 70.433 173.291 70.8444 173.443C71.568 173.71 72.3474 173.507 73.0689 173.749C72.7629 175.662 72.1055 177.471 71.4357 179.276C71.2434 179.741 70.8216 179.817 70.3999 179.894V179.892Z" fill="#FCFCFC"/>
<path d="M35.5038 189.86C34.4184 189.579 34.4247 189.581 34.8857 188.584C35.4336 187.4 35.969 186.209 36.5189 185.027C36.6037 184.843 36.6761 184.406 36.9283 184.627C37.6684 185.272 38.4644 184.741 39.2169 184.86C39.5022 184.781 39.7979 184.238 40.0646 184.882C39.2955 186.455 38.5285 188.026 37.7594 189.599C37.073 190.262 36.3163 190.31 35.5018 189.862L35.5038 189.86Z" fill="#FEFEFE"/>
<path d="M43.3311 168.307C44.1808 165.951 45.0326 163.596 45.8802 161.24C46.0642 160.728 46.1283 160.185 46.9532 160.62C47.4908 160.902 48.1317 160.477 48.7374 160.459C49.0207 160.786 48.8904 161.124 48.7064 161.414C48.0593 162.434 47.6541 163.582 46.9904 164.589C46.6162 164.89 46.2503 164.728 45.8699 164.541C46.0973 164.877 46.7175 164.689 46.7299 165.25C45.9774 166.579 45.5205 168.071 44.5281 169.269C43.8211 169.333 43.2567 169.221 43.3332 168.309L43.3311 168.307Z" fill="#E3E3DF"/>
<path d="M72.9097 166.854C73.133 167.09 73.4369 167.059 73.7202 167.103C73.9042 167.607 73.6457 168.048 73.4927 168.489C73.0338 169.818 72.5045 171.121 72.0249 172.444C71.8864 172.825 71.7458 173.227 71.3364 173.43C70.7307 173.517 70.3709 173.37 70.6046 172.659C71.6259 169.445 72.5541 166.206 73.3108 162.919C73.4286 162.405 73.3914 161.837 74.1068 161.632C74.7766 161.439 74.8428 162.088 75.2252 162.28C74.9069 163.677 74.82 165.14 74.0654 166.415C73.8111 166.626 73.5051 166.521 73.2198 166.558C73.0544 166.579 72.7857 166.519 72.9097 166.854Z" fill="#E3E3DF"/>
<path d="M71.2765 180.13C70.8609 181.517 70.3689 182.885 70.0587 184.294C69.8499 185.243 69.3041 185.465 68.4875 185.492C66.7798 185.548 66.7798 185.556 67.2594 183.96C67.2698 183.927 67.2801 183.894 67.2863 183.861C67.6936 181.991 68.105 180.126 70.5818 180.062C70.7658 179.896 70.9167 179.616 71.2103 179.716C71.3757 179.772 71.3467 179.977 71.2744 180.132L71.2765 180.13Z" fill="#FEFEFE"/>
<path d="M65.2623 190.652C65.5766 189.071 66.1823 187.579 66.633 186.037C66.6868 185.852 66.7219 185.581 67.0176 185.724C67.8776 186.138 68.6694 185.479 69.6246 185.686C69.1594 187.098 68.9444 188.642 68.2746 190.059C68.227 190.244 68.0926 190.352 67.9396 190.445C67.063 190.729 66.1927 191.081 65.2603 190.652H65.2623Z" fill="#FEFEFE"/>
<path d="M76.6145 152.581C77.0301 151.701 77.5635 151.676 78.4153 152.117C81.0802 153.497 83.9725 153.763 86.9207 153.611C86.3976 154.739 85.3784 155.008 84.293 155.058C81.4337 155.191 78.9611 154.076 76.6145 152.581Z" fill="#22406E"/>
<path d="M44.2098 51.8319C44.2387 51.8796 44.2408 51.9293 44.2222 51.979C43.1492 51.9438 43.0003 53.0111 42.409 53.5458C42.0969 53.8297 41.8922 54.2421 41.4994 54.4639C41.9108 51.8713 42.899 49.461 43.8438 47.0363C43.9803 46.686 44.1477 46.3461 44.2966 46C44.553 45.4032 44.6543 44.5908 45.105 44.2654C45.5329 43.9566 46.3041 44.4312 47.0215 44.2758C46.2565 45.5172 45.5081 46.6549 44.8424 47.8383C44.2346 48.9201 43.7756 50.0724 43.7818 51.3469C43.7818 51.7614 43.9141 51.635 44.0278 51.3759C44.4206 51.3946 44.2573 51.635 44.2098 51.8298V51.8319Z" fill="#E2E2DE"/>
<path d="M67.9913 190.248C68.0864 190.186 68.1815 190.124 68.2766 190.061C67.9458 191.634 67.6151 193.205 67.2843 194.778C66.5111 195.584 65.5559 195.383 64.6152 195.267C64.2141 195.236 64.1645 195.012 64.1666 194.641C64.1666 193.514 64.669 192.517 64.9233 191.456C65.0556 190.909 65.5352 191.166 65.8557 191.054C66.5193 190.654 67.3339 190.66 67.9913 190.248Z" fill="#FDFDFD"/>
<path d="M71.4232 173.337C72.1882 171.258 72.9552 169.18 73.7202 167.103C74.3011 166.952 74.88 166.798 75.5932 166.612C74.8614 168.829 74.1771 170.927 73.47 173.016C73.4121 173.186 73.2074 173.304 73.0731 173.447C72.5004 173.758 71.936 173.961 71.4232 173.337Z" fill="#FEFEFE"/>
<path d="M34.4515 193.752C33.7838 193.746 32.8989 194.074 32.5474 193.446C32.2973 193 32.9899 192.387 33.2442 191.84C33.4592 191.377 33.7259 190.938 33.9429 190.476C34.0918 190.159 34.2779 189.974 34.6459 190.082C35.3881 190.248 36.1096 190.007 36.8435 189.976C37.1764 189.962 37.6044 189.852 37.3666 190.461C36.9531 191.355 36.5376 192.248 36.1241 193.139C35.6424 193.553 35.08 193.742 34.4495 193.75L34.4515 193.752Z" fill="#FCFCFC"/>
<path d="M44.5736 169.196C45.167 167.803 45.6694 166.361 46.6907 165.196C47.3564 164.865 48.0056 164.674 48.5431 165.42C48.1213 166.591 47.7016 167.762 47.2799 168.931C46.2152 169.664 45.2952 169.754 44.5736 169.196Z" fill="#FEFEFE"/>
<path d="M46.8581 160.055C46.393 160.061 46.3785 159.808 46.4943 159.452C46.8478 158.349 47.191 157.244 47.6065 155.924C47.6624 156.415 47.6706 156.695 47.7285 156.963C48.0407 158.405 49.1902 158.749 50.3024 157.763C50.4906 157.595 50.5878 157.083 50.9909 157.402C51.2989 157.644 51.0591 157.993 50.964 158.256C50.7387 158.869 50.4513 159.46 50.1887 160.061C50.0916 160.05 49.9923 160.042 49.8931 160.038C48.8821 160.26 47.8712 160.167 46.8602 160.057L46.8581 160.055Z" fill="#E5E5E1"/>
<path d="M73.9331 166.421C74.2039 165.192 74.8097 164.04 74.7663 162.738C74.7559 162.438 74.971 162.332 75.2252 162.278C75.8248 162.527 76.4595 162.562 77.1624 162.461C76.7138 163.661 76.2879 164.734 75.9116 165.826C75.709 166.415 75.2273 166.4 74.7683 166.479C74.483 166.562 74.1977 166.643 73.9331 166.421Z" fill="#FDFDFD"/>
<path d="M50.1826 159.854C50.1722 159.922 50.1743 159.99 50.1888 160.059C49.7319 161.713 49.2832 163.371 48.3301 164.83C47.805 164.993 47.2592 165.285 46.8705 164.595C47.2075 163.52 47.7719 162.552 48.3281 161.584C48.5327 161.228 48.756 160.892 48.7374 160.459L48.7064 160.421C49.1302 160.05 49.6264 159.872 50.1846 159.854H50.1826Z" fill="#FDFDFD"/>
<path d="M69.5956 21.7132C69.7217 21.4997 69.7197 21.2987 69.6721 21.0375C69.4509 19.8231 70.4743 18.9361 71.6072 19.3837C72.0827 19.5723 72.6947 19.6573 72.8994 20.277C72.643 20.2998 72.4404 19.9247 72.0993 20.2189C72.8353 20.7453 73.5527 21.2842 74.2143 22.2251C72.5769 21.7007 71.1069 21.4251 69.5936 21.7132H69.5956Z" fill="#7F83A8"/>
<path d="M44.6336 169.743C44.3524 169.778 44.0816 169.872 43.9493 170.129C43.2815 171.426 42.6241 172.728 41.9894 174.041C41.9377 174.149 42.0783 174.348 42.1299 174.506C41.1645 174.454 41.0673 174.033 41.4415 173.192C42.0204 171.888 42.4773 170.529 42.9838 169.192C43.6722 168.96 44.1953 169.219 44.6336 169.741V169.743Z" fill="#E1E1DD"/>
<path d="M51.5698 47.7202C50.5526 47.7969 51.0467 47.229 51.1811 46.8125C51.2349 46.9347 51.1956 47.227 51.4561 46.9368C51.915 46.427 52.4154 45.9524 52.8537 45.426C53.325 44.8602 53.906 44.8167 54.5283 45.0136C54.9087 45.1338 55.4503 45.2727 55.4421 45.7162C55.4338 46.1203 54.8735 45.94 54.5738 46.0685C53.5194 46.5244 52.3265 46.7234 51.5677 47.7202H51.5698Z" fill="#8E2240"/>
<path d="M67.1127 10.5303C69.2152 9.96246 71.1069 11.0008 72.5335 13.3157C70.6707 12.3582 68.9651 11.4816 67.1127 10.5303Z" fill="#DA5171"/>
<path d="M75.7814 18.4781C75.248 18.6294 74.574 19.2449 74.2184 18.4677C73.8856 17.7362 74.7001 17.3901 75.1818 16.9922C75.5416 16.6937 76.1721 16.9424 76.4037 16.3849C76.8192 16.6689 77.2327 16.9528 77.6627 17.2492C77.0466 17.7963 76.137 17.7092 75.7793 18.4802L75.7814 18.4781Z" fill="#7D81A5"/>
<path d="M86.7242 110.977C86.0234 109.815 85.3081 108.662 84.6258 107.489C83.6086 105.74 82.4674 104.074 81.2724 102.443C81.198 102.343 81.2022 102.184 81.1711 102.053C83.7492 104.573 85.5086 107.605 86.7242 110.977Z" fill="#1E5D83"/>
<path d="M46.4012 11.9748C46.9326 12.9053 47.5673 13.4483 48.6154 13.6846C48.018 14.0037 47.6272 14.2047 47.2447 14.4182C46.4798 14.8451 46.2317 14.7353 46.0953 13.8586C46.0043 13.2763 46.1469 12.7167 46.4012 11.9748Z" fill="#777B9D"/>
<path d="M44.2098 51.8319C44.1498 51.6806 44.0878 51.5293 44.0278 51.3781C44.7204 48.6839 47.1786 44.481 48.1896 44.4064C47.5238 45.4136 46.854 46.3565 46.2565 47.343C45.4792 48.6259 44.5881 49.8652 44.3917 51.4195C44.3317 51.5584 44.2697 51.6951 44.2098 51.834V51.8319Z" fill="#C0C1BF"/>
<path d="M41.7516 174.912C40.6993 176.454 39.6242 177.985 39.4278 179.927C38.5988 179.979 38.975 179.448 39.0205 179.077C39.5539 177.817 40.1225 176.57 40.6042 175.289C40.8275 174.694 41.0941 174.464 41.6875 174.75C41.7475 174.767 41.7785 174.796 41.7764 174.837C41.7764 174.885 41.7681 174.91 41.7516 174.91V174.912Z" fill="#DDDDD9"/>
<path d="M41.0921 88.8684C40.5463 89.714 40.3085 90.7357 39.6097 91.4963C39.4195 90.4642 39.3927 89.4259 39.4754 88.2964C40.0253 88.5514 40.4987 88.912 41.0921 88.8684Z" fill="#223E6C"/>
<path d="M72.2812 11.8256C72.0187 11.7074 71.8161 11.5686 71.8347 11.2204C71.9112 9.71375 70.9932 8.93037 69.759 8.38532C70.4888 8.14699 70.834 8.29828 71.723 9.11896C72.5748 9.90442 72.6451 10.8184 72.2668 11.8359L72.2812 11.8256Z" fill="#C95771"/>
<path d="M44.6336 169.743C44.0795 169.573 43.5854 169.223 42.9838 169.194C43.1099 168.902 43.0582 168.541 43.3311 168.309C43.36 169.146 44.1271 168.945 44.5736 169.196C45.5143 169.501 46.4157 169.41 47.2799 168.931C47.2985 169.115 47.284 169.283 47.0711 169.352C46.2792 169.608 45.4874 169.88 44.6315 169.743H44.6336Z" fill="#484848"/>
<path d="M46.8705 164.595C47.315 164.933 47.8484 164.72 48.3301 164.829C48.4501 165.008 48.9524 165.047 48.5452 165.418C47.9828 164.892 47.2964 165.383 46.6927 165.194C46.2813 164.979 45.7645 164.964 45.4482 164.564C45.3469 164.436 45.2228 164.295 45.3572 164.117C45.4998 163.926 45.6384 164.013 45.7789 164.131C46.0932 164.398 46.4364 164.608 46.8705 164.593V164.595Z" fill="#2F2F2F"/>
<path d="M70.2055 9.33866C70.8133 9.67647 71.2434 10.1469 71.4274 11.009C70.6934 10.5821 70.127 10.1075 69.4199 9.92309C69.3413 9.2682 69.6349 9.11691 70.2055 9.33866Z" fill="#D7506F"/>
<path d="M70.2055 9.33864C69.7486 9.27025 69.5419 9.53966 69.4199 9.92306C68.8493 9.84017 68.2766 9.75934 67.7164 9.67852C68.2456 8.8599 68.8493 8.77286 70.2055 9.33864Z" fill="#8D203E"/>
<path d="M39.0205 179.08C39.0267 179.426 38.973 179.799 39.4278 179.929C40.17 180.561 41.0094 180.333 41.9583 180.137C40.7365 181.162 39.6718 180.686 38.6091 180.114C38.6835 179.745 38.7228 179.359 39.0185 179.078L39.0205 179.08Z" fill="#3D3D3E"/>
<path d="M71.4232 173.337C71.9566 173.627 72.519 173.476 73.073 173.447C73.073 173.546 73.071 173.648 73.0689 173.747C72.3453 174.017 71.601 174.033 70.9188 173.702C70.5239 173.509 70.3999 173.685 70.2283 173.932C70.158 173.449 70.3833 173.055 70.6066 172.659C70.6004 173.223 70.9705 173.331 71.4253 173.337H71.4232Z" fill="#3E3E3F"/>
<path d="M66.2671 39.3911C67.5841 39.4594 68.9031 39.5299 70.22 39.5983C69.8251 40.0667 69.1966 39.561 68.779 39.9423C67.8528 39.932 66.939 39.8387 66.0438 39.59C66.1183 39.5237 66.1927 39.4574 66.2671 39.3911Z" fill="#4A4A4B"/>
<path d="M37.3666 190.463C37.4183 189.916 37.071 190.101 36.7919 190.144C36.0724 190.26 35.3509 190.443 34.6459 190.082C34.9146 189.941 35.2909 190.219 35.5039 189.86C36.2543 189.759 37.0399 189.952 37.7615 189.597C37.625 189.883 37.6746 190.254 37.3687 190.461L37.3666 190.463Z" fill="#474748"/>
<path d="M24.346 206.183C25.8717 205.833 27.3996 205.895 28.9274 206.175C27.3996 206.177 25.8717 206.181 24.346 206.183Z" fill="#5D5D5E"/>
<path d="M67.9913 190.248C67.4207 190.895 66.633 190.965 65.8557 191.054C65.7358 190.807 65.3533 190.948 65.2644 190.654C66.2134 190.787 67.0755 190.333 67.9913 190.248Z" fill="#4E4F4F"/>
<path d="M64.6132 195.267C65.527 195.236 66.4449 195.232 67.2822 194.778C67.3194 195.083 67.4373 195.402 67.1499 195.659C67.0734 195.485 67.1685 195.133 66.7612 195.315C66.4056 195.473 66.0665 195.703 65.6448 195.62C65.3822 195.259 64.8695 195.64 64.6111 195.267H64.6132Z" fill="#6A6A6A"/>
<path d="M63.7779 207.408C65.1734 207.109 66.5689 207.103 67.9645 207.408C66.5689 207.408 65.1734 207.408 63.7779 207.408Z" fill="#5B5B5B"/>
<path d="M50.1825 159.854C49.6636 159.972 49.2646 160.409 48.7043 160.421C48.1399 160.038 47.4081 160.513 46.8581 160.055C47.8877 160.082 48.9152 160.115 49.891 159.686C50.0358 159.621 50.1515 159.679 50.1825 159.854Z" fill="#7A7A7A"/>
<path d="M55.1754 17.189C55.4421 18.5071 55.4441 19.8252 55.1754 21.1453C55.1754 19.8272 55.1754 18.5092 55.1754 17.189Z" fill="#66676C"/>
<path d="M73.7305 198.766C72.4156 199.074 71.0987 199.093 69.7817 198.782C71.0987 198.776 72.4156 198.772 73.7305 198.766Z" fill="#9A9A9B"/>
<path d="M82.5977 35.0058C83.1042 34.2245 82.5522 33.2857 82.9719 32.4919C82.9822 33.3479 82.9967 34.2058 82.9967 35.0618C82.9967 35.2027 83.0814 35.4555 82.8065 35.4203C82.6121 35.3954 82.5853 35.1882 82.5977 35.0079V35.0058Z" fill="#474858"/>
<path d="M41.7516 174.912C41.7289 174.858 41.7082 174.806 41.6854 174.752C41.824 174.686 41.9645 174.618 42.1031 174.551H43.8066C43.1058 175.107 42.4152 174.935 41.7495 174.912H41.7516Z" fill="#4C4D4D"/>
<path d="M81.3469 210.981C82.3889 210.985 83.4308 210.987 84.4749 210.991C83.4308 211.31 82.3889 211.285 81.3469 210.981Z" fill="#696969"/>
<path d="M54.549 20.5485C54.549 19.4915 54.549 18.4346 54.549 17.3755C54.826 18.4325 54.826 19.4894 54.549 20.5485Z" fill="#A2A3A3"/>
<path d="M76.4388 31.7127C76.4367 30.7345 76.4326 29.7563 76.4305 28.7781C76.7696 29.7563 76.6869 30.7345 76.4388 31.7127Z" fill="#787877"/>
<path d="M11.3688 194.368C10.4612 194.364 9.55149 194.36 8.64389 194.358C9.55356 194.045 10.4612 194.067 11.3688 194.368Z" fill="#6D6D6D"/>
<path d="M34.4515 193.752C35.0097 193.549 35.5679 193.346 36.1262 193.141C36.1241 193.307 36.1634 193.489 35.9484 193.566C35.5245 193.696 35.1007 193.825 34.6769 193.956C34.6025 193.887 34.528 193.821 34.4515 193.752Z" fill="#434344"/>
<path d="M80.0961 198.716C81.0058 198.407 81.9175 198.415 82.8272 198.716C81.9175 198.716 81.0058 198.716 80.0961 198.716Z" fill="#6F6F70"/>
<path d="M39.6759 34.1664C39.9757 35.07 39.9653 35.9736 39.6697 36.8751C39.6718 35.9715 39.6738 35.07 39.6759 34.1664Z" fill="#9A9A98"/>
<path d="M9.04704 209.339C9.96498 209.339 10.8829 209.341 11.8009 209.343C10.8829 209.634 9.96498 209.648 9.04704 209.339Z" fill="#8E8E8D"/>
<path d="M48.5513 29.232C47.7781 29.5449 47.007 29.5387 46.2379 29.2216C47.009 29.2258 47.7802 29.2278 48.5513 29.232Z" fill="#4F4F50"/>
<path d="M48.5079 43.5297C49.2853 43.4572 50.0606 43.4282 50.8193 43.6686C50.042 43.7391 49.2646 43.7826 48.5079 43.5297Z" fill="#5F5F60"/>
<path d="M73.9331 166.421L74.7683 166.479C74.2143 166.927 73.4597 166.38 72.9097 166.852C72.581 166.697 72.7381 166.529 72.9469 166.487C73.2674 166.421 73.6044 166.438 73.9352 166.421H73.9331Z" fill="#747474"/>
<path d="M55.1444 28.633C54.5241 28.488 53.8564 28.7429 53.2589 28.4113C53.9639 28.3885 54.6751 28.2496 55.3594 28.5522C55.2891 28.5792 55.2167 28.6061 55.1464 28.631L55.1444 28.633Z" fill="#7E7E7E"/>
<path d="M81.9898 199.338C81.2952 199.338 80.5985 199.334 79.9038 199.334C80.6005 199.048 81.2952 199.056 81.9898 199.338Z" fill="#525253"/>
<path d="M40.0667 184.882C39.7958 184.437 39.496 185.052 39.219 184.86C39.2231 184.789 39.2273 184.717 39.2314 184.646C39.5209 184.36 39.9281 184.397 40.2755 184.269C40.3147 184.509 40.3044 184.735 40.0667 184.882Z" fill="#767676"/>
<path d="M3.88261 204.971C3.59938 204.27 3.61178 203.572 3.89502 202.875C3.89088 203.574 3.88675 204.272 3.88261 204.971Z" fill="#888888"/>
<path d="M4.91427 202.865C4.9122 203.57 4.91013 204.276 4.90806 204.981C4.62483 204.274 4.6331 203.57 4.91427 202.865Z" fill="#6F6F6F"/>
<path d="M71.2765 180.13C71.1214 179.366 70.7989 180.234 70.5839 180.06C70.5219 180.004 70.4619 179.948 70.3999 179.892C70.7451 179.687 71.0904 179.482 71.4357 179.274C71.4977 179.581 71.5638 179.89 71.2765 180.13Z" fill="#646565"/>
<path d="M69.5667 49.0569C70.251 48.7709 70.9601 48.8434 71.6693 48.9077C70.9829 49.1647 70.2738 49.0942 69.5667 49.0569Z" fill="#686868"/>
<path d="M58.6176 44.1432C59.3288 44.0561 60.0359 44.0292 60.7223 44.2882C60.0131 44.3587 59.3081 44.3587 58.6176 44.1432Z" fill="#999999"/>
<path d="M77.6524 44.9473C77.6607 44.2468 77.671 43.5463 77.6793 42.8479C77.9253 43.5505 78.0245 44.253 77.6524 44.9473Z" fill="#7E7E7E"/>
<path d="M128.854 4.93677C128.16 5.83414 127.047 5.99164 126.107 6.38333C122.23 7.99776 118.159 8.96766 113.991 9.28682C109.032 9.66607 104.138 9.13967 99.4099 7.43406C97.7911 6.8517 96.2054 6.23412 94.8099 5.20826C94.535 5.00516 94.2621 4.78755 94.0326 4.53679C93.5054 3.95858 94.0036 3.96687 94.4006 3.92957C98.5995 7.06931 103.462 8.10553 108.552 8.26303C115.525 8.47857 122.296 7.32215 128.854 4.9347V4.93677Z" fill="#2E86BF"/>
<path d="M130.266 4.11197C130.068 4.16378 129.865 4.20108 129.673 4.2674C124.2 6.14918 118.573 7.22063 112.797 7.50869C111.959 7.70558 111.099 7.45688 110.264 7.64547C109.685 7.65791 109.106 7.67242 108.525 7.67863C108.298 7.68071 108.099 7.70972 107.942 7.42165C107.386 6.39994 106.414 5.80722 105.494 5.16684C105.242 5.18135 105.033 5.41139 104.731 5.23109C102.497 3.90265 100.018 3.32444 97.4934 2.89959C96.6065 2.81048 95.7175 2.8167 94.8306 2.90996C94.0512 2.99285 93.7659 3.33688 94.2393 4.06638C96.559 5.95229 99.2218 7.09213 102.118 7.74081C106.082 8.62781 110.072 8.75837 114.116 8.41849C119.154 7.99364 124.049 7.00924 128.786 5.23523C129.255 4.82282 130.128 4.98654 130.301 4.15756L130.266 4.11404V4.11197ZM94.9753 3.45293C99.3583 3.77002 103.334 4.78966 106.867 7.34912C103.964 7.69314 96.1434 5.56475 94.9753 3.45293Z" fill="#030305"/>
<path d="M83.0318 123.768C82.5625 124.27 83.2386 124.344 83.3502 124.63C84.2371 125.495 84.6547 126.63 85.0765 127.743C86.0751 130.386 86.7904 133.103 87.0178 135.934C87.0075 136.943 87.0178 137.952 87.0137 138.959C86.9186 140.116 86.7408 141.237 85.6388 141.925C85.0352 142.012 84.6134 141.618 84.1379 141.357C80.7887 139.517 78.1961 136.847 75.8909 133.851C75.4961 133.337 75.1735 132.487 74.3404 132.75C73.5444 133.001 73.8256 133.842 73.7594 134.464C73.7263 134.771 73.7429 135.094 73.4162 135.274C73.011 135.353 72.7981 135.105 72.5996 134.814C72.9841 135.347 73.5361 135.786 73.5775 136.514C73.1661 137.028 72.8518 136.584 72.552 136.379C70.8402 135.208 69.4075 133.753 68.2167 132.058C68.0389 131.805 67.8528 131.561 67.6585 131.322C67.3008 130.879 66.8894 130.479 66.2692 130.705C65.6861 130.916 65.6531 131.469 65.6407 131.994C65.6324 132.394 65.7585 132.837 65.2768 133.078C64.7765 133.14 64.3485 133.397 63.904 133.608C63.4244 133.523 63.1432 133.161 62.8476 132.831C59.6265 129.227 57.9726 124.908 57.1497 120.216C56.6267 117.238 56.5171 114.196 55.7542 111.253C55.7005 111.041 55.411 110.631 55.9672 110.552C56.5461 110.569 56.7487 111.048 57.0298 111.427C58.9174 113.972 60.8649 116.467 63.1453 118.678C63.5608 119.083 64.0177 119.443 64.5987 119.949C64.3196 118.287 63.935 116.834 63.933 115.333C63.933 115.126 63.9123 114.917 63.9371 114.714C63.9805 114.357 63.8089 113.899 64.2472 113.696C64.7041 113.485 65.0246 113.829 65.3326 114.098C67.7908 116.258 70.0401 118.633 72.3122 120.985C72.5934 121.275 72.8415 121.596 73.255 122.077C73.441 121.182 73.3294 120.556 73.2136 119.932C72.9014 118.245 72.736 116.531 72.2171 114.884C72.0662 114.409 72.4383 114.38 72.7567 114.42C73.377 114.498 73.9352 114.772 74.4892 115.052C76.3913 116.009 77.9522 117.398 79.3911 118.942C79.8356 119.418 80.2842 119.893 80.7308 120.37C81.781 121.31 82.7961 122.274 83.0339 123.768H83.0318Z" fill="white"/>
<path d="M85.6761 143.027C84.5721 144.238 83.1021 144.437 81.6322 144.252C79.2919 143.958 77.2658 142.884 75.5519 141.26C75.1281 140.858 74.7601 140.71 74.1812 140.934C73.1289 141.34 72.0166 141.359 70.954 140.996C69.3806 140.46 67.6027 140.524 66.2361 139.386C66.0976 139.27 65.9487 139.241 65.7606 139.276C63.5278 139.707 61.9338 138.485 60.4659 137.104C57.1167 133.958 54.9997 130.008 53.2775 125.81C51.9854 122.657 51.0137 119.416 50.4431 116.053C50.1536 114.347 50.1515 112.633 50.1805 110.915C50.1888 110.403 50.3045 109.935 50.9702 109.935C51.268 109.935 51.3961 109.759 51.4416 109.491C51.8882 109.556 51.8117 109.939 51.853 110.217C52.804 116.446 54.336 122.517 56.8913 128.292C57.7865 130.317 58.9071 132.213 60.5631 133.741C61.9214 134.993 62.8745 135.152 64.5098 134.259C65.1796 133.894 65.4753 134.352 65.7647 134.765C66.9287 136.418 68.289 137.857 70.0401 138.897C70.6046 139.233 71.1669 139.581 71.8057 139.738C72.9904 140.031 74.1523 140.08 75.0061 138.982C75.5312 138.306 75.9799 138.443 76.5298 138.968C77.5284 139.923 78.6778 140.688 79.8315 141.444C81.6094 142.611 83.5446 143.17 85.674 143.025L85.6761 143.027Z" fill="#22406F"/>
<path d="M85.6761 143.027C84.2929 143.523 82.9801 143.257 81.6839 142.69C79.6805 141.811 77.9129 140.578 76.3086 139.108C75.9075 138.742 75.6987 138.489 75.2542 139.125C74.3983 140.35 73.1082 140.42 71.8264 140.004C69.4282 139.225 67.6171 137.616 66.0914 135.654C65.9859 135.519 65.8784 135.382 65.7895 135.237C65.3512 134.522 65.0039 133.981 64.0963 134.883C63.383 135.592 61.787 135.175 60.7078 134.255C58.8575 132.678 57.6521 130.632 56.6763 128.462C54.1871 122.919 52.7461 117.06 51.6607 111.104C51.5636 110.569 51.7786 109.995 51.4437 109.493C51.4271 108.888 51.4106 108.283 51.3941 107.678C51.2225 106.861 51.3465 106.037 51.3279 105.216C51.3238 105.058 51.4292 104.978 51.5946 105.009C51.8117 109.253 52.6242 113.387 53.9122 117.431C54.3422 117.708 54.3484 118.191 54.4662 118.612C55.5289 122.438 56.7073 126.222 58.5949 129.737C59.3474 131.138 60.2137 132.456 61.5017 133.451C62.339 134.099 63.1536 134.267 64.0198 133.542C64.1459 132.823 64.6007 132.761 65.1838 132.957C66.3208 133.67 66.8067 134.949 67.7081 135.875C68.9196 137.117 70.2241 138.195 71.845 138.854C72.3701 139.067 72.9056 139.129 73.4576 139.048C73.9579 138.976 74.4024 138.746 74.6153 138.286C74.8469 137.788 74.3466 137.569 74.0923 137.276C73.8669 137.017 73.6168 136.781 73.5113 136.439C73.1103 135.679 72.3991 135.111 71.9856 134.033C72.5645 134.541 72.9366 134.866 73.3087 135.192C74.9709 136.118 76.1659 137.625 77.6875 138.729C78.9073 139.616 80.125 140.482 81.4647 141.193C82.7631 141.881 84.0738 142.159 85.5065 141.825C86.41 141.164 86.6105 140.172 86.7594 139.154C86.8814 138.031 86.8876 136.908 86.7573 135.784C86.2487 131.874 85.2419 128.116 83.3523 124.628C84.1172 124.5 84.1689 125.225 84.4025 125.611C86.1454 128.475 86.9641 131.668 87.5533 134.928C87.8365 136.495 87.8861 138.068 87.638 139.649C87.4189 141.038 86.8255 142.188 85.6761 143.023V143.027Z" fill="#030405"/>
<path d="M64.0198 133.54C63.7759 134.553 63.0419 134.448 62.339 134.218C61.175 133.834 60.4204 132.918 59.7134 131.983C58.1442 129.905 57.1456 127.528 56.2504 125.109C55.3201 122.597 54.4931 120.05 53.9142 117.431C54.1189 116.869 54.1851 116.314 54.1313 115.694C54.0052 114.223 54.2471 112.772 54.6937 111.367C54.8797 110.782 55.2312 110.331 55.9693 110.556C56.0044 111.852 56.453 113.072 56.6308 114.349C56.9885 116.921 57.2035 119.516 57.8093 122.052C58.8595 126.444 60.6272 130.431 64.0198 133.542V133.54Z" fill="#E3E3DF"/>
<path d="M83.0318 123.768C82.4674 122.496 81.442 121.538 80.7287 120.369C80.309 118.778 79.2753 117.507 78.4959 116.104C77.4146 114.154 76.2714 112.239 75.1591 110.306C75.0578 110.13 74.9875 109.929 74.9317 109.732C74.8634 109.491 74.5699 109.178 74.9193 109.017C75.2108 108.88 75.3679 109.247 75.5374 109.45C78.897 113.485 81.0326 118.22 83.1621 122.952C83.3171 123.296 83.7161 123.596 83.5487 124.129C83.3605 123.996 83.1952 123.882 83.0318 123.768Z" fill="#2F87C0"/>
<path d="M51.5946 105.007C51.1997 105.873 51.5429 106.793 51.3941 107.676C51.0033 105.947 51.2018 104.233 51.5946 102.52V105.004V105.007Z" fill="#112B41"/>
<path d="M56.1161 30.4506C56.298 30.9542 56.0933 31.3044 55.7501 31.6692C55.6867 31.2063 55.8087 30.8001 56.1161 30.4506Z" fill="#4B4B4C"/>
<path d="M72.273 31.7521C72.2502 33.7996 71.1503 34.8338 69.0292 34.8027C67.5468 34.7799 66.4676 33.4929 66.4821 31.7645C66.4945 30.0278 67.7846 28.745 69.4799 28.7802C71.2103 28.8175 72.2916 29.9698 72.273 31.7541V31.7521Z" fill="#020203"/>
<path d="M50.9537 29.5843C51.1439 29.0019 51.4871 28.946 51.9998 28.9688C51.7435 29.4061 51.4499 29.5511 50.9537 29.5843Z" fill="#3F4040"/>
<path d="M49.0145 20.3081C50.6519 20.3101 51.6173 21.2199 51.6318 22.7743C51.6463 24.3763 50.3169 25.7316 48.7085 25.7524C47.1372 25.7731 46.0188 24.5586 46.0456 22.8654C46.0704 21.3546 47.2882 20.3039 49.0145 20.3081Z" fill="#020203"/>
<path d="M73.5114 136.439C74.1192 136.725 74.4107 137.343 74.9027 137.753C75.2438 138.037 75.0433 138.29 74.849 138.545C74.2453 139.336 73.2384 139.587 72.0538 139.195C70.1745 138.576 68.6984 137.355 67.4249 135.894C66.6165 134.968 65.928 133.94 65.1858 132.957C65.4877 132.79 65.4567 132.524 65.4153 132.236C65.3016 131.442 65.3512 130.661 66.2485 130.379C67.0155 130.139 67.5241 130.643 67.9293 131.241C69.2876 133.25 70.9167 134.99 72.9242 136.362C73.1144 136.493 73.2736 136.746 73.5134 136.437L73.5114 136.439Z" fill="#E3E3DF"/>
<path d="M85.5086 141.827C84.7457 142.555 83.8567 142.348 83.0029 142.109C81.4647 141.68 80.123 140.843 78.8474 139.913C76.8833 138.48 74.9958 136.955 73.3108 135.192C73.7181 134.707 73.4845 134.133 73.4948 133.606C73.5072 133.005 73.7822 132.611 74.2639 132.373C74.7745 132.12 75.1012 132.512 75.3989 132.846C76.6952 134.3 77.8281 135.892 79.1968 137.293C81.043 139.183 83.2241 140.57 85.5086 141.827Z" fill="#E3E3DF"/>
<path d="M86.7573 135.788C87.0385 136.912 87.0674 138.035 86.7594 139.158C86.7594 138.035 86.7594 136.912 86.7573 135.788Z" fill="#A4A4A4"/>
<path d="M68.7273 30.8091C68.318 30.7635 68.0575 30.5563 68.0451 30.1542C68.0347 29.7998 68.227 29.5698 68.6136 29.5822C68.9775 29.5946 69.1863 29.7895 69.2152 30.1521C69.2442 30.5169 69.0622 30.7303 68.7273 30.807V30.8091Z" fill="#EBEBEB"/>
<path d="M49.1344 21.5349C49.0537 21.9639 48.8325 22.2955 48.3487 22.281C47.9683 22.2686 47.6975 22.0157 47.7347 21.624C47.7823 21.1329 48.1875 20.9816 48.6072 20.9484C48.9897 20.9173 49.1447 21.1578 49.1323 21.537L49.1344 21.5349Z" fill="#E4E4E4"/>
</g>
<defs>
<clipPath id="clip0_1_665">
<rect width="134" height="212" fill="white" transform="translate(0 0.000244141)"/>
</clipPath>
</defs>
</svg>
