<svg width="298" height="252" viewBox="0 0 298 252" fill="none" xmlns="http://www.w3.org/2000/svg">
<circle cx="239.824" cy="185" r="57.7059" fill="#4C4777"/>
<circle cx="42.8824" cy="51.5883" r="42.8824" fill="#B4AFDF"/>
<g clip-path="url(#clip0_1_57)">
<path d="M183.055 216.14C182.925 218.58 181.225 220.02 179.735 221.58C179.615 221.7 179.495 221.82 179.385 221.94C179.365 221.96 179.355 221.97 179.335 221.99C174.725 226.34 169.315 229.54 163.895 232.72C154.345 238.33 144.115 242.37 133.685 245.93C129.725 247.28 125.635 247.97 121.485 248.29C121.455 248.41 121.525 248.49 121.655 248.59C122.515 249.3 124.275 249.65 123.785 250.97C123.335 252.16 121.785 251.32 120.735 251.26C117.295 251.05 113.855 251 110.415 250.69C106.235 250.32 102.065 249.89 97.9047 249.38C92.9847 248.78 88.1147 247.79 83.2347 246.95C81.9947 246.73 80.7747 246.38 79.5547 246.05C79.5247 246.05 79.5047 246.05 79.4747 246.03C77.8247 245.62 76.1847 245.2 74.5347 244.79H74.5247C65.5647 242.58 56.9947 239.42 49.4247 233.98C40.6547 227.67 33.6747 219.8 29.1147 209.91C29.1047 209.9 29.1047 209.88 29.0947 209.87C23.7247 199.19 20.0647 187.94 17.7647 176.23C16.9947 172.29 17.4247 168.34 17.9547 164.41C18.8547 158.27 22.7947 154.66 28.1247 152.28C30.4147 151.25 32.8947 150.75 35.3747 150.58C36.7747 150.48 37.6947 149.98 38.3747 148.83C38.4347 148.85 38.4947 148.88 38.5447 148.91C39.4247 149.32 39.2747 150.21 39.2247 150.94C39.0347 154.48 39.7847 157.98 39.7147 161.53C39.6447 164.67 41.8147 166.28 44.2547 167.7C48.9447 170.42 55.4947 169.57 59.1947 165.77C61.7247 163.18 61.5947 160.02 61.2847 156.8C61.2147 156.04 60.9647 155.31 61.3047 154.56C61.3947 154.44 61.4847 154.35 61.5847 154.29C61.6147 154.27 61.6447 154.25 61.6647 154.24C62.0847 154.03 62.5647 154.29 62.9847 154.43C69.6247 156.59 75.7447 159.86 81.6947 163.49C82.1147 163.74 82.4547 164.09 82.4747 164.63C82.4347 164.68 82.4047 164.72 82.3647 164.76C82.3447 164.79 82.3147 164.82 82.2947 164.84C81.9647 165.15 81.6147 165.15 81.2447 165.04C81.7447 165.21 82.2247 165.4 82.7047 165.59C88.6247 167.95 93.6647 171.38 98.1647 175.48C102.805 179.67 106.885 184.58 110.755 189.71C114.365 194.49 117.465 199.64 120.925 204.54C120.925 204.56 120.955 204.58 120.965 204.6C121.005 204.67 121.035 204.73 121.075 204.8C122.055 206.63 123.345 208.24 124.625 209.85C124.625 209.85 124.635 209.85 124.635 209.87C124.725 210 124.815 210.12 124.905 210.24C126.685 212.52 129.305 212.83 131.955 212.95C137.585 213.22 143.115 212.34 148.635 211.39C150.445 211.08 152.245 210.73 154.035 210.35C155.175 210.12 156.315 209.87 157.445 209.62C162.735 208.41 167.985 207.01 173.235 205.62C173.365 205.6 173.495 205.58 173.625 205.56C174.615 205.42 175.545 205.43 176.415 205.61H176.425C177.865 205.92 179.135 206.71 180.195 208.09C180.315 208.22 180.435 208.35 180.565 208.49C180.635 208.58 180.715 208.67 180.785 208.77C180.915 208.92 181.035 209.09 181.135 209.26C181.155 209.28 181.165 209.3 181.175 209.32C181.175 209.34 181.195 209.35 181.205 209.37C181.675 210.73 182.555 211.95 182.675 213.44C182.675 213.78 182.705 214.13 182.755 214.47C182.775 214.66 182.815 214.85 182.875 215.03C182.875 215.08 182.895 215.12 182.915 215.17C182.915 215.19 182.915 215.2 182.925 215.22C182.925 215.23 182.925 215.24 182.925 215.25C182.965 215.43 183.005 215.61 183.015 215.8C183.025 215.87 183.035 215.94 183.035 216.01C183.035 216.05 183.035 216.1 183.035 216.14H183.055Z" fill="#536FB4"/>
<path d="M232.485 41.6599C231.875 42.4399 230.995 42.2999 230.185 42.3099C227.665 42.3499 225.135 42.2999 222.615 42.3399H222.375C215.505 42.4399 208.665 42.4399 201.805 42.3399H200.545C161.335 42.2799 122.125 42.3399 82.9047 42.3199C76.1847 42.3199 69.4647 42.2999 62.7447 42.3299C62.2147 42.3299 61.7347 42.3599 61.3047 42.4399C59.2847 42.7799 58.3547 43.9599 58.0447 46.4299C56.5647 58.5899 54.9447 70.7399 53.3647 82.8799C52.8747 86.5799 52.3647 90.2699 51.8047 93.9499C51.8047 94.0299 51.7747 94.1199 51.7647 94.1999C51.6747 94.7499 51.5547 95.2999 51.0647 95.6499C50.8547 95.6199 50.6447 95.5999 50.4347 95.5899C50.4147 95.5799 50.3947 95.5799 50.3747 95.5799C47.2447 95.3499 45.4347 96.7099 45.2247 100.32C45.1547 101.63 44.0047 101.86 42.8447 101.42C41.1647 100.78 39.5747 99.9299 37.8947 99.2699C36.0047 98.5299 34.0747 98.2399 32.0447 98.1099C28.5447 97.8899 26.1247 99.7199 23.9147 101.99C22.3647 103.57 21.9547 105.49 22.5247 107.74C23.3447 110.98 24.7647 113.85 26.9147 116.36C29.0447 118.85 30.2747 121.75 30.8647 124.95C31.2347 126.94 31.8147 128.86 32.4947 130.75C33.2547 132.85 34.5047 134.55 36.6547 135.4C37.6647 135.8 38.3047 136.44 38.4047 137.52C38.4147 137.58 38.4247 137.65 38.4247 137.72C38.4047 138.44 38.4047 139.17 38.4247 139.89H38.4347C38.4747 141.99 38.6447 144.08 38.8347 146.16C38.9147 147.07 39.0047 148.04 38.5347 148.91C38.4947 149 38.4447 149.08 38.3847 149.16C38.4047 149.33 38.4047 149.47 38.4047 149.6C38.3747 150.69 37.6747 150.93 36.4647 151.03C30.1847 151.52 24.5147 153.34 20.6447 158.83C19.4247 160.55 18.6847 162.47 17.9447 164.41C17.1047 156.77 16.9947 149.08 16.5047 141.43C16.0347 134.12 16.2747 126.85 16.7747 119.63C17.6447 107.1 20.4947 94.9499 25.0447 83.1999C28.9847 73.0199 34.0947 63.4999 40.3947 54.6199C43.8747 49.7099 47.8047 45.1799 51.8647 40.7199C57.5947 34.4499 64.0747 29.0899 70.9947 24.2699C76.8147 20.2199 82.9347 16.6399 89.3547 13.5199C95.0747 10.7299 100.895 8.21992 106.885 6.14992C113.475 3.87992 120.275 2.38992 127.155 1.25992C134.145 0.099923 141.165 -0.100077 148.215 0.039923C156.375 0.209923 164.375 1.50992 172.265 3.58992C181.465 6.01992 190.235 9.54992 198.545 14.1399C205.845 18.1899 212.675 22.9899 219.065 28.4299C223.865 32.5099 228.345 36.9099 232.485 41.6599Z" fill="#CBDBF2"/>
<path d="M268.205 137.38C267.825 144.82 267.225 152.24 265.935 159.6C264.545 167.53 262.565 175.27 259.675 182.75C257.265 189.01 254.335 195.01 250.695 200.72C246.495 207.32 241.585 213.23 235.985 218.61C229.665 224.69 222.555 229.62 214.925 233.91C204.425 239.81 193.205 243.72 181.595 246.58C173.515 248.57 165.315 249.9 157.015 250.77C145.155 252.03 133.275 252.2 121.405 251.83C113.175 251.57 104.945 250.85 96.7547 249.56C91.2447 248.68 85.7647 247.8 80.3347 246.54C79.9847 246.46 79.6647 246.38 79.4847 246.04C79.5047 246.04 79.5347 246.04 79.5547 246.04C84.1047 246.79 88.6347 247.57 93.1847 248.26C101.945 249.57 110.755 250.45 119.625 250.74C120.965 250.78 122.305 250.89 123.775 250.61C122.535 249.8 121.305 248.99 120.065 248.18C131.295 247.43 141.305 242.82 151.315 238.49C161.375 234.12 170.855 228.66 179.235 221.46V221.45C179.455 221.47 179.615 221.51 179.725 221.57C180.185 221.83 179.855 222.41 179.755 222.81C179.495 223.82 179.315 224.87 178.925 225.82C177.715 228.78 180.855 232.41 183.865 232.18C193.095 231.48 201.885 229.35 209.525 223.77C211.475 222.36 212.845 220.42 213.855 218.27C215.305 215.18 214.465 211.8 211.765 209.72C209.585 208.04 207.405 206.3 204.535 205.97C204.415 205.95 204.295 205.94 204.175 205.93C204.145 205.92 204.105 205.92 204.075 205.92C203.585 205.69 203.105 205.46 202.615 205.23C200.465 204.18 198.305 203.19 195.725 203.19C192.465 203.19 189.615 204.06 186.975 205.86C185.785 206.67 184.545 207.37 183.255 207.97C183.045 208.07 182.835 208.17 182.625 208.26C182.035 208.51 181.435 208.86 180.775 208.76C180.605 208.73 180.435 208.67 180.265 208.58H180.245C178.365 206.68 176.185 205.59 173.425 206.05C173.465 205.84 173.525 205.68 173.615 205.55C173.985 204.94 174.765 205.09 175.385 205.05C178.275 204.86 180.695 203.61 182.835 201.74C184.755 200.06 185.755 197.98 185.725 195.34C185.675 190 185.695 184.66 185.725 179.32C185.725 178.33 185.655 177.28 186.355 176.53C186.355 176.51 186.395 176.48 186.415 176.46C186.465 176.41 186.515 176.37 186.575 176.32C186.695 176.23 186.825 176.14 186.985 176.06C186.995 176.06 186.995 176.05 187.005 176.05C188.095 175.74 189.205 175.85 190.315 175.85C206.435 175.85 222.555 175.85 238.675 175.85C239.705 175.85 240.755 175.97 241.765 175.64C243.545 175.27 245.355 175.46 247.155 175.4C249.955 175.31 250.955 174.5 251.305 171.79C252.745 160.63 254.165 149.46 255.555 138.3C257.255 124.73 258.975 111.16 260.845 97.5999C260.965 96.7399 260.855 95.7699 261.675 95.1299H261.685C263.475 97.3999 263.515 100.27 264.215 102.9C265.935 109.38 266.965 115.98 267.455 122.68C267.815 127.57 268.455 132.47 268.195 137.38H268.205Z" fill="#CCDBF2"/>
<path d="M267.705 48.7199C266.875 54.6699 266.215 60.6499 265.335 66.5899C264.455 72.4499 263.985 78.3599 262.965 84.2099C262.345 87.7999 261.945 91.4699 261.685 95.1299H261.695C260.695 102.39 259.945 109.69 258.765 116.94C257.625 123.92 257.135 131 256.215 138.02C255.285 145.16 254.455 152.31 253.395 159.43C252.805 163.38 252.385 167.41 252.005 171.41C251.655 175.16 250.635 176.04 246.845 176.05C245.255 176.05 243.655 176.08 242.065 176.09C241.325 176.35 240.555 176.23 239.805 176.23H199.575C195.245 176.23 190.915 176.18 186.585 176.33C186.365 176.34 186.135 176.35 185.915 176.36C184.845 176.4 183.785 176.46 182.715 176.53C182.325 176.56 181.945 176.58 181.555 176.62C181.495 176.62 181.425 176.62 181.365 176.63H181.335C165.685 176.61 150.025 176.62 134.365 176.63H133.165C122.995 176.6 112.835 176.63 102.665 176.61C101.775 176.61 100.875 176.71 100.005 176.43C99.9547 176.43 99.9147 176.4 99.8747 176.39C99.8447 176.39 99.8247 176.38 99.7947 176.37C99.6147 176.28 99.4947 176.16 99.4347 176C99.4047 175.91 99.3947 175.81 99.3947 175.71C99.4947 175.59 99.6047 175.5 99.7147 175.41H99.7247C99.8147 175.34 99.9147 175.28 100.015 175.23C100.785 174.85 101.685 175.04 102.505 175.04C113.805 175.02 125.115 175.04 136.415 175.02C155.545 175.04 174.675 175.02 193.805 175.03C194.705 175.03 195.615 175.07 196.485 174.79C197.705 174.52 198.965 174.58 200.205 174.58C213.225 174.57 226.255 174.58 239.275 174.57C243.465 174.57 244.145 173.92 244.665 169.74C247.575 146.3 250.705 122.9 253.685 99.4699C255.795 82.8599 257.935 66.2699 260.025 49.6599C260.425 46.4199 259.505 44.8099 256.705 43.4799C255.785 43.0699 254.805 43.1699 253.845 43.1699C244.545 43.1699 235.235 43.1699 225.925 43.1599C224.965 43.1599 223.995 43.2499 223.055 42.9799C222.755 42.7899 222.415 42.6199 222.375 42.3399C222.345 42.1899 222.405 42.0099 222.625 41.7699H222.635C225.915 41.7299 229.195 41.6999 232.475 41.6599H232.485C242.255 41.6999 252.005 41.7299 261.775 41.7699C266.205 41.7799 268.315 44.2999 267.705 48.7199Z" fill="#010102"/>
<path d="M29.1147 209.89C29.1147 209.89 29.0947 209.88 29.0947 209.87H29.1047C29.1047 209.87 29.1047 209.88 29.1147 209.89Z" fill="#CCDCF2"/>
<path d="M74.5247 244.79C73.0147 245.02 71.6847 244.34 70.2947 243.98C62.2547 241.9 54.5747 238.92 47.7147 234.12C41.4547 229.74 36.6447 224.01 32.7247 217.48C31.2647 215.06 29.6847 212.73 29.1147 209.91C31.5647 213.56 33.7147 217.39 36.4447 220.88C44.1047 230.61 53.8147 237.39 65.3747 241.6C68.4147 242.7 71.4647 243.73 74.5247 244.79Z" fill="#CCDCF2"/>
<path d="M257.065 42.9699C259.835 43.9999 261.125 45.7399 260.765 48.6599C260.165 53.5799 259.355 58.4899 258.805 63.4099C258.125 69.4099 257.335 75.3799 256.595 81.3699C255.175 92.7899 253.665 104.18 252.205 115.59C250.635 127.84 249.055 140.08 247.495 152.33C246.655 158.9 245.835 165.47 244.965 172.03C244.685 174.19 243.375 175.15 240.835 175.16C226.495 175.18 212.155 175.2 197.805 175.22C197.455 175.22 197.115 175.24 196.765 175.25C196.025 175.5 195.255 175.38 194.495 175.38C175.175 175.38 155.845 175.38 136.525 175.38C124.255 175.39 111.985 175.36 99.7147 175.4C98.9647 175.87 98.3447 175.71 97.6847 175.12C93.4247 171.31 88.7347 168.16 83.4147 166.02C82.8647 165.8 82.4147 165.52 82.4447 164.84C80.5047 162.92 77.9647 161.92 75.6547 160.59C71.2247 158.05 66.4847 156.16 61.6947 154.39C60.4947 153.39 61.2947 151.9 60.8147 150.72C60.5847 149.35 61.4547 148.89 62.5547 148.62C63.9647 148.27 65.3947 148.04 66.7847 147.59C68.5147 147.04 69.3647 145.96 69.3547 144.07C69.3347 141.48 68.8147 138.98 68.2547 136.48C67.8847 134.84 68.0347 133.62 69.7847 132.97C70.6747 132.63 71.1247 131.84 70.8147 130.97C70.3347 129.61 70.8347 128.54 71.4547 127.44C72.0047 126.45 72.2847 125.42 72.2547 124.27C72.1947 121.67 71.6047 121.06 69.0547 121.15C67.1147 121.22 66.3547 120.61 66.1447 118.82C65.9547 117.16 66.5947 116.54 68.7947 116.23C70.7347 116.15 72.6847 116.44 74.6147 116.02C76.7047 115.66 77.7447 114.3 77.8947 112.29C78.2247 107.87 76.8747 104.07 73.3947 101.23C71.4847 99.6699 69.3047 99.4199 66.9647 100.46C64.3047 101.64 60.2547 100.71 58.6647 98.6699C58.6747 94.4199 59.5947 90.2799 60.0647 86.0799C60.7347 80.0299 61.7447 74.0299 62.4447 67.9799C63.0847 62.3599 64.0047 56.7699 64.4247 53.3099C63.8847 58.2699 62.7247 65.3499 61.9047 72.4799C61.3347 77.4899 60.5047 82.4799 59.8547 87.4799C59.4347 90.7099 58.9047 93.9199 58.6447 97.1699C58.6047 97.6699 58.4947 98.1299 58.1047 98.4799C55.5547 98.8999 53.5647 97.7399 51.7147 96.1899C51.7047 92.2399 52.5347 88.3799 53.0147 84.4799C53.6247 79.5599 54.2947 74.6399 54.9347 69.7199C55.6847 63.9799 56.4247 58.2399 57.1847 52.4999C57.5047 50.1099 57.6847 47.7099 58.1647 45.3299C58.5047 43.6899 59.3747 42.7599 60.9847 42.4599C62.1647 42.3799 63.3447 42.4199 64.5247 42.4199H197.155C198.195 42.4199 199.235 42.4399 200.265 42.3899C200.745 42.3399 201.185 42.1999 201.535 41.8399C208.575 41.8199 215.605 41.8099 222.635 41.7899C222.545 42.1299 222.485 42.4699 222.905 42.6599C223.645 42.9599 224.415 42.8099 225.155 42.8099C235.035 42.8199 244.925 42.8099 254.805 42.8299C255.555 42.8299 256.325 42.6599 257.055 43.0099V42.9899L257.065 42.9699Z" fill="#9BB5DF"/>
<path d="M124.005 209.86C122.655 208.33 121.515 206.66 120.565 204.85C121.875 203.64 123.525 203.1 125.145 202.53C131.445 200.33 133.755 197.1 133.755 190.44C133.755 186.55 133.725 182.66 133.785 178.77C133.795 177.87 133.495 176.76 134.685 176.23C150.035 176.23 165.395 176.23 180.735 176.23C181.005 176.21 181.245 176.28 181.455 176.44C182.015 177.23 181.925 178.16 181.935 179.05C181.955 183.49 181.985 187.94 181.935 192.38C181.885 196.55 180.125 199.94 176.415 201.74C169.885 204.91 163.265 207.93 156.265 209.95C154.995 210.32 153.685 210.39 152.365 210.39C143.925 210.39 135.475 210.39 127.025 210.39C125.985 210.39 124.945 210.41 124.005 209.83V209.86Z" fill="#9BB5DF"/>
<path d="M134.365 176.5C134.365 181.36 134.245 186.22 134.375 191.07C134.555 197.95 131.305 200.75 125.765 202.92C124.055 203.59 122.495 204.75 120.565 204.85C116.155 198.73 112.325 192.18 107.535 186.33C101.355 178.77 94.6847 171.76 85.6847 167.49C83.9347 166.66 82.1147 165.99 80.3247 165.25C79.8547 165.05 79.2247 165.07 79.0747 164.25C80.3347 163.87 81.3047 164.92 82.4447 164.83C82.9847 165.64 83.9347 165.77 84.7347 166.12C90.0347 168.43 94.5747 171.86 98.9147 175.6C99.2047 175.57 99.2847 175.81 99.4247 175.98H99.4647C100.165 176.45 100.945 176.21 101.685 176.21C112.065 176.23 122.455 176.22 132.835 176.22C133.345 176.28 133.915 176.05 134.365 176.48V176.5Z" fill="#CCDBF2"/>
<path d="M204.235 205.61C206.625 205.07 208.275 206.7 210.035 207.76C215.155 210.85 216.015 213.75 214.395 218.38C213.555 220.79 211.845 222.83 209.715 224.33C202.975 229.1 195.395 231.54 187.245 232.33C186.155 232.44 185.065 232.7 183.975 232.71C180.025 232.75 177.585 229.55 178.395 225.68C178.685 224.27 179.685 222.99 179.245 221.44C180.695 219.81 182.455 218.37 182.725 215.98C183.715 215.23 184.825 215.52 185.905 215.63C188.205 216.08 190.505 216 192.815 215.69C196.795 215.01 200.765 214.61 204.725 215.8C205.125 215.92 205.555 215.87 205.965 215.85C208.925 215.7 209.795 214.18 208.345 211.61C207.525 210.16 206.535 208.83 205.325 207.66C204.765 207.12 203.935 206.63 204.245 205.6L204.235 205.61Z" fill="#9BB5DF"/>
<path d="M124.005 209.86C133.835 209.84 143.655 209.81 153.475 209.82C155.235 209.82 156.935 209.53 158.525 208.87C163.955 206.63 169.385 204.39 174.745 202.01C179.045 200.1 181.405 196.83 181.325 191.92C181.245 186.79 181.325 181.65 181.325 176.52C183.115 176.07 184.915 176.05 186.705 176.54C186.205 177.29 186.325 178.14 186.325 178.96C186.325 184.37 186.205 189.79 186.365 195.19C186.465 198.71 184.865 201.18 182.215 203.07C180.015 204.64 177.605 205.86 174.745 205.64C174.265 205.6 173.765 205.61 173.425 206.06C161.135 209.59 148.755 212.69 135.935 213.55C133.525 213.71 131.105 213.67 128.705 213.18C126.625 212.75 124.965 211.82 123.985 209.86H124.005Z" fill="#FDFEFD"/>
<path d="M182.255 213.57C182.155 212.06 181.035 210.91 180.825 209.44C186.485 206.29 191.595 201.37 198.955 203.56C203.805 205 206.845 208.44 208.915 212.87C209.605 214.35 208.935 215.26 207.425 215.61C206.115 215.91 204.805 215.87 203.515 215.55C200.575 214.84 197.675 214.96 194.695 215.47C191.705 215.99 188.635 215.94 185.605 215.59C185.075 215.46 184.535 215.34 183.995 215.34C182.805 215.34 182.315 214.66 182.255 213.55V213.57Z" fill="white"/>
<path d="M118.735 249.15C117.035 249.64 115.695 249 114.335 248.77C104.045 246.98 96.0447 241.3 89.1247 233.78C80.3047 224.19 72.8547 213.64 66.8347 202.08C66.2847 201.02 65.5547 200.01 65.4247 198.67C66.6247 198.77 66.6547 199.68 66.9747 200.31C74.1647 214.21 83.0847 226.8 94.4147 237.65C100.675 243.65 108.205 246.72 116.525 248.23C117.255 248.36 117.975 248.39 118.715 249.16L118.735 249.15Z" fill="#C0DAF3"/>
<path d="M185.505 215.15C189.515 215.36 193.505 215.41 197.475 214.51C199.475 214.05 201.445 214.73 203.415 215.03C205.155 215.3 207.435 216.15 208.475 214.53C209.555 212.85 207.665 211.25 206.655 209.87C201.515 202.86 194.305 201.56 187.095 206.29C185.125 207.58 183.085 208.72 180.835 209.45C180.475 209.28 180.215 209.04 180.265 208.6C182.545 207.95 184.595 206.82 186.535 205.5C192.475 201.46 198.375 201.61 204.245 205.62C205.715 207.36 207.465 208.86 208.565 210.9C209.275 212.22 210.465 213.67 209.405 215.11C208.375 216.51 206.445 216.92 204.895 216.42C200.925 215.13 196.995 215.75 193.025 216.15C190.655 216.37 188.275 216.37 185.905 216.15C184.845 216.1 183.785 216.05 182.735 216.01C182.735 215.77 182.715 215.52 182.705 215.28C183.625 214.85 184.575 215.03 185.525 215.17L185.505 215.15Z" fill="#0E1118"/>
<path d="M61.2247 150.47C61.7747 151.73 61.3947 153.11 61.7047 154.4C61.8047 155.99 61.8547 157.57 62.0047 159.16C62.5047 164.63 58.3447 168.83 52.9947 169.69C48.9847 170.33 45.3247 169.32 42.0247 167.01C40.0847 165.65 39.2347 163.71 39.1247 161.34C38.9447 157.28 38.6447 153.22 38.3947 149.16C38.3647 145.19 37.6247 141.24 37.9347 137.25C39.3947 137.79 38.5347 139.25 39.0847 140.15C39.2847 141.03 39.2247 141.94 39.5347 142.8C39.8947 148.48 40.3747 154.15 40.4747 159.83C40.5347 163.56 42.2147 165.82 45.4347 167.23C50.4047 169.4 55.6547 168.44 58.7847 164.82C60.1847 163.2 60.8347 161.39 60.4147 159.24C60.0747 157.45 60.0647 155.65 60.3447 153.84C60.8447 152.77 60.1947 151.39 61.2247 150.46V150.47Z" fill="#131522"/>
<path d="M185.505 215.15C184.565 215.19 183.625 215.22 182.685 215.26C182.045 214.83 182.195 214.19 182.265 213.57C182.665 215.51 184.595 214.28 185.505 215.15Z" fill="#ADB6C7"/>
<path d="M38.5947 140.14C37.9047 139.28 38.7447 138.08 37.9347 137.25C37.8847 136.66 37.7147 136.27 37.0147 136.11C34.7247 135.61 33.4047 133.97 32.4147 131.98C31.4247 129.98 30.8247 127.83 30.4747 125.66C29.8447 121.85 28.2647 118.57 25.7247 115.7C23.1147 112.74 22.0347 109.16 21.6647 105.32C21.5947 104.61 21.7847 104.02 22.1847 103.41C25.8247 97.9599 30.0947 96.5299 36.0647 98.1199C38.4447 98.7499 40.6947 99.8799 42.9447 100.93C44.2147 101.52 44.6747 101.1 44.8547 99.8999C44.9347 99.3499 44.9647 98.7899 45.0847 98.2599C45.7847 95.1099 47.2247 94.3799 50.3447 95.5599C50.9347 95.8599 51.7047 95.7199 52.1547 96.3299C54.0547 97.0399 55.9447 97.7599 57.8547 98.4699C58.3947 98.2199 58.7447 98.5299 59.0847 98.8899C60.7047 99.8699 62.5447 100.16 64.3547 100.49C65.0847 100.62 65.8847 100.6 66.5547 100.17C69.3147 98.3999 71.9147 99.1099 74.0947 101.07C77.6847 104.28 79.0247 108.41 78.3247 113.21C78.0347 115.22 76.9147 116.27 74.9247 116.46C72.8247 116.87 70.6747 116.34 68.5747 116.76C67.8047 116.91 66.6147 116.66 66.5347 117.68C66.4647 118.65 66.9647 119.68 67.3147 120.65C67.5147 121.2 67.9847 120.85 68.3647 120.77C71.8647 120.07 73.0647 121.15 72.8447 124.76C72.7947 125.67 72.5947 126.54 72.1647 127.35C71.4847 128.62 70.5947 129.72 71.4447 131.41C71.8947 132.31 71.0547 133.35 69.9847 133.53C68.2447 133.81 68.4247 134.82 68.7247 136.07C69.4047 138.9 69.9347 141.73 69.9347 144.67C69.9347 146.45 69.1847 147.45 67.6647 147.92C65.9547 148.45 64.2047 148.89 62.4447 149.22C61.6147 149.37 61.2147 149.68 61.2147 150.5C60.8547 151.62 61.5647 152.88 60.7747 153.95C59.4147 153.11 60.0447 151.56 59.5047 150.43C58.2447 149.4 56.7747 150.15 55.4147 149.93C50.6647 149.42 48.0247 147.05 47.0147 142.39C46.6447 140.69 46.3947 138.96 45.5747 137.4C44.7847 135.89 43.1347 135.41 41.0347 135.86C39.4247 136.2 39.1747 137.31 39.2447 138.67C39.1847 139.24 39.1747 139.84 38.5847 140.18L38.5947 140.14Z" fill="#010101"/>
<path d="M52.1547 96.3199C51.5447 96.0699 50.8247 96.1099 50.3447 95.5499C50.9347 95.6099 51.1247 95.3699 51.2047 94.7499C53.2747 78.5699 55.3747 62.3999 57.4947 46.2299C57.9347 42.8799 59.2347 41.7399 62.5347 41.7399C108.255 41.7399 153.965 41.7399 199.685 41.7399C200.305 41.7399 200.925 41.7899 201.545 41.8199C201.475 42.0799 201.395 42.3299 201.325 42.5899C200.535 42.9699 199.685 42.7699 198.865 42.7699C153.615 42.7799 108.365 42.7699 63.1147 42.7899C62.2947 42.7899 61.4547 42.6399 60.6447 42.9299C59.2747 43.3299 58.7247 44.3299 58.5547 45.6899C57.5147 53.7899 56.4447 61.8799 55.3847 69.9799C54.3247 78.1399 53.2747 86.3099 52.2247 94.4799C52.1447 95.0899 52.1747 95.7099 52.1547 96.3299V96.3199Z" fill="#0C101D"/>
<path d="M154.765 5.38998C156.905 5.24998 158.985 5.78998 161.215 5.96998C160.465 6.92998 159.455 6.78998 158.545 6.69998C150.335 5.80998 142.115 6.11998 133.925 6.79998C120.635 7.87998 107.705 10.62 95.3647 15.86C91.2247 17.62 87.2247 19.64 83.3647 21.94C82.7847 22.29 82.2647 23.02 80.8847 22.47C90.1047 16.39 99.8547 12.5 110.105 9.80998C120.345 7.11998 130.775 5.57998 141.375 5.38998C145.835 5.16998 150.305 5.16998 154.765 5.38998Z" fill="#0C1117"/>
<path d="M146.455 11.6099C146.835 12.8699 145.835 12.4499 145.335 12.4699C142.725 12.6099 140.115 12.7699 137.505 12.8799C124.245 13.4599 111.525 16.3299 99.2847 21.4099C98.6847 21.6599 98.6747 21.6599 97.5747 21.3899C111.445 14.8899 126.175 12.1899 141.395 11.6199C143.085 11.4199 144.775 11.4499 146.465 11.5999L146.455 11.6099Z" fill="#0E121A"/>
<path d="M192.105 26.7099C190.225 26.7599 188.495 25.0999 188.455 23.2199C188.405 21.2499 189.925 19.6199 191.885 19.5399C193.925 19.4599 195.505 20.8899 195.595 22.8899C195.695 24.9899 194.165 26.6599 192.105 26.7099Z" fill="#161B25"/>
<path d="M40.7647 78.98C39.3947 78.89 38.3647 78.01 38.3647 76.41C38.3647 74.83 39.2847 73.81 40.9647 73.79C42.6347 73.77 43.5147 74.77 43.6547 76.35C43.7747 77.74 42.4647 78.97 40.7747 78.98H40.7647Z" fill="#1B1F27"/>
<path d="M154.765 5.38996H141.375C145.835 4.84996 150.305 4.83996 154.765 5.38996Z" fill="#6E7C87"/>
<path d="M179.525 18.1199C180.225 18.6899 181.205 19.0099 181.565 19.9699C181.635 20.1699 181.285 20.5299 181.015 20.3799C180.195 19.9099 179.315 19.4499 178.915 18.5199C178.805 18.2499 179.185 18.1199 179.525 18.1199Z" fill="#2E3544"/>
<path d="M173.655 21.2199C173.675 19.9599 174.345 19.1599 175.645 18.4099C175.475 19.9499 174.705 20.6799 173.655 21.2199Z" fill="#252B3B"/>
<path d="M40.9247 65.51C40.4847 65.51 40.2547 65.24 40.4047 65.01C40.9247 64.17 41.8147 63.79 42.6947 63.46C42.9547 63.36 43.2947 63.7 43.1447 63.94C42.6047 64.77 41.6947 65.1 40.9447 65.51H40.9247Z" fill="#282E3E"/>
<path d="M180.675 12.7899C180.215 13.5899 179.705 14.3999 178.895 14.9299C178.625 15.1099 178.345 14.7199 178.425 14.4799C178.735 13.5499 179.375 12.8299 180.155 12.2799C180.395 12.1099 180.575 12.4899 180.685 12.7899H180.675Z" fill="#262F3D"/>
<path d="M48.5047 67.2399C47.9047 67.0599 47.7247 67.0599 47.6647 66.9799C47.1047 66.2399 46.3547 65.5999 46.3147 64.5799C46.3147 64.4899 46.7347 64.2599 46.7847 64.3099C47.6147 65.0099 48.1347 65.8899 48.5047 67.2499V67.2399Z" fill="#252E3D"/>
<path d="M49.8947 59.54C49.8247 60.05 47.7647 61.35 47.4247 61.15C47.2747 61.06 47.1247 60.84 47.1147 60.67C47.1147 60.29 49.2947 58.98 49.6147 59.16C49.7547 59.24 49.8347 59.44 49.8947 59.52V59.54Z" fill="#222937"/>
<path d="M172.505 13.5099C172.785 13.3199 172.855 13.2399 172.895 13.2599C173.895 13.5399 174.695 14.0799 175.115 15.0699C175.135 15.1299 174.835 15.4499 174.775 15.4199C173.825 15.0599 173.065 14.4699 172.505 13.5199V13.5099Z" fill="#1F2531"/>
<path d="M43.9947 59.6399C44.0447 60.0599 43.8247 60.3799 43.6147 60.2999C42.6647 59.9299 42.4047 58.9599 41.9647 58.1599C41.8447 57.9399 41.9847 57.4999 42.2947 57.6099C43.2847 57.9399 43.4547 59.0099 44.0047 59.6399H43.9947Z" fill="#262D39"/>
<path d="M146.455 11.6099C144.765 11.6099 143.075 11.6199 141.385 11.6299C143.075 11.1899 144.765 11.0499 146.455 11.6099Z" fill="#808A99"/>
<path d="M213.325 230.07C213.425 229.11 214.225 228.96 214.765 228.62C229.145 219.45 240.695 207.55 249.275 192.77C249.545 192.3 249.745 191.29 250.435 191.71C251.145 192.14 250.315 192.79 250.045 193.26C241.345 208.4 229.495 220.49 214.745 229.74C214.375 229.97 214.025 230.45 213.325 230.08V230.07Z" fill="#0D121B"/>
<path d="M186.715 176.54C184.925 176.54 183.125 176.53 181.335 176.52C181.295 176.46 181.255 176.4 181.225 176.34C181.255 176.25 181.295 176.17 181.325 176.08C201.295 176.05 221.265 176.02 241.235 176C241.515 176 241.775 176.06 242.055 176.09C241.315 176.66 240.445 176.39 239.645 176.39C223.175 176.42 206.705 176.44 190.225 176.46C189.045 176.46 187.875 176.51 186.695 176.54H186.715Z" fill="#9FA5B6"/>
<path d="M254.915 180.61C256.355 180.64 257.485 181.83 257.485 183.3C257.485 184.67 256.185 185.93 254.805 185.89C253.395 185.85 252.175 184.57 252.205 183.18C252.245 181.77 253.495 180.57 254.905 180.6L254.915 180.61Z" fill="#1B202C"/>
<path d="M136.455 175.28C149.995 175.25 163.535 175.21 177.075 175.2C183.635 175.2 190.195 175.24 196.755 175.26C196.275 175.64 195.705 175.56 195.165 175.56C175.855 175.59 156.545 175.62 137.235 175.64C136.965 175.64 136.685 175.6 136.405 175.58C136.275 175.49 136.235 175.42 136.295 175.36C136.345 175.31 136.395 175.29 136.445 175.29L136.455 175.28Z" fill="#2A385D"/>
<path d="M181.335 176.08C181.325 176.18 181.285 176.26 181.235 176.34C166.165 176.38 151.095 176.42 136.015 176.46C135.465 176.46 134.915 176.49 134.365 176.5C133.945 176.45 133.525 176.41 133.105 176.36C132.975 176.29 132.935 176.21 132.985 176.15C133.035 176.09 133.085 176.06 133.135 176.06C147.065 176.03 160.985 176.01 174.915 175.99C177.065 175.99 179.205 176.04 181.355 176.07L181.335 176.08Z" fill="#55657A"/>
<path d="M136.455 175.28C136.435 175.38 136.425 175.48 136.405 175.58C124.995 175.6 113.595 175.6 102.185 175.65C101.265 175.65 100.255 175.25 99.4147 176C99.2447 175.87 99.0747 175.74 98.9047 175.62C99.1647 175.19 99.5947 175.23 100.005 175.23C112.155 175.25 124.295 175.26 136.445 175.28H136.455Z" fill="#4B587E"/>
<path d="M257.065 42.9699C246.275 42.9699 235.475 42.9799 224.675 42.9699C224.075 42.9699 223.415 43.1399 222.905 42.6199C233.835 42.5999 244.775 42.5799 255.705 42.5599C256.195 42.5599 256.675 42.5799 257.055 42.9599L257.065 42.9699Z" fill="#7F8DB3"/>
<path d="M133.125 176.07C133.115 176.17 133.105 176.27 133.095 176.37C122.375 176.4 111.655 176.43 100.945 176.45C100.415 176.45 99.8147 176.62 99.4547 176C110.675 176.03 121.895 176.05 133.115 176.07H133.125Z" fill="#485259"/>
<path d="M110.205 84.3399C109.935 73.0899 119.955 61.9399 131.165 60.0799C138.555 58.8599 144.975 60.5699 149.505 66.8499C152.625 71.1599 153.245 76.1399 152.155 81.3399C149.845 92.4099 139.395 101.42 128.115 101.7C117.575 101.95 109.885 94.0199 110.205 84.3399Z" fill="white"/>
<path d="M165.545 135.14C167.025 135.83 166.665 136.96 166.305 138.14C165.775 139.85 165.195 141.48 163.105 141.79C162.695 141.85 162.275 141.81 161.865 141.81C135.125 141.81 108.385 141.81 81.6547 141.79C80.3647 141.79 78.7647 142.41 77.9347 140.75C77.3947 139.68 78.4547 136.74 79.6647 135.68C79.8747 135.5 80.0947 135.34 80.3047 135.17C80.8747 134.79 81.5147 134.96 82.1247 134.96C109.325 134.96 136.515 134.96 163.715 134.96C164.325 134.96 164.965 134.82 165.545 135.13V135.14Z" fill="#FDFEFE"/>
<path d="M125.015 125.95C138.385 125.95 151.745 125.95 165.105 125.96C166.405 125.96 168.105 125.47 168.405 127.51C168.715 129.64 166.805 132.38 164.985 132.62C164.575 132.67 164.155 132.64 163.745 132.64C136.735 132.64 109.735 132.64 82.7247 132.62C81.4747 132.62 79.8547 133.05 79.5547 131.17C79.2047 129.03 81.0747 126.2 82.8447 125.97C83.3847 125.9 83.9547 125.95 84.5047 125.95H125.015Z" fill="#FDFEFE"/>
<path d="M151.855 113.07C150.725 113.43 149.565 113.48 148.385 113.47C127.205 113.46 106.025 113.47 84.8447 113.43C83.5347 113.43 81.5347 114.27 81.5147 111.63C81.4947 109 82.9747 106.96 85.0847 106.79C85.4347 106.76 85.7747 106.79 86.1247 106.79C107.655 106.79 129.175 106.79 150.705 106.79C151.665 106.79 152.645 106.72 153.555 107.17C155.225 108.89 154.275 112.2 151.875 113.07H151.855Z" fill="#5570B5"/>
<path d="M224.725 115.6C223.265 115.6 221.815 115.64 220.365 115.6C218.265 115.53 217.085 114.31 217.055 112.19C217.015 109.33 217.525 106.53 217.995 103.73C218.275 102.06 219.655 101.01 221.415 100.98C224.325 100.94 227.235 100.93 230.145 100.98C232.465 101.01 233.865 102.32 233.735 104.61C233.575 107.37 233.225 110.12 232.765 112.85C232.475 114.53 230.895 115.57 229.105 115.6C227.645 115.63 226.195 115.6 224.745 115.6H224.725Z" fill="#FEFFFE"/>
<path d="M218.825 161.41C217.445 161.41 216.055 161.46 214.685 161.4C212.195 161.3 210.645 159.4 210.965 156.93C211.225 154.88 211.485 152.82 211.735 150.77C211.995 148.64 213.475 147.06 215.695 146.94C218.515 146.8 221.365 146.79 224.185 146.93C226.715 147.05 228.145 148.93 227.865 151.47C227.625 153.59 227.355 155.72 227.045 157.83C226.695 160.16 225.315 161.36 222.985 161.41C221.605 161.44 220.225 161.41 218.835 161.41H218.825Z" fill="white"/>
<path d="M229.065 78.0199C230.515 78.0199 231.975 77.9599 233.425 78.0399C235.375 78.1399 236.595 79.4299 236.675 81.3899C236.795 84.2499 236.195 87.0499 235.715 89.8299C235.485 91.1699 234.435 92.1899 232.945 92.2199C229.705 92.2999 226.485 92.8499 223.235 92.2799C221.175 91.9199 219.875 90.8199 220.005 88.7599C220.175 86.1399 220.505 83.5199 220.915 80.9299C221.185 79.2599 222.725 78.0899 224.495 78.0299C226.015 77.9799 227.535 78.0199 229.065 78.0199Z" fill="#FEFFFE"/>
<path d="M198.455 124.29C199.835 124.29 201.225 124.26 202.605 124.29C204.835 124.35 206.405 125.89 206.265 128.13C206.105 130.61 205.835 133.09 205.355 135.52C204.995 137.32 203.605 138.37 201.765 138.43C198.865 138.53 195.955 138.51 193.055 138.45C190.945 138.4 189.695 137.14 189.615 135.07C189.525 132.5 189.885 129.95 190.385 127.45C190.855 125.13 191.985 124.33 194.305 124.28C195.685 124.26 197.075 124.28 198.455 124.28V124.29Z" fill="white"/>
<path d="M200.275 115.61C198.825 115.61 197.375 115.64 195.915 115.61C193.815 115.56 192.585 114.34 192.515 112.28C192.415 109.36 192.955 106.48 193.515 103.65C193.805 102.18 195.025 101 196.805 100.98C199.785 100.96 202.755 100.92 205.725 100.98C208.005 101.04 209.175 102.38 209.245 104.72C209.315 107.51 208.625 110.21 208.255 112.94C208.035 114.53 206.895 115.63 205.055 115.59C203.465 115.56 201.875 115.59 200.285 115.59V115.61H200.275Z" fill="#FDFDFD"/>
<path d="M194.345 161.42C192.895 161.42 191.435 161.49 189.985 161.4C187.605 161.25 186.155 159.33 186.495 156.96C186.755 155.11 187.005 153.26 187.185 151.41C187.475 148.37 188.995 146.9 191.985 146.89C194.335 146.88 196.695 146.85 199.035 146.89C202.185 146.95 203.715 148.74 203.335 151.86C203.085 153.92 202.805 155.97 202.515 158.02C202.235 160.03 200.775 161.33 198.695 161.4C197.245 161.45 195.795 161.4 194.335 161.41L194.345 161.42Z" fill="#FDFDFC"/>
<path d="M204.515 78.02C205.895 78.02 207.285 77.98 208.665 78.02C210.875 78.09 212.125 79.35 212.175 81.51C212.235 84.3 211.785 87.04 211.225 89.74C210.935 91.15 209.915 92.2 208.305 92.23C205.135 92.28 201.975 92.56 198.805 92.26C196.685 92.06 195.355 90.77 195.495 88.59C195.655 86.04 195.925 83.48 196.405 80.98C196.745 79.2 198.035 78.1 199.945 78.03C201.465 77.98 202.985 78.03 204.515 78.02Z" fill="#FDFDFC"/>
<path d="M222.895 124.29C224.275 124.29 225.665 124.26 227.045 124.29C229.355 124.34 230.965 125.97 230.785 128.28C230.605 130.62 230.285 132.95 229.885 135.26C229.515 137.36 228.115 138.44 225.925 138.46C223.165 138.49 220.395 138.51 217.635 138.46C215.185 138.41 213.715 136.49 214.055 134C214.295 132.22 214.475 130.43 214.625 128.64C214.885 125.52 216.125 124.31 219.175 124.28C220.415 124.27 221.665 124.28 222.905 124.28L222.895 124.29Z" fill="#FCFDFC"/>
<path d="M206.295 69.2999C204.775 69.2999 203.245 69.3399 201.725 69.2999C199.785 69.2399 198.345 67.9599 198.435 66.0699C198.555 63.6599 198.815 61.2299 199.345 58.8799C199.705 57.2799 201.095 56.3999 202.785 56.3699C205.695 56.3199 208.605 56.2799 211.505 56.3699C213.695 56.4399 215.105 57.9399 214.995 60.1499C214.895 62.2199 214.635 64.2799 214.255 66.3199C213.875 68.3199 212.645 69.4599 210.445 69.3399C209.065 69.2599 207.675 69.3299 206.285 69.3299V69.3099L206.295 69.2999Z" fill="white"/>
<path d="M231.515 56.3499C233.035 56.3499 234.555 56.2699 236.075 56.3699C238.395 56.5199 239.665 57.8399 239.545 60.1499C239.425 62.2799 239.135 64.4099 238.745 66.5099C238.445 68.1699 237.335 69.2399 235.595 69.2799C232.495 69.3499 229.395 69.3999 226.305 69.2799C224.085 69.1999 222.935 67.8699 222.935 65.6599C222.935 63.4499 223.305 61.3999 223.725 59.3099C224.135 57.3199 225.355 56.3399 227.365 56.3399H231.505V56.3599L231.515 56.3499Z" fill="#FCFDFC"/>
<path d="M238.015 168.52C238.615 163.58 239.145 159.01 239.735 154.46C240.485 148.65 241.275 142.85 242.055 137.04C242.805 131.44 243.565 125.84 244.305 120.23C244.945 115.38 245.575 110.53 246.205 105.68C246.815 100.96 247.415 96.2399 248.035 91.5299C248.665 86.6799 249.325 81.8299 249.955 76.9799C250.585 72.1899 251.195 67.4099 251.815 62.6199C252.295 58.9299 252.795 55.2399 253.275 51.5499C253.355 50.9599 253.125 49.9599 253.865 50.0099C254.865 50.0699 254.215 50.9399 254.145 51.4799C253.005 60.9899 251.755 70.4899 250.435 79.9799C249.285 88.1699 248.625 96.4399 247.385 104.61C246.385 111.22 245.565 117.86 244.625 124.48C243.515 132.26 242.625 140.07 241.625 147.86C240.795 154.36 239.955 160.85 239.125 167.34C239.075 167.77 238.945 168.12 238.005 168.52H238.015Z" fill="#C2DAF3"/>
<path d="M151.855 113.07C153.745 111.25 154.335 109.19 153.535 107.17C154.155 106.5 154.965 106.79 155.685 106.79C159.545 106.76 163.415 106.74 167.275 106.81C168.315 106.83 169.735 106.25 170.295 107.49C170.915 108.87 170.295 110.38 169.605 111.61C169.055 112.59 168.225 113.5 166.825 113.48C162.135 113.45 157.445 113.46 152.755 113.46C152.405 113.46 152.065 113.4 151.855 113.07Z" fill="#FDFEFD"/>
<path d="M60.6347 42.9199C61.2247 42.3899 61.9447 42.5799 62.6147 42.5799C108.845 42.5799 155.075 42.5799 201.305 42.5799C200.755 43.1899 200.015 42.9799 199.345 42.9799C153.375 42.9799 107.415 42.9799 61.4447 42.9799C61.1747 42.9799 60.8947 42.9399 60.6147 42.9199H60.6347Z" fill="#7E8DB4"/>
<path d="M59.0747 98.8799C58.6047 98.9199 58.1847 98.8199 57.8447 98.4599C58.2547 95.6699 58.6847 92.8899 59.0647 90.0899C59.7247 85.3099 60.3747 80.5399 61.0047 75.7499C61.4847 72.1299 61.9347 68.4999 62.4047 64.8799C62.8847 61.1899 63.3347 57.4999 63.8847 53.8199C64.1447 52.0899 64.0047 50.2799 64.9447 48.2999C65.8147 50.7299 64.9947 52.8099 64.7147 54.7999C64.0247 59.6399 63.4047 64.4899 62.8047 69.3399C62.2647 73.7799 61.4347 78.1999 60.9747 82.6499C60.4147 88.0699 59.2447 93.4099 59.0747 98.8699V98.8799Z" fill="#C0DAF3"/>
<path d="M165.545 135.14C137.125 135.15 108.715 135.16 80.2947 135.17C80.8247 134.51 81.5747 134.75 82.2247 134.75C109.345 134.74 136.465 134.74 163.585 134.75C164.255 134.75 164.985 134.53 165.545 135.14Z" fill="#C1D0EC"/>
<path d="M68.5747 116.74C70.6647 116.05 72.8047 116.47 74.9247 116.44C72.8347 117.12 70.6947 116.71 68.5747 116.74Z" fill="#506281"/>
<path d="M185.885 216.14H193.005C190.635 216.74 188.255 216.72 185.885 216.14Z" fill="#637496"/>
<path d="M60.3147 149.77C60.4147 151.16 60.0847 152.59 60.7847 153.91C60.8547 155.89 60.7647 157.85 61.0647 159.85C61.7047 164.13 57.4847 168.39 52.3947 168.9C48.7247 169.27 45.4147 168.25 42.4347 166.19C40.7547 165.02 40.0347 163.28 39.9447 161.23C39.6647 155.05 39.3447 148.87 39.0447 142.68C38.6747 141.27 39.1547 139.81 38.7747 138.4C38.5647 136.84 38.8047 135.67 40.6947 135.26C43.4647 134.66 45.1847 135.13 46.1947 137.19C46.9647 138.75 47.1347 140.49 47.5047 142.18C48.5447 146.88 50.6547 148.82 55.2847 149.4C56.9347 149.9 58.6747 149.19 60.3247 149.78L60.3147 149.77Z" fill="white"/>
<path d="M38.7747 138.4C39.2647 139.8 39.1747 141.24 39.0447 142.68C38.4847 141.91 38.8947 140.96 38.5847 140.14C38.6447 139.56 38.7047 138.98 38.7647 138.4H38.7747Z" fill="#010101"/>
<path d="M57.8647 120.91H61.7447C61.3747 122.77 60.2147 124.24 60.3147 126.08C60.4247 128.16 61.2047 129.57 62.5447 129.73C64.6747 129.99 65.8147 129.23 66.3847 126.94C66.6547 125.86 66.6147 124.69 67.0847 123.48C68.2447 126.07 69.4547 128.63 70.5247 131.25C70.8947 132.17 70.1247 132.61 69.2847 132.74C68.2247 132.91 67.5847 133.52 67.2347 134.52C66.9747 135.28 66.3847 135.73 65.6647 136.08C63.8647 136.96 62.0147 137.64 60.0847 138.22C56.4547 139.31 54.0847 137.26 53.3247 134.13C52.4847 130.7 51.6547 127.27 50.8147 123.85C50.6547 123.18 50.4847 122.51 50.3147 121.84C49.9747 120.89 50.5647 120.78 51.2647 120.8C53.4647 120.86 55.6647 120.64 57.8547 120.92L57.8647 120.91Z" fill="white"/>
<path d="M50.3347 119.8C48.1247 118.04 48.2247 116.17 50.5047 114.86C54.2447 112.71 58.2747 112.59 62.3847 113.07C63.6447 113.22 64.5447 114.03 64.8747 115.27C65.3647 117.06 65.7447 118.87 66.2347 120.98C65.2947 120.47 64.5547 120.02 63.6747 120.1C61.0247 119.74 58.3647 120.04 55.7147 119.94C53.9147 119.87 52.1147 120.09 50.3247 119.81L50.3347 119.8Z" fill="#FEFEFE"/>
<path d="M41.2447 123.46C41.0347 122.32 41.6647 121.39 42.6447 121.08C43.6347 120.77 44.8547 120.66 45.6647 121.73C46.2847 122.55 46.9947 123.34 47.4247 124.26C47.8147 125.09 49.0047 126 48.0747 126.93C47.0347 127.97 45.5747 128.38 44.0547 127.86C42.3947 127.3 41.1747 125.39 41.2447 123.46Z" fill="#FEFDFD"/>
<path d="M65.8847 123.78C65.7747 125.33 65.6847 126.77 64.8547 128.04C64.3947 128.74 63.7847 129.07 62.9447 128.99C61.9847 128.89 61.7347 128.16 61.5847 127.41C61.2847 125.96 61.4047 124.53 61.9847 123.16C62.4347 122.09 62.7547 120.81 64.3547 121.14C65.8747 121.45 65.8647 122.7 65.8847 123.79V123.78Z" fill="#FCFCFB"/>
<path d="M70.3447 128.57C69.5847 126.78 68.9347 125.29 68.3147 123.78C67.9247 122.84 67.3247 121.79 69.0147 121.45C70.3247 121.18 71.5847 121.17 71.8847 122.85C72.2347 124.82 71.8847 126.68 70.3447 128.57Z" fill="#9DB5DD"/>
<path d="M57.8647 120.91C55.8147 120.91 53.7647 120.93 51.7147 120.94C51.0647 120.94 50.2647 120.72 50.3147 121.83C49.6447 121.04 49.8147 120.49 50.8547 120.53C53.1847 120.62 55.5547 120.29 57.8647 120.91Z" fill="#666666"/>
<path d="M55.7047 119.79C58.3647 119.68 61.0347 119.54 63.6747 120.09C61.0547 120.09 58.4347 120.08 55.8147 120.07C55.6747 120.05 55.6147 120 55.6247 119.92C55.6447 119.83 55.6647 119.78 55.7047 119.78V119.79Z" fill="#A9A9A9"/>
<path d="M55.7047 119.79C55.7447 119.89 55.7747 119.98 55.8147 120.07C53.9747 120.15 52.1347 120.42 50.3247 119.8C52.1147 119.8 53.9147 119.8 55.7047 119.79Z" fill="#5B5A5A"/>
<path d="M60.3147 149.77C58.6447 149.57 56.9047 150.17 55.2747 149.39C56.9547 149.49 58.6847 148.91 60.3147 149.77Z" fill="#010101"/>
<path d="M194.665 23.0499C194.695 24.4599 193.495 25.7299 192.115 25.7599C190.725 25.7899 189.485 24.5799 189.455 23.1599C189.425 21.7299 190.575 20.5199 192.005 20.4899C193.415 20.4499 194.625 21.6199 194.655 23.0599L194.665 23.0499Z" fill="#CBDAEF"/>
<path d="M41.0047 74.7C42.0447 74.8 42.6647 75.4 42.6247 76.43C42.5947 77.32 42.1047 77.98 41.0947 78.01C40.0147 78.04 39.3847 77.42 39.3647 76.41C39.3447 75.4 39.9347 74.77 41.0047 74.7Z" fill="#CCD7EB"/>
<path d="M256.595 183.11C256.455 184.35 255.895 184.91 254.815 184.87C253.835 184.84 253.285 184.28 253.245 183.32C253.195 182.23 253.835 181.6 254.855 181.58C255.895 181.56 256.385 182.31 256.595 183.1V183.11Z" fill="#CBD6E9"/>
<path d="M143.455 77.9499C142.945 81.0199 142.465 84.0899 141.905 87.1499C141.555 89.0299 140.175 90.1199 138.585 90.8799C132.865 93.6199 127.015 93.6899 121.105 91.4899C120.085 90.4599 120.805 89.2999 120.855 88.1899C120.905 87.0299 120.945 85.8599 121.155 84.6999C120.685 85.6599 120.535 86.7099 120.205 87.7099C119.975 88.3999 119.915 89.2299 118.985 89.4399C118.165 88.6899 118.185 87.7899 118.375 86.7799C118.925 83.7899 119.395 80.7999 119.905 77.7999C120.835 77.2999 121.515 77.6599 122.055 78.4499C122.255 79.5499 121.535 80.5199 121.645 81.5299C121.725 80.5999 121.925 79.6099 122.345 78.6799C124.345 78.2899 125.965 79.4299 127.635 80.1399C129.945 81.1299 132.125 81.2499 134.435 80.2899C136.615 79.3999 138.865 78.7199 141.105 77.9799C141.885 77.7199 142.665 77.3199 143.455 77.9499Z" fill="#556FB4"/>
<path d="M115.025 74.66C115.135 73.84 115.865 73.83 116.415 73.64C121.645 71.87 126.875 70.13 132.095 68.35C132.985 68.05 133.775 67.97 134.685 68.32C139.125 70.06 143.585 71.7 148.015 73.44C148.775 73.74 150.135 73.81 149.495 75.32C144.345 76.8 139.295 78.57 134.255 80.35C132.125 81.1 130.145 81.18 128.075 80.2C126.275 79.34 124.395 78.68 122.425 78.28C121.085 77.29 119.465 76.96 117.975 76.31C116.935 75.86 115.695 75.76 115.025 74.66Z" fill="#556FB4"/>
<path d="M122.305 78.0099C124.575 77.7099 126.405 79.0099 128.345 79.7699C130.325 80.5499 132.055 80.6399 134.115 79.8699C138.885 78.0799 143.765 76.5999 148.585 74.9599C149.115 74.7799 149.345 74.8399 149.495 75.3399C147.795 76.9499 145.305 76.7099 143.455 77.9599C140.065 78.5899 136.915 79.9699 133.675 81.0799C131.795 81.7299 130.155 81.7499 128.345 80.9499C126.405 80.0899 124.365 79.4599 122.375 78.7299C122.175 78.6299 122.085 78.4699 122.105 78.2499C122.175 78.1699 122.235 78.0899 122.305 78.0099Z" fill="#141529"/>
<path d="M118.995 89.4399C119.755 87.9499 119.945 86.2999 120.385 84.7099C120.545 84.1299 120.485 83.0099 121.395 83.1699C122.315 83.3299 121.835 84.3299 121.765 84.9099C121.515 87.0999 121.105 89.2699 121.115 91.4899C120.885 93.7399 119.175 92.0499 118.135 92.8499C118.645 91.5399 119.055 90.5399 118.995 89.4399Z" fill="#0B0B17"/>
<path d="M115.025 74.6599C117.305 75.5199 119.575 76.3899 121.855 77.2099C122.305 77.3699 122.175 77.7299 122.305 78.0099V77.9899C122.155 78.1399 122.115 78.4199 121.825 78.4199C121.185 78.2099 120.545 77.9999 119.905 77.7899C118.585 77.2799 117.255 76.7799 115.945 76.2499C115.255 75.9699 114.465 75.6999 115.025 74.6599Z" fill="#151523"/>
<path d="M207.105 103.45C206.175 104.59 205.215 105.72 204.325 106.88C202.885 108.77 201.925 110.92 200.935 113.05C200.615 113.73 200.105 114.58 199.655 113.35C198.695 110.77 198.005 108.09 197.225 105.44C197.205 105.39 197.405 105.27 197.645 105.04C199.035 107.07 199.035 109.62 200.295 111.82C202.175 108.61 203.565 105.18 206.615 103.03C206.775 103.16 206.935 103.3 207.105 103.43V103.45Z" fill="#6C7CBB"/>
<path d="M190.425 150.55C191.795 152.7 191.925 155.21 193.105 157.53C194.995 154.27 196.415 150.83 199.745 148.45C199.745 149.03 199.825 149.3 199.735 149.39C197.095 152.03 195.295 155.21 193.785 158.59C193.605 158.99 193.515 159.68 192.895 159.54C192.625 159.48 192.375 158.94 192.255 158.57C191.515 156.33 190.805 154.08 190.095 151.83C189.975 151.43 189.965 151.05 190.415 150.54L190.425 150.55Z" fill="#6778B9"/>
<path d="M200.235 82.07C201.765 84.02 201.915 86.51 203.065 88.83C204.925 85.52 206.385 82.15 209.375 79.98C209.925 80.37 209.775 80.66 209.595 80.84C207.015 83.44 205.235 86.56 203.755 89.87C203.575 90.28 203.475 90.95 202.855 90.8C202.585 90.73 202.345 90.19 202.235 89.82C201.485 87.27 200.425 84.79 200.235 82.08V82.07Z" fill="#6579BA"/>
<path d="M218.815 128.18C220.005 130.24 220.225 132.69 221.325 135.03C222.835 132.43 223.975 129.83 225.895 127.74C226.275 127.33 226.655 126.93 227.045 126.54C227.285 126.31 227.555 126.01 227.915 126.28C228.325 126.59 228.045 126.92 227.805 127.14C225.055 129.7 223.425 132.98 221.915 136.33C221.645 136.92 221.125 137.67 220.725 136.54C219.765 133.85 218.985 131.09 218.135 128.35C218.355 128.29 218.575 128.23 218.805 128.16L218.815 128.18Z" fill="#6C7DBC"/>
<path d="M230.295 66.2999C232.155 62.9299 233.635 59.5999 236.665 57.2599C236.875 57.6899 237.005 57.8699 236.975 57.9099C234.425 60.8499 232.315 64.0599 230.835 67.6799C230.655 68.1299 230.155 68.7599 229.865 67.9899C228.815 65.2199 227.955 62.3899 227.355 59.4699C228.945 61.3899 229.195 63.8299 230.305 66.2899L230.295 66.2999Z" fill="#687CBC"/>
<path d="M121.825 78.4199C121.985 78.2799 122.145 78.1299 122.315 77.9899C122.345 78.2299 122.365 78.4799 122.385 78.7199C122.165 79.9699 121.955 81.2099 121.735 82.4599C121.145 81.0599 121.815 79.7599 121.835 78.4199H121.825Z" fill="#AABBE0"/>
<path d="M128.655 75.6199C126.925 76.6599 125.045 77.2399 123.085 77.5399C124.865 76.6599 126.645 75.7999 128.655 75.6199Z" fill="#A9BBE2"/>
<g style="mix-blend-mode:color">
<path d="M268.205 137.38C267.825 144.82 267.225 152.24 265.935 159.6C264.545 167.53 262.565 175.27 259.675 182.75C257.265 189.01 254.335 195.01 250.695 200.72C246.495 207.32 241.585 213.23 235.985 218.61C229.665 224.69 222.555 229.62 214.925 233.91C204.425 239.81 193.205 243.72 181.595 246.58C173.515 248.57 165.315 249.9 157.015 250.77C145.155 252.03 133.275 252.2 121.405 251.83C113.175 251.57 104.945 250.85 96.7547 249.56C91.2447 248.68 85.7647 247.8 80.3347 246.54C79.9847 246.46 79.6647 246.38 79.4847 246.04C79.5047 246.04 79.5347 246.04 79.5547 246.04C79.5247 246.04 79.5047 246.04 79.4747 246.02C77.8247 245.61 76.1847 245.19 74.5347 244.78H74.5247C73.0147 245.01 71.6847 244.33 70.2947 243.97C62.2547 241.89 54.5747 238.91 47.7147 234.11C41.4547 229.73 36.6447 224 32.7247 217.47C31.2647 215.05 29.6847 212.72 29.1147 209.9C29.1047 209.89 29.1047 209.87 29.0947 209.86C23.7247 199.18 20.0647 187.93 17.7647 176.22C16.9947 172.28 17.4247 168.33 17.9547 164.4C17.1147 156.76 17.0047 149.07 16.5147 141.42C16.0447 134.11 16.2847 126.84 16.7847 119.62C17.6547 107.09 20.5047 94.94 25.0547 83.19C28.9947 73.01 34.1047 63.49 40.4047 54.61C43.8847 49.7 47.8147 45.17 51.8747 40.71C57.6047 34.44 64.0847 29.08 71.0047 24.26C76.8247 20.21 82.9447 16.63 89.3647 13.51C95.0847 10.72 100.905 8.20998 106.895 6.13998C113.485 3.86998 120.285 2.37998 127.165 1.24998C134.145 0.0999789 141.165 -0.100021 148.215 0.0399789C156.375 0.209979 164.375 1.50998 172.265 3.58998C181.465 6.01998 190.235 9.54998 198.545 14.14C205.845 18.19 212.675 22.99 219.065 28.43C223.865 32.51 228.345 36.91 232.485 41.66C242.255 41.7 252.005 41.73 261.775 41.77C266.205 41.78 268.315 44.3 267.705 48.72C266.875 54.67 266.215 60.65 265.335 66.59C264.455 72.45 263.985 78.36 262.965 84.21C262.345 87.8 261.945 91.47 261.685 95.13H261.695C263.485 97.4 263.525 100.27 264.225 102.9C265.945 109.38 266.975 115.98 267.465 122.68C267.825 127.57 268.465 132.47 268.205 137.38Z" fill="#3B3666"/>
</g>
</g>
<defs>
<clipPath id="clip0_1_57">
<rect width="252" height="252" fill="white" transform="translate(16.2647)"/>
</clipPath>
</defs>
</svg>
