<svg width="289" height="194" viewBox="0 0 289 194" fill="none" xmlns="http://www.w3.org/2000/svg">
<rect x="51" y="18" width="220" height="28" rx="3" fill="white" stroke="black" stroke-width="2"/>
<rect x="51" y="46" width="234" height="45" rx="3" fill="#A4A3CE" stroke="black" stroke-width="2"/>
<rect x="240" y="18" width="31" height="28" rx="3" fill="#3A3666" stroke="black" stroke-width="2"/>
<path d="M261.89 27.5H248.536C247.706 27.5 247.237 28.4541 247.745 29.1114L254.231 37.5049C254.624 38.0139 255.389 38.0246 255.796 37.5267L262.664 29.1332C263.198 28.4803 262.733 27.5 261.89 27.5Z" fill="white"/>
<path d="M40.3895 85V69.6737H0.77684V53.4042L38.0316 0.115784H60.5495V52.2253H70.2169V69.6737H60.5495V85H40.3895ZM21.9979 52.2253H41.8042V22.28L21.9979 52.2253Z" fill="#2B2A5A"/>
<path d="M77.872 26.768V28.96H73.728V31.232H77.392V33.344H73.728V35.808H77.872V38H70.992V26.768H77.872ZM85.8083 38V33.152C85.8083 31.936 85.1363 31.264 84.0963 31.264C83.0563 31.264 82.3843 31.936 82.3843 33.152V38H79.6483V29.072H82.3843V30.256C82.9283 29.504 83.8883 28.976 85.0883 28.976C87.1523 28.976 88.5283 30.384 88.5283 32.784V38H85.8083ZM89.8855 33.536C89.8855 30.72 91.7415 28.944 94.3655 28.944C96.6055 28.944 98.1895 30.176 98.6535 32.304H95.7415C95.5175 31.68 95.0695 31.28 94.3175 31.28C93.3415 31.28 92.6695 32.048 92.6695 33.536C92.6695 35.024 93.3415 35.792 94.3175 35.792C95.0695 35.792 95.5015 35.424 95.7415 34.768H98.6535C98.1895 36.832 96.6055 38.128 94.3655 38.128C91.7415 38.128 89.8855 36.368 89.8855 33.536ZM108.853 33.536C108.853 36.368 106.805 38.128 104.181 38.128C101.557 38.128 99.573 36.368 99.573 33.536C99.573 30.704 101.605 28.944 104.213 28.944C106.837 28.944 108.853 30.704 108.853 33.536ZM102.357 33.536C102.357 35.04 103.189 35.76 104.181 35.76C105.157 35.76 106.069 35.04 106.069 33.536C106.069 32.016 105.173 31.312 104.213 31.312C103.221 31.312 102.357 32.016 102.357 33.536ZM116.465 38V33.152C116.465 31.936 115.793 31.264 114.753 31.264C113.713 31.264 113.041 31.936 113.041 33.152V38H110.305V29.072H113.041V30.256C113.585 29.504 114.545 28.976 115.745 28.976C117.809 28.976 119.185 30.384 119.185 32.784V38H116.465ZM121.518 34.896V31.344H120.43V29.072H121.518V26.896H124.254V29.072H126.046V31.344H124.254V34.928C124.254 35.456 124.478 35.68 125.086 35.68H126.062V38H124.67C122.814 38 121.518 37.216 121.518 34.896ZM130.322 33.856V38H127.586V29.072H130.322V30.56C130.946 29.616 131.922 28.976 133.122 28.976V31.872H132.37C131.074 31.872 130.322 32.32 130.322 33.856ZM143.166 33.536C143.166 36.368 141.118 38.128 138.494 38.128C135.87 38.128 133.886 36.368 133.886 33.536C133.886 30.704 135.918 28.944 138.526 28.944C141.15 28.944 143.166 30.704 143.166 33.536ZM136.67 33.536C136.67 35.04 137.502 35.76 138.494 35.76C139.47 35.76 140.382 35.04 140.382 33.536C140.382 32.016 139.486 31.312 138.526 31.312C137.534 31.312 136.67 32.016 136.67 33.536ZM151.865 35.408C151.865 36.96 150.489 38.128 148.249 38.128C145.865 38.128 144.265 36.8 144.137 35.072H146.841C146.905 35.696 147.465 36.112 148.217 36.112C148.921 36.112 149.289 35.792 149.289 35.392C149.289 33.952 144.425 34.992 144.425 31.712C144.425 30.192 145.721 28.944 148.057 28.944C150.361 28.944 151.641 30.224 151.817 31.984H149.289C149.209 31.376 148.745 30.976 147.977 30.976C147.337 30.976 146.985 31.232 146.985 31.664C146.985 33.088 151.817 32.08 151.865 35.408ZM156.082 29.072H159.01L160.946 35.44L162.882 29.072H165.794L162.626 38H159.25L156.082 29.072ZM166.945 38V29.072H169.681V38H166.945ZM168.321 28.144C167.345 28.144 166.689 27.488 166.689 26.672C166.689 25.84 167.345 25.184 168.321 25.184C169.281 25.184 169.937 25.84 169.937 26.672C169.937 27.488 169.281 28.144 168.321 28.144ZM174.4 33.856V38H171.664V29.072H174.4V30.56C175.024 29.616 176 28.976 177.2 28.976V31.872H176.448C175.152 31.872 174.4 32.32 174.4 33.856ZM178.94 34.896V31.344H177.852V29.072H178.94V26.896H181.676V29.072H183.468V31.344H181.676V34.928C181.676 35.456 181.9 35.68 182.508 35.68H183.484V38H182.092C180.236 38 178.94 37.216 178.94 34.896ZM193.824 29.072V38H191.088V36.784C190.544 37.552 189.584 38.096 188.384 38.096C186.32 38.096 184.928 36.672 184.928 34.288V29.072H187.648V33.92C187.648 35.136 188.336 35.808 189.36 35.808C190.416 35.808 191.088 35.136 191.088 33.92V29.072H193.824ZM195.245 33.52C195.245 30.704 196.989 28.944 199.181 28.944C200.509 28.944 201.453 29.552 201.933 30.336V29.072H204.669V38H201.933V36.736C201.437 37.52 200.493 38.128 199.165 38.128C196.989 38.128 195.245 36.336 195.245 33.52ZM201.933 33.536C201.933 32.112 201.021 31.328 199.981 31.328C198.957 31.328 198.029 32.096 198.029 33.52C198.029 34.944 198.957 35.744 199.981 35.744C201.021 35.744 201.933 34.96 201.933 33.536ZM206.648 38V29.072H209.384V38H206.648ZM208.024 28.144C207.048 28.144 206.392 27.488 206.392 26.672C206.392 25.84 207.048 25.184 208.024 25.184C208.984 25.184 209.64 25.84 209.64 26.672C209.64 27.488 208.984 28.144 208.024 28.144ZM218.615 35.408C218.615 36.96 217.239 38.128 214.999 38.128C212.615 38.128 211.015 36.8 210.887 35.072H213.591C213.655 35.696 214.215 36.112 214.967 36.112C215.671 36.112 216.039 35.792 216.039 35.392C216.039 33.952 211.175 34.992 211.175 31.712C211.175 30.192 212.471 28.944 214.807 28.944C217.111 28.944 218.391 30.224 218.567 31.984H216.039C215.959 31.376 215.495 30.976 214.727 30.976C214.087 30.976 213.735 31.232 213.735 31.664C213.735 33.088 218.567 32.08 218.615 35.408Z" fill="black"/>
<path d="M86.357 61.985H82.405L81.677 64H80.429L83.705 54.991H85.07L88.333 64H87.085L86.357 61.985ZM86.019 61.023L84.381 56.447L82.743 61.023H86.019ZM96.0788 56.876V64H94.8958V62.947C94.6704 63.311 94.3541 63.597 93.9468 63.805C93.5481 64.0043 93.1061 64.104 92.6208 64.104C92.0661 64.104 91.5678 63.9913 91.1258 63.766C90.6838 63.532 90.3328 63.1853 90.0728 62.726C89.8214 62.2667 89.6958 61.7077 89.6958 61.049V56.876H90.8658V60.893C90.8658 61.595 91.0434 62.1367 91.3988 62.518C91.7541 62.8907 92.2394 63.077 92.8548 63.077C93.4874 63.077 93.9858 62.882 94.3498 62.492C94.7138 62.102 94.8958 61.5343 94.8958 60.789V56.876H96.0788ZM99.2592 54.38V64H98.0762V54.38H99.2592ZM100.833 60.412C100.833 59.684 100.981 59.047 101.275 58.501C101.57 57.9463 101.973 57.5173 102.484 57.214C103.004 56.9107 103.581 56.759 104.213 56.759C104.837 56.759 105.379 56.8933 105.838 57.162C106.298 57.4307 106.64 57.7687 106.865 58.176V56.876H108.061V64H106.865V62.674C106.631 63.09 106.28 63.4367 105.812 63.714C105.353 63.9827 104.816 64.117 104.2 64.117C103.568 64.117 102.996 63.961 102.484 63.649C101.973 63.337 101.57 62.8993 101.275 62.336C100.981 61.7727 100.833 61.1313 100.833 60.412ZM106.865 60.425C106.865 59.8877 106.757 59.4197 106.54 59.021C106.324 58.6223 106.029 58.319 105.656 58.111C105.292 57.8943 104.889 57.786 104.447 57.786C104.005 57.786 103.602 57.89 103.238 58.098C102.874 58.306 102.584 58.6093 102.367 59.008C102.151 59.4067 102.042 59.8747 102.042 60.412C102.042 60.958 102.151 61.4347 102.367 61.842C102.584 62.2407 102.874 62.5483 103.238 62.765C103.602 62.973 104.005 63.077 104.447 63.077C104.889 63.077 105.292 62.973 105.656 62.765C106.029 62.5483 106.324 62.2407 106.54 61.842C106.757 61.4347 106.865 60.9623 106.865 60.425ZM112.583 64.117C112.037 64.117 111.547 64.026 111.114 63.844C110.68 63.6533 110.338 63.3933 110.087 63.064C109.835 62.726 109.697 62.3403 109.671 61.907H110.893C110.927 62.2623 111.092 62.5527 111.387 62.778C111.69 63.0033 112.084 63.116 112.57 63.116C113.02 63.116 113.376 63.0163 113.636 62.817C113.896 62.6177 114.026 62.3663 114.026 62.063C114.026 61.751 113.887 61.5213 113.61 61.374C113.332 61.218 112.903 61.0663 112.323 60.919C111.794 60.7803 111.361 60.6417 111.023 60.503C110.693 60.3557 110.407 60.1433 110.165 59.866C109.931 59.58 109.814 59.2073 109.814 58.748C109.814 58.384 109.922 58.0503 110.139 57.747C110.355 57.4437 110.663 57.2053 111.062 57.032C111.46 56.85 111.915 56.759 112.427 56.759C113.215 56.759 113.852 56.9583 114.338 57.357C114.823 57.7557 115.083 58.3017 115.118 58.995H113.935C113.909 58.6223 113.757 58.3233 113.48 58.098C113.211 57.8727 112.847 57.76 112.388 57.76C111.963 57.76 111.625 57.851 111.374 58.033C111.122 58.215 110.997 58.4533 110.997 58.748C110.997 58.982 111.07 59.177 111.218 59.333C111.374 59.4803 111.564 59.6017 111.79 59.697C112.024 59.7837 112.344 59.8833 112.752 59.996C113.263 60.1347 113.679 60.2733 114 60.412C114.32 60.542 114.593 60.7413 114.819 61.01C115.053 61.2787 115.174 61.6297 115.183 62.063C115.183 62.453 115.074 62.804 114.858 63.116C114.641 63.428 114.333 63.675 113.935 63.857C113.545 64.0303 113.094 64.117 112.583 64.117ZM119.876 60.412C119.876 59.684 120.024 59.047 120.318 58.501C120.613 57.9463 121.016 57.5173 121.527 57.214C122.047 56.9107 122.624 56.759 123.256 56.759C123.88 56.759 124.422 56.8933 124.881 57.162C125.341 57.4307 125.683 57.7687 125.908 58.176V56.876H127.104V64H125.908V62.674C125.674 63.09 125.323 63.4367 124.855 63.714C124.396 63.9827 123.859 64.117 123.243 64.117C122.611 64.117 122.039 63.961 121.527 63.649C121.016 63.337 120.613 62.8993 120.318 62.336C120.024 61.7727 119.876 61.1313 119.876 60.412ZM125.908 60.425C125.908 59.8877 125.8 59.4197 125.583 59.021C125.367 58.6223 125.072 58.319 124.699 58.111C124.335 57.8943 123.932 57.786 123.49 57.786C123.048 57.786 122.645 57.89 122.281 58.098C121.917 58.306 121.627 58.6093 121.41 59.008C121.194 59.4067 121.085 59.8747 121.085 60.412C121.085 60.958 121.194 61.4347 121.41 61.842C121.627 62.2407 121.917 62.5483 122.281 62.765C122.645 62.973 123.048 63.077 123.49 63.077C123.932 63.077 124.335 62.973 124.699 62.765C125.072 62.5483 125.367 62.2407 125.583 61.842C125.8 61.4347 125.908 60.9623 125.908 60.425ZM132.211 64.117C131.543 64.117 130.937 63.9653 130.391 63.662C129.853 63.3587 129.429 62.9297 129.117 62.375C128.813 61.8117 128.662 61.1617 128.662 60.425C128.662 59.697 128.818 59.0557 129.13 58.501C129.45 57.9377 129.884 57.5087 130.43 57.214C130.976 56.9107 131.587 56.759 132.263 56.759C132.939 56.759 133.55 56.9107 134.096 57.214C134.642 57.5087 135.071 57.9333 135.383 58.488C135.703 59.0427 135.864 59.6883 135.864 60.425C135.864 61.1617 135.699 61.8117 135.37 62.375C135.049 62.9297 134.611 63.3587 134.057 63.662C133.502 63.9653 132.887 64.117 132.211 64.117ZM132.211 63.077C132.635 63.077 133.034 62.9773 133.407 62.778C133.779 62.5787 134.078 62.2797 134.304 61.881C134.538 61.4823 134.655 60.997 134.655 60.425C134.655 59.853 134.542 59.3677 134.317 58.969C134.091 58.5703 133.797 58.2757 133.433 58.085C133.069 57.8857 132.674 57.786 132.25 57.786C131.816 57.786 131.418 57.8857 131.054 58.085C130.698 58.2757 130.412 58.5703 130.196 58.969C129.979 59.3677 129.871 59.853 129.871 60.425C129.871 61.0057 129.975 61.4953 130.183 61.894C130.399 62.2927 130.685 62.5917 131.041 62.791C131.396 62.9817 131.786 63.077 132.211 63.077ZM143.537 62.908L145.747 56.876H147.008L144.213 64H142.835L140.04 56.876H141.314L143.537 62.908ZM148.783 55.719C148.558 55.719 148.367 55.641 148.211 55.485C148.055 55.329 147.977 55.1383 147.977 54.913C147.977 54.6877 148.055 54.497 148.211 54.341C148.367 54.185 148.558 54.107 148.783 54.107C149 54.107 149.182 54.185 149.329 54.341C149.485 54.497 149.563 54.6877 149.563 54.913C149.563 55.1383 149.485 55.329 149.329 55.485C149.182 55.641 149 55.719 148.783 55.719ZM149.355 56.876V64H148.172V56.876H149.355ZM154.023 62.908L156.233 56.876H157.494L154.699 64H153.321L150.526 56.876H151.8L154.023 62.908ZM161.765 64.117C161.098 64.117 160.491 63.9653 159.945 63.662C159.408 63.3587 158.983 62.9297 158.671 62.375C158.368 61.8117 158.216 61.1617 158.216 60.425C158.216 59.697 158.372 59.0557 158.684 58.501C159.005 57.9377 159.438 57.5087 159.984 57.214C160.53 56.9107 161.141 56.759 161.817 56.759C162.493 56.759 163.104 56.9107 163.65 57.214C164.196 57.5087 164.625 57.9333 164.937 58.488C165.258 59.0427 165.418 59.6883 165.418 60.425C165.418 61.1617 165.254 61.8117 164.924 62.375C164.604 62.9297 164.166 63.3587 163.611 63.662C163.057 63.9653 162.441 64.117 161.765 64.117ZM161.765 63.077C162.19 63.077 162.589 62.9773 162.961 62.778C163.334 62.5787 163.633 62.2797 163.858 61.881C164.092 61.4823 164.209 60.997 164.209 60.425C164.209 59.853 164.097 59.3677 163.871 58.969C163.646 58.5703 163.351 58.2757 162.987 58.085C162.623 57.8857 162.229 57.786 161.804 57.786C161.371 57.786 160.972 57.8857 160.608 58.085C160.253 58.2757 159.967 58.5703 159.75 58.969C159.534 59.3677 159.425 59.853 159.425 60.425C159.425 61.0057 159.529 61.4953 159.737 61.894C159.954 62.2927 160.24 62.5917 160.595 62.791C160.951 62.9817 161.341 63.077 161.765 63.077ZM172.961 64.117C172.415 64.117 171.926 64.026 171.492 63.844C171.059 63.6533 170.717 63.3933 170.465 63.064C170.214 62.726 170.075 62.3403 170.049 61.907H171.271C171.306 62.2623 171.471 62.5527 171.765 62.778C172.069 63.0033 172.463 63.116 172.948 63.116C173.399 63.116 173.754 63.0163 174.014 62.817C174.274 62.6177 174.404 62.3663 174.404 62.063C174.404 61.751 174.266 61.5213 173.988 61.374C173.711 61.218 173.282 61.0663 172.701 60.919C172.173 60.7803 171.739 60.6417 171.401 60.503C171.072 60.3557 170.786 60.1433 170.543 59.866C170.309 59.58 170.192 59.2073 170.192 58.748C170.192 58.384 170.301 58.0503 170.517 57.747C170.734 57.4437 171.042 57.2053 171.44 57.032C171.839 56.85 172.294 56.759 172.805 56.759C173.594 56.759 174.231 56.9583 174.716 57.357C175.202 57.7557 175.462 58.3017 175.496 58.995H174.313C174.287 58.6223 174.136 58.3233 173.858 58.098C173.59 57.8727 173.226 57.76 172.766 57.76C172.342 57.76 172.004 57.851 171.752 58.033C171.501 58.215 171.375 58.4533 171.375 58.748C171.375 58.982 171.449 59.177 171.596 59.333C171.752 59.4803 171.943 59.6017 172.168 59.697C172.402 59.7837 172.723 59.8833 173.13 59.996C173.642 60.1347 174.058 60.2733 174.378 60.412C174.699 60.542 174.972 60.7413 175.197 61.01C175.431 61.2787 175.553 61.6297 175.561 62.063C175.561 62.453 175.453 62.804 175.236 63.116C175.02 63.428 174.712 63.675 174.313 63.857C173.923 64.0303 173.473 64.117 172.961 64.117ZM183.731 60.165C183.731 60.3903 183.718 60.6287 183.692 60.88H177.998C178.042 61.582 178.28 62.1323 178.713 62.531C179.155 62.921 179.688 63.116 180.312 63.116C180.824 63.116 181.248 62.999 181.586 62.765C181.933 62.5223 182.176 62.2017 182.314 61.803H183.588C183.398 62.4877 183.016 63.0467 182.444 63.48C181.872 63.9047 181.162 64.117 180.312 64.117C179.636 64.117 179.03 63.9653 178.492 63.662C177.964 63.3587 177.548 62.9297 177.244 62.375C176.941 61.8117 176.789 61.1617 176.789 60.425C176.789 59.6883 176.937 59.0427 177.231 58.488C177.526 57.9333 177.938 57.5087 178.466 57.214C179.004 56.9107 179.619 56.759 180.312 56.759C180.988 56.759 181.586 56.9063 182.106 57.201C182.626 57.4957 183.025 57.903 183.302 58.423C183.588 58.9343 183.731 59.515 183.731 60.165ZM182.509 59.918C182.509 59.4673 182.41 59.0817 182.21 58.761C182.011 58.4317 181.738 58.1847 181.391 58.02C181.053 57.8467 180.676 57.76 180.26 57.76C179.662 57.76 179.151 57.9507 178.726 58.332C178.31 58.7133 178.072 59.242 178.011 59.918H182.509ZM193.86 56.746C194.415 56.746 194.909 56.863 195.342 57.097C195.775 57.3223 196.118 57.6647 196.369 58.124C196.62 58.5833 196.746 59.1423 196.746 59.801V64H195.576V59.97C195.576 59.2593 195.398 58.7177 195.043 58.345C194.696 57.9637 194.224 57.773 193.626 57.773C193.011 57.773 192.521 57.9723 192.157 58.371C191.793 58.761 191.611 59.3287 191.611 60.074V64H190.441V59.97C190.441 59.2593 190.263 58.7177 189.908 58.345C189.561 57.9637 189.089 57.773 188.491 57.773C187.876 57.773 187.386 57.9723 187.022 58.371C186.658 58.761 186.476 59.3287 186.476 60.074V64H185.293V56.876H186.476V57.903C186.71 57.5303 187.022 57.2443 187.412 57.045C187.811 56.8457 188.248 56.746 188.725 56.746C189.323 56.746 189.852 56.8803 190.311 57.149C190.77 57.4177 191.113 57.812 191.338 58.332C191.537 57.8293 191.867 57.4393 192.326 57.162C192.785 56.8847 193.297 56.746 193.86 56.746ZM198.245 60.412C198.245 59.684 198.392 59.047 198.687 58.501C198.981 57.9463 199.384 57.5173 199.896 57.214C200.416 56.9107 200.992 56.759 201.625 56.759C202.249 56.759 202.79 56.8933 203.25 57.162C203.709 57.4307 204.051 57.7687 204.277 58.176V56.876H205.473V64H204.277V62.674C204.043 63.09 203.692 63.4367 203.224 63.714C202.764 63.9827 202.227 64.117 201.612 64.117C200.979 64.117 200.407 63.961 199.896 63.649C199.384 63.337 198.981 62.8993 198.687 62.336C198.392 61.7727 198.245 61.1313 198.245 60.412ZM204.277 60.425C204.277 59.8877 204.168 59.4197 203.952 59.021C203.735 58.6223 203.44 58.319 203.068 58.111C202.704 57.8943 202.301 57.786 201.859 57.786C201.417 57.786 201.014 57.89 200.65 58.098C200.286 58.306 199.995 58.6093 199.779 59.008C199.562 59.4067 199.454 59.8747 199.454 60.412C199.454 60.958 199.562 61.4347 199.779 61.842C199.995 62.2407 200.286 62.5483 200.65 62.765C201.014 62.973 201.417 63.077 201.859 63.077C202.301 63.077 202.704 62.973 203.068 62.765C203.44 62.5483 203.735 62.2407 203.952 61.842C204.168 61.4347 204.277 60.9623 204.277 60.425ZM210.943 56.746C211.809 56.746 212.511 57.0103 213.049 57.539C213.586 58.059 213.855 58.813 213.855 59.801V64H212.685V59.97C212.685 59.2593 212.507 58.7177 212.152 58.345C211.796 57.9637 211.311 57.773 210.696 57.773C210.072 57.773 209.573 57.968 209.201 58.358C208.837 58.748 208.655 59.3157 208.655 60.061V64H207.472V56.876H208.655V57.89C208.889 57.526 209.205 57.2443 209.604 57.045C210.011 56.8457 210.457 56.746 210.943 56.746ZM215.345 60.412C215.345 59.684 215.492 59.047 215.787 58.501C216.082 57.9463 216.485 57.5173 216.996 57.214C217.516 56.9107 218.092 56.759 218.725 56.759C219.349 56.759 219.891 56.8933 220.35 57.162C220.809 57.4307 221.152 57.7687 221.377 58.176V56.876H222.573V64H221.377V62.674C221.143 63.09 220.792 63.4367 220.324 63.714C219.865 63.9827 219.327 64.117 218.712 64.117C218.079 64.117 217.507 63.961 216.996 63.649C216.485 63.337 216.082 62.8993 215.787 62.336C215.492 61.7727 215.345 61.1313 215.345 60.412ZM221.377 60.425C221.377 59.8877 221.269 59.4197 221.052 59.021C220.835 58.6223 220.541 58.319 220.168 58.111C219.804 57.8943 219.401 57.786 218.959 57.786C218.517 57.786 218.114 57.89 217.75 58.098C217.386 58.306 217.096 58.6093 216.879 59.008C216.662 59.4067 216.554 59.8747 216.554 60.412C216.554 60.958 216.662 61.4347 216.879 61.842C217.096 62.2407 217.386 62.5483 217.75 62.765C218.114 62.973 218.517 63.077 218.959 63.077C219.401 63.077 219.804 62.973 220.168 62.765C220.541 62.5483 220.835 62.2407 221.052 61.842C221.269 61.4347 221.377 60.9623 221.377 60.425ZM225.183 55.719C224.958 55.719 224.767 55.641 224.611 55.485C224.455 55.329 224.377 55.1383 224.377 54.913C224.377 54.6877 224.455 54.497 224.611 54.341C224.767 54.185 224.958 54.107 225.183 54.107C225.4 54.107 225.582 54.185 225.729 54.341C225.885 54.497 225.963 54.6877 225.963 54.913C225.963 55.1383 225.885 55.329 225.729 55.485C225.582 55.641 225.4 55.719 225.183 55.719ZM225.755 56.876V64H224.572V56.876H225.755ZM230.294 64.117C229.748 64.117 229.258 64.026 228.825 63.844C228.391 63.6533 228.049 63.3933 227.798 63.064C227.546 62.726 227.408 62.3403 227.382 61.907H228.604C228.638 62.2623 228.803 62.5527 229.098 62.778C229.401 63.0033 229.795 63.116 230.281 63.116C230.731 63.116 231.087 63.0163 231.347 62.817C231.607 62.6177 231.737 62.3663 231.737 62.063C231.737 61.751 231.598 61.5213 231.321 61.374C231.043 61.218 230.614 61.0663 230.034 60.919C229.505 60.7803 229.072 60.6417 228.734 60.503C228.404 60.3557 228.118 60.1433 227.876 59.866C227.642 59.58 227.525 59.2073 227.525 58.748C227.525 58.384 227.633 58.0503 227.85 57.747C228.066 57.4437 228.374 57.2053 228.773 57.032C229.171 56.85 229.626 56.759 230.138 56.759C230.926 56.759 231.563 56.9583 232.049 57.357C232.534 57.7557 232.794 58.3017 232.829 58.995H231.646C231.62 58.6223 231.468 58.3233 231.191 58.098C230.922 57.8727 230.558 57.76 230.099 57.76C229.674 57.76 229.336 57.851 229.085 58.033C228.833 58.215 228.708 58.4533 228.708 58.748C228.708 58.982 228.781 59.177 228.929 59.333C229.085 59.4803 229.275 59.6017 229.501 59.697C229.735 59.7837 230.055 59.8833 230.463 59.996C230.974 60.1347 231.39 60.2733 231.711 60.412C232.031 60.542 232.304 60.7413 232.53 61.01C232.764 61.2787 232.885 61.6297 232.894 62.063C232.894 62.453 232.785 62.804 232.569 63.116C232.352 63.428 232.044 63.675 231.646 63.857C231.256 64.0303 230.805 64.117 230.294 64.117ZM82.184 75.901V78.93H85.486V79.905H82.184V83.025H85.876V84H81.001V74.926H85.876V75.901H82.184ZM91.137 76.746C92.0037 76.746 92.7057 77.0103 93.243 77.539C93.7804 78.059 94.049 78.813 94.049 79.801V84H92.879V79.97C92.879 79.2593 92.7014 78.7177 92.346 78.345C91.9907 77.9637 91.5054 77.773 90.89 77.773C90.266 77.773 89.7677 77.968 89.395 78.358C89.031 78.748 88.849 79.3157 88.849 80.061V84H87.666V76.876H88.849V77.89C89.083 77.526 89.3994 77.2443 89.798 77.045C90.2054 76.8457 90.6517 76.746 91.137 76.746ZM95.5395 80.425C95.5395 79.6883 95.6868 79.047 95.9815 78.501C96.2761 77.9463 96.6835 77.5173 97.2035 77.214C97.7321 76.9107 98.3345 76.759 99.0105 76.759C99.8858 76.759 100.605 76.9713 101.168 77.396C101.74 77.8207 102.117 78.41 102.299 79.164H101.025C100.904 78.7307 100.666 78.3883 100.31 78.137C99.9638 77.8857 99.5305 77.76 99.0105 77.76C98.3345 77.76 97.7885 77.994 97.3725 78.462C96.9565 78.9213 96.7485 79.5757 96.7485 80.425C96.7485 81.283 96.9565 81.946 97.3725 82.414C97.7885 82.882 98.3345 83.116 99.0105 83.116C99.5305 83.116 99.9638 82.9947 100.31 82.752C100.657 82.5093 100.895 82.1627 101.025 81.712H102.299C102.109 82.44 101.727 83.025 101.155 83.467C100.583 83.9003 99.8685 84.117 99.0105 84.117C98.3345 84.117 97.7321 83.9653 97.2035 83.662C96.6835 83.3587 96.2761 82.9297 95.9815 82.375C95.6868 81.8203 95.5395 81.1703 95.5395 80.425ZM106.985 84.117C106.318 84.117 105.711 83.9653 105.165 83.662C104.628 83.3587 104.203 82.9297 103.891 82.375C103.588 81.8117 103.436 81.1617 103.436 80.425C103.436 79.697 103.592 79.0557 103.904 78.501C104.225 77.9377 104.658 77.5087 105.204 77.214C105.75 76.9107 106.361 76.759 107.037 76.759C107.713 76.759 108.324 76.9107 108.87 77.214C109.416 77.5087 109.845 77.9333 110.157 78.488C110.478 79.0427 110.638 79.6883 110.638 80.425C110.638 81.1617 110.473 81.8117 110.144 82.375C109.823 82.9297 109.386 83.3587 108.831 83.662C108.276 83.9653 107.661 84.117 106.985 84.117ZM106.985 83.077C107.41 83.077 107.808 82.9773 108.181 82.778C108.554 82.5787 108.853 82.2797 109.078 81.881C109.312 81.4823 109.429 80.997 109.429 80.425C109.429 79.853 109.316 79.3677 109.091 78.969C108.866 78.5703 108.571 78.2757 108.207 78.085C107.843 77.8857 107.449 77.786 107.024 77.786C106.591 77.786 106.192 77.8857 105.828 78.085C105.473 78.2757 105.187 78.5703 104.97 78.969C104.753 79.3677 104.645 79.853 104.645 80.425C104.645 81.0057 104.749 81.4953 104.957 81.894C105.174 82.2927 105.46 82.5917 105.815 82.791C106.17 82.9817 106.56 83.077 106.985 83.077ZM115.664 76.746C116.531 76.746 117.233 77.0103 117.77 77.539C118.308 78.059 118.576 78.813 118.576 79.801V84H117.406V79.97C117.406 79.2593 117.229 78.7177 116.873 78.345C116.518 77.9637 116.033 77.773 115.417 77.773C114.793 77.773 114.295 77.968 113.922 78.358C113.558 78.748 113.376 79.3157 113.376 80.061V84H112.193V76.876H113.376V77.89C113.61 77.526 113.927 77.2443 114.325 77.045C114.733 76.8457 115.179 76.746 115.664 76.746ZM121.952 77.851V82.05C121.952 82.3967 122.025 82.6437 122.173 82.791C122.32 82.9297 122.576 82.999 122.94 82.999H123.811V84H122.745C122.086 84 121.592 83.8483 121.263 83.545C120.933 83.2417 120.769 82.7433 120.769 82.05V77.851H119.846V76.876H120.769V75.082H121.952V76.876H123.811V77.851H121.952ZM126.427 78.033C126.635 77.6257 126.93 77.3093 127.311 77.084C127.701 76.8587 128.173 76.746 128.728 76.746V77.968H128.416C127.09 77.968 126.427 78.6873 126.427 80.126V84H125.244V76.876H126.427V78.033ZM133.201 84.117C132.533 84.117 131.927 83.9653 131.381 83.662C130.843 83.3587 130.419 82.9297 130.107 82.375C129.803 81.8117 129.652 81.1617 129.652 80.425C129.652 79.697 129.808 79.0557 130.12 78.501C130.44 77.9377 130.874 77.5087 131.42 77.214C131.966 76.9107 132.577 76.759 133.253 76.759C133.929 76.759 134.54 76.9107 135.086 77.214C135.632 77.5087 136.061 77.9333 136.373 78.488C136.693 79.0427 136.854 79.6883 136.854 80.425C136.854 81.1617 136.689 81.8117 136.36 82.375C136.039 82.9297 135.601 83.3587 135.047 83.662C134.492 83.9653 133.877 84.117 133.201 84.117ZM133.201 83.077C133.625 83.077 134.024 82.9773 134.397 82.778C134.769 82.5787 135.068 82.2797 135.294 81.881C135.528 81.4823 135.645 80.997 135.645 80.425C135.645 79.853 135.532 79.3677 135.307 78.969C135.081 78.5703 134.787 78.2757 134.423 78.085C134.059 77.8857 133.664 77.786 133.24 77.786C132.806 77.786 132.408 77.8857 132.044 78.085C131.688 78.2757 131.402 78.5703 131.186 78.969C130.969 79.3677 130.861 79.853 130.861 80.425C130.861 81.0057 130.965 81.4953 131.173 81.894C131.389 82.2927 131.675 82.5917 132.031 82.791C132.386 82.9817 132.776 83.077 133.201 83.077ZM144.527 82.908L146.737 76.876H147.998L145.203 84H143.825L141.03 76.876H142.304L144.527 82.908ZM149.773 75.719C149.548 75.719 149.357 75.641 149.201 75.485C149.045 75.329 148.967 75.1383 148.967 74.913C148.967 74.6877 149.045 74.497 149.201 74.341C149.357 74.185 149.548 74.107 149.773 74.107C149.99 74.107 150.172 74.185 150.319 74.341C150.475 74.497 150.553 74.6877 150.553 74.913C150.553 75.1383 150.475 75.329 150.319 75.485C150.172 75.641 149.99 75.719 149.773 75.719ZM150.345 76.876V84H149.162V76.876H150.345ZM153.544 78.033C153.752 77.6257 154.047 77.3093 154.428 77.084C154.818 76.8587 155.291 76.746 155.845 76.746V77.968H155.533C154.207 77.968 153.544 78.6873 153.544 80.126V84H152.361V76.876H153.544V78.033ZM158.654 77.851V82.05C158.654 82.3967 158.728 82.6437 158.875 82.791C159.022 82.9297 159.278 82.999 159.642 82.999H160.513V84H159.447C158.788 84 158.294 83.8483 157.965 83.545C157.636 83.2417 157.471 82.7433 157.471 82.05V77.851H156.548V76.876H157.471V75.082H158.654V76.876H160.513V77.851H158.654ZM168.264 76.876V84H167.081V82.947C166.856 83.311 166.54 83.597 166.132 83.805C165.734 84.0043 165.292 84.104 164.806 84.104C164.252 84.104 163.753 83.9913 163.311 83.766C162.869 83.532 162.518 83.1853 162.258 82.726C162.007 82.2667 161.881 81.7077 161.881 81.049V76.876H163.051V80.893C163.051 81.595 163.229 82.1367 163.584 82.518C163.94 82.8907 164.425 83.077 165.04 83.077C165.673 83.077 166.171 82.882 166.535 82.492C166.899 82.102 167.081 81.5343 167.081 80.789V76.876H168.264ZM169.82 80.412C169.82 79.684 169.967 79.047 170.262 78.501C170.556 77.9463 170.959 77.5173 171.471 77.214C171.991 76.9107 172.567 76.759 173.2 76.759C173.824 76.759 174.365 76.8933 174.825 77.162C175.284 77.4307 175.626 77.7687 175.852 78.176V76.876H177.048V84H175.852V82.674C175.618 83.09 175.267 83.4367 174.799 83.714C174.339 83.9827 173.802 84.117 173.187 84.117C172.554 84.117 171.982 83.961 171.471 83.649C170.959 83.337 170.556 82.8993 170.262 82.336C169.967 81.7727 169.82 81.1313 169.82 80.412ZM175.852 80.425C175.852 79.8877 175.743 79.4197 175.527 79.021C175.31 78.6223 175.015 78.319 174.643 78.111C174.279 77.8943 173.876 77.786 173.434 77.786C172.992 77.786 172.589 77.89 172.225 78.098C171.861 78.306 171.57 78.6093 171.354 79.008C171.137 79.4067 171.029 79.8747 171.029 80.412C171.029 80.958 171.137 81.4347 171.354 81.842C171.57 82.2407 171.861 82.5483 172.225 82.765C172.589 82.973 172.992 83.077 173.434 83.077C173.876 83.077 174.279 82.973 174.643 82.765C175.015 82.5483 175.31 82.2407 175.527 81.842C175.743 81.4347 175.852 80.9623 175.852 80.425ZM180.23 74.38V84H179.047V74.38H180.23ZM185.27 80.412C185.27 79.684 185.417 79.047 185.712 78.501C186.007 77.9463 186.41 77.5173 186.921 77.214C187.441 76.9107 188.017 76.759 188.65 76.759C189.274 76.759 189.816 76.8933 190.275 77.162C190.734 77.4307 191.077 77.7687 191.302 78.176V76.876H192.498V84H191.302V82.674C191.068 83.09 190.717 83.4367 190.249 83.714C189.79 83.9827 189.252 84.117 188.637 84.117C188.004 84.117 187.432 83.961 186.921 83.649C186.41 83.337 186.007 82.8993 185.712 82.336C185.417 81.7727 185.27 81.1313 185.27 80.412ZM191.302 80.425C191.302 79.8877 191.194 79.4197 190.977 79.021C190.76 78.6223 190.466 78.319 190.093 78.111C189.729 77.8943 189.326 77.786 188.884 77.786C188.442 77.786 188.039 77.89 187.675 78.098C187.311 78.306 187.021 78.6093 186.804 79.008C186.587 79.4067 186.479 79.8747 186.479 80.412C186.479 80.958 186.587 81.4347 186.804 81.842C187.021 82.2407 187.311 82.5483 187.675 82.765C188.039 82.973 188.442 83.077 188.884 83.077C189.326 83.077 189.729 82.973 190.093 82.765C190.466 82.5483 190.76 82.2407 190.977 81.842C191.194 81.4347 191.302 80.9623 191.302 80.425ZM197.604 84.117C196.937 84.117 196.33 83.9653 195.784 83.662C195.247 83.3587 194.822 82.9297 194.51 82.375C194.207 81.8117 194.055 81.1617 194.055 80.425C194.055 79.697 194.211 79.0557 194.523 78.501C194.844 77.9377 195.277 77.5087 195.823 77.214C196.369 76.9107 196.98 76.759 197.656 76.759C198.332 76.759 198.943 76.9107 199.489 77.214C200.035 77.5087 200.464 77.9333 200.776 78.488C201.097 79.0427 201.257 79.6883 201.257 80.425C201.257 81.1617 201.092 81.8117 200.763 82.375C200.442 82.9297 200.005 83.3587 199.45 83.662C198.895 83.9653 198.28 84.117 197.604 84.117ZM197.604 83.077C198.029 83.077 198.427 82.9773 198.8 82.778C199.173 82.5787 199.472 82.2797 199.697 81.881C199.931 81.4823 200.048 80.997 200.048 80.425C200.048 79.853 199.935 79.3677 199.71 78.969C199.485 78.5703 199.19 78.2757 198.826 78.085C198.462 77.8857 198.068 77.786 197.643 77.786C197.21 77.786 196.811 77.8857 196.447 78.085C196.092 78.2757 195.806 78.5703 195.589 78.969C195.372 79.3677 195.264 79.853 195.264 80.425C195.264 81.0057 195.368 81.4953 195.576 81.894C195.793 82.2927 196.079 82.5917 196.434 82.791C196.789 82.9817 197.179 83.077 197.604 83.077ZM205.335 84.117C204.789 84.117 204.299 84.026 203.866 83.844C203.432 83.6533 203.09 83.3933 202.839 83.064C202.587 82.726 202.449 82.3403 202.423 81.907H203.645C203.679 82.2623 203.844 82.5527 204.139 82.778C204.442 83.0033 204.836 83.116 205.322 83.116C205.772 83.116 206.128 83.0163 206.388 82.817C206.648 82.6177 206.778 82.3663 206.778 82.063C206.778 81.751 206.639 81.5213 206.362 81.374C206.084 81.218 205.655 81.0663 205.075 80.919C204.546 80.7803 204.113 80.6417 203.775 80.503C203.445 80.3557 203.159 80.1433 202.917 79.866C202.683 79.58 202.566 79.2073 202.566 78.748C202.566 78.384 202.674 78.0503 202.891 77.747C203.107 77.4437 203.415 77.2053 203.814 77.032C204.212 76.85 204.667 76.759 205.179 76.759C205.967 76.759 206.604 76.9583 207.09 77.357C207.575 77.7557 207.835 78.3017 207.87 78.995H206.687C206.661 78.6223 206.509 78.3233 206.232 78.098C205.963 77.8727 205.599 77.76 205.14 77.76C204.715 77.76 204.377 77.851 204.126 78.033C203.874 78.215 203.749 78.4533 203.749 78.748C203.749 78.982 203.822 79.177 203.97 79.333C204.126 79.4803 204.316 79.6017 204.542 79.697C204.776 79.7837 205.096 79.8833 205.504 79.996C206.015 80.1347 206.431 80.2733 206.752 80.412C207.072 80.542 207.345 80.7413 207.571 81.01C207.805 81.2787 207.926 81.6297 207.935 82.063C207.935 82.453 207.826 82.804 207.61 83.116C207.393 83.428 207.085 83.675 206.687 83.857C206.297 84.0303 205.846 84.117 205.335 84.117ZM215.592 84.117C215.046 84.117 214.557 84.026 214.123 83.844C213.69 83.6533 213.348 83.3933 213.096 83.064C212.845 82.726 212.706 82.3403 212.68 81.907H213.902C213.937 82.2623 214.102 82.5527 214.396 82.778C214.7 83.0033 215.094 83.116 215.579 83.116C216.03 83.116 216.385 83.0163 216.645 82.817C216.905 82.6177 217.035 82.3663 217.035 82.063C217.035 81.751 216.897 81.5213 216.619 81.374C216.342 81.218 215.913 81.0663 215.332 80.919C214.804 80.7803 214.37 80.6417 214.032 80.503C213.703 80.3557 213.417 80.1433 213.174 79.866C212.94 79.58 212.823 79.2073 212.823 78.748C212.823 78.384 212.932 78.0503 213.148 77.747C213.365 77.4437 213.673 77.2053 214.071 77.032C214.47 76.85 214.925 76.759 215.436 76.759C216.225 76.759 216.862 76.9583 217.347 77.357C217.833 77.7557 218.093 78.3017 218.127 78.995H216.944C216.918 78.6223 216.767 78.3233 216.489 78.098C216.221 77.8727 215.857 77.76 215.397 77.76C214.973 77.76 214.635 77.851 214.383 78.033C214.132 78.215 214.006 78.4533 214.006 78.748C214.006 78.982 214.08 79.177 214.227 79.333C214.383 79.4803 214.574 79.6017 214.799 79.697C215.033 79.7837 215.354 79.8833 215.761 79.996C216.273 80.1347 216.689 80.2733 217.009 80.412C217.33 80.542 217.603 80.7413 217.828 81.01C218.062 81.2787 218.184 81.6297 218.192 82.063C218.192 82.453 218.084 82.804 217.867 83.116C217.651 83.428 217.343 83.675 216.944 83.857C216.554 84.0303 216.104 84.117 215.592 84.117ZM219.42 80.412C219.42 79.684 219.568 79.047 219.862 78.501C220.157 77.9463 220.56 77.5173 221.071 77.214C221.591 76.9107 222.168 76.759 222.8 76.759C223.424 76.759 223.966 76.8933 224.425 77.162C224.885 77.4307 225.227 77.7687 225.452 78.176V76.876H226.648V84H225.452V82.674C225.218 83.09 224.867 83.4367 224.399 83.714C223.94 83.9827 223.403 84.117 222.787 84.117C222.155 84.117 221.583 83.961 221.071 83.649C220.56 83.337 220.157 82.8993 219.862 82.336C219.568 81.7727 219.42 81.1313 219.42 80.412ZM225.452 80.425C225.452 79.8877 225.344 79.4197 225.127 79.021C224.911 78.6223 224.616 78.319 224.243 78.111C223.879 77.8943 223.476 77.786 223.034 77.786C222.592 77.786 222.189 77.89 221.825 78.098C221.461 78.306 221.171 78.6093 220.954 79.008C220.738 79.4067 220.629 79.8747 220.629 80.412C220.629 80.958 220.738 81.4347 220.954 81.842C221.171 82.2407 221.461 82.5483 221.825 82.765C222.189 82.973 222.592 83.077 223.034 83.077C223.476 83.077 223.879 82.973 224.243 82.765C224.616 82.5483 224.911 82.2407 225.127 81.842C225.344 81.4347 225.452 80.9623 225.452 80.425ZM224.529 74.861L221.76 76.343V75.459L224.529 73.834V74.861ZM229.83 78.202C230.073 77.7773 230.428 77.4307 230.896 77.162C231.364 76.8933 231.897 76.759 232.495 76.759C233.137 76.759 233.713 76.9107 234.224 77.214C234.736 77.5173 235.139 77.9463 235.433 78.501C235.728 79.047 235.875 79.684 235.875 80.412C235.875 81.1313 235.728 81.7727 235.433 82.336C235.139 82.8993 234.731 83.337 234.211 83.649C233.7 83.961 233.128 84.117 232.495 84.117C231.88 84.117 231.338 83.9827 230.87 83.714C230.411 83.4453 230.064 83.103 229.83 82.687V84H228.647V74.38H229.83V78.202ZM234.666 80.412C234.666 79.8747 234.558 79.4067 234.341 79.008C234.125 78.6093 233.83 78.306 233.457 78.098C233.093 77.89 232.69 77.786 232.248 77.786C231.815 77.786 231.412 77.8943 231.039 78.111C230.675 78.319 230.381 78.6267 230.155 79.034C229.939 79.4327 229.83 79.8963 229.83 80.425C229.83 80.9623 229.939 81.4347 230.155 81.842C230.381 82.2407 230.675 82.5483 231.039 82.765C231.412 82.973 231.815 83.077 232.248 83.077C232.69 83.077 233.093 82.973 233.457 82.765C233.83 82.5483 234.125 82.2407 234.341 81.842C234.558 81.4347 234.666 80.958 234.666 80.412ZM236.991 80.412C236.991 79.684 237.138 79.047 237.433 78.501C237.727 77.9463 238.13 77.5173 238.642 77.214C239.162 76.9107 239.738 76.759 240.371 76.759C240.995 76.759 241.536 76.8933 241.996 77.162C242.455 77.4307 242.797 77.7687 243.023 78.176V76.876H244.219V84H243.023V82.674C242.789 83.09 242.438 83.4367 241.97 83.714C241.51 83.9827 240.973 84.117 240.358 84.117C239.725 84.117 239.153 83.961 238.642 83.649C238.13 83.337 237.727 82.8993 237.433 82.336C237.138 81.7727 236.991 81.1313 236.991 80.412ZM243.023 80.425C243.023 79.8877 242.914 79.4197 242.698 79.021C242.481 78.6223 242.186 78.319 241.814 78.111C241.45 77.8943 241.047 77.786 240.605 77.786C240.163 77.786 239.76 77.89 239.396 78.098C239.032 78.306 238.741 78.6093 238.525 79.008C238.308 79.4067 238.2 79.8747 238.2 80.412C238.2 80.958 238.308 81.4347 238.525 81.842C238.741 82.2407 239.032 82.5483 239.396 82.765C239.76 82.973 240.163 83.077 240.605 83.077C241.047 83.077 241.45 82.973 241.814 82.765C242.186 82.5483 242.481 82.2407 242.698 81.842C242.914 81.4347 243.023 80.9623 243.023 80.425ZM245.776 80.412C245.776 79.684 245.923 79.047 246.218 78.501C246.512 77.9463 246.915 77.5173 247.427 77.214C247.947 76.9107 248.527 76.759 249.169 76.759C249.723 76.759 250.239 76.889 250.716 77.149C251.192 77.4003 251.556 77.734 251.808 78.15V74.38H253.004V84H251.808V82.661C251.574 83.0857 251.227 83.4367 250.768 83.714C250.308 83.9827 249.771 84.117 249.156 84.117C248.523 84.117 247.947 83.961 247.427 83.649C246.915 83.337 246.512 82.8993 246.218 82.336C245.923 81.7727 245.776 81.1313 245.776 80.412ZM251.808 80.425C251.808 79.8877 251.699 79.4197 251.483 79.021C251.266 78.6223 250.971 78.319 250.599 78.111C250.235 77.8943 249.832 77.786 249.39 77.786C248.948 77.786 248.545 77.89 248.181 78.098C247.817 78.306 247.526 78.6093 247.31 79.008C247.093 79.4067 246.985 79.8747 246.985 80.412C246.985 80.958 247.093 81.4347 247.31 81.842C247.526 82.2407 247.817 82.5483 248.181 82.765C248.545 82.973 248.948 83.077 249.39 83.077C249.832 83.077 250.235 82.973 250.599 82.765C250.971 82.5483 251.266 82.2407 251.483 81.842C251.699 81.4347 251.808 80.9623 251.808 80.425ZM258.11 84.117C257.443 84.117 256.836 83.9653 256.29 83.662C255.753 83.3587 255.328 82.9297 255.016 82.375C254.713 81.8117 254.561 81.1617 254.561 80.425C254.561 79.697 254.717 79.0557 255.029 78.501C255.35 77.9377 255.783 77.5087 256.329 77.214C256.875 76.9107 257.486 76.759 258.162 76.759C258.838 76.759 259.449 76.9107 259.995 77.214C260.541 77.5087 260.97 77.9333 261.282 78.488C261.603 79.0427 261.763 79.6883 261.763 80.425C261.763 81.1617 261.598 81.8117 261.269 82.375C260.948 82.9297 260.511 83.3587 259.956 83.662C259.401 83.9653 258.786 84.117 258.11 84.117ZM258.11 83.077C258.535 83.077 258.933 82.9773 259.306 82.778C259.679 82.5787 259.978 82.2797 260.203 81.881C260.437 81.4823 260.554 80.997 260.554 80.425C260.554 79.853 260.441 79.3677 260.216 78.969C259.991 78.5703 259.696 78.2757 259.332 78.085C258.968 77.8857 258.574 77.786 258.149 77.786C257.716 77.786 257.317 77.8857 256.953 78.085C256.598 78.2757 256.312 78.5703 256.095 78.969C255.878 79.3677 255.77 79.853 255.77 80.425C255.77 81.0057 255.874 81.4953 256.082 81.894C256.299 82.2927 256.585 82.5917 256.94 82.791C257.295 82.9817 257.685 83.077 258.11 83.077ZM265.84 84.117C265.294 84.117 264.805 84.026 264.371 83.844C263.938 83.6533 263.596 83.3933 263.344 83.064C263.093 82.726 262.954 82.3403 262.928 81.907H264.15C264.185 82.2623 264.35 82.5527 264.644 82.778C264.948 83.0033 265.342 83.116 265.827 83.116C266.278 83.116 266.633 83.0163 266.893 82.817C267.153 82.6177 267.283 82.3663 267.283 82.063C267.283 81.751 267.145 81.5213 266.867 81.374C266.59 81.218 266.161 81.0663 265.58 80.919C265.052 80.7803 264.618 80.6417 264.28 80.503C263.951 80.3557 263.665 80.1433 263.422 79.866C263.188 79.58 263.071 79.2073 263.071 78.748C263.071 78.384 263.18 78.0503 263.396 77.747C263.613 77.4437 263.921 77.2053 264.319 77.032C264.718 76.85 265.173 76.759 265.684 76.759C266.473 76.759 267.11 76.9583 267.595 77.357C268.081 77.7557 268.341 78.3017 268.375 78.995H267.192C267.166 78.6223 267.015 78.3233 266.737 78.098C266.469 77.8727 266.105 77.76 265.645 77.76C265.221 77.76 264.883 77.851 264.631 78.033C264.38 78.215 264.254 78.4533 264.254 78.748C264.254 78.982 264.328 79.177 264.475 79.333C264.631 79.4803 264.822 79.6017 265.047 79.697C265.281 79.7837 265.602 79.8833 266.009 79.996C266.521 80.1347 266.937 80.2733 267.257 80.412C267.578 80.542 267.851 80.7413 268.076 81.01C268.31 81.2787 268.432 81.6297 268.44 82.063C268.44 82.453 268.332 82.804 268.115 83.116C267.899 83.428 267.591 83.675 267.192 83.857C266.802 84.0303 266.352 84.117 265.84 84.117Z" fill="black"/>
<rect x="37" y="127" width="220" height="28" rx="3" fill="white" stroke="black" stroke-width="2"/>
<rect x="37" y="155" width="248" height="29" rx="3" fill="#A4A3CE" stroke="black" stroke-width="2"/>
<rect x="226" y="127" width="31" height="28" rx="3" fill="#3A3666" stroke="black" stroke-width="2"/>
<path d="M247.89 136.5H234.536C233.706 136.5 233.237 137.454 233.745 138.111L240.231 146.505C240.624 147.014 241.389 147.025 241.796 146.527L248.664 138.133C249.198 137.48 248.733 136.5 247.89 136.5Z" fill="white"/>
<path d="M24.8547 194V126.682H13.1832V107.937H45.84V194H24.8547Z" fill="#2B2A5A"/>
<path d="M58.872 135.768V137.96H54.728V140.232H58.392V142.344H54.728V144.808H58.872V147H51.992V135.768H58.872ZM66.8082 147V142.152C66.8082 140.936 66.1362 140.264 65.0962 140.264C64.0562 140.264 63.3842 140.936 63.3842 142.152V147H60.6482V138.072H63.3842V139.256C63.9282 138.504 64.8882 137.976 66.0882 137.976C68.1522 137.976 69.5282 139.384 69.5282 141.784V147H66.8082ZM70.8855 142.536C70.8855 139.72 72.7415 137.944 75.3655 137.944C77.6055 137.944 79.1895 139.176 79.6535 141.304H76.7415C76.5175 140.68 76.0695 140.28 75.3175 140.28C74.3415 140.28 73.6695 141.048 73.6695 142.536C73.6695 144.024 74.3415 144.792 75.3175 144.792C76.0695 144.792 76.5015 144.424 76.7415 143.768H79.6535C79.1895 145.832 77.6055 147.128 75.3655 147.128C72.7415 147.128 70.8855 145.368 70.8855 142.536ZM89.853 142.536C89.853 145.368 87.805 147.128 85.181 147.128C82.557 147.128 80.573 145.368 80.573 142.536C80.573 139.704 82.605 137.944 85.213 137.944C87.837 137.944 89.853 139.704 89.853 142.536ZM83.357 142.536C83.357 144.04 84.189 144.76 85.181 144.76C86.157 144.76 87.069 144.04 87.069 142.536C87.069 141.016 86.173 140.312 85.213 140.312C84.221 140.312 83.357 141.016 83.357 142.536ZM97.4645 147V142.152C97.4645 140.936 96.7925 140.264 95.7525 140.264C94.7125 140.264 94.0405 140.936 94.0405 142.152V147H91.3045V138.072H94.0405V139.256C94.5845 138.504 95.5445 137.976 96.7445 137.976C98.8085 137.976 100.184 139.384 100.184 141.784V147H97.4645ZM102.518 143.896V140.344H101.43V138.072H102.518V135.896H105.254V138.072H107.046V140.344H105.254V143.928C105.254 144.456 105.478 144.68 106.086 144.68H107.062V147H105.67C103.814 147 102.518 146.216 102.518 143.896ZM111.322 142.856V147H108.586V138.072H111.322V139.56C111.946 138.616 112.922 137.976 114.122 137.976V140.872H113.37C112.074 140.872 111.322 141.32 111.322 142.856ZM124.165 142.536C124.165 145.368 122.117 147.128 119.493 147.128C116.869 147.128 114.885 145.368 114.885 142.536C114.885 139.704 116.917 137.944 119.525 137.944C122.149 137.944 124.165 139.704 124.165 142.536ZM117.669 142.536C117.669 144.04 118.501 144.76 119.493 144.76C120.469 144.76 121.381 144.04 121.381 142.536C121.381 141.016 120.485 140.312 119.525 140.312C118.533 140.312 117.669 141.016 117.669 142.536ZM131.744 139.336C132.24 138.552 133.184 137.944 134.496 137.944C136.688 137.944 138.432 139.704 138.432 142.52C138.432 145.336 136.688 147.128 134.496 147.128C133.184 147.128 132.24 146.504 131.744 145.752V151.256H129.008V138.072H131.744V139.336ZM135.648 142.52C135.648 141.096 134.72 140.328 133.68 140.328C132.656 140.328 131.728 141.112 131.728 142.536C131.728 143.96 132.656 144.744 133.68 144.744C134.72 144.744 135.648 143.944 135.648 142.52ZM142.603 142.856V147H139.867V138.072H142.603V139.56C143.227 138.616 144.203 137.976 145.403 137.976V140.872H144.651C143.355 140.872 142.603 141.32 142.603 142.856ZM150.647 140.136C149.751 140.136 149.063 140.68 148.903 141.672H152.327C152.327 140.696 151.559 140.136 150.647 140.136ZM154.919 144.04C154.487 145.784 152.903 147.128 150.679 147.128C148.055 147.128 146.167 145.368 146.167 142.536C146.167 139.704 148.023 137.944 150.679 137.944C153.287 137.944 155.127 139.672 155.127 142.392C155.127 142.648 155.111 142.92 155.079 143.192H148.887C148.983 144.36 149.703 144.904 150.583 144.904C151.351 144.904 151.783 144.52 152.007 144.04H154.919ZM163.818 144.408C163.818 145.96 162.442 147.128 160.202 147.128C157.818 147.128 156.218 145.8 156.09 144.072H158.794C158.858 144.696 159.418 145.112 160.17 145.112C160.874 145.112 161.242 144.792 161.242 144.392C161.242 142.952 156.378 143.992 156.378 140.712C156.378 139.192 157.674 137.944 160.01 137.944C162.314 137.944 163.594 139.224 163.77 140.984H161.242C161.162 140.376 160.698 139.976 159.93 139.976C159.29 139.976 158.938 140.232 158.938 140.664C158.938 142.088 163.77 141.08 163.818 144.408ZM169.428 140.136C168.532 140.136 167.844 140.68 167.684 141.672H171.108C171.108 140.696 170.34 140.136 169.428 140.136ZM173.7 144.04C173.268 145.784 171.684 147.128 169.46 147.128C166.836 147.128 164.948 145.368 164.948 142.536C164.948 139.704 166.804 137.944 169.46 137.944C172.068 137.944 173.908 139.672 173.908 142.392C173.908 142.648 173.892 142.92 173.86 143.192H167.668C167.764 144.36 168.484 144.904 169.364 144.904C170.132 144.904 170.564 144.52 170.788 144.04H173.7ZM181.511 147V142.152C181.511 140.936 180.839 140.264 179.799 140.264C178.759 140.264 178.087 140.936 178.087 142.152V147H175.351V138.072H178.087V139.256C178.631 138.504 179.591 137.976 180.791 137.976C182.855 137.976 184.231 139.384 184.231 141.784V147H181.511ZM185.589 142.536C185.589 139.72 187.445 137.944 190.069 137.944C192.309 137.944 193.893 139.176 194.357 141.304H191.445C191.221 140.68 190.773 140.28 190.021 140.28C189.045 140.28 188.373 141.048 188.373 142.536C188.373 144.024 189.045 144.792 190.021 144.792C190.773 144.792 191.205 144.424 191.445 143.768H194.357C193.893 145.832 192.309 147.128 190.069 147.128C187.445 147.128 185.589 145.368 185.589 142.536ZM195.82 147V138.072H198.556V147H195.82ZM197.196 137.144C196.22 137.144 195.564 136.488 195.564 135.672C195.564 134.84 196.22 134.184 197.196 134.184C198.156 134.184 198.812 134.84 198.812 135.672C198.812 136.488 198.156 137.144 197.196 137.144ZM199.995 142.52C199.995 139.704 201.739 137.944 203.931 137.944C205.259 137.944 206.203 138.552 206.683 139.336V138.072H209.419V147H206.683V145.736C206.187 146.52 205.243 147.128 203.915 147.128C201.739 147.128 199.995 145.336 199.995 142.52ZM206.683 142.536C206.683 141.112 205.771 140.328 204.731 140.328C203.707 140.328 202.779 141.096 202.779 142.52C202.779 143.944 203.707 144.744 204.731 144.744C205.771 144.744 206.683 143.96 206.683 142.536ZM211.398 147V135.16H214.134V147H211.398Z" fill="black"/>
<path d="M57.184 165.901V168.93H60.486V169.905H57.184V173.025H60.876V174H56.001V164.926H60.876V165.901H57.184ZM66.137 166.746C67.0037 166.746 67.7057 167.01 68.243 167.539C68.7804 168.059 69.049 168.813 69.049 169.801V174H67.879V169.97C67.879 169.259 67.7014 168.718 67.346 168.345C66.9907 167.964 66.5054 167.773 65.89 167.773C65.266 167.773 64.7677 167.968 64.395 168.358C64.031 168.748 63.849 169.316 63.849 170.061V174H62.666V166.876H63.849V167.89C64.083 167.526 64.3994 167.244 64.798 167.045C65.2054 166.846 65.6517 166.746 66.137 166.746ZM70.5395 170.425C70.5395 169.688 70.6868 169.047 70.9815 168.501C71.2761 167.946 71.6835 167.517 72.2035 167.214C72.7321 166.911 73.3345 166.759 74.0105 166.759C74.8858 166.759 75.6051 166.971 76.1685 167.396C76.7405 167.821 77.1175 168.41 77.2995 169.164H76.0255C75.9041 168.731 75.6658 168.388 75.3105 168.137C74.9638 167.886 74.5305 167.76 74.0105 167.76C73.3345 167.76 72.7885 167.994 72.3725 168.462C71.9565 168.921 71.7485 169.576 71.7485 170.425C71.7485 171.283 71.9565 171.946 72.3725 172.414C72.7885 172.882 73.3345 173.116 74.0105 173.116C74.5305 173.116 74.9638 172.995 75.3105 172.752C75.6571 172.509 75.8955 172.163 76.0255 171.712H77.2995C77.1088 172.44 76.7275 173.025 76.1555 173.467C75.5835 173.9 74.8685 174.117 74.0105 174.117C73.3345 174.117 72.7321 173.965 72.2035 173.662C71.6835 173.359 71.2761 172.93 70.9815 172.375C70.6868 171.82 70.5395 171.17 70.5395 170.425ZM81.9849 174.117C81.3176 174.117 80.7109 173.965 80.1649 173.662C79.6276 173.359 79.2029 172.93 78.8909 172.375C78.5876 171.812 78.4359 171.162 78.4359 170.425C78.4359 169.697 78.5919 169.056 78.9039 168.501C79.2246 167.938 79.6579 167.509 80.2039 167.214C80.7499 166.911 81.3609 166.759 82.0369 166.759C82.7129 166.759 83.3239 166.911 83.8699 167.214C84.4159 167.509 84.8449 167.933 85.1569 168.488C85.4776 169.043 85.6379 169.688 85.6379 170.425C85.6379 171.162 85.4733 171.812 85.1439 172.375C84.8233 172.93 84.3856 173.359 83.8309 173.662C83.2763 173.965 82.6609 174.117 81.9849 174.117ZM81.9849 173.077C82.4096 173.077 82.8083 172.977 83.1809 172.778C83.5536 172.579 83.8526 172.28 84.0779 171.881C84.3119 171.482 84.4289 170.997 84.4289 170.425C84.4289 169.853 84.3163 169.368 84.0909 168.969C83.8656 168.57 83.5709 168.276 83.2069 168.085C82.8429 167.886 82.4486 167.786 82.0239 167.786C81.5906 167.786 81.1919 167.886 80.8279 168.085C80.4726 168.276 80.1866 168.57 79.9699 168.969C79.7533 169.368 79.6449 169.853 79.6449 170.425C79.6449 171.006 79.7489 171.495 79.9569 171.894C80.1736 172.293 80.4596 172.592 80.8149 172.791C81.1703 172.982 81.5603 173.077 81.9849 173.077ZM90.6644 166.746C91.531 166.746 92.233 167.01 92.7704 167.539C93.3077 168.059 93.5764 168.813 93.5764 169.801V174H92.4064V169.97C92.4064 169.259 92.2287 168.718 91.8734 168.345C91.518 167.964 91.0327 167.773 90.4174 167.773C89.7934 167.773 89.295 167.968 88.9224 168.358C88.5584 168.748 88.3764 169.316 88.3764 170.061V174H87.1934V166.876H88.3764V167.89C88.6104 167.526 88.9267 167.244 89.3254 167.045C89.7327 166.846 90.179 166.746 90.6644 166.746ZM96.9518 167.851V172.05C96.9518 172.397 97.0255 172.644 97.1728 172.791C97.3201 172.93 97.5758 172.999 97.9398 172.999H98.8108V174H97.7448C97.0861 174 96.5921 173.848 96.2628 173.545C95.9335 173.242 95.7688 172.743 95.7688 172.05V167.851H94.8458V166.876H95.7688V165.082H96.9518V166.876H98.8108V167.851H96.9518ZM101.427 168.033C101.635 167.626 101.93 167.309 102.311 167.084C102.701 166.859 103.173 166.746 103.728 166.746V167.968H103.416C102.09 167.968 101.427 168.687 101.427 170.126V174H100.244V166.876H101.427V168.033ZM108.201 174.117C107.533 174.117 106.927 173.965 106.381 173.662C105.843 173.359 105.419 172.93 105.107 172.375C104.803 171.812 104.652 171.162 104.652 170.425C104.652 169.697 104.808 169.056 105.12 168.501C105.44 167.938 105.874 167.509 106.42 167.214C106.966 166.911 107.577 166.759 108.253 166.759C108.929 166.759 109.54 166.911 110.086 167.214C110.632 167.509 111.061 167.933 111.373 168.488C111.693 169.043 111.854 169.688 111.854 170.425C111.854 171.162 111.689 171.812 111.36 172.375C111.039 172.93 110.601 173.359 110.047 173.662C109.492 173.965 108.877 174.117 108.201 174.117ZM108.201 173.077C108.625 173.077 109.024 172.977 109.397 172.778C109.769 172.579 110.068 172.28 110.294 171.881C110.528 171.482 110.645 170.997 110.645 170.425C110.645 169.853 110.532 169.368 110.307 168.969C110.081 168.57 109.787 168.276 109.423 168.085C109.059 167.886 108.664 167.786 108.24 167.786C107.806 167.786 107.408 167.886 107.044 168.085C106.688 168.276 106.402 168.57 106.186 168.969C105.969 169.368 105.861 169.853 105.861 170.425C105.861 171.006 105.965 171.495 106.173 171.894C106.389 172.293 106.675 172.592 107.031 172.791C107.386 172.982 107.776 173.077 108.201 173.077ZM116.433 170.412C116.433 169.684 116.58 169.047 116.875 168.501C117.17 167.946 117.573 167.517 118.084 167.214C118.604 166.911 119.18 166.759 119.813 166.759C120.437 166.759 120.979 166.893 121.438 167.162C121.897 167.431 122.24 167.769 122.465 168.176V166.876H123.661V174H122.465V172.674C122.231 173.09 121.88 173.437 121.412 173.714C120.953 173.983 120.415 174.117 119.8 174.117C119.167 174.117 118.595 173.961 118.084 173.649C117.573 173.337 117.17 172.899 116.875 172.336C116.58 171.773 116.433 171.131 116.433 170.412ZM122.465 170.425C122.465 169.888 122.357 169.42 122.14 169.021C121.923 168.622 121.629 168.319 121.256 168.111C120.892 167.894 120.489 167.786 120.047 167.786C119.605 167.786 119.202 167.89 118.838 168.098C118.474 168.306 118.184 168.609 117.967 169.008C117.75 169.407 117.642 169.875 117.642 170.412C117.642 170.958 117.75 171.435 117.967 171.842C118.184 172.241 118.474 172.548 118.838 172.765C119.202 172.973 119.605 173.077 120.047 173.077C120.489 173.077 120.892 172.973 121.256 172.765C121.629 172.548 121.923 172.241 122.14 171.842C122.357 171.435 122.465 170.962 122.465 170.425ZM125.218 170.425C125.218 169.688 125.366 169.047 125.66 168.501C125.955 167.946 126.362 167.517 126.882 167.214C127.411 166.911 128.013 166.759 128.689 166.759C129.565 166.759 130.284 166.971 130.847 167.396C131.419 167.821 131.796 168.41 131.978 169.164H130.704C130.583 168.731 130.345 168.388 129.989 168.137C129.643 167.886 129.209 167.76 128.689 167.76C128.013 167.76 127.467 167.994 127.051 168.462C126.635 168.921 126.427 169.576 126.427 170.425C126.427 171.283 126.635 171.946 127.051 172.414C127.467 172.882 128.013 173.116 128.689 173.116C129.209 173.116 129.643 172.995 129.989 172.752C130.336 172.509 130.574 172.163 130.704 171.712H131.978C131.788 172.44 131.406 173.025 130.834 173.467C130.262 173.9 129.547 174.117 128.689 174.117C128.013 174.117 127.411 173.965 126.882 173.662C126.362 173.359 125.955 172.93 125.66 172.375C125.366 171.82 125.218 171.17 125.218 170.425ZM133.115 170.412C133.115 169.684 133.262 169.047 133.557 168.501C133.851 167.946 134.254 167.517 134.766 167.214C135.286 166.911 135.862 166.759 136.495 166.759C137.119 166.759 137.66 166.893 138.12 167.162C138.579 167.431 138.921 167.769 139.147 168.176V166.876H140.343V174H139.147V172.674C138.913 173.09 138.562 173.437 138.094 173.714C137.634 173.983 137.097 174.117 136.482 174.117C135.849 174.117 135.277 173.961 134.766 173.649C134.254 173.337 133.851 172.899 133.557 172.336C133.262 171.773 133.115 171.131 133.115 170.412ZM139.147 170.425C139.147 169.888 139.038 169.42 138.822 169.021C138.605 168.622 138.31 168.319 137.938 168.111C137.574 167.894 137.171 167.786 136.729 167.786C136.287 167.786 135.884 167.89 135.52 168.098C135.156 168.306 134.865 168.609 134.649 169.008C134.432 169.407 134.324 169.875 134.324 170.412C134.324 170.958 134.432 171.435 134.649 171.842C134.865 172.241 135.156 172.548 135.52 172.765C135.884 172.973 136.287 173.077 136.729 173.077C137.171 173.077 137.574 172.973 137.938 172.765C138.31 172.548 138.605 172.241 138.822 171.842C139.038 171.435 139.147 170.962 139.147 170.425ZM141.9 170.412C141.9 169.684 142.047 169.047 142.342 168.501C142.636 167.946 143.039 167.517 143.551 167.214C144.071 166.911 144.651 166.759 145.293 166.759C145.847 166.759 146.363 166.889 146.84 167.149C147.316 167.4 147.68 167.734 147.932 168.15V164.38H149.128V174H147.932V172.661C147.698 173.086 147.351 173.437 146.892 173.714C146.432 173.983 145.895 174.117 145.28 174.117C144.647 174.117 144.071 173.961 143.551 173.649C143.039 173.337 142.636 172.899 142.342 172.336C142.047 171.773 141.9 171.131 141.9 170.412ZM147.932 170.425C147.932 169.888 147.823 169.42 147.607 169.021C147.39 168.622 147.095 168.319 146.723 168.111C146.359 167.894 145.956 167.786 145.514 167.786C145.072 167.786 144.669 167.89 144.305 168.098C143.941 168.306 143.65 168.609 143.434 169.008C143.217 169.407 143.109 169.875 143.109 170.412C143.109 170.958 143.217 171.435 143.434 171.842C143.65 172.241 143.941 172.548 144.305 172.765C144.669 172.973 145.072 173.077 145.514 173.077C145.956 173.077 146.359 172.973 146.723 172.765C147.095 172.548 147.39 172.241 147.607 171.842C147.823 171.435 147.932 170.962 147.932 170.425ZM157.627 170.165C157.627 170.39 157.614 170.629 157.588 170.88H151.894C151.937 171.582 152.176 172.132 152.609 172.531C153.051 172.921 153.584 173.116 154.208 173.116C154.719 173.116 155.144 172.999 155.482 172.765C155.829 172.522 156.071 172.202 156.21 171.803H157.484C157.293 172.488 156.912 173.047 156.34 173.48C155.768 173.905 155.057 174.117 154.208 174.117C153.532 174.117 152.925 173.965 152.388 173.662C151.859 173.359 151.443 172.93 151.14 172.375C150.837 171.812 150.685 171.162 150.685 170.425C150.685 169.688 150.832 169.043 151.127 168.488C151.422 167.933 151.833 167.509 152.362 167.214C152.899 166.911 153.515 166.759 154.208 166.759C154.884 166.759 155.482 166.906 156.002 167.201C156.522 167.496 156.921 167.903 157.198 168.423C157.484 168.934 157.627 169.515 157.627 170.165ZM156.405 169.918C156.405 169.467 156.305 169.082 156.106 168.761C155.907 168.432 155.634 168.185 155.287 168.02C154.949 167.847 154.572 167.76 154.156 167.76C153.558 167.76 153.047 167.951 152.622 168.332C152.206 168.713 151.968 169.242 151.907 169.918H156.405ZM154.169 165.134L152.362 166.239V165.303L154.169 164.224L155.963 165.303V166.239L154.169 165.134ZM167.755 166.746C168.31 166.746 168.804 166.863 169.237 167.097C169.671 167.322 170.013 167.665 170.264 168.124C170.516 168.583 170.641 169.142 170.641 169.801V174H169.471V169.97C169.471 169.259 169.294 168.718 168.938 168.345C168.592 167.964 168.119 167.773 167.521 167.773C166.906 167.773 166.416 167.972 166.052 168.371C165.688 168.761 165.506 169.329 165.506 170.074V174H164.336V169.97C164.336 169.259 164.159 168.718 163.803 168.345C163.457 167.964 162.984 167.773 162.386 167.773C161.771 167.773 161.281 167.972 160.917 168.371C160.553 168.761 160.371 169.329 160.371 170.074V174H159.188V166.876H160.371V167.903C160.605 167.53 160.917 167.244 161.307 167.045C161.706 166.846 162.144 166.746 162.62 166.746C163.218 166.746 163.747 166.88 164.206 167.149C164.666 167.418 165.008 167.812 165.233 168.332C165.433 167.829 165.762 167.439 166.221 167.162C166.681 166.885 167.192 166.746 167.755 166.746ZM173.193 165.719C172.968 165.719 172.777 165.641 172.621 165.485C172.465 165.329 172.387 165.138 172.387 164.913C172.387 164.688 172.465 164.497 172.621 164.341C172.777 164.185 172.968 164.107 173.193 164.107C173.41 164.107 173.592 164.185 173.739 164.341C173.895 164.497 173.973 164.688 173.973 164.913C173.973 165.138 173.895 165.329 173.739 165.485C173.592 165.641 173.41 165.719 173.193 165.719ZM173.765 166.876V174H172.582V166.876H173.765ZM175.339 170.425C175.339 169.688 175.487 169.047 175.781 168.501C176.076 167.946 176.483 167.517 177.003 167.214C177.532 166.911 178.134 166.759 178.81 166.759C179.686 166.759 180.405 166.971 180.968 167.396C181.54 167.821 181.917 168.41 182.099 169.164H180.825C180.704 168.731 180.466 168.388 180.11 168.137C179.764 167.886 179.33 167.76 178.81 167.76C178.134 167.76 177.588 167.994 177.172 168.462C176.756 168.921 176.548 169.576 176.548 170.425C176.548 171.283 176.756 171.946 177.172 172.414C177.588 172.882 178.134 173.116 178.81 173.116C179.33 173.116 179.764 172.995 180.11 172.752C180.457 172.509 180.695 172.163 180.825 171.712H182.099C181.909 172.44 181.527 173.025 180.955 173.467C180.383 173.9 179.668 174.117 178.81 174.117C178.134 174.117 177.532 173.965 177.003 173.662C176.483 173.359 176.076 172.93 175.781 172.375C175.487 171.82 175.339 171.17 175.339 170.425ZM186.785 174.117C186.117 174.117 185.511 173.965 184.965 173.662C184.427 173.359 184.003 172.93 183.691 172.375C183.387 171.812 183.236 171.162 183.236 170.425C183.236 169.697 183.392 169.056 183.704 168.501C184.024 167.938 184.458 167.509 185.004 167.214C185.55 166.911 186.161 166.759 186.837 166.759C187.513 166.759 188.124 166.911 188.67 167.214C189.216 167.509 189.645 167.933 189.957 168.488C190.277 169.043 190.438 169.688 190.438 170.425C190.438 171.162 190.273 171.812 189.944 172.375C189.623 172.93 189.185 173.359 188.631 173.662C188.076 173.965 187.461 174.117 186.785 174.117ZM186.785 173.077C187.209 173.077 187.608 172.977 187.981 172.778C188.353 172.579 188.652 172.28 188.878 171.881C189.112 171.482 189.229 170.997 189.229 170.425C189.229 169.853 189.116 169.368 188.891 168.969C188.665 168.57 188.371 168.276 188.007 168.085C187.643 167.886 187.248 167.786 186.824 167.786C186.39 167.786 185.992 167.886 185.628 168.085C185.272 168.276 184.986 168.57 184.77 168.969C184.553 169.368 184.445 169.853 184.445 170.425C184.445 171.006 184.549 171.495 184.757 171.894C184.973 172.293 185.259 172.592 185.615 172.791C185.97 172.982 186.36 173.077 186.785 173.077ZM196.902 167.851V172.05C196.902 172.397 196.976 172.644 197.123 172.791C197.27 172.93 197.526 172.999 197.89 172.999H198.761V174H197.695C197.036 174 196.542 173.848 196.213 173.545C195.884 173.242 195.719 172.743 195.719 172.05V167.851H194.796V166.876H195.719V165.082H196.902V166.876H198.761V167.851H196.902ZM201.377 168.033C201.585 167.626 201.88 167.309 202.261 167.084C202.651 166.859 203.124 166.746 203.678 166.746V167.968H203.366C202.04 167.968 201.377 168.687 201.377 170.126V174H200.194V166.876H201.377V168.033ZM205.655 165.719C205.43 165.719 205.239 165.641 205.083 165.485C204.927 165.329 204.849 165.138 204.849 164.913C204.849 164.688 204.927 164.497 205.083 164.341C205.239 164.185 205.43 164.107 205.655 164.107C205.872 164.107 206.054 164.185 206.201 164.341C206.357 164.497 206.435 164.688 206.435 164.913C206.435 165.138 206.357 165.329 206.201 165.485C206.054 165.641 205.872 165.719 205.655 165.719ZM206.227 166.876V174H205.044V166.876H206.227ZM216.81 166.746C217.365 166.746 217.859 166.863 218.292 167.097C218.726 167.322 219.068 167.665 219.319 168.124C219.571 168.583 219.696 169.142 219.696 169.801V174H218.526V169.97C218.526 169.259 218.349 168.718 217.993 168.345C217.647 167.964 217.174 167.773 216.576 167.773C215.961 167.773 215.471 167.972 215.107 168.371C214.743 168.761 214.561 169.329 214.561 170.074V174H213.391V169.97C213.391 169.259 213.214 168.718 212.858 168.345C212.512 167.964 212.039 167.773 211.441 167.773C210.826 167.773 210.336 167.972 209.972 168.371C209.608 168.761 209.426 169.329 209.426 170.074V174H208.243V166.876H209.426V167.903C209.66 167.53 209.972 167.244 210.362 167.045C210.761 166.846 211.199 166.746 211.675 166.746C212.273 166.746 212.802 166.88 213.261 167.149C213.721 167.418 214.063 167.812 214.288 168.332C214.488 167.829 214.817 167.439 215.276 167.162C215.736 166.885 216.247 166.746 216.81 166.746ZM228.137 170.165C228.137 170.39 228.124 170.629 228.098 170.88H222.404C222.447 171.582 222.685 172.132 223.119 172.531C223.561 172.921 224.094 173.116 224.718 173.116C225.229 173.116 225.654 172.999 225.992 172.765C226.338 172.522 226.581 172.202 226.72 171.803H227.994C227.803 172.488 227.422 173.047 226.85 173.48C226.278 173.905 225.567 174.117 224.718 174.117C224.042 174.117 223.435 173.965 222.898 173.662C222.369 173.359 221.953 172.93 221.65 172.375C221.346 171.812 221.195 171.162 221.195 170.425C221.195 169.688 221.342 169.043 221.637 168.488C221.931 167.933 222.343 167.509 222.872 167.214C223.409 166.911 224.024 166.759 224.718 166.759C225.394 166.759 225.992 166.906 226.512 167.201C227.032 167.496 227.43 167.903 227.708 168.423C227.994 168.934 228.137 169.515 228.137 170.165ZM226.915 169.918C226.915 169.467 226.815 169.082 226.616 168.761C226.416 168.432 226.143 168.185 225.797 168.02C225.459 167.847 225.082 167.76 224.666 167.76C224.068 167.76 223.556 167.951 223.132 168.332C222.716 168.713 222.477 169.242 222.417 169.918H226.915ZM232.22 174.117C231.674 174.117 231.185 174.026 230.751 173.844C230.318 173.653 229.976 173.393 229.724 173.064C229.473 172.726 229.334 172.34 229.308 171.907H230.53C230.565 172.262 230.73 172.553 231.024 172.778C231.328 173.003 231.722 173.116 232.207 173.116C232.658 173.116 233.013 173.016 233.273 172.817C233.533 172.618 233.663 172.366 233.663 172.063C233.663 171.751 233.525 171.521 233.247 171.374C232.97 171.218 232.541 171.066 231.96 170.919C231.432 170.78 230.998 170.642 230.66 170.503C230.331 170.356 230.045 170.143 229.802 169.866C229.568 169.58 229.451 169.207 229.451 168.748C229.451 168.384 229.56 168.05 229.776 167.747C229.993 167.444 230.301 167.205 230.699 167.032C231.098 166.85 231.553 166.759 232.064 166.759C232.853 166.759 233.49 166.958 233.975 167.357C234.461 167.756 234.721 168.302 234.755 168.995H233.572C233.546 168.622 233.395 168.323 233.117 168.098C232.849 167.873 232.485 167.76 232.025 167.76C231.601 167.76 231.263 167.851 231.011 168.033C230.76 168.215 230.634 168.453 230.634 168.748C230.634 168.982 230.708 169.177 230.855 169.333C231.011 169.48 231.202 169.602 231.427 169.697C231.661 169.784 231.982 169.883 232.389 169.996C232.901 170.135 233.317 170.273 233.637 170.412C233.958 170.542 234.231 170.741 234.456 171.01C234.69 171.279 234.812 171.63 234.82 172.063C234.82 172.453 234.712 172.804 234.495 173.116C234.279 173.428 233.971 173.675 233.572 173.857C233.182 174.03 232.732 174.117 232.22 174.117ZM237.933 167.851V172.05C237.933 172.397 238.007 172.644 238.154 172.791C238.302 172.93 238.557 172.999 238.921 172.999H239.792V174H238.726C238.068 174 237.574 173.848 237.244 173.545C236.915 173.242 236.75 172.743 236.75 172.05V167.851H235.827V166.876H236.75V165.082H237.933V166.876H239.792V167.851H237.933ZM242.409 168.033C242.617 167.626 242.911 167.309 243.293 167.084C243.683 166.859 244.155 166.746 244.71 166.746V167.968H244.398C243.072 167.968 242.409 168.687 242.409 170.126V174H241.226V166.876H242.409V168.033ZM245.633 170.412C245.633 169.684 245.781 169.047 246.075 168.501C246.37 167.946 246.773 167.517 247.284 167.214C247.804 166.911 248.381 166.759 249.013 166.759C249.637 166.759 250.179 166.893 250.638 167.162C251.098 167.431 251.44 167.769 251.665 168.176V166.876H252.861V174H251.665V172.674C251.431 173.09 251.08 173.437 250.612 173.714C250.153 173.983 249.616 174.117 249 174.117C248.368 174.117 247.796 173.961 247.284 173.649C246.773 173.337 246.37 172.899 246.075 172.336C245.781 171.773 245.633 171.131 245.633 170.412ZM251.665 170.425C251.665 169.888 251.557 169.42 251.34 169.021C251.124 168.622 250.829 168.319 250.456 168.111C250.092 167.894 249.689 167.786 249.247 167.786C248.805 167.786 248.402 167.89 248.038 168.098C247.674 168.306 247.384 168.609 247.167 169.008C246.951 169.407 246.842 169.875 246.842 170.412C246.842 170.958 246.951 171.435 247.167 171.842C247.384 172.241 247.674 172.548 248.038 172.765C248.402 172.973 248.805 173.077 249.247 173.077C249.689 173.077 250.092 172.973 250.456 172.765C250.829 172.548 251.124 172.241 251.34 171.842C251.557 171.435 251.665 170.962 251.665 170.425ZM256.043 164.38V174H254.86V164.38H256.043Z" fill="black"/>
</svg>
