<svg width="287" height="182" viewBox="0 0 287 182" fill="none" xmlns="http://www.w3.org/2000/svg">
<path d="M204.295 6.74961C204.295 3.09547 207.257 0.133209 210.911 0.133209H280.384C284.038 0.133209 287 3.09547 287 6.74961V67.9513C287 71.6055 284.038 74.5677 280.384 74.5677H210.911C207.257 74.5677 204.295 71.6055 204.295 67.9513V6.74961Z" fill="white"/>
<path fill-rule="evenodd" clip-rule="evenodd" d="M280.384 1.13321H210.911C207.81 1.13321 205.295 3.64775 205.295 6.74961V67.9513C205.295 71.0532 207.809 73.5677 210.911 73.5677H280.384C283.485 73.5677 286 71.0532 286 67.9513V6.74961C286 3.64776 283.485 1.13321 280.384 1.13321ZM210.911 0.133209C207.257 0.133209 204.295 3.09547 204.295 6.74961V67.9513C204.295 71.6055 207.257 74.5677 210.911 74.5677H280.384C284.038 74.5677 287 71.6055 287 67.9513V6.74961C287 3.09547 284.038 0.133209 280.384 0.133209H210.911Z" fill="#302F2D"/>
<path d="M204.295 6.74962C204.295 3.09548 207.257 0.133209 210.911 0.133209H280.384C284.038 0.133209 287 3.09548 287 6.74961V10.8849H204.295V6.74962Z" fill="#A4A3CE"/>
<path fill-rule="evenodd" clip-rule="evenodd" d="M280.384 1.13321H210.911C207.81 1.13321 205.295 3.64776 205.295 6.74962V9.88486H286V6.74961C286 3.64776 283.485 1.13321 280.384 1.13321ZM210.911 0.133209C207.257 0.133209 204.295 3.09548 204.295 6.74962V10.8849H287V6.74961C287 3.09548 284.038 0.133209 280.384 0.133209H210.911Z" fill="#302F2D"/>
<g clip-path="url(#clip0_1_523)">
<path fill-rule="evenodd" clip-rule="evenodd" d="M277.115 3.48152C277.276 3.32 277.538 3.31996 277.7 3.48143L281.171 6.95185C281.333 7.11331 281.333 7.37514 281.171 7.53666C281.01 7.69817 280.748 7.69822 280.586 7.53675L277.115 4.06633C276.953 3.90486 276.953 3.64303 277.115 3.48152Z" fill="#302F2D"/>
<path fill-rule="evenodd" clip-rule="evenodd" d="M281.171 3.48152C281.333 3.64303 281.333 3.90486 281.171 4.06633L277.7 7.53675C277.538 7.69822 277.276 7.69817 277.115 7.53666C276.953 7.37514 276.953 7.11331 277.115 6.95185L280.586 3.48143C280.748 3.31996 281.01 3.32 281.171 3.48152Z" fill="#302F2D"/>
</g>
<path d="M201.849 133.819C195.231 145.282 185.712 154.801 174.249 161.42C162.786 168.038 149.783 171.522 136.546 171.522C123.31 171.522 110.307 168.038 98.8436 161.42C87.3805 154.801 77.8615 145.282 71.2433 133.819C64.6251 122.356 61.1409 109.353 61.1409 96.1167C61.1409 82.8803 64.6251 69.8771 71.2433 58.4141C77.8615 46.951 87.3805 37.432 98.8436 30.8138C110.307 24.1956 123.31 20.7114 136.546 20.7114V62.1016C130.575 62.1016 124.71 63.6733 119.539 66.6588C114.368 69.6442 110.074 73.9382 107.088 79.1092C104.103 84.2801 102.531 90.1458 102.531 96.1167C102.531 102.088 104.103 107.953 107.088 113.124C110.074 118.295 114.368 122.589 119.539 125.575C124.71 128.56 130.575 130.132 136.546 130.132C142.517 130.132 148.383 128.56 153.554 125.575C158.725 122.589 163.019 118.295 166.004 113.124L201.849 133.819Z" fill="#302F2D"/>
<path d="M142.414 10.7737C155.659 10.7737 168.67 14.2623 180.138 20.8885C191.606 27.5147 201.127 37.0447 207.742 48.5194C214.356 59.9941 217.832 73.0087 217.819 86.2536C217.806 99.4984 214.304 112.506 207.667 123.968L171.85 103.225C174.844 98.0551 176.423 92.1873 176.429 86.2126C176.435 80.2379 174.867 74.367 171.883 69.1907C168.899 64.0145 164.605 59.7155 159.431 56.7264C154.258 53.7374 148.389 52.1636 142.414 52.1636L142.414 10.7737Z" fill="#302F2D"/>
<path d="M199.965 129.108C193.346 140.571 183.827 150.09 172.364 156.708C160.901 163.327 147.898 166.811 134.662 166.811C121.425 166.811 108.422 163.327 96.9592 156.708C85.4961 150.09 75.9771 140.571 69.3589 129.108C62.7407 117.645 59.2565 104.642 59.2565 91.4055C59.2565 78.1692 62.7407 65.166 69.3589 53.7029C75.9771 42.2399 85.4961 32.7209 96.9592 26.1027C108.422 19.4845 121.425 16.0003 134.662 16.0003V57.3905C128.691 57.3905 122.825 58.9622 117.654 61.9476C112.483 64.9331 108.189 69.2271 105.204 74.398C102.218 79.569 100.647 85.4347 100.647 91.4055C100.647 97.3764 102.218 103.242 105.204 108.413C108.189 113.584 112.483 117.878 117.654 120.863C122.825 123.849 128.691 125.421 134.662 125.421C140.633 125.421 146.498 123.849 151.669 120.863C156.84 117.878 161.134 113.584 164.12 108.413L199.965 129.108Z" fill="#5A558F"/>
<path d="M140.529 6.06248C153.774 6.06248 166.785 9.55113 178.254 16.1773C189.722 22.8035 199.242 32.3335 205.857 43.8082C212.472 55.2829 215.948 68.2976 215.935 81.5424C215.922 94.7872 212.42 107.795 205.783 119.257L169.965 98.5143C172.959 93.3439 174.539 87.4762 174.545 81.5014C174.551 75.5267 172.983 69.6558 169.999 64.4795C167.015 59.3033 162.72 55.0043 157.547 52.0152C152.374 49.0262 146.504 47.4524 140.529 47.4524L140.529 6.06248Z" fill="#A4A3CE"/>
<path d="M272.15 65.5717C271.75 65.5717 271.391 65.5049 271.073 65.3715C270.755 65.2317 270.504 65.041 270.32 64.7995C270.136 64.5517 270.034 64.2689 270.015 63.9512H270.911C270.936 64.2117 271.057 64.4246 271.273 64.5898C271.496 64.7551 271.785 64.8377 272.141 64.8377C272.471 64.8377 272.732 64.7646 272.922 64.6184C273.113 64.4723 273.208 64.288 273.208 64.0656C273.208 63.8368 273.107 63.6684 272.903 63.5603C272.7 63.446 272.385 63.3347 271.959 63.2267C271.572 63.125 271.254 63.0234 271.006 62.9217C270.765 62.8137 270.555 62.658 270.377 62.4546C270.206 62.2449 270.12 61.9716 270.12 61.6348C270.12 61.3679 270.199 61.1233 270.358 60.9008C270.517 60.6784 270.743 60.5037 271.035 60.3766C271.327 60.2431 271.661 60.1764 272.036 60.1764C272.614 60.1764 273.081 60.3226 273.437 60.6149C273.793 60.9072 273.983 61.3076 274.009 61.8159H273.141C273.122 61.5427 273.011 61.3234 272.808 61.1582C272.611 60.993 272.344 60.9104 272.007 60.9104C271.696 60.9104 271.448 60.9771 271.264 61.1106C271.079 61.244 270.987 61.4188 270.987 61.6348C270.987 61.8064 271.041 61.9494 271.149 62.0638C271.264 62.1718 271.403 62.2608 271.569 62.3307C271.74 62.3942 271.975 62.4673 272.274 62.5499C272.649 62.6516 272.954 62.7533 273.189 62.855C273.424 62.9503 273.624 63.0964 273.79 63.2934C273.961 63.4904 274.05 63.7478 274.057 64.0656C274.057 64.3515 273.977 64.6089 273.818 64.8377C273.659 65.0664 273.434 65.2476 273.141 65.381C272.856 65.5081 272.525 65.5717 272.15 65.5717Z" fill="#302F2D"/>
<path d="M268.403 59.4138C268.238 59.4138 268.098 59.3566 267.984 59.2422C267.869 59.1278 267.812 58.988 267.812 58.8228C267.812 58.6576 267.869 58.5178 267.984 58.4034C268.098 58.289 268.238 58.2318 268.403 58.2318C268.562 58.2318 268.695 58.289 268.803 58.4034C268.918 58.5178 268.975 58.6576 268.975 58.8228C268.975 58.988 268.918 59.1278 268.803 59.2422C268.695 59.3566 268.562 59.4138 268.403 59.4138ZM268.822 60.2622V65.4859H267.955V60.2622H268.822Z" fill="#302F2D"/>
<path d="M261.189 62.855C261.189 62.3212 261.297 61.8541 261.513 61.4537C261.729 61.047 262.025 60.7324 262.4 60.51C262.781 60.2876 263.204 60.1764 263.668 60.1764C264.125 60.1764 264.522 60.2749 264.859 60.4719C265.196 60.6689 265.447 60.9167 265.612 61.2154V60.2622H266.489V65.4859H265.612V64.5136C265.441 64.8186 265.183 65.0728 264.84 65.2762C264.503 65.4732 264.109 65.5717 263.658 65.5717C263.194 65.5717 262.775 65.4573 262.4 65.2285C262.025 64.9997 261.729 64.6788 261.513 64.2657C261.297 63.8527 261.189 63.3824 261.189 62.855ZM265.612 62.8645C265.612 62.4705 265.533 62.1273 265.374 61.835C265.215 61.5427 264.999 61.3203 264.726 61.1677C264.459 61.0089 264.163 60.9294 263.839 60.9294C263.515 60.9294 263.22 61.0057 262.953 61.1582C262.686 61.3107 262.473 61.5332 262.314 61.8255C262.155 62.1178 262.076 62.461 262.076 62.855C262.076 63.2553 262.155 63.6048 262.314 63.9035C262.473 64.1958 262.686 64.4214 262.953 64.5803C263.22 64.7328 263.515 64.8091 263.839 64.8091C264.163 64.8091 264.459 64.7328 264.726 64.5803C264.999 64.4214 265.215 64.1958 265.374 63.9035C265.533 63.6048 265.612 63.2585 265.612 62.8645Z" fill="#302F2D"/>
<path d="M260.049 60.2622V65.4859H259.181V64.7137C259.016 64.9806 258.784 65.1904 258.485 65.3429C258.193 65.489 257.869 65.5621 257.513 65.5621C257.106 65.5621 256.741 65.4795 256.417 65.3143C256.093 65.1427 255.835 64.8885 255.645 64.5517C255.46 64.2149 255.368 63.805 255.368 63.322V60.2622H256.226V63.2076C256.226 63.7224 256.357 64.1196 256.617 64.3992C256.878 64.6724 257.233 64.8091 257.685 64.8091C258.149 64.8091 258.514 64.6661 258.781 64.3801C259.048 64.0941 259.181 63.6779 259.181 63.1314V60.2622H260.049Z" fill="#302F2D"/>
<path d="M252.285 65.5717C251.885 65.5717 251.526 65.5049 251.208 65.3715C250.89 65.2317 250.639 65.041 250.455 64.7995C250.271 64.5517 250.169 64.2689 250.15 63.9512H251.046C251.071 64.2117 251.192 64.4246 251.408 64.5898C251.63 64.7551 251.92 64.8377 252.276 64.8377C252.606 64.8377 252.867 64.7646 253.057 64.6184C253.248 64.4723 253.343 64.288 253.343 64.0656C253.343 63.8368 253.241 63.6684 253.038 63.5603C252.835 63.446 252.52 63.3347 252.094 63.2267C251.707 63.125 251.389 63.0234 251.141 62.9217C250.9 62.8137 250.69 62.658 250.512 62.4546C250.34 62.2449 250.255 61.9716 250.255 61.6348C250.255 61.3679 250.334 61.1233 250.493 60.9008C250.652 60.6784 250.877 60.5037 251.17 60.3766C251.462 60.2431 251.796 60.1764 252.171 60.1764C252.749 60.1764 253.216 60.3226 253.572 60.6149C253.928 60.9072 254.118 61.3076 254.144 61.8159H253.276C253.257 61.5427 253.146 61.3234 252.943 61.1582C252.746 60.993 252.479 60.9104 252.142 60.9104C251.831 60.9104 251.583 60.9771 251.399 61.1106C251.214 61.244 251.122 61.4188 251.122 61.6348C251.122 61.8064 251.176 61.9494 251.284 62.0638C251.399 62.1718 251.538 62.2608 251.704 62.3307C251.875 62.3942 252.11 62.4673 252.409 62.5499C252.784 62.6516 253.089 62.7533 253.324 62.855C253.559 62.9503 253.759 63.0964 253.925 63.2934C254.096 63.4904 254.185 63.7478 254.191 64.0656C254.191 64.3515 254.112 64.6089 253.953 64.8377C253.794 65.0664 253.569 65.2476 253.276 65.381C252.99 65.5081 252.66 65.5717 252.285 65.5717Z" fill="#302F2D"/>
<path d="M247.305 65.5717C246.904 65.5717 246.545 65.5049 246.228 65.3715C245.91 65.2317 245.659 65.041 245.475 64.7995C245.29 64.5517 245.189 64.2689 245.17 63.9512H246.066C246.091 64.2117 246.212 64.4246 246.428 64.5898C246.65 64.7551 246.939 64.8377 247.295 64.8377C247.626 64.8377 247.886 64.7646 248.077 64.6184C248.268 64.4723 248.363 64.288 248.363 64.0656C248.363 63.8368 248.261 63.6684 248.058 63.5603C247.854 63.446 247.54 63.3347 247.114 63.2267C246.727 63.125 246.409 63.0234 246.161 62.9217C245.919 62.8137 245.71 62.658 245.532 62.4546C245.36 62.2449 245.274 61.9716 245.274 61.6348C245.274 61.3679 245.354 61.1233 245.513 60.9008C245.672 60.6784 245.897 60.5037 246.19 60.3766C246.482 60.2431 246.815 60.1764 247.19 60.1764C247.769 60.1764 248.236 60.3226 248.592 60.6149C248.948 60.9072 249.138 61.3076 249.164 61.8159H248.296C248.277 61.5427 248.166 61.3234 247.963 61.1582C247.766 60.993 247.499 60.9104 247.162 60.9104C246.85 60.9104 246.603 60.9771 246.418 61.1106C246.234 61.244 246.142 61.4188 246.142 61.6348C246.142 61.8064 246.196 61.9494 246.304 62.0638C246.418 62.1718 246.558 62.2608 246.723 62.3307C246.895 62.3942 247.13 62.4673 247.429 62.5499C247.804 62.6516 248.109 62.7533 248.344 62.855C248.579 62.9503 248.779 63.0964 248.944 63.2934C249.116 63.4904 249.205 63.7478 249.211 64.0656C249.211 64.3515 249.132 64.6089 248.973 64.8377C248.814 65.0664 248.588 65.2476 248.296 65.381C248.01 65.5081 247.68 65.5717 247.305 65.5717Z" fill="#302F2D"/>
<path d="M244.311 62.6738C244.311 62.8391 244.301 63.0138 244.282 63.1981H240.107C240.139 63.7129 240.313 64.1164 240.631 64.4087C240.955 64.6947 241.346 64.8377 241.804 64.8377C242.178 64.8377 242.49 64.7519 242.738 64.5803C242.992 64.4024 243.17 64.1672 243.272 63.8749H244.206C244.066 64.3769 243.786 64.7868 243.367 65.1046C242.947 65.416 242.426 65.5717 241.804 65.5717C241.308 65.5717 240.863 65.4604 240.469 65.238C240.081 65.0156 239.776 64.701 239.554 64.2943C239.332 63.8813 239.22 63.4047 239.22 62.8645C239.22 62.3243 239.328 61.8509 239.544 61.4442C239.76 61.0375 240.062 60.7261 240.45 60.51C240.844 60.2876 241.295 60.1764 241.804 60.1764C242.299 60.1764 242.738 60.2844 243.119 60.5005C243.5 60.7166 243.793 61.0152 243.996 61.3965C244.206 61.7715 244.311 62.1972 244.311 62.6738ZM243.415 62.4927C243.415 62.1623 243.341 61.8795 243.195 61.6444C243.049 61.4029 242.849 61.2218 242.595 61.101C242.347 60.9739 242.07 60.9104 241.765 60.9104C241.327 60.9104 240.952 61.0502 240.641 61.3298C240.336 61.6094 240.161 61.9971 240.116 62.4927H243.415Z" fill="#302F2D"/>
<path d="M233.43 62.8645C233.43 62.3243 233.538 61.8541 233.754 61.4537C233.97 61.047 234.269 60.7324 234.65 60.51C235.038 60.2876 235.48 60.1764 235.975 60.1764C236.617 60.1764 237.145 60.3321 237.558 60.6435C237.977 60.9549 238.254 61.387 238.387 61.9399H237.453C237.364 61.6221 237.189 61.3711 236.929 61.1868C236.674 61.0025 236.357 60.9104 235.975 60.9104C235.48 60.9104 235.079 61.082 234.774 61.4251C234.469 61.7619 234.317 62.2417 234.317 62.8645C234.317 63.4936 234.469 63.9798 234.774 64.3229C235.079 64.6661 235.48 64.8377 235.975 64.8377C236.357 64.8377 236.674 64.7487 236.929 64.5708C237.183 64.3928 237.358 64.1386 237.453 63.8082H238.387C238.247 64.342 237.968 64.7709 237.548 65.095C237.129 65.4128 236.604 65.5717 235.975 65.5717C235.48 65.5717 235.038 65.4604 234.65 65.238C234.269 65.0156 233.97 64.701 233.754 64.2943C233.538 63.8876 233.43 63.411 233.43 62.8645Z" fill="#302F2D"/>
<path d="M229.935 65.5717C229.446 65.5717 229.001 65.4604 228.601 65.238C228.207 65.0156 227.895 64.701 227.667 64.2943C227.444 63.8813 227.333 63.4047 227.333 62.8645C227.333 62.3307 227.447 61.8604 227.676 61.4537C227.911 61.0407 228.229 60.7261 228.629 60.51C229.03 60.2876 229.478 60.1764 229.973 60.1764C230.469 60.1764 230.917 60.2876 231.317 60.51C231.718 60.7261 232.032 61.0375 232.261 61.4442C232.496 61.8509 232.614 62.3243 232.614 62.8645C232.614 63.4047 232.493 63.8813 232.252 64.2943C232.016 64.701 231.696 65.0156 231.289 65.238C230.882 65.4604 230.431 65.5717 229.935 65.5717ZM229.935 64.8091C230.247 64.8091 230.539 64.736 230.812 64.5898C231.085 64.4437 231.305 64.2244 231.47 63.9321C231.642 63.6398 231.727 63.2839 231.727 62.8645C231.727 62.4451 231.645 62.0892 231.479 61.7969C231.314 61.5046 231.098 61.2885 230.831 61.1487C230.564 61.0025 230.275 60.9294 229.964 60.9294C229.646 60.9294 229.354 61.0025 229.087 61.1487C228.826 61.2885 228.617 61.5046 228.458 61.7969C228.299 62.0892 228.219 62.4451 228.219 62.8645C228.219 63.2903 228.296 63.6493 228.448 63.9416C228.607 64.234 228.817 64.4532 229.077 64.5994C229.338 64.7392 229.624 64.8091 229.935 64.8091Z" fill="#302F2D"/>
<path d="M224.968 61.1105C225.121 60.8119 225.337 60.5799 225.617 60.4147C225.903 60.2495 226.249 60.1669 226.656 60.1669V61.0629H226.427C225.455 61.0629 224.968 61.5903 224.968 62.6452V65.4859H224.101V60.2622H224.968V61.1105Z" fill="#302F2D"/>
<path d="M218.527 61.2249C218.698 60.9263 218.953 60.6784 219.289 60.4814C219.632 60.2781 220.03 60.1764 220.481 60.1764C220.945 60.1764 221.364 60.2876 221.739 60.51C222.12 60.7324 222.419 61.047 222.635 61.4537C222.851 61.8541 222.959 62.3212 222.959 62.855C222.959 63.3824 222.851 63.8527 222.635 64.2657C222.419 64.6788 222.12 64.9997 221.739 65.2285C221.364 65.4573 220.945 65.5717 220.481 65.5717C220.036 65.5717 219.642 65.4732 219.299 65.2762C218.962 65.0728 218.705 64.8218 218.527 64.5231V67.9643H217.659V60.2622H218.527V61.2249ZM222.073 62.855C222.073 62.461 221.993 62.1178 221.834 61.8255C221.676 61.5332 221.46 61.3107 221.186 61.1582C220.919 61.0057 220.624 60.9294 220.3 60.9294C219.982 60.9294 219.687 61.0089 219.413 61.1677C219.146 61.3203 218.93 61.5459 218.765 61.8445C218.606 62.1369 218.527 62.4768 218.527 62.8645C218.527 63.2585 218.606 63.6048 218.765 63.9035C218.93 64.1958 219.146 64.4214 219.413 64.5803C219.687 64.7328 219.982 64.8091 220.3 64.8091C220.624 64.8091 220.919 64.7328 221.186 64.5803C221.46 64.4214 221.676 64.1958 221.834 63.9035C221.993 63.6048 222.073 63.2553 222.073 62.855Z" fill="#302F2D"/>
<path d="M266.486 51.5717C265.997 51.5717 265.552 51.4604 265.152 51.238C264.758 51.0156 264.447 50.701 264.218 50.2943C263.995 49.8813 263.884 49.4047 263.884 48.8645C263.884 48.3307 263.999 47.8604 264.227 47.4537C264.462 47.0406 264.78 46.7261 265.181 46.51C265.581 46.2876 266.029 46.1764 266.525 46.1764C267.02 46.1764 267.468 46.2876 267.869 46.51C268.269 46.7261 268.584 47.0375 268.812 47.4442C269.047 47.8509 269.165 48.3243 269.165 48.8645C269.165 49.4047 269.044 49.8813 268.803 50.2943C268.568 50.701 268.247 51.0156 267.84 51.238C267.433 51.4604 266.982 51.5717 266.486 51.5717ZM266.486 50.8091C266.798 50.8091 267.09 50.736 267.363 50.5898C267.637 50.4437 267.856 50.2244 268.021 49.9321C268.193 49.6398 268.278 49.2839 268.278 48.8645C268.278 48.4451 268.196 48.0892 268.031 47.7969C267.865 47.5046 267.649 47.2885 267.382 47.1487C267.116 47.0025 266.826 46.9294 266.515 46.9294C266.197 46.9294 265.905 47.0025 265.638 47.1487C265.378 47.2885 265.168 47.5046 265.009 47.7969C264.85 48.0892 264.771 48.4451 264.771 48.8645C264.771 49.2903 264.847 49.6493 264.999 49.9416C265.158 50.234 265.368 50.4532 265.629 50.5994C265.889 50.7392 266.175 50.8091 266.486 50.8091Z" fill="#302F2D"/>
<path d="M257.442 48.8549C257.442 48.3211 257.55 47.8541 257.767 47.4537C257.983 47.047 258.278 46.7324 258.653 46.51C259.034 46.2876 259.457 46.1764 259.921 46.1764C260.378 46.1764 260.776 46.2749 261.112 46.4719C261.449 46.6689 261.7 46.9167 261.865 47.2154V46.2622H262.742V51.4859H261.865V50.5136C261.694 50.8186 261.436 51.0728 261.093 51.2761C260.756 51.4731 260.362 51.5716 259.911 51.5716C259.447 51.5716 259.028 51.4573 258.653 51.2285C258.278 50.9997 257.983 50.6788 257.767 50.2657C257.55 49.8527 257.442 49.3824 257.442 48.8549ZM261.865 48.8645C261.865 48.4705 261.786 48.1273 261.627 47.835C261.468 47.5427 261.252 47.3203 260.979 47.1677C260.712 47.0089 260.416 46.9294 260.092 46.9294C259.768 46.9294 259.473 47.0057 259.206 47.1582C258.939 47.3107 258.726 47.5331 258.567 47.8255C258.408 48.1178 258.329 48.4609 258.329 48.8549C258.329 49.2553 258.408 49.6048 258.567 49.9035C258.726 50.1958 258.939 50.4214 259.206 50.5803C259.473 50.7328 259.768 50.8091 260.092 50.8091C260.416 50.8091 260.712 50.7328 260.979 50.5803C261.252 50.4214 261.468 50.1958 261.627 49.9035C261.786 49.6048 261.865 49.2585 261.865 48.8645ZM258.863 45.6998C258.907 45.3757 259.012 45.1278 259.177 44.9563C259.349 44.7847 259.562 44.6989 259.816 44.6989C259.937 44.6989 260.038 44.7211 260.121 44.7656C260.21 44.8037 260.315 44.8609 260.436 44.9372C260.525 45.0007 260.604 45.0516 260.674 45.0897C260.744 45.1215 260.82 45.1374 260.903 45.1374C261.011 45.1374 261.103 45.1024 261.179 45.0325C261.255 44.9626 261.303 44.8609 261.322 44.7275H261.818C261.78 45.0452 261.675 45.2899 261.503 45.4615C261.332 45.633 261.119 45.7188 260.864 45.7188C260.744 45.7188 260.636 45.6998 260.54 45.6616C260.451 45.6172 260.35 45.5536 260.235 45.471C260.134 45.4074 260.051 45.3598 259.988 45.328C259.93 45.2962 259.86 45.2804 259.778 45.2804C259.67 45.2804 259.578 45.3153 259.501 45.3852C259.431 45.4551 259.387 45.56 259.368 45.6998H258.863Z" fill="#302F2D"/>
<path d="M254.197 50.8377C254.579 50.8377 254.896 50.7487 255.151 50.5708C255.405 50.3928 255.58 50.1386 255.675 49.8082H256.609C256.482 50.3039 256.231 50.7106 255.856 51.0283C255.487 51.3397 255.024 51.5176 254.464 51.5621V52.0387C254.839 52.0324 255.138 52.1118 255.36 52.277C255.583 52.4423 255.694 52.6774 255.694 52.9824C255.694 53.2811 255.586 53.5194 255.37 53.6973C255.154 53.8753 254.874 53.9643 254.531 53.9643H253.435V53.4018H254.359C254.569 53.4018 254.722 53.3701 254.817 53.3065C254.919 53.243 254.97 53.1349 254.97 52.9824C254.97 52.8363 254.919 52.7314 254.817 52.6679C254.722 52.6043 254.569 52.5725 254.359 52.5725H253.883V51.5526C253.444 51.5081 253.057 51.3715 252.72 51.1427C252.383 50.9076 252.119 50.5962 251.929 50.2085C251.744 49.8145 251.652 49.3665 251.652 48.8645C251.652 48.3243 251.76 47.8541 251.976 47.4537C252.192 47.047 252.491 46.7324 252.872 46.51C253.26 46.2876 253.702 46.1764 254.197 46.1764C254.839 46.1764 255.367 46.3321 255.78 46.6435C256.199 46.9549 256.476 47.387 256.609 47.9399H255.675C255.586 47.6221 255.411 47.3711 255.151 47.1868C254.896 47.0025 254.579 46.9104 254.197 46.9104C253.702 46.9104 253.301 47.082 252.996 47.4251C252.691 47.7619 252.539 48.2417 252.539 48.8645C252.539 49.4936 252.691 49.9798 252.996 50.3229C253.301 50.6661 253.702 50.8377 254.197 50.8377Z" fill="#302F2D"/>
<path d="M245.211 48.855C245.211 48.3212 245.319 47.8541 245.535 47.4537C245.751 47.047 246.046 46.7324 246.421 46.51C246.802 46.2876 247.225 46.1764 247.689 46.1764C248.147 46.1764 248.544 46.2749 248.88 46.4719C249.217 46.6689 249.468 46.9167 249.634 47.2154V46.2622H250.511V51.4859H249.634V50.5136C249.462 50.8186 249.205 51.0728 248.861 51.2762C248.525 51.4732 248.131 51.5717 247.679 51.5717C247.216 51.5717 246.796 51.4573 246.421 51.2285C246.046 50.9997 245.751 50.6788 245.535 50.2657C245.319 49.8527 245.211 49.3824 245.211 48.855ZM249.634 48.8645C249.634 48.4705 249.554 48.1273 249.395 47.835C249.236 47.5427 249.02 47.3203 248.747 47.1677C248.48 47.0089 248.185 46.9294 247.861 46.9294C247.536 46.9294 247.241 47.0057 246.974 47.1582C246.707 47.3107 246.494 47.5332 246.335 47.8255C246.177 48.1178 246.097 48.461 246.097 48.855C246.097 49.2553 246.177 49.6048 246.335 49.9035C246.494 50.1958 246.707 50.4214 246.974 50.5803C247.241 50.7328 247.536 50.8091 247.861 50.8091C248.185 50.8091 248.48 50.7328 248.747 50.5803C249.02 50.4214 249.236 50.1958 249.395 49.9035C249.554 49.6048 249.634 49.2585 249.634 48.8645Z" fill="#302F2D"/>
<path d="M243.637 45.4138C243.472 45.4138 243.332 45.3566 243.217 45.2422C243.103 45.1278 243.046 44.988 243.046 44.8228C243.046 44.6576 243.103 44.5178 243.217 44.4034C243.332 44.289 243.472 44.2318 243.637 44.2318C243.796 44.2318 243.929 44.289 244.037 44.4034C244.152 44.5178 244.209 44.6576 244.209 44.8228C244.209 44.988 244.152 45.1278 244.037 45.2422C243.929 45.3566 243.796 45.4138 243.637 45.4138ZM244.056 46.2622V51.4859H243.189V46.2622H244.056Z" fill="#302F2D"/>
<path d="M241.71 44.432V51.4859H240.843V44.432H241.71Z" fill="#302F2D"/>
<path d="M234.077 48.855C234.077 48.3212 234.185 47.8541 234.401 47.4537C234.617 47.047 234.913 46.7324 235.288 46.51C235.669 46.2876 236.092 46.1764 236.556 46.1764C237.013 46.1764 237.41 46.2749 237.747 46.4719C238.084 46.6689 238.335 46.9167 238.5 47.2154V46.2622H239.377V51.4859H238.5V50.5136C238.329 50.8186 238.071 51.0728 237.728 51.2762C237.391 51.4732 236.997 51.5717 236.546 51.5717C236.082 51.5717 235.663 51.4573 235.288 51.2285C234.913 50.9997 234.617 50.6788 234.401 50.2657C234.185 49.8527 234.077 49.3824 234.077 48.855ZM238.5 48.8645C238.5 48.4705 238.421 48.1273 238.262 47.835C238.103 47.5427 237.887 47.3203 237.614 47.1677C237.347 47.0089 237.051 46.9294 236.727 46.9294C236.403 46.9294 236.108 47.0057 235.841 47.1582C235.574 47.3107 235.361 47.5332 235.202 47.8255C235.043 48.1178 234.964 48.461 234.964 48.855C234.964 49.2553 235.043 49.6048 235.202 49.9035C235.361 50.1958 235.574 50.4214 235.841 50.5803C236.108 50.7328 236.403 50.8091 236.727 50.8091C237.051 50.8091 237.347 50.7328 237.614 50.5803C237.887 50.4214 238.103 50.1958 238.262 49.9035C238.421 49.6048 238.5 49.2585 238.5 48.8645Z" fill="#302F2D"/>
<path d="M231.003 50.6851L232.623 46.2622H233.548L231.498 51.4859H230.488L228.438 46.2622H229.373L231.003 50.6851Z" fill="#302F2D"/>
<path d="M226.562 50.0084H223.664L223.131 51.4859H222.215L224.618 44.88H225.619L228.011 51.4859H227.096L226.562 50.0084ZM226.314 49.303L225.113 45.9476L223.912 49.303H226.314Z" fill="#302F2D"/>
<path d="M255.572 20.2805C256.922 20.2805 258.023 20.6874 258.874 21.5014C259.743 22.3153 260.178 23.4622 260.178 24.942C260.178 26.4219 259.743 27.5688 258.874 28.3827C258.023 29.1966 256.922 29.6036 255.572 29.6036C254.185 29.6036 253.056 29.1966 252.187 28.3827C251.336 27.5688 250.91 26.4219 250.91 24.942C250.91 23.4622 251.336 22.3153 252.187 21.5014C253.056 20.6874 254.185 20.2805 255.572 20.2805ZM269.029 20.5579L258.319 40.2308H253.741L264.451 20.5579H269.029ZM254.074 24.942C254.074 25.5155 254.203 25.9687 254.462 26.3017C254.721 26.6161 255.073 26.7734 255.517 26.7734C255.979 26.7734 256.349 26.6161 256.626 26.3017C256.904 25.9687 257.043 25.5155 257.043 24.942C257.043 24.3686 256.904 23.9246 256.626 23.6102C256.349 23.2772 255.979 23.1107 255.517 23.1107C255.073 23.1107 254.721 23.2772 254.462 23.6102C254.203 23.9246 254.074 24.3686 254.074 24.942ZM267.226 31.1574C268.595 31.1574 269.705 31.5644 270.556 32.3783C271.407 33.1923 271.832 34.3391 271.832 35.819C271.832 37.2989 271.407 38.455 270.556 39.2874C269.705 40.1014 268.595 40.5083 267.226 40.5083C265.876 40.5083 264.766 40.1014 263.896 39.2874C263.045 38.455 262.62 37.2989 262.62 35.819C262.62 34.3391 263.045 33.1923 263.896 32.3783C264.766 31.5644 265.876 31.1574 267.226 31.1574ZM265.755 35.819C265.755 36.411 265.885 36.8734 266.144 37.2064C266.403 37.5208 266.763 37.6781 267.226 37.6781C267.67 37.6781 268.021 37.5208 268.28 37.2064C268.558 36.8734 268.697 36.411 268.697 35.819C268.697 35.2456 268.558 34.8016 268.28 34.4871C268.021 34.1542 267.67 33.9877 267.226 33.9877C266.763 33.9877 266.403 34.1542 266.144 34.4871C265.885 34.8016 265.755 35.2456 265.755 35.819Z" fill="#302F2D"/>
<path d="M235.384 37.5116C234.145 35.7173 233.525 33.2847 233.525 30.214C233.525 27.1618 234.145 24.7478 235.384 22.972C236.624 21.1776 238.603 20.2805 241.322 20.2805C244.023 20.2805 245.993 21.1776 247.232 22.972C248.49 24.7478 249.119 27.1618 249.119 30.214C249.119 33.2847 248.49 35.7173 247.232 37.5116C245.993 39.3059 244.023 40.2031 241.322 40.2031C238.603 40.2031 236.624 39.3059 235.384 37.5116ZM243.764 34.2929C244.189 33.331 244.402 31.9714 244.402 30.214C244.402 28.4567 244.189 27.1156 243.764 26.1907C243.357 25.2473 242.543 24.7755 241.322 24.7755C240.083 24.7755 239.25 25.2473 238.825 26.1907C238.399 27.1341 238.187 28.4752 238.187 30.214C238.187 31.9714 238.399 33.331 238.825 34.2929C239.25 35.2363 240.083 35.708 241.322 35.708C242.543 35.708 243.357 35.2363 243.764 34.2929Z" fill="#302F2D"/>
<path d="M214.938 36.6237V32.6558L223.9 20.3637H229.006V32.4893H231.364V36.6237H229.006V40.2308H224.206V36.6237H214.938ZM224.594 25.8577L219.766 32.4893H224.594V25.8577Z" fill="#302F2D"/>
<path d="M0 113.219C0 109.565 2.96226 106.603 6.6164 106.603H76.0886C79.7428 106.603 82.705 109.565 82.705 113.219V174.421C82.705 178.075 79.7428 181.037 76.0886 181.037H6.6164C2.96226 181.037 0 178.075 0 174.421V113.219Z" fill="white"/>
<path fill-rule="evenodd" clip-rule="evenodd" d="M76.0886 107.603H6.6164C3.51455 107.603 1 110.117 1 113.219V174.421C1 177.523 3.51454 180.037 6.6164 180.037H76.0886C79.1905 180.037 81.705 177.523 81.705 174.421V113.219C81.705 110.117 79.1905 107.603 76.0886 107.603ZM6.6164 106.603C2.96226 106.603 0 109.565 0 113.219V174.421C0 178.075 2.96226 181.037 6.6164 181.037H76.0886C79.7428 181.037 82.705 178.075 82.705 174.421V113.219C82.705 109.565 79.7428 106.603 76.0886 106.603H6.6164Z" fill="#302F2D"/>
<path d="M0 113.219C0 109.565 2.96226 106.603 6.6164 106.603H76.0886C79.7428 106.603 82.705 109.565 82.705 113.219V117.354H0V113.219Z" fill="#A4A3CE"/>
<path fill-rule="evenodd" clip-rule="evenodd" d="M76.0886 107.603H6.6164C3.51455 107.603 1 110.117 1 113.219V116.354H81.705V113.219C81.705 110.117 79.1905 107.603 76.0886 107.603ZM6.6164 106.603C2.96226 106.603 0 109.565 0 113.219V117.354H82.705V113.219C82.705 109.565 79.7428 106.603 76.0886 106.603H6.6164Z" fill="#302F2D"/>
<g clip-path="url(#clip1_1_523)">
<path fill-rule="evenodd" clip-rule="evenodd" d="M72.8199 109.951C72.9814 109.789 73.2432 109.789 73.4047 109.951L76.8762 113.421C77.0377 113.583 77.0378 113.845 76.8763 114.006C76.7148 114.168 76.453 114.168 76.2915 114.006L72.82 110.536C72.6585 110.374 72.6584 110.112 72.8199 109.951Z" fill="#302F2D"/>
<path fill-rule="evenodd" clip-rule="evenodd" d="M76.8763 109.951C77.0378 110.112 77.0377 110.374 76.8762 110.536L73.4047 114.006C73.2432 114.168 72.9814 114.168 72.8199 114.006C72.6584 113.845 72.6585 113.583 72.82 113.421L76.2915 109.951C76.453 109.789 76.7148 109.789 76.8763 109.951Z" fill="#302F2D"/>
</g>
<path d="M51.7183 172.041C51.3179 172.041 50.9589 171.974 50.6411 171.841C50.3234 171.701 50.0724 171.511 49.8881 171.269C49.7038 171.021 49.6021 170.738 49.5831 170.421H50.4791C50.5045 170.681 50.6253 170.894 50.8413 171.059C51.0637 171.225 51.3529 171.307 51.7088 171.307C52.0392 171.307 52.2998 171.234 52.4904 171.088C52.681 170.942 52.7764 170.758 52.7764 170.535C52.7764 170.306 52.6747 170.138 52.4713 170.03C52.268 169.916 51.9534 169.804 51.5276 169.696C51.14 169.595 50.8223 169.493 50.5744 169.391C50.3329 169.283 50.1232 169.128 49.9453 168.924C49.7737 168.714 49.6879 168.441 49.6879 168.104C49.6879 167.837 49.7674 167.593 49.9262 167.37C50.0851 167.148 50.3107 166.973 50.603 166.846C50.8953 166.713 51.229 166.646 51.6039 166.646C52.1822 166.646 52.6493 166.792 53.0051 167.084C53.361 167.377 53.5517 167.777 53.5771 168.285H52.7096C52.6906 168.012 52.5794 167.793 52.376 167.628C52.179 167.463 51.9121 167.38 51.5753 167.38C51.2639 167.38 51.0161 167.447 50.8318 167.58C50.6475 167.714 50.5554 167.888 50.5554 168.104C50.5554 168.276 50.6094 168.419 50.7174 168.533C50.8318 168.641 50.9716 168.73 51.1368 168.8C51.3084 168.864 51.5435 168.937 51.8422 169.019C52.2171 169.121 52.5222 169.223 52.7573 169.325C52.9924 169.42 53.1926 169.566 53.3578 169.763C53.5294 169.96 53.6184 170.217 53.6247 170.535C53.6247 170.821 53.5453 171.078 53.3864 171.307C53.2276 171.536 53.002 171.717 52.7096 171.851C52.4237 171.978 52.0932 172.041 51.7183 172.041Z" fill="#302F2D"/>
<path d="M47.9712 165.883C47.806 165.883 47.6662 165.826 47.5518 165.712C47.4374 165.597 47.3802 165.458 47.3802 165.292C47.3802 165.127 47.4374 164.987 47.5518 164.873C47.6662 164.759 47.806 164.701 47.9712 164.701C48.1301 164.701 48.2635 164.759 48.3716 164.873C48.486 164.987 48.5431 165.127 48.5431 165.292C48.5431 165.458 48.486 165.597 48.3716 165.712C48.2635 165.826 48.1301 165.883 47.9712 165.883ZM48.3906 166.732V171.955H47.5232V166.732H48.3906Z" fill="#302F2D"/>
<path d="M40.7574 169.325C40.7574 168.791 40.8654 168.324 41.0815 167.923C41.2975 167.517 41.593 167.202 41.968 166.98C42.3493 166.757 42.7719 166.646 43.2358 166.646C43.6933 166.646 44.0905 166.744 44.4273 166.941C44.7641 167.138 45.0151 167.386 45.1803 167.685V166.732H46.0573V171.955H45.1803V170.983C45.0088 171.288 44.7514 171.542 44.4082 171.746C44.0714 171.943 43.6774 172.041 43.2262 172.041C42.7623 172.041 42.3429 171.927 41.968 171.698C41.593 171.469 41.2975 171.148 41.0815 170.735C40.8654 170.322 40.7574 169.852 40.7574 169.325ZM45.1803 169.334C45.1803 168.94 45.1009 168.597 44.942 168.305C44.7832 168.012 44.5671 167.79 44.2938 167.637C44.0269 167.478 43.7314 167.399 43.4073 167.399C43.0832 167.399 42.7878 167.475 42.5208 167.628C42.2539 167.78 42.0411 168.003 41.8822 168.295C41.7233 168.587 41.6439 168.931 41.6439 169.325C41.6439 169.725 41.7233 170.074 41.8822 170.373C42.0411 170.665 42.2539 170.891 42.5208 171.05C42.7878 171.202 43.0832 171.279 43.4073 171.279C43.7314 171.279 44.0269 171.202 44.2938 171.05C44.5671 170.891 44.7832 170.665 44.942 170.373C45.1009 170.074 45.1803 169.728 45.1803 169.334Z" fill="#302F2D"/>
<path d="M37.5293 166.636C38.1648 166.636 38.6795 166.83 39.0735 167.218C39.4675 167.599 39.6645 168.152 39.6645 168.876V171.955H38.8066V169C38.8066 168.479 38.6763 168.082 38.4158 167.809C38.1552 167.529 37.7994 167.389 37.3482 167.389C36.8906 167.389 36.5252 167.532 36.252 167.818C35.9851 168.104 35.8516 168.521 35.8516 169.067V171.955H34.9842V166.732H35.8516V167.475C36.0232 167.208 36.2551 167.002 36.5475 166.856C36.8461 166.709 37.1734 166.636 37.5293 166.636Z" fill="#302F2D"/>
<path d="M33.0864 165.883C32.9211 165.883 32.7813 165.826 32.6669 165.712C32.5526 165.597 32.4954 165.458 32.4954 165.292C32.4954 165.127 32.5526 164.987 32.6669 164.873C32.7813 164.759 32.9211 164.701 33.0864 164.701C33.2452 164.701 33.3787 164.759 33.4867 164.873C33.6011 164.987 33.6583 165.127 33.6583 165.292C33.6583 165.458 33.6011 165.597 33.4867 165.712C33.3787 165.826 33.2452 165.883 33.0864 165.883ZM33.5058 166.732V171.955H32.6383V166.732H33.5058Z" fill="#302F2D"/>
<path d="M31.627 167.447H30.5307V171.955H29.6633V167.447H28.9865V166.732H29.6633V166.36C29.6633 165.775 29.8127 165.35 30.1113 165.083C30.4164 164.809 30.9025 164.673 31.5698 164.673V165.397C31.1885 165.397 30.9184 165.473 30.7595 165.626C30.607 165.772 30.5307 166.017 30.5307 166.36V166.732H31.627V167.447Z" fill="#302F2D"/>
<path d="M62.1915 158.041C61.7022 158.041 61.2573 157.93 60.857 157.708C60.463 157.485 60.1516 157.171 59.9228 156.764C59.7004 156.351 59.5892 155.874 59.5892 155.334C59.5892 154.8 59.7036 154.33 59.9323 153.923C60.1675 153.51 60.4852 153.196 60.8856 152.98C61.2859 152.757 61.7339 152.646 62.2296 152.646C62.7253 152.646 63.1733 152.757 63.5737 152.98C63.974 153.196 64.2886 153.507 64.5174 153.914C64.7525 154.32 64.8701 154.794 64.8701 155.334C64.8701 155.874 64.7493 156.351 64.5078 156.764C64.2727 157.171 63.9518 157.485 63.5451 157.708C63.1384 157.93 62.6872 158.041 62.1915 158.041ZM62.1915 157.279C62.5029 157.279 62.7952 157.206 63.0685 157.059C63.3417 156.913 63.561 156.694 63.7262 156.402C63.8978 156.109 63.9836 155.753 63.9836 155.334C63.9836 154.915 63.9009 154.559 63.7357 154.266C63.5705 153.974 63.3544 153.758 63.0875 153.618C62.8206 153.472 62.5315 153.399 62.2201 153.399C61.9023 153.399 61.61 153.472 61.3431 153.618C61.0826 153.758 60.8729 153.974 60.714 154.266C60.5551 154.559 60.4757 154.915 60.4757 155.334C60.4757 155.76 60.5519 156.119 60.7045 156.411C60.8633 156.704 61.073 156.923 61.3336 157.069C61.5941 157.209 61.8801 157.279 62.1915 157.279Z" fill="#302F2D"/>
<path d="M53.1475 155.324C53.1475 154.791 53.2555 154.324 53.4715 153.923C53.6876 153.517 53.9831 153.202 54.358 152.98C54.7393 152.757 55.1619 152.646 55.6258 152.646C56.0834 152.646 56.4806 152.744 56.8174 152.941C57.1542 153.138 57.4052 153.386 57.5704 153.685V152.732H58.4474V157.955H57.5704V156.983C57.3988 157.288 57.1415 157.542 56.7983 157.746C56.4615 157.943 56.0675 158.041 55.6163 158.041C55.1524 158.041 54.733 157.927 54.358 157.698C53.9831 157.469 53.6876 157.148 53.4715 156.735C53.2555 156.322 53.1475 155.852 53.1475 155.324ZM57.5704 155.334C57.5704 154.94 57.491 154.597 57.3321 154.305C57.1732 154.012 56.9572 153.79 56.6839 153.637C56.417 153.478 56.1215 153.399 55.7974 153.399C55.4733 153.399 55.1778 153.475 54.9109 153.628C54.644 153.78 54.4311 154.003 54.2723 154.295C54.1134 154.587 54.034 154.93 54.034 155.324C54.034 155.725 54.1134 156.074 54.2723 156.373C54.4311 156.665 54.644 156.891 54.9109 157.05C55.1778 157.202 55.4733 157.279 55.7974 157.279C56.1215 157.279 56.417 157.202 56.6839 157.05C56.9572 156.891 57.1732 156.665 57.3321 156.373C57.491 156.074 57.5704 155.728 57.5704 155.334ZM54.5678 152.169C54.6122 151.845 54.7171 151.597 54.8823 151.426C55.0539 151.254 55.2668 151.168 55.521 151.168C55.6417 151.168 55.7434 151.191 55.826 151.235C55.915 151.273 56.0198 151.33 56.1406 151.407C56.2296 151.47 56.309 151.521 56.3789 151.559C56.4488 151.591 56.525 151.607 56.6077 151.607C56.7157 151.607 56.8078 151.572 56.8841 151.502C56.9604 151.432 57.008 151.33 57.0271 151.197H57.5228C57.4846 151.515 57.3798 151.759 57.2082 151.931C57.0366 152.103 56.8237 152.188 56.5695 152.188C56.4488 152.188 56.3408 152.169 56.2454 152.131C56.1565 152.087 56.0548 152.023 55.9404 151.941C55.8387 151.877 55.7561 151.829 55.6926 151.798C55.6354 151.766 55.5655 151.75 55.4829 151.75C55.3748 151.75 55.2827 151.785 55.2064 151.855C55.1365 151.925 55.092 152.03 55.073 152.169H54.5678Z" fill="#302F2D"/>
<path d="M49.9025 157.307C50.2838 157.307 50.6015 157.218 50.8557 157.04C51.1099 156.862 51.2846 156.608 51.38 156.278H52.3141C52.187 156.773 51.936 157.18 51.5611 157.498C51.1925 157.809 50.7286 157.987 50.1694 158.032V158.508C50.5443 158.502 50.843 158.581 51.0654 158.747C51.2878 158.912 51.399 159.147 51.399 159.452C51.399 159.751 51.291 159.989 51.0749 160.167C50.8589 160.345 50.5793 160.434 50.2361 160.434H49.1399V159.871H50.0645C50.2742 159.871 50.4267 159.84 50.5221 159.776C50.6237 159.713 50.6746 159.604 50.6746 159.452C50.6746 159.306 50.6237 159.201 50.5221 159.137C50.4267 159.074 50.2742 159.042 50.0645 159.042H49.5879V158.022C49.1494 157.978 48.7618 157.841 48.425 157.612C48.0882 157.377 47.8244 157.066 47.6338 156.678C47.4495 156.284 47.3574 155.836 47.3574 155.334C47.3574 154.794 47.4654 154.324 47.6814 153.923C47.8975 153.517 48.1962 153.202 48.5775 152.98C48.9651 152.757 49.4068 152.646 49.9025 152.646C50.5443 152.646 51.0718 152.802 51.4848 153.113C51.9042 153.424 52.1807 153.857 52.3141 154.409H51.38C51.291 154.092 51.1162 153.841 50.8557 153.656C50.6015 153.472 50.2838 153.38 49.9025 153.38C49.4068 153.38 49.0064 153.552 48.7014 153.895C48.3964 154.231 48.2439 154.711 48.2439 155.334C48.2439 155.963 48.3964 156.449 48.7014 156.792C49.0064 157.136 49.4068 157.307 49.9025 157.307Z" fill="#302F2D"/>
<path d="M40.9156 155.325C40.9156 154.791 41.0237 154.324 41.2397 153.923C41.4558 153.517 41.7513 153.202 42.1262 152.98C42.5075 152.757 42.9301 152.646 43.394 152.646C43.8516 152.646 44.2487 152.744 44.5855 152.941C44.9224 153.138 45.1734 153.386 45.3386 153.685V152.732H46.2156V157.955H45.3386V156.983C45.167 157.288 44.9096 157.542 44.5665 157.746C44.2297 157.943 43.8357 158.041 43.3845 158.041C42.9206 158.041 42.5012 157.927 42.1262 157.698C41.7513 157.469 41.4558 157.148 41.2397 156.735C41.0237 156.322 40.9156 155.852 40.9156 155.325ZM45.3386 155.334C45.3386 154.94 45.2592 154.597 45.1003 154.305C44.9414 154.012 44.7254 153.79 44.4521 153.637C44.1852 153.478 43.8897 153.399 43.5656 153.399C43.2415 153.399 42.946 153.475 42.6791 153.628C42.4122 153.78 42.1993 154.003 42.0404 154.295C41.8816 154.587 41.8021 154.931 41.8021 155.325C41.8021 155.725 41.8816 156.074 42.0404 156.373C42.1993 156.665 42.4122 156.891 42.6791 157.05C42.946 157.202 43.2415 157.279 43.5656 157.279C43.8897 157.279 44.1852 157.202 44.4521 157.05C44.7254 156.891 44.9414 156.665 45.1003 156.373C45.2592 156.074 45.3386 155.728 45.3386 155.334Z" fill="#302F2D"/>
<path d="M39.3419 151.883C39.1767 151.883 39.0369 151.826 38.9225 151.712C38.8081 151.597 38.7509 151.458 38.7509 151.292C38.7509 151.127 38.8081 150.987 38.9225 150.873C39.0369 150.759 39.1767 150.701 39.3419 150.701C39.5008 150.701 39.6342 150.759 39.7423 150.873C39.8567 150.987 39.9138 151.127 39.9138 151.292C39.9138 151.458 39.8567 151.597 39.7423 151.712C39.6342 151.826 39.5008 151.883 39.3419 151.883ZM39.7613 152.732V157.955H38.8939V152.732H39.7613Z" fill="#302F2D"/>
<path d="M37.4155 150.902V157.955H36.5481V150.902H37.4155Z" fill="#302F2D"/>
<path d="M29.7822 155.325C29.7822 154.791 29.8903 154.324 30.1063 153.923C30.3224 153.517 30.6179 153.202 30.9928 152.98C31.3741 152.757 31.7967 152.646 32.2606 152.646C32.7182 152.646 33.1154 152.744 33.4522 152.941C33.789 153.138 34.04 153.386 34.2052 153.685V152.732H35.0822V157.955H34.2052V156.983C34.0336 157.288 33.7763 157.542 33.4331 157.746C33.0963 157.943 32.7023 158.041 32.2511 158.041C31.7872 158.041 31.3678 157.927 30.9928 157.698C30.6179 157.469 30.3224 157.148 30.1063 156.735C29.8903 156.322 29.7822 155.852 29.7822 155.325ZM34.2052 155.334C34.2052 154.94 34.1258 154.597 33.9669 154.305C33.808 154.012 33.592 153.79 33.3187 153.637C33.0518 153.478 32.7563 153.399 32.4322 153.399C32.1081 153.399 31.8126 153.475 31.5457 153.628C31.2788 153.78 31.0659 154.003 30.907 154.295C30.7482 154.587 30.6687 154.931 30.6687 155.325C30.6687 155.725 30.7482 156.074 30.907 156.373C31.0659 156.665 31.2788 156.891 31.5457 157.05C31.8126 157.202 32.1081 157.279 32.4322 157.279C32.7563 157.279 33.0518 157.202 33.3187 157.05C33.592 156.891 33.808 156.665 33.9669 156.373C34.1258 156.074 34.2052 155.728 34.2052 155.334Z" fill="#302F2D"/>
<path d="M26.7076 157.155L28.3281 152.732H29.2528L27.2033 157.955H26.1929L24.1435 152.732H25.0776L26.7076 157.155Z" fill="#302F2D"/>
<path d="M22.2672 156.478H19.3694L18.8356 157.955H17.9205L20.3227 151.35H21.3236L23.7161 157.955H22.8011L22.2672 156.478ZM22.0194 155.773L20.8183 152.417L19.6173 155.773H22.0194Z" fill="#302F2D"/>
<path d="M50.0577 126.75C51.4081 126.75 52.5087 127.157 53.3596 127.971C54.2291 128.785 54.6638 129.932 54.6638 131.412C54.6638 132.891 54.2291 134.038 53.3596 134.852C52.5087 135.666 51.4081 136.073 50.0577 136.073C48.6703 136.073 47.5419 135.666 46.6725 134.852C45.8216 134.038 45.3961 132.891 45.3961 131.412C45.3961 129.932 45.8216 128.785 46.6725 127.971C47.5419 127.157 48.6703 126.75 50.0577 126.75ZM63.5152 127.027L52.8047 146.7H48.2264L58.9369 127.027H63.5152ZM48.5593 131.412C48.5593 131.985 48.6888 132.438 48.9478 132.771C49.2068 133.086 49.5583 133.243 50.0022 133.243C50.4647 133.243 50.8346 133.086 51.1121 132.771C51.3896 132.438 51.5283 131.985 51.5283 131.412C51.5283 130.838 51.3896 130.394 51.1121 130.08C50.8346 129.747 50.4647 129.58 50.0022 129.58C49.5583 129.58 49.2068 129.747 48.9478 130.08C48.6888 130.394 48.5593 130.838 48.5593 131.412ZM61.7116 137.627C63.0805 137.627 64.1904 138.034 65.0413 138.848C65.8922 139.662 66.3177 140.809 66.3177 142.289C66.3177 143.768 65.8922 144.925 65.0413 145.757C64.1904 146.571 63.0805 146.978 61.7116 146.978C60.3612 146.978 59.2513 146.571 58.3819 145.757C57.531 144.925 57.1055 143.768 57.1055 142.289C57.1055 140.809 57.531 139.662 58.3819 138.848C59.2513 138.034 60.3612 137.627 61.7116 137.627ZM60.241 142.289C60.241 142.88 60.3705 143.343 60.6295 143.676C60.8884 143.99 61.2491 144.148 61.7116 144.148C62.1556 144.148 62.507 143.99 62.766 143.676C63.0435 143.343 63.1822 142.88 63.1822 142.289C63.1822 141.715 63.0435 141.271 62.766 140.957C62.507 140.624 62.1556 140.457 61.7116 140.457C61.2491 140.457 60.8884 140.624 60.6295 140.957C60.3705 141.271 60.241 141.715 60.241 142.289Z" fill="#302F2D"/>
<path d="M29.87 143.981C28.6306 142.187 28.0109 139.754 28.0109 136.684C28.0109 133.631 28.6306 131.217 29.87 129.441C31.1093 127.647 33.0887 126.75 35.8079 126.75C38.5086 126.75 40.4787 127.647 41.7181 129.441C42.976 131.217 43.6049 133.631 43.6049 136.684C43.6049 139.754 42.976 142.187 41.7181 143.981C40.4787 145.775 38.5086 146.673 35.8079 146.673C33.0887 146.673 31.1093 145.775 29.87 143.981ZM38.2497 140.762C38.6751 139.801 38.8879 138.441 38.8879 136.684C38.8879 134.926 38.6751 133.585 38.2497 132.66C37.8427 131.717 37.0288 131.245 35.8079 131.245C34.5685 131.245 33.7361 131.717 33.3106 132.66C32.8852 133.604 32.6724 134.945 32.6724 136.684C32.6724 138.441 32.8852 139.801 33.3106 140.762C33.7361 141.706 34.5685 142.178 35.8079 142.178C37.0288 142.178 37.8427 141.706 38.2497 140.762Z" fill="#302F2D"/>
<path d="M20.521 132.494C20.3916 131.698 20.1326 131.097 19.7441 130.69C19.3742 130.283 18.8377 130.08 18.1348 130.08C17.0619 130.08 16.2942 130.579 15.8317 131.578C15.3878 132.558 15.1843 134.075 15.2213 136.129C15.5358 135.37 16.0722 134.778 16.8306 134.353C17.6076 133.909 18.5047 133.687 19.5221 133.687C21.372 133.687 22.8333 134.251 23.9062 135.379C24.9791 136.489 25.5156 138.089 25.5156 140.18C25.5156 141.493 25.2473 142.658 24.7109 143.676C24.1745 144.693 23.379 145.489 22.3246 146.062C21.2887 146.617 20.0401 146.895 18.5787 146.895C15.7115 146.895 13.7322 146.007 12.6408 144.231C11.5494 142.455 11.0037 139.995 11.0037 136.85C11.0037 133.224 11.5864 130.561 12.7518 128.859C13.9172 127.138 15.8132 126.278 18.44 126.278C20.5118 126.278 22.0841 126.87 23.157 128.054C24.2299 129.22 24.8311 130.699 24.9606 132.494H20.521ZM15.582 139.958C15.582 140.809 15.8225 141.502 16.3034 142.039C16.7844 142.557 17.4873 142.816 18.4122 142.816C19.2447 142.816 19.8921 142.585 20.3546 142.122C20.8355 141.66 21.076 140.984 21.076 140.096C21.076 139.209 20.8355 138.533 20.3546 138.071C19.8736 137.59 19.2169 137.349 18.3845 137.349C17.5891 137.349 16.9231 137.581 16.3867 138.043C15.8502 138.487 15.582 139.125 15.582 139.958Z" fill="#302F2D"/>
<defs>
<clipPath id="clip0_1_523">
<rect width="4.13525" height="4.13525" fill="white" transform="translate(277.075 3.44164)"/>
</clipPath>
<clipPath id="clip1_1_523">
<rect width="4.13525" height="4.13525" fill="white" transform="translate(72.7804 109.911)"/>
</clipPath>
</defs>
</svg>
