<svg width="307" height="327" viewBox="0 0 307 327" fill="none" xmlns="http://www.w3.org/2000/svg">
<g opacity="0.18">
<path d="M264.011 271.255C278.239 256.68 288.941 235.765 290.31 215.165C291.728 193.79 285.627 173.41 291.016 151.801C294.097 139.443 299.91 127.777 301.642 115.158C309.804 55.5341 219.013 -3.98706 176.048 48.9671C173.104 52.5971 170.571 56.6732 166.846 59.4866C162.197 62.9931 155.877 64.1528 150.29 62.5196C141.286 59.8846 134.179 52.0756 125.545 48.2466C117.733 44.7813 109.434 42.5374 100.951 41.5012C84.1144 39.4564 66.73 42.1874 51.1805 48.9191C20.1364 62.3618 -1.68481 91.992 0.102248 126.604C1.15668 147.087 10.9067 166.115 22.3206 183.14C44.1419 215.7 72.769 243.485 105.114 265.574C131.249 283.415 160.896 297.901 192.488 299.376C220.417 300.68 246.004 289.714 264.018 271.262L264.011 271.255Z" fill="#A9A3E8"/>
</g>
<g opacity="0.47">
<path d="M296.596 178.275C296.637 159.377 290.256 138.564 277.876 123.996C265.031 108.886 247.832 99.3068 237.472 81.4656C231.55 71.2618 227.88 59.7542 220.889 50.2571C187.859 5.38641 89.188 24.6893 94.8162 87.6757C95.1996 91.9919 96.1513 96.3356 95.494 100.624C94.6724 105.963 91.2215 110.828 86.456 113.36C78.7806 117.443 69.0237 116.867 60.821 119.913C53.3989 122.672 46.4424 126.563 40.1432 131.366C27.6475 140.911 17.8632 153.99 11.8858 168.531C-0.0552463 197.585 4.57329 231.394 28.0857 253.215C41.9987 266.129 60.7457 272.449 79.301 276.354C114.789 283.833 151.721 283.737 187.435 277.438C216.295 272.353 245.319 262.76 267.243 243.272C286.627 226.041 296.541 202.189 296.596 178.268V178.275Z" fill="#A9A3E8"/>
</g>
<g opacity="0.17">
<path d="M304.093 37.878C308.585 30.9268 305.209 20.7367 296.562 15.1236C287.907 9.51044 271.242 6.69702 266.75 13.6482C262.258 20.5995 275.576 29.7671 280.978 38.0427C288.516 49.5846 299.602 44.8292 304.093 37.878Z" fill="#A9A3E8"/>
</g>
<g opacity="0.47">
<path d="M263.895 198.154C266.195 185.631 264.463 171.056 258.007 159.912C251.31 148.343 241.053 139.916 236.329 126.844C233.624 119.364 232.577 111.288 229.085 104.151C212.57 70.4177 144.833 71.3098 140.999 113.751C140.739 116.661 140.841 119.66 139.89 122.418C138.705 125.856 135.829 128.669 132.372 129.774C126.791 131.551 120.396 129.994 114.59 131.03C109.339 131.963 104.258 133.699 99.5063 136.128C90.0712 140.952 82.0192 148.439 76.3089 157.359C64.9018 175.173 63.909 198.147 76.8703 215.453C84.5457 225.691 96.213 232.142 108.044 236.973C130.674 246.216 155.172 250.601 179.609 250.738C199.355 250.848 219.753 247.993 236.623 237.714C251.543 228.628 260.985 214.012 263.895 198.161V198.154Z" fill="#A9A3E8"/>
</g>
<g opacity="0.31">
<path d="M275.672 75.7495C275.042 78.0483 272.673 79.4001 270.379 78.7756C268.085 78.1443 266.736 75.7701 267.359 73.4713C267.989 71.1725 270.358 69.8207 272.652 70.4452C274.946 71.0765 276.295 73.4507 275.672 75.7495Z" fill="#A9A3E8"/>
</g>
<g opacity="0.31">
<path d="M129.465 299.044C132.05 296.387 131.997 292.134 129.346 289.544C126.696 286.954 122.452 287.007 119.867 289.663C117.283 292.32 117.336 296.573 119.986 299.163C122.637 301.753 126.881 301.7 129.465 299.044Z" fill="#A9A3E8"/>
</g>
<g opacity="0.31">
<path d="M20.9033 114.595C20.6363 116.132 19.1779 117.155 17.6441 116.887C16.1104 116.62 15.0902 115.158 15.3573 113.621C15.6243 112.084 17.0827 111.061 18.6164 111.329C20.1501 111.597 21.1703 113.058 20.9033 114.595Z" fill="#A9A3E8"/>
</g>
<g clip-path="url(#clip0_1_803)">
<path d="M301.018 281.397C302.434 281.397 303.581 280.25 303.581 278.834C303.581 277.418 302.434 276.27 301.018 276.27C299.603 276.27 298.456 277.418 298.456 278.834C298.456 280.25 299.603 281.397 301.018 281.397Z" fill="#5A558F"/>
<path opacity="0.47" d="M287.656 313.122C289.071 313.122 290.219 311.974 290.219 310.558C290.219 309.142 289.071 307.994 287.656 307.994C286.241 307.994 285.094 309.142 285.094 310.558C285.094 311.974 286.241 313.122 287.656 313.122Z" fill="#A9A3E8"/>
<path d="M52.0864 22.4879C53.1863 22.4879 54.0779 21.5958 54.0779 20.4955C54.0779 19.3951 53.1863 18.5031 52.0864 18.5031C50.9865 18.5031 50.0949 19.3951 50.0949 20.4955C50.0949 21.5958 50.9865 22.4879 52.0864 22.4879Z" fill="#A9A3E8"/>
<path d="M134.346 3.55263C134.346 5.51573 132.757 7.10526 130.795 7.10526C128.833 7.10526 127.244 5.51573 127.244 3.55263C127.244 1.58953 128.833 0 130.795 0C132.757 0 134.346 1.58953 134.346 3.55263Z" fill="#5A558F"/>
<path d="M8.43414 38.9323C8.43414 40.7855 6.93319 42.2798 5.08811 42.2798C3.24303 42.2798 1.74207 40.7782 1.74207 38.9323C1.74207 37.0864 3.24303 35.5848 5.08811 35.5848C6.93319 35.5848 8.43414 37.0864 8.43414 38.9323Z" fill="#5A558F"/>
<path d="M33.6795 305.665C34.7794 305.665 35.671 304.773 35.671 303.673C35.671 302.572 34.7794 301.68 33.6795 301.68C32.5796 301.68 31.688 302.572 31.688 303.673C31.688 304.773 32.5796 305.665 33.6795 305.665Z" fill="#A9A3E8"/>
<path d="M13.8815 303.109C12.344 302.083 11.9266 300.003 12.9443 298.465C13.9694 296.926 16.0488 296.509 17.5863 297.527C19.1239 298.545 19.5412 300.633 18.5235 302.171C17.4985 303.709 15.4191 304.127 13.8815 303.109Z" fill="#5A558F"/>
<path d="M280.642 288.759C280.063 288.378 279.91 287.594 280.29 287.016C280.671 286.437 281.455 286.283 282.033 286.664C282.611 287.045 282.765 287.829 282.384 288.407C282.004 288.986 281.22 289.14 280.642 288.759Z" fill="#2E2C40"/>
</g>
<g clip-path="url(#clip1_1_803)">
<path d="M226.753 17.3475H79.4297C70.5316 17.3475 63.3183 24.516 63.3183 33.3588V310.989C63.3183 319.831 70.5316 327 79.4297 327H226.753C235.651 327 242.865 319.831 242.865 310.989V33.3588C242.865 24.516 235.651 17.3475 226.753 17.3475Z" fill="#1D1D1B"/>
<path d="M181.971 37.3691C181.971 38.7082 180.851 39.7926 179.459 39.7926H132.385C131.001 39.7926 129.873 38.7082 129.873 37.3691C129.873 36.03 131.001 34.9456 132.385 34.9456H179.459C180.843 34.9456 181.971 36.03 181.971 37.3691Z" fill="#9A98A0"/>
<path d="M127.009 37.3689C127.009 38.7663 125.867 39.9017 124.461 39.9017C123.055 39.9017 121.912 38.7663 121.912 37.3689C121.912 35.9716 123.055 34.8362 124.461 34.8362C125.867 34.8362 127.009 35.9716 127.009 37.3689Z" fill="#9A98A0"/>
<path d="M164.468 313.318C164.468 318.791 160.001 323.23 154.494 323.23C148.987 323.23 144.52 318.791 144.52 313.318C144.52 307.845 148.987 303.405 154.494 303.405C160.001 303.405 164.468 307.845 164.468 313.318Z" fill="#D6D9E0"/>
<path d="M162.469 313.318C162.469 317.699 158.895 321.251 154.487 321.251C150.078 321.251 146.511 317.699 146.511 313.318C146.511 308.936 150.085 305.385 154.487 305.385C158.888 305.385 162.469 308.936 162.469 313.318Z" fill="#9A98A0"/>
<path d="M233.418 284.002C233.454 289.774 228.775 294.482 222.967 294.511L86.2989 295.363C80.4915 295.399 75.7533 290.749 75.7167 284.977L74.3033 60.3453C74.2667 54.5739 78.9463 49.8651 84.7537 49.8287L221.422 48.9845C227.229 48.9481 231.968 53.5986 232.004 59.37L233.418 284.002Z" fill="#D6D9E0"/>
</g>
<path fill-rule="evenodd" clip-rule="evenodd" d="M138.435 34.6949C131.919 34.6949 126.637 39.9771 126.637 46.4929V65.3983C126.637 71.9142 131.919 77.1963 138.435 77.1963H221.667L215.976 93.9394L249.183 77.1963H278.772C285.288 77.1963 290.57 71.9142 290.57 65.3983V46.4929C290.57 39.9771 285.288 34.6949 278.772 34.6949H138.435Z" fill="#E7E7FF"/>
<path d="M221.667 77.1963L222.365 77.4336L222.697 76.4589H221.667V77.1963ZM215.976 93.9394L215.278 93.7021L214.697 95.4099L216.308 94.5978L215.976 93.9394ZM249.183 77.1963V76.4589H249.008L248.851 76.5379L249.183 77.1963ZM127.374 46.4929C127.374 40.3843 132.326 35.4323 138.435 35.4323V33.9576C131.511 33.9576 125.899 39.5698 125.899 46.4929H127.374ZM127.374 65.3983V46.4929H125.899V65.3983H127.374ZM138.435 76.4589C132.326 76.4589 127.374 71.5069 127.374 65.3983H125.899C125.899 72.3214 131.511 77.9336 138.435 77.9336V76.4589ZM221.667 76.4589H138.435V77.9336H221.667V76.4589ZM220.969 76.959L215.278 93.7021L216.674 94.1767L222.365 77.4336L220.969 76.959ZM216.308 94.5978L249.515 77.8547L248.851 76.5379L215.644 93.281L216.308 94.5978ZM278.772 76.4589H249.183V77.9336H278.772V76.4589ZM289.833 65.3983C289.833 71.5069 284.881 76.4589 278.772 76.4589V77.9336C285.695 77.9336 291.308 72.3214 291.308 65.3983H289.833ZM289.833 46.4929V65.3983H291.308V46.4929H289.833ZM278.772 35.4323C284.881 35.4323 289.833 40.3843 289.833 46.4929H291.308C291.308 39.5698 285.695 33.9576 278.772 33.9576V35.4323ZM138.435 35.4323H278.772V33.9576H138.435V35.4323Z" fill="black"/>
<path d="M139.518 48.014C139.518 45.8667 141.159 44.3492 143.182 44.3492C144.679 44.3492 145.97 45.1028 146.517 46.5068H145.103C144.721 45.7429 144.039 45.3815 143.182 45.3815C141.758 45.3815 140.726 46.3932 140.726 48.014C140.726 49.6347 141.758 50.6567 143.182 50.6567C144.039 50.6567 144.721 50.2954 145.103 49.5315H146.517C145.97 50.9354 144.679 51.6787 143.182 51.6787C141.159 51.6787 139.518 50.1715 139.518 48.014ZM153.046 45.9287V51.6168H151.869V50.9354C151.497 51.4206 150.857 51.6993 150.186 51.6993C148.854 51.6993 147.843 50.8632 147.843 49.2734V45.9287H149.009V49.0979C149.009 50.1405 149.577 50.6773 150.434 50.6773C151.301 50.6773 151.869 50.1405 151.869 49.0979V45.9287H153.046ZM155.775 48.623V51.6168H154.598V45.9287H155.775V46.7545C156.106 46.1868 156.673 45.8358 157.479 45.8358V47.0539H157.179C156.312 47.0539 155.775 47.4152 155.775 48.623ZM162.803 50.027C162.803 50.987 161.967 51.7097 160.625 51.7097C159.262 51.7097 158.302 50.9045 158.251 49.8721H159.469C159.51 50.3367 159.954 50.7186 160.604 50.7186C161.286 50.7186 161.647 50.4296 161.647 50.0373C161.647 48.9224 158.344 49.5624 158.344 47.4772C158.344 46.5687 159.19 45.8358 160.532 45.8358C161.822 45.8358 162.669 46.5274 162.731 47.663H161.554C161.513 47.1675 161.131 46.8268 160.491 46.8268C159.861 46.8268 159.531 47.0849 159.531 47.4668C159.531 48.6127 162.741 47.9727 162.803 50.027ZM169.494 48.7676C169.494 50.5535 168.173 51.7097 166.542 51.7097C164.921 51.7097 163.693 50.5535 163.693 48.7676C163.693 46.9816 164.973 45.8358 166.594 45.8358C168.214 45.8358 169.494 46.9816 169.494 48.7676ZM164.89 48.7676C164.89 50.058 165.654 50.6877 166.542 50.6877C167.42 50.6877 168.287 50.058 168.287 48.7676C168.287 47.4772 167.45 46.8578 166.573 46.8578C165.685 46.8578 164.89 47.4772 164.89 48.7676ZM174.516 46.7649C174.878 46.29 175.569 45.8358 176.498 45.8358C177.995 45.8358 179.172 46.992 179.172 48.7469C179.172 50.5019 177.995 51.7097 176.498 51.7097C175.559 51.7097 174.888 51.2348 174.516 50.7909V54.3214H173.339V45.9287H174.516V46.7649ZM177.975 48.7469C177.975 47.5184 177.128 46.8578 176.24 46.8578C175.363 46.8578 174.516 47.5494 174.516 48.7676C174.516 49.996 175.363 50.6877 176.24 50.6877C177.128 50.6877 177.975 49.9754 177.975 48.7469ZM180.336 51.6168V43.9776H181.513V51.6168H180.336ZM182.666 48.7469C182.666 46.992 183.853 45.8358 185.35 45.8358C186.31 45.8358 186.97 46.29 187.321 46.7545V45.9287H188.508V51.6168H187.321V50.7703C186.96 51.2554 186.279 51.7097 185.329 51.7097C183.853 51.7097 182.666 50.5019 182.666 48.7469ZM187.321 48.7676C187.321 47.5494 186.485 46.8578 185.597 46.8578C184.72 46.8578 183.873 47.5184 183.873 48.7469C183.873 49.9754 184.72 50.6877 185.597 50.6877C186.485 50.6877 187.321 49.996 187.321 48.7676ZM194.091 51.6168V48.4372C194.091 47.3946 193.523 46.8578 192.666 46.8578C191.799 46.8578 191.231 47.3946 191.231 48.4372V51.6168H190.054V45.9287H191.231V46.579C191.613 46.1145 192.243 45.8358 192.924 45.8358C194.256 45.8358 195.257 46.6719 195.257 48.2617V51.6168H194.091ZM199.153 46.8268C198.358 46.8268 197.718 47.3636 197.594 48.2617H200.743C200.722 47.3842 200.031 46.8268 199.153 46.8268ZM201.817 49.9238C201.497 50.9148 200.598 51.7097 199.205 51.7097C197.574 51.7097 196.366 50.5535 196.366 48.7676C196.366 46.9816 197.522 45.8358 199.205 45.8358C200.826 45.8358 201.971 46.961 201.971 48.6334C201.971 48.8295 201.961 49.0153 201.93 49.2115H197.584C197.667 50.1509 198.338 50.7186 199.205 50.7186C199.927 50.7186 200.33 50.3677 200.547 49.9238H201.817ZM203.728 45.1751C203.305 45.1751 202.975 44.8447 202.975 44.4215C202.975 43.9982 203.305 43.6679 203.728 43.6679C204.141 43.6679 204.472 43.9982 204.472 44.4215C204.472 44.8447 204.141 45.1751 203.728 45.1751ZM203.13 45.9287H204.306V52.7317C204.306 53.8879 203.687 54.3214 202.675 54.3214H202.066V53.3304H202.469C202.964 53.3304 203.13 53.1549 203.13 52.7317V45.9287ZM205.459 48.7469C205.459 46.992 206.646 45.8358 208.143 45.8358C209.103 45.8358 209.764 46.29 210.115 46.7545V45.9287H211.302V51.6168H210.115V50.7703C209.754 51.2554 209.072 51.7097 208.123 51.7097C206.646 51.7097 205.459 50.5019 205.459 48.7469ZM210.115 48.7676C210.115 47.5494 209.279 46.8578 208.391 46.8578C207.514 46.8578 206.667 47.5184 206.667 48.7469C206.667 49.9754 207.514 50.6877 208.391 50.6877C209.279 50.6877 210.115 49.996 210.115 48.7676ZM212.456 48.7469C212.456 46.992 213.643 45.8358 215.15 45.8358C215.893 45.8358 216.678 46.1868 217.111 46.7236V43.9776H218.299V51.6168H217.111V50.7599C216.75 51.2761 216.069 51.7097 215.14 51.7097C213.643 51.7097 212.456 50.5019 212.456 48.7469ZM217.111 48.7676C217.111 47.5494 216.275 46.8578 215.387 46.8578C214.51 46.8578 213.663 47.5184 213.663 48.7469C213.663 49.9754 214.51 50.6877 215.387 50.6877C216.275 50.6877 217.111 49.996 217.111 48.7676ZM225.264 48.7676C225.264 50.5535 223.943 51.7097 222.312 51.7097C220.691 51.7097 219.462 50.5535 219.462 48.7676C219.462 46.9816 220.742 45.8358 222.363 45.8358C223.984 45.8358 225.264 46.9816 225.264 48.7676ZM220.66 48.7676C220.66 50.058 221.424 50.6877 222.312 50.6877C223.189 50.6877 224.056 50.058 224.056 48.7676C224.056 47.4772 223.22 46.8578 222.343 46.8578C221.455 46.8578 220.66 47.4772 220.66 48.7676ZM230.286 46.7649C230.647 46.29 231.339 45.8358 232.268 45.8358C233.765 45.8358 234.942 46.992 234.942 48.7469C234.942 50.5019 233.765 51.7097 232.268 51.7097C231.328 51.7097 230.657 51.2348 230.286 50.7909V54.3214H229.109V45.9287H230.286V46.7649ZM233.744 48.7469C233.744 47.5184 232.898 46.8578 232.01 46.8578C231.132 46.8578 230.286 47.5494 230.286 48.7676C230.286 49.996 231.132 50.6877 232.01 50.6877C232.898 50.6877 233.744 49.9754 233.744 48.7469ZM241.525 48.7676C241.525 50.5535 240.204 51.7097 238.573 51.7097C236.952 51.7097 235.723 50.5535 235.723 48.7676C235.723 46.9816 237.003 45.8358 238.624 45.8358C240.245 45.8358 241.525 46.9816 241.525 48.7676ZM236.921 48.7676C236.921 50.058 237.685 50.6877 238.573 50.6877C239.45 50.6877 240.317 50.058 240.317 48.7676C240.317 47.4772 239.481 46.8578 238.604 46.8578C237.716 46.8578 236.921 47.4772 236.921 48.7676ZM243.865 48.623V51.6168H242.688V45.9287H243.865V46.7545C244.196 46.1868 244.763 45.8358 245.569 45.8358V47.0539H245.269C244.402 47.0539 243.865 47.4152 243.865 48.623ZM142.305 61.8268C141.51 61.8268 140.87 62.3636 140.746 63.2617H143.895C143.874 62.3842 143.182 61.8268 142.305 61.8268ZM144.968 64.9238C144.648 65.9148 143.75 66.7097 142.357 66.7097C140.726 66.7097 139.518 65.5535 139.518 63.7676C139.518 61.9816 140.674 60.8358 142.357 60.8358C143.977 60.8358 145.123 61.961 145.123 63.6334C145.123 63.8295 145.113 64.0153 145.082 64.2115H140.736C140.818 65.1509 141.489 65.7186 142.357 65.7186C143.079 65.7186 143.482 65.3677 143.699 64.9238H144.968ZM145.889 63.7469C145.889 61.992 147.076 60.8358 148.583 60.8358C149.327 60.8358 150.111 61.1868 150.545 61.7236V58.9776H151.732V66.6168H150.545V65.7599C150.184 66.2761 149.502 66.7097 148.573 66.7097C147.076 66.7097 145.889 65.5019 145.889 63.7469ZM150.545 63.7676C150.545 62.5494 149.709 61.8578 148.821 61.8578C147.943 61.8578 147.097 62.5184 147.097 63.7469C147.097 64.9754 147.943 65.6877 148.821 65.6877C149.709 65.6877 150.545 64.996 150.545 63.7676ZM158.429 60.9287V66.6168H157.252V65.9354C156.881 66.4206 156.241 66.6993 155.57 66.6993C154.238 66.6993 153.226 65.8632 153.226 64.2734V60.9287H154.393V64.0979C154.393 65.1405 154.96 65.6773 155.817 65.6773C156.684 65.6773 157.252 65.1405 157.252 64.0979V60.9287H158.429ZM159.59 63.7676C159.59 61.992 160.746 60.8358 162.377 60.8358C163.77 60.8358 164.679 61.5274 164.999 62.7249H163.729C163.533 62.1778 163.079 61.8268 162.377 61.8268C161.427 61.8268 160.797 62.5288 160.797 63.7676C160.797 65.0167 161.427 65.7186 162.377 65.7186C163.079 65.7186 163.512 65.4089 163.729 64.8205H164.999C164.679 65.9354 163.77 66.7097 162.377 66.7097C160.746 66.7097 159.59 65.5535 159.59 63.7676ZM165.779 63.7469C165.779 61.992 166.967 60.8358 168.463 60.8358C169.424 60.8358 170.084 61.29 170.435 61.7545V60.9287H171.622V66.6168H170.435V65.7703C170.074 66.2554 169.393 66.7097 168.443 66.7097C166.967 66.7097 165.779 65.5019 165.779 63.7469ZM170.435 63.7676C170.435 62.5494 169.599 61.8578 168.711 61.8578C167.834 61.8578 166.987 62.5184 166.987 63.7469C166.987 64.9754 167.834 65.6877 168.711 65.6877C169.599 65.6877 170.435 64.996 170.435 63.7676ZM172.776 63.7469C172.776 61.992 173.963 60.8358 175.47 60.8358C176.213 60.8358 176.998 61.1868 177.432 61.7236V58.9776H178.619V66.6168H177.432V65.7599C177.07 66.2761 176.389 66.7097 175.46 66.7097C173.963 66.7097 172.776 65.5019 172.776 63.7469ZM177.432 63.7676C177.432 62.5494 176.595 61.8578 175.708 61.8578C174.83 61.8578 173.984 62.5184 173.984 63.7469C173.984 64.9754 174.83 65.6877 175.708 65.6877C176.595 65.6877 177.432 64.996 177.432 63.7676ZM185.584 63.7676C185.584 65.5535 184.263 66.7097 182.632 66.7097C181.011 66.7097 179.783 65.5535 179.783 63.7676C179.783 61.9816 181.063 60.8358 182.683 60.8358C184.304 60.8358 185.584 61.9816 185.584 63.7676ZM180.98 63.7676C180.98 65.058 181.744 65.6877 182.632 65.6877C183.509 65.6877 184.376 65.058 184.376 63.7676C184.376 62.4772 183.54 61.8578 182.663 61.8578C181.775 61.8578 180.98 62.4772 180.98 63.7676ZM187.924 63.623V66.6168H186.748V60.9287H187.924V61.7545C188.255 61.1868 188.823 60.8358 189.628 60.8358V62.0539H189.328C188.461 62.0539 187.924 62.4152 187.924 63.623ZM193.104 61.8268C192.31 61.8268 191.67 62.3636 191.546 63.2617H194.694C194.674 62.3842 193.982 61.8268 193.104 61.8268ZM195.768 64.9238C195.448 65.9148 194.55 66.7097 193.156 66.7097C191.525 66.7097 190.317 65.5535 190.317 63.7676C190.317 61.9816 191.473 60.8358 193.156 60.8358C194.777 60.8358 195.923 61.961 195.923 63.6334C195.923 63.8295 195.912 64.0153 195.881 64.2115H191.535C191.618 65.1509 192.289 65.7186 193.156 65.7186C193.879 65.7186 194.281 65.3677 194.498 64.9238H195.768ZM201.324 65.027C201.324 65.987 200.487 66.7097 199.145 66.7097C197.783 66.7097 196.823 65.9045 196.771 64.8721H197.989C198.031 65.3367 198.474 65.7186 199.125 65.7186C199.806 65.7186 200.167 65.4296 200.167 65.0373C200.167 63.9224 196.864 64.5624 196.864 62.4772C196.864 61.5687 197.711 60.8358 199.053 60.8358C200.343 60.8358 201.189 61.5274 201.251 62.663H200.075C200.033 62.1675 199.651 61.8268 199.011 61.8268C198.382 61.8268 198.051 62.0849 198.051 62.4668C198.051 63.6127 201.262 62.9727 201.324 65.027ZM204.885 63.7469C204.885 61.992 206.072 60.8358 207.579 60.8358C208.322 60.8358 209.107 61.1868 209.54 61.7236V58.9776H210.728V66.6168H209.54V65.7599C209.179 66.2761 208.498 66.7097 207.569 66.7097C206.072 66.7097 204.885 65.5019 204.885 63.7469ZM209.54 63.7676C209.54 62.5494 208.704 61.8578 207.816 61.8578C206.939 61.8578 206.092 62.5184 206.092 63.7469C206.092 64.9754 206.939 65.6877 207.816 65.6877C208.704 65.6877 209.54 64.996 209.54 63.7676ZM211.881 63.7469C211.881 61.992 213.068 60.8358 214.565 60.8358C215.525 60.8358 216.186 61.29 216.537 61.7545V60.9287H217.724V66.6168H216.537V65.7703C216.175 66.2554 215.494 66.7097 214.544 66.7097C213.068 66.7097 211.881 65.5019 211.881 63.7469ZM216.537 63.7676C216.537 62.5494 215.701 61.8578 214.813 61.8578C213.935 61.8578 213.089 62.5184 213.089 63.7469C213.089 64.9754 213.935 65.6877 214.813 65.6877C215.701 65.6877 216.537 64.996 216.537 63.7676ZM221.951 66.6168V60.9287H223.128V66.6168H221.951ZM222.55 60.1751C222.127 60.1751 221.796 59.8447 221.796 59.4215C221.796 58.9982 222.127 58.6679 222.55 58.6679C222.963 58.6679 223.293 58.9982 223.293 59.4215C223.293 59.8447 222.963 60.1751 222.55 60.1751ZM228.71 66.6168V63.4372C228.71 62.3946 228.142 61.8578 227.285 61.8578C226.418 61.8578 225.85 62.3946 225.85 63.4372V66.6168H224.673V60.9287H225.85V61.579C226.232 61.1145 226.862 60.8358 227.543 60.8358C228.875 60.8358 229.876 61.6719 229.876 63.2617V66.6168H228.71ZM235.62 65.027C235.62 65.987 234.784 66.7097 233.442 66.7097C232.079 66.7097 231.119 65.9045 231.068 64.8721H232.286C232.327 65.3367 232.771 65.7186 233.421 65.7186C234.103 65.7186 234.464 65.4296 234.464 65.0373C234.464 63.9224 231.16 64.5624 231.16 62.4772C231.16 61.5687 232.007 60.8358 233.349 60.8358C234.639 60.8358 235.486 61.5274 235.548 62.663H234.371C234.33 62.1675 233.948 61.8268 233.308 61.8268C232.678 61.8268 232.348 62.0849 232.348 62.4668C232.348 63.6127 235.558 62.9727 235.62 65.027ZM237.078 65.0373V61.8887H236.407V60.9287H237.078V59.5144H238.265V60.9287H239.648V61.8887H238.265V65.0373C238.265 65.4606 238.43 65.6361 238.925 65.6361H239.648V66.6168H238.719C237.707 66.6168 237.078 66.1935 237.078 65.0373ZM240.733 66.6168V60.9287H241.91V66.6168H240.733ZM241.331 60.1751C240.908 60.1751 240.578 59.8447 240.578 59.4215C240.578 58.9982 240.908 58.6679 241.331 58.6679C241.744 58.6679 242.075 58.9982 242.075 59.4215C242.075 59.8447 241.744 60.1751 241.331 60.1751ZM243.64 65.0373V61.8887H242.969V60.9287H243.64V59.5144H244.828V60.9287H246.211V61.8887H244.828V65.0373C244.828 65.4606 244.993 65.6361 245.488 65.6361H246.211V66.6168H245.282C244.27 66.6168 243.64 66.1935 243.64 65.0373ZM252.447 60.9287V66.6168H251.27V65.9354C250.898 66.4206 250.258 66.6993 249.587 66.6993C248.256 66.6993 247.244 65.8632 247.244 64.2734V60.9287H248.41V64.0979C248.41 65.1405 248.978 65.6773 249.835 65.6773C250.702 65.6773 251.27 65.1405 251.27 64.0979V60.9287H252.447ZM254 66.6168V60.9287H255.176V66.6168H254ZM254.598 60.1751C254.175 60.1751 253.845 59.8447 253.845 59.4215C253.845 58.9982 254.175 58.6679 254.598 58.6679C255.011 58.6679 255.342 58.9982 255.342 59.4215C255.342 59.8447 255.011 60.1751 254.598 60.1751ZM256.329 63.7676C256.329 61.992 257.485 60.8358 259.117 60.8358C260.51 60.8358 261.419 61.5274 261.739 62.7249H260.469C260.273 62.1778 259.819 61.8268 259.117 61.8268C258.167 61.8268 257.537 62.5288 257.537 63.7676C257.537 65.0167 258.167 65.7186 259.117 65.7186C259.819 65.7186 260.252 65.4089 260.469 64.8205H261.739C261.45 65.8425 260.665 66.5755 259.468 66.689V67.1123C260.231 67.1123 260.81 67.4839 260.81 68.1962C260.81 68.8982 260.231 69.3214 259.498 69.3214H258.136V68.5782H259.261C259.622 68.5782 259.839 68.5059 259.839 68.1962C259.839 67.8865 259.622 67.8143 259.261 67.8143H258.693V66.6787C257.289 66.5032 256.329 65.3986 256.329 63.7676ZM262.519 63.7469C262.519 61.992 263.706 60.8358 265.203 60.8358C266.163 60.8358 266.824 61.29 267.175 61.7545V60.9287H268.362V66.6168H267.175V65.7703C266.814 66.2554 266.132 66.7097 265.183 66.7097C263.706 66.7097 262.519 65.5019 262.519 63.7469ZM267.175 63.7676C267.175 62.5494 266.339 61.8578 265.451 61.8578C264.573 61.8578 263.727 62.5184 263.727 63.7469C263.727 64.9754 264.573 65.6877 265.451 65.6877C266.339 65.6877 267.175 64.996 267.175 63.7676ZM263.954 60.3403C264.068 59.5247 264.522 59.1324 265.121 59.1324C265.678 59.1324 265.905 59.5867 266.318 59.5867C266.545 59.5867 266.721 59.4525 266.762 59.1531H267.423C267.309 59.9686 266.855 60.3609 266.256 60.3609C265.699 60.3609 265.472 59.8964 265.059 59.8964C264.832 59.8964 264.656 60.0409 264.615 60.3403H263.954ZM275.328 63.7676C275.328 65.5535 274.006 66.7097 272.375 66.7097C270.754 66.7097 269.526 65.5535 269.526 63.7676C269.526 61.9816 270.806 60.8358 272.427 60.8358C274.047 60.8358 275.328 61.9816 275.328 63.7676ZM270.723 63.7676C270.723 65.058 271.487 65.6877 272.375 65.6877C273.253 65.6877 274.12 65.058 274.12 63.7676C274.12 62.4772 273.284 61.8578 272.406 61.8578C271.518 61.8578 270.723 62.4772 270.723 63.7676Z" fill="black"/>
<path fill-rule="evenodd" clip-rule="evenodd" d="M132.186 82.4004C138.702 82.4004 143.984 87.6825 143.984 94.1983V113.104C143.984 119.62 138.702 124.902 132.186 124.902H109.413L115.158 141.802L81.64 124.902H39.5539C33.0381 124.902 27.756 119.62 27.756 113.104V94.1983C27.756 87.6825 33.0381 82.4004 39.5539 82.4004H132.186Z" fill="#5A558F"/>
<path d="M109.413 124.902L108.715 125.139L108.384 124.164H109.413V124.902ZM115.158 141.802L115.856 141.564L116.436 143.272L114.826 142.46L115.158 141.802ZM81.64 124.902V124.164H81.8153L81.9719 124.243L81.64 124.902ZM143.247 94.1983C143.247 88.0897 138.295 83.1378 132.186 83.1378V81.663C139.109 81.663 144.721 87.2753 144.721 94.1983H143.247ZM143.247 113.104V94.1983H144.721V113.104H143.247ZM132.186 124.164C138.295 124.164 143.247 119.212 143.247 113.104H144.721C144.721 120.027 139.109 125.639 132.186 125.639V124.164ZM109.413 124.164H132.186V125.639H109.413V124.164ZM110.112 124.664L115.856 141.564L114.46 142.039L108.715 125.139L110.112 124.664ZM114.826 142.46L81.308 125.56L81.9719 124.243L115.49 141.143L114.826 142.46ZM39.5539 124.164H81.64V125.639H39.5539V124.164ZM28.4933 113.104C28.4933 119.212 33.4453 124.164 39.5539 124.164V125.639C32.6308 125.639 27.0186 120.027 27.0186 113.104H28.4933ZM28.4933 94.1983V113.104H27.0186V94.1983H28.4933ZM39.5539 83.1378C33.4453 83.1378 28.4933 88.0898 28.4933 94.1983H27.0186C27.0186 87.2753 32.6309 81.663 39.5539 81.663V83.1378ZM132.186 83.1378H39.5539V81.663H132.186V83.1378Z" fill="black"/>
<path d="M44.618 96.7366C44.618 94.5894 46.2594 93.0719 48.2828 93.0719C49.7796 93.0719 51.07 93.8255 51.6172 95.2294H50.2029C49.8209 94.4655 49.1396 94.1042 48.2828 94.1042C46.8582 94.1042 45.8259 95.1159 45.8259 96.7366C45.8259 98.3574 46.8582 99.3794 48.2828 99.3794C49.1396 99.3794 49.8209 99.018 50.2029 98.2541H51.6172C51.07 99.6581 49.7796 100.401 48.2828 100.401C46.2594 100.401 44.618 98.8942 44.618 96.7366ZM58.4144 97.4902C58.4144 99.2761 57.093 100.432 55.4619 100.432C53.8412 100.432 52.6127 99.2761 52.6127 97.4902C52.6127 95.7043 53.8928 94.5584 55.5135 94.5584C57.1343 94.5584 58.4144 95.7043 58.4144 97.4902ZM53.8102 97.4902C53.8102 98.7806 54.5741 99.4103 55.4619 99.4103C56.3394 99.4103 57.2065 98.7806 57.2065 97.4902C57.2065 96.1998 56.3704 95.5804 55.4929 95.5804C54.6051 95.5804 53.8102 96.1998 53.8102 97.4902ZM63.6141 100.339V97.1599C63.6141 96.1172 63.0463 95.5804 62.1895 95.5804C61.3224 95.5804 60.7546 96.1172 60.7546 97.1599V100.339H59.5777V94.6513H60.7546V95.3017C61.1365 94.8371 61.7662 94.5584 62.4476 94.5584C63.7793 94.5584 64.7806 95.3946 64.7806 96.9844V100.339H63.6141ZM66.4676 98.76V95.6114H65.7966V94.6513H66.4676V93.2371H67.6548V94.6513H69.0381V95.6114H67.6548V98.76C67.6548 99.1832 67.8199 99.3587 68.3154 99.3587H69.0381V100.339H68.109C67.0973 100.339 66.4676 99.9162 66.4676 98.76ZM72.5177 95.5494C71.7228 95.5494 71.0828 96.0863 70.9589 96.9844H74.1075C74.0868 96.1069 73.3952 95.5494 72.5177 95.5494ZM75.1811 98.6464C74.8611 99.6374 73.963 100.432 72.5693 100.432C70.9383 100.432 69.7304 99.2761 69.7304 97.4902C69.7304 95.7043 70.8866 94.5584 72.5693 94.5584C74.1901 94.5584 75.3359 95.6837 75.3359 97.356C75.3359 97.5522 75.3256 97.738 75.2946 97.9341H70.9486C71.0312 98.8735 71.7022 99.4413 72.5693 99.4413C73.2919 99.4413 73.6946 99.0903 73.9113 98.6464H75.1811ZM81.6454 94.6513V100.339H80.4685V99.6581C80.0969 100.143 79.4568 100.422 78.7858 100.422C77.4541 100.422 76.4425 99.5858 76.4425 97.996V94.6513H77.609V97.8206C77.609 98.8632 78.1768 99.4 79.0336 99.4C79.9007 99.4 80.4685 98.8632 80.4685 97.8206V94.6513H81.6454ZM77.8567 93.3816L80.1382 92.1221V93.1235L77.8567 94.2487V93.3816ZM82.8058 97.4696C82.8058 95.7146 83.993 94.5584 85.5002 94.5584C86.2435 94.5584 87.028 94.9094 87.4616 95.4462V92.7002H88.6488V100.339H87.4616V99.4826C87.1003 99.9988 86.419 100.432 85.4899 100.432C83.993 100.432 82.8058 99.2245 82.8058 97.4696ZM87.4616 97.4902C87.4616 96.2721 86.6254 95.5804 85.7376 95.5804C84.8601 95.5804 84.0136 96.2411 84.0136 97.4696C84.0136 98.698 84.8601 99.4103 85.7376 99.4103C86.6254 99.4103 87.4616 98.7187 87.4616 97.4902ZM95.6142 97.4902C95.6142 99.2761 94.2928 100.432 92.6617 100.432C91.041 100.432 89.8125 99.2761 89.8125 97.4902C89.8125 95.7043 91.0926 94.5584 92.7134 94.5584C94.3341 94.5584 95.6142 95.7043 95.6142 97.4902ZM91.01 97.4902C91.01 98.7806 91.774 99.4103 92.6617 99.4103C93.5392 99.4103 94.4064 98.7806 94.4064 97.4902C94.4064 96.1998 93.5702 95.5804 92.6927 95.5804C91.8049 95.5804 91.01 96.1998 91.01 97.4902ZM99.0669 97.4696C99.0669 95.7146 100.254 94.5584 101.761 94.5584C102.505 94.5584 103.289 94.9094 103.723 95.4462V92.7002H104.91V100.339H103.723V99.4826C103.361 99.9988 102.68 100.432 101.751 100.432C100.254 100.432 99.0669 99.2245 99.0669 97.4696ZM103.723 97.4902C103.723 96.2721 102.886 95.5804 101.999 95.5804C101.121 95.5804 100.275 96.2411 100.275 97.4696C100.275 98.698 101.121 99.4103 101.999 99.4103C102.886 99.4103 103.723 98.7187 103.723 97.4902ZM108.851 95.5494C108.056 95.5494 107.416 96.0863 107.292 96.9844H110.44C110.42 96.1069 109.728 95.5494 108.851 95.5494ZM111.514 98.6464C111.194 99.6374 110.296 100.432 108.902 100.432C107.271 100.432 106.063 99.2761 106.063 97.4902C106.063 95.7043 107.219 94.5584 108.902 94.5584C110.523 94.5584 111.669 95.6837 111.669 97.356C111.669 97.5522 111.658 97.738 111.627 97.9341H107.281C107.364 98.8735 108.035 99.4413 108.902 99.4413C109.625 99.4413 110.027 99.0903 110.244 98.6464H111.514ZM44.618 112.47C44.618 110.715 45.8052 109.558 47.3021 109.558C48.2621 109.558 48.9228 110.013 49.2738 110.477V109.651H50.461V115.339H49.2738V114.493C48.9125 114.978 48.2312 115.432 47.2814 115.432C45.8052 115.432 44.618 114.225 44.618 112.47ZM49.2738 112.49C49.2738 111.272 48.4376 110.58 47.5498 110.58C46.6724 110.58 45.8259 111.241 45.8259 112.47C45.8259 113.698 46.6724 114.41 47.5498 114.41C48.4376 114.41 49.2738 113.719 49.2738 112.49ZM57.158 109.651V115.339H55.9811V114.658C55.6095 115.143 54.9695 115.422 54.2985 115.422C52.9668 115.422 51.9551 114.586 51.9551 112.996V109.651H53.1216V112.821C53.1216 113.863 53.6894 114.4 54.5462 114.4C55.4134 114.4 55.9811 113.863 55.9811 112.821V109.651H57.158ZM58.8966 113.76V110.611H58.2256V109.651H58.8966V108.237H60.0837V109.651H61.467V110.611H60.0837V113.76C60.0837 114.183 60.2489 114.359 60.7444 114.359H61.467V115.339H60.5379C59.5263 115.339 58.8966 114.916 58.8966 113.76ZM67.9714 112.49C67.9714 114.276 66.65 115.432 65.0189 115.432C63.3982 115.432 62.1697 114.276 62.1697 112.49C62.1697 110.704 63.4498 109.558 65.0706 109.558C66.6913 109.558 67.9714 110.704 67.9714 112.49ZM63.3672 112.49C63.3672 113.781 64.1312 114.41 65.0189 114.41C65.8964 114.41 66.7636 113.781 66.7636 112.49C66.7636 111.2 65.9274 110.58 65.0499 110.58C64.1621 110.58 63.3672 111.2 63.3672 112.49ZM70.3116 112.346V115.339H69.1348V109.651H70.3116V110.477C70.6419 109.909 71.2097 109.558 72.0149 109.558V110.777H71.7156C70.8484 110.777 70.3116 111.138 70.3116 112.346ZM75.4917 110.549C74.6968 110.549 74.0568 111.086 73.9329 111.984H77.0815C77.0608 111.107 76.3691 110.549 75.4917 110.549ZM78.1551 113.646C77.835 114.637 76.9369 115.432 75.5433 115.432C73.9122 115.432 72.7044 114.276 72.7044 112.49C72.7044 110.704 73.8606 109.558 75.5433 109.558C77.164 109.558 78.3099 110.684 78.3099 112.356C78.3099 112.552 78.2996 112.738 78.2686 112.934H73.9225C74.0051 113.874 74.6761 114.441 75.5433 114.441C76.2659 114.441 76.6685 114.09 76.8853 113.646H78.1551ZM83.7109 113.75C83.7109 114.71 82.8747 115.432 81.5327 115.432C80.17 115.432 79.21 114.627 79.1583 113.595H80.3765C80.4178 114.059 80.8617 114.441 81.512 114.441C82.1934 114.441 82.5547 114.152 82.5547 113.76C82.5547 112.645 79.2513 113.285 79.2513 111.2C79.2513 110.291 80.0978 109.558 81.4398 109.558C82.7302 109.558 83.5767 110.25 83.6386 111.386H82.4618C82.4205 110.89 82.0385 110.549 81.3985 110.549C80.7688 110.549 80.4384 110.808 80.4384 111.189C80.4384 112.335 83.6489 111.695 83.7109 113.75ZM87.8499 113.76V110.611H87.1789V109.651H87.8499V108.237H89.0371V109.651H90.4204V110.611H89.0371V113.76C89.0371 114.183 89.2023 114.359 89.6978 114.359H90.4204V115.339H89.4913C88.4796 115.339 87.8499 114.916 87.8499 113.76ZM91.5051 115.339V109.651H92.6819V115.339H91.5051ZM92.1038 108.898C91.6806 108.898 91.3502 108.567 91.3502 108.144C91.3502 107.721 91.6806 107.391 92.1038 107.391C92.5167 107.391 92.8471 107.721 92.8471 108.144C92.8471 108.567 92.5167 108.898 92.1038 108.898ZM94.4128 113.76V110.611H93.7418V109.651H94.4128V108.237H95.6V109.651H96.9833V110.611H95.6V113.76C95.6 114.183 95.7652 114.359 96.2607 114.359H96.9833V115.339H96.0542C95.0425 115.339 94.4128 114.916 94.4128 113.76ZM103.219 109.651V115.339H102.042V114.658C101.671 115.143 101.031 115.422 100.36 115.422C99.028 115.422 98.0163 114.586 98.0163 112.996V109.651H99.1829V112.821C99.1829 113.863 99.7506 114.4 100.607 114.4C101.475 114.4 102.042 113.863 102.042 112.821V109.651H103.219ZM104.772 115.339V107.7H105.949V115.339H104.772ZM107.102 112.47C107.102 110.715 108.289 109.558 109.786 109.558C110.746 109.558 111.406 110.013 111.757 110.477V109.651H112.945V115.339H111.757V114.493C111.396 114.978 110.715 115.432 109.765 115.432C108.289 115.432 107.102 114.225 107.102 112.47ZM111.757 112.49C111.757 111.272 110.921 110.58 110.033 110.58C109.156 110.58 108.309 111.241 108.309 112.47C108.309 113.698 109.156 114.41 110.033 114.41C110.921 114.41 111.757 113.719 111.757 112.49ZM114.098 112.47C114.098 110.715 115.285 109.558 116.792 109.558C117.536 109.558 118.32 109.909 118.754 110.446V107.7H119.941V115.339H118.754V114.483C118.392 114.999 117.711 115.432 116.782 115.432C115.285 115.432 114.098 114.225 114.098 112.47ZM118.754 112.49C118.754 111.272 117.918 110.58 117.03 110.58C116.152 110.58 115.306 111.241 115.306 112.47C115.306 113.698 116.152 114.41 117.03 114.41C117.918 114.41 118.754 113.719 118.754 112.49ZM126.906 112.49C126.906 114.276 125.585 115.432 123.954 115.432C122.333 115.432 121.105 114.276 121.105 112.49C121.105 110.704 122.385 109.558 124.006 109.558C125.626 109.558 126.906 110.704 126.906 112.49ZM122.302 112.49C122.302 113.781 123.066 114.41 123.954 114.41C124.831 114.41 125.699 113.781 125.699 112.49C125.699 111.2 124.862 110.58 123.985 110.58C123.097 110.58 122.302 111.2 122.302 112.49ZM132.313 113.75C132.313 114.71 131.476 115.432 130.134 115.432C128.772 115.432 127.812 114.627 127.76 113.595H128.978C129.02 114.059 129.463 114.441 130.114 114.441C130.795 114.441 131.156 114.152 131.156 113.76C131.156 112.645 127.853 113.285 127.853 111.2C127.853 110.291 128.699 109.558 130.042 109.558C131.332 109.558 132.178 110.25 132.24 111.386H131.064C131.022 110.89 130.64 110.549 130 110.549C129.37 110.549 129.04 110.808 129.04 111.189C129.04 112.335 132.251 111.695 132.313 113.75Z" fill="white"/>
<path fill-rule="evenodd" clip-rule="evenodd" d="M163.588 103.218C157.073 103.218 151.79 108.5 151.79 115.015V133.921C151.79 140.437 157.073 145.719 163.588 145.719H228.311L222.915 161.595L254.402 145.719H273.568C280.084 145.719 285.366 140.437 285.366 133.921V115.015C285.366 108.5 280.084 103.218 273.568 103.218H163.588Z" fill="#E7E7FF"/>
<path d="M228.311 145.719L229.01 145.956L229.341 144.981H228.311V145.719ZM222.915 161.595L222.217 161.357L221.636 163.065L223.247 162.253L222.915 161.595ZM254.402 145.719V144.981H254.227L254.07 145.06L254.402 145.719ZM152.528 115.015C152.528 108.907 157.48 103.955 163.588 103.955V102.48C156.665 102.48 151.053 108.092 151.053 115.015H152.528ZM152.528 133.921V115.015H151.053V133.921H152.528ZM163.588 144.981C157.48 144.981 152.528 140.029 152.528 133.921H151.053C151.053 140.844 156.665 146.456 163.588 146.456V144.981ZM228.311 144.981H163.588V146.456H228.311V144.981ZM227.613 145.482L222.217 161.357L223.613 161.832L229.01 145.956L227.613 145.482ZM223.247 162.253L254.734 146.377L254.07 145.06L222.583 160.936L223.247 162.253ZM273.568 144.981H254.402V146.456H273.568V144.981ZM284.629 133.921C284.629 140.029 279.677 144.981 273.568 144.981V146.456C280.491 146.456 286.103 140.844 286.103 133.921H284.629ZM284.629 115.015V133.921H286.103V115.015H284.629ZM273.568 103.955C279.677 103.955 284.629 108.907 284.629 115.015H286.103C286.103 108.092 280.491 102.48 273.568 102.48V103.955ZM163.588 103.955H273.568V102.48H163.588V103.955Z" fill="black"/>
<path d="M176.849 116.686C176.849 118.844 175.229 120.361 173.185 120.361C171.161 120.361 169.52 118.844 169.52 116.686C169.52 114.539 171.161 113.022 173.185 113.022C175.229 113.022 176.849 114.539 176.849 116.686ZM170.728 116.686C170.728 118.307 171.76 119.339 173.185 119.339C174.609 119.339 175.642 118.307 175.642 116.686C175.642 115.066 174.609 114.054 173.185 114.054C171.76 114.054 170.728 115.066 170.728 116.686ZM179.184 117.295V120.289H178.007V114.601H179.184V115.427C179.515 114.859 180.082 114.508 180.888 114.508V115.726H180.588C179.721 115.726 179.184 116.088 179.184 117.295ZM181.969 120.289V114.601H183.146V120.289H181.969ZM182.568 113.847C182.145 113.847 181.815 113.517 181.815 113.094C181.815 112.671 182.145 112.34 182.568 112.34C182.981 112.34 183.311 112.671 183.311 113.094C183.311 113.517 182.981 113.847 182.568 113.847ZM187.086 115.499C186.291 115.499 185.651 116.036 185.527 116.934H188.676C188.655 116.057 187.964 115.499 187.086 115.499ZM189.75 118.596C189.43 119.587 188.532 120.382 187.138 120.382C185.507 120.382 184.299 119.226 184.299 117.44C184.299 115.654 185.455 114.508 187.138 114.508C188.759 114.508 189.905 115.633 189.905 117.306C189.905 117.502 189.894 117.688 189.863 117.884H185.517C185.6 118.823 186.271 119.391 187.138 119.391C187.861 119.391 188.263 119.04 188.48 118.596H189.75ZM195.099 120.289V117.11C195.099 116.067 194.531 115.53 193.674 115.53C192.807 115.53 192.239 116.067 192.239 117.11V120.289H191.063V114.601H192.239V115.251C192.621 114.787 193.251 114.508 193.932 114.508C195.264 114.508 196.266 115.344 196.266 116.934V120.289H195.099ZM197.952 118.71V115.561H197.281V114.601H197.952V113.187H199.14V114.601H200.523V115.561H199.14V118.71C199.14 119.133 199.305 119.308 199.8 119.308H200.523V120.289H199.594C198.582 120.289 197.952 119.866 197.952 118.71ZM201.215 117.419C201.215 115.664 202.403 114.508 203.899 114.508C204.859 114.508 205.52 114.962 205.871 115.427V114.601H207.058V120.289H205.871V119.443C205.51 119.928 204.828 120.382 203.879 120.382C202.403 120.382 201.215 119.174 201.215 117.419ZM205.871 117.44C205.871 116.222 205.035 115.53 204.147 115.53C203.27 115.53 202.423 116.191 202.423 117.419C202.423 118.648 203.27 119.36 204.147 119.36C205.035 119.36 205.871 118.668 205.871 117.44ZM208.212 117.44C208.212 115.664 209.368 114.508 210.999 114.508C212.393 114.508 213.301 115.2 213.621 116.397H212.351C212.155 115.85 211.701 115.499 210.999 115.499C210.049 115.499 209.42 116.201 209.42 117.44C209.42 118.689 210.049 119.391 210.999 119.391C211.701 119.391 212.135 119.081 212.351 118.493H213.621C213.332 119.515 212.547 120.248 211.35 120.361V120.785C212.114 120.785 212.692 121.156 212.692 121.869C212.692 122.571 212.114 122.994 211.381 122.994H210.018V122.251H211.144C211.505 122.251 211.722 122.178 211.722 121.869C211.722 121.559 211.505 121.487 211.144 121.487H210.576V120.351C209.172 120.176 208.212 119.071 208.212 117.44ZM214.402 117.419C214.402 115.664 215.589 114.508 217.086 114.508C218.046 114.508 218.706 114.962 219.057 115.427V114.601H220.245V120.289H219.057V119.443C218.696 119.928 218.015 120.382 217.065 120.382C215.589 120.382 214.402 119.174 214.402 117.419ZM219.057 117.44C219.057 116.222 218.221 115.53 217.333 115.53C216.456 115.53 215.609 116.191 215.609 117.419C215.609 118.648 216.456 119.36 217.333 119.36C218.221 119.36 219.057 118.668 219.057 117.44ZM215.837 114.013C215.95 113.197 216.404 112.805 217.003 112.805C217.561 112.805 217.788 113.259 218.201 113.259C218.428 113.259 218.603 113.125 218.644 112.825H219.305C219.192 113.641 218.737 114.033 218.139 114.033C217.581 114.033 217.354 113.569 216.941 113.569C216.714 113.569 216.539 113.713 216.497 114.013H215.837ZM227.21 117.44C227.21 119.226 225.889 120.382 224.258 120.382C222.637 120.382 221.408 119.226 221.408 117.44C221.408 115.654 222.688 114.508 224.309 114.508C225.93 114.508 227.21 115.654 227.21 117.44ZM222.606 117.44C222.606 118.73 223.37 119.36 224.258 119.36C225.135 119.36 226.002 118.73 226.002 117.44C226.002 116.15 225.166 115.53 224.289 115.53C223.401 115.53 222.606 116.15 222.606 117.44ZM230.663 117.44C230.663 115.664 231.819 114.508 233.45 114.508C234.844 114.508 235.752 115.2 236.072 116.397H234.802C234.606 115.85 234.152 115.499 233.45 115.499C232.5 115.499 231.871 116.201 231.871 117.44C231.871 118.689 232.5 119.391 233.45 119.391C234.152 119.391 234.586 119.081 234.802 118.493H236.072C235.752 119.608 234.844 120.382 233.45 120.382C231.819 120.382 230.663 119.226 230.663 117.44ZM242.665 117.44C242.665 119.226 241.343 120.382 239.712 120.382C238.091 120.382 236.863 119.226 236.863 117.44C236.863 115.654 238.143 114.508 239.764 114.508C241.384 114.508 242.665 115.654 242.665 117.44ZM238.06 117.44C238.06 118.73 238.824 119.36 239.712 119.36C240.59 119.36 241.457 118.73 241.457 117.44C241.457 116.15 240.621 115.53 239.743 115.53C238.855 115.53 238.06 116.15 238.06 117.44ZM251.89 120.289V117.11C251.89 116.067 251.323 115.53 250.466 115.53C249.599 115.53 249.031 116.067 249.031 117.11V120.289H247.864V117.11C247.864 116.067 247.297 115.53 246.44 115.53C245.573 115.53 245.005 116.067 245.005 117.11V120.289H243.828V114.601H245.005V115.251C245.387 114.787 246.006 114.508 246.687 114.508C247.586 114.508 248.339 114.89 248.731 115.633C249.082 114.942 249.888 114.508 250.714 114.508C252.045 114.508 253.057 115.344 253.057 116.934V120.289H251.89ZM177.975 135.289V132.11C177.975 131.067 177.407 130.53 176.55 130.53C175.683 130.53 175.115 131.067 175.115 132.11V135.289H173.949V132.11C173.949 131.067 173.381 130.53 172.524 130.53C171.657 130.53 171.089 131.067 171.089 132.11V135.289H169.912V129.601H171.089V130.251C171.471 129.787 172.09 129.508 172.772 129.508C173.67 129.508 174.423 129.89 174.816 130.633C175.167 129.942 175.972 129.508 176.798 129.508C178.129 129.508 179.141 130.344 179.141 131.934V135.289H177.975ZM183.034 130.499C182.239 130.499 181.599 131.036 181.475 131.934H184.623C184.603 131.057 183.911 130.499 183.034 130.499ZM185.697 133.596C185.377 134.587 184.479 135.382 183.085 135.382C181.454 135.382 180.246 134.226 180.246 132.44C180.246 130.654 181.403 129.508 183.085 129.508C184.706 129.508 185.852 130.633 185.852 132.306C185.852 132.502 185.842 132.688 185.811 132.884H181.464C181.547 133.823 182.218 134.391 183.085 134.391C183.808 134.391 184.21 134.04 184.427 133.596H185.697ZM191.253 133.699C191.253 134.659 190.417 135.382 189.075 135.382C187.712 135.382 186.752 134.577 186.7 133.545H187.918C187.96 134.009 188.404 134.391 189.054 134.391C189.735 134.391 190.097 134.102 190.097 133.71C190.097 132.595 186.793 133.235 186.793 131.15C186.793 130.241 187.64 129.508 188.982 129.508C190.272 129.508 191.119 130.2 191.181 131.335H190.004C189.962 130.84 189.58 130.499 188.94 130.499C188.311 130.499 187.98 130.757 187.98 131.139C187.98 132.285 191.191 131.645 191.253 133.699ZM192.71 133.71V130.561H192.039V129.601H192.71V128.187H193.897V129.601H195.281V130.561H193.897V133.71C193.897 134.133 194.063 134.308 194.558 134.308H195.281V135.289H194.352C193.34 135.289 192.71 134.866 192.71 133.71ZM197.542 132.295V135.289H196.365V129.601H197.542V130.427C197.873 129.859 198.44 129.508 199.246 129.508V130.726H198.946C198.079 130.726 197.542 131.088 197.542 132.295ZM202.722 130.499C201.927 130.499 201.287 131.036 201.163 131.934H204.312C204.291 131.057 203.6 130.499 202.722 130.499ZM205.386 133.596C205.066 134.587 204.168 135.382 202.774 135.382C201.143 135.382 199.935 134.226 199.935 132.44C199.935 130.654 201.091 129.508 202.774 129.508C204.395 129.508 205.541 130.633 205.541 132.306C205.541 132.502 205.53 132.688 205.499 132.884H201.153C201.236 133.823 201.907 134.391 202.774 134.391C203.497 134.391 203.899 134.04 204.116 133.596H205.386ZM210.942 133.699C210.942 134.659 210.105 135.382 208.763 135.382C207.401 135.382 206.441 134.577 206.389 133.545H207.607C207.648 134.009 208.092 134.391 208.743 134.391C209.424 134.391 209.785 134.102 209.785 133.71C209.785 132.595 206.482 133.235 206.482 131.15C206.482 130.241 207.328 129.508 208.67 129.508C209.961 129.508 210.807 130.2 210.869 131.335H209.692C209.651 130.84 209.269 130.499 208.629 130.499C207.999 130.499 207.669 130.757 207.669 131.139C207.669 132.285 210.88 131.645 210.942 133.699ZM217.29 130.499C216.495 130.499 215.855 131.036 215.731 131.934H218.879C218.859 131.057 218.167 130.499 217.29 130.499ZM219.953 133.596C219.633 134.587 218.735 135.382 217.341 135.382C215.71 135.382 214.502 134.226 214.502 132.44C214.502 130.654 215.659 129.508 217.341 129.508C218.962 129.508 220.108 130.633 220.108 132.306C220.108 132.502 220.098 132.688 220.067 132.884H215.721C215.803 133.823 216.474 134.391 217.341 134.391C218.064 134.391 218.467 134.04 218.683 133.596H219.953ZM223.555 132.419C223.555 130.664 224.743 129.508 226.25 129.508C226.993 129.508 227.778 129.859 228.211 130.396V127.65H229.398V135.289H228.211V134.432C227.85 134.948 227.169 135.382 226.239 135.382C224.743 135.382 223.555 134.174 223.555 132.419ZM228.211 132.44C228.211 131.222 227.375 130.53 226.487 130.53C225.61 130.53 224.763 131.191 224.763 132.419C224.763 133.648 225.61 134.36 226.487 134.36C227.375 134.36 228.211 133.668 228.211 132.44ZM236.364 132.44C236.364 134.226 235.042 135.382 233.411 135.382C231.791 135.382 230.562 134.226 230.562 132.44C230.562 130.654 231.842 129.508 233.463 129.508C235.084 129.508 236.364 130.654 236.364 132.44ZM231.76 132.44C231.76 133.73 232.524 134.36 233.411 134.36C234.289 134.36 235.156 133.73 235.156 132.44C235.156 131.15 234.32 130.53 233.442 130.53C232.555 130.53 231.76 131.15 231.76 132.44ZM242.678 129.601V135.289H241.502V134.608C241.13 135.093 240.49 135.372 239.819 135.372C238.487 135.372 237.476 134.536 237.476 132.946V129.601H238.642V132.77C238.642 133.813 239.21 134.35 240.067 134.35C240.934 134.35 241.502 133.813 241.502 132.77V129.601H242.678ZM244.417 133.71V130.561H243.746V129.601H244.417V128.187H245.604V129.601H246.987V130.561H245.604V133.71C245.604 134.133 245.769 134.308 246.265 134.308H246.987V135.289H246.058C245.047 135.289 244.417 134.866 244.417 133.71ZM253.492 132.44C253.492 134.226 252.17 135.382 250.539 135.382C248.919 135.382 247.69 134.226 247.69 132.44C247.69 130.654 248.97 129.508 250.591 129.508C252.212 129.508 253.492 130.654 253.492 132.44ZM248.888 132.44C248.888 133.73 249.652 134.36 250.539 134.36C251.417 134.36 252.284 133.73 252.284 132.44C252.284 131.15 251.448 130.53 250.57 130.53C249.683 130.53 248.888 131.15 248.888 132.44ZM255.832 132.295V135.289H254.655V129.601H255.832V130.427C256.162 129.859 256.73 129.508 257.535 129.508V130.726H257.236C256.369 130.726 255.832 131.088 255.832 132.295ZM261.012 130.499C260.217 130.499 259.577 131.036 259.453 131.934H262.602C262.581 131.057 261.89 130.499 261.012 130.499ZM263.676 133.596C263.355 134.587 262.457 135.382 261.064 135.382C259.433 135.382 258.225 134.226 258.225 132.44C258.225 130.654 259.381 129.508 261.064 129.508C262.684 129.508 263.83 130.633 263.83 132.306C263.83 132.502 263.82 132.688 263.789 132.884H259.443C259.526 133.823 260.197 134.391 261.064 134.391C261.786 134.391 262.189 134.04 262.406 133.596H263.676ZM269.231 133.699C269.231 134.659 268.395 135.382 267.053 135.382C265.69 135.382 264.73 134.577 264.679 133.545H265.897C265.938 134.009 266.382 134.391 267.032 134.391C267.714 134.391 268.075 134.102 268.075 133.71C268.075 132.595 264.772 133.235 264.772 131.15C264.772 130.241 265.618 129.508 266.96 129.508C268.251 129.508 269.097 130.2 269.159 131.335H267.982C267.941 130.84 267.559 130.499 266.919 130.499C266.289 130.499 265.959 130.757 265.959 131.139C265.959 132.285 269.169 131.645 269.231 133.699Z" fill="black"/>
<path fill-rule="evenodd" clip-rule="evenodd" d="M190.157 153.525C196.672 153.525 201.955 158.807 201.955 165.323V183.921C201.955 190.436 196.672 195.718 190.157 195.718H110.924L116.773 212.927L82.6438 195.718H69.912C63.3962 195.718 58.1141 190.436 58.1141 183.921V165.323C58.1141 158.807 63.3962 153.525 69.912 153.525H190.157Z" fill="#5A558F"/>
<path d="M110.924 195.718L110.226 195.956L109.895 194.981H110.924V195.718ZM116.773 212.927L117.472 212.689L118.052 214.397L116.442 213.585L116.773 212.927ZM82.6438 195.718V194.981H82.8192L82.9758 195.06L82.6438 195.718ZM201.217 165.323C201.217 159.215 196.265 154.263 190.157 154.263V152.788C197.08 152.788 202.692 158.4 202.692 165.323H201.217ZM201.217 183.921V165.323H202.692V183.921H201.217ZM190.157 194.981C196.265 194.981 201.217 190.029 201.217 183.921H202.692C202.692 190.844 197.08 196.456 190.157 196.456V194.981ZM110.924 194.981H190.157V196.456H110.924V194.981ZM111.622 195.481L117.472 212.689L116.075 213.164L110.226 195.956L111.622 195.481ZM116.442 213.585L82.3118 196.377L82.9758 195.06L117.105 212.268L116.442 213.585ZM69.912 194.981H82.6438V196.456H69.912V194.981ZM58.8514 183.921C58.8514 190.029 63.8034 194.981 69.912 194.981V196.456C62.9889 196.456 57.3767 190.844 57.3767 183.921H58.8514ZM58.8514 165.323V183.921H57.3767V165.323H58.8514ZM69.912 154.263C63.8034 154.263 58.8514 159.215 58.8514 165.323H57.3767C57.3767 158.4 62.989 152.788 69.912 152.788V154.263ZM190.157 154.263H69.912V152.788H190.157V154.263Z" fill="black"/>
<path d="M76.7304 164.279V165.239H73.9431V167.345H76.4207V168.305H73.9431V170.504H76.7304V171.464H72.7663V164.279H76.7304ZM82.2163 171.464V168.285C82.2163 167.242 81.6485 166.705 80.7917 166.705C79.9245 166.705 79.3568 167.242 79.3568 168.285V171.464H78.1799V165.776H79.3568V166.427C79.7387 165.962 80.3684 165.683 81.0498 165.683C82.3815 165.683 83.3828 166.519 83.3828 168.109V171.464H82.2163ZM84.4917 168.615C84.4917 166.839 85.6479 165.683 87.2789 165.683C88.6726 165.683 89.581 166.375 89.901 167.572H88.6313C88.4351 167.025 87.9809 166.674 87.2789 166.674C86.3292 166.674 85.6995 167.376 85.6995 168.615C85.6995 169.864 86.3292 170.566 87.2789 170.566C87.9809 170.566 88.4145 170.256 88.6313 169.668H89.901C89.581 170.783 88.6726 171.557 87.2789 171.557C85.6479 171.557 84.4917 170.401 84.4917 168.615ZM96.4935 168.615C96.4935 170.401 95.1722 171.557 93.5411 171.557C91.9203 171.557 90.6919 170.401 90.6919 168.615C90.6919 166.829 91.972 165.683 93.5927 165.683C95.2134 165.683 96.4935 166.829 96.4935 168.615ZM91.8894 168.615C91.8894 169.905 92.6533 170.535 93.5411 170.535C94.4186 170.535 95.2857 169.905 95.2857 168.615C95.2857 167.325 94.4495 166.705 93.5721 166.705C92.6843 166.705 91.8894 167.325 91.8894 168.615ZM101.693 171.464V168.285C101.693 167.242 101.125 166.705 100.269 166.705C99.4015 166.705 98.8337 167.242 98.8337 168.285V171.464H97.6569V165.776H98.8337V166.427C99.2157 165.962 99.8454 165.683 100.527 165.683C101.858 165.683 102.86 166.519 102.86 168.109V171.464H101.693ZM104.547 169.885V166.736H103.876V165.776H104.547V164.362H105.734V165.776H107.117V166.736H105.734V169.885C105.734 170.308 105.899 170.484 106.395 170.484H107.117V171.464H106.188C105.176 171.464 104.547 171.041 104.547 169.885ZM109.379 168.471V171.464H108.202V165.776H109.379V166.602C109.709 166.034 110.277 165.683 111.082 165.683V166.901H110.783C109.916 166.901 109.379 167.263 109.379 168.471ZM117.584 168.615C117.584 170.401 116.262 171.557 114.631 171.557C113.01 171.557 111.782 170.401 111.782 168.615C111.782 166.829 113.062 165.683 114.683 165.683C116.303 165.683 117.584 166.829 117.584 168.615ZM112.979 168.615C112.979 169.905 113.743 170.535 114.631 170.535C115.509 170.535 116.376 169.905 116.376 168.615C116.376 167.325 115.54 166.705 114.662 166.705C113.774 166.705 112.979 167.325 112.979 168.615ZM122.99 169.874C122.99 170.835 122.154 171.557 120.812 171.557C119.449 171.557 118.489 170.752 118.437 169.72H119.655C119.697 170.184 120.141 170.566 120.791 170.566C121.472 170.566 121.834 170.277 121.834 169.885C121.834 168.77 118.53 169.41 118.53 167.325C118.53 166.416 119.377 165.683 120.719 165.683C122.009 165.683 122.856 166.375 122.917 167.51H121.741C121.699 167.015 121.317 166.674 120.677 166.674C120.048 166.674 119.717 166.932 119.717 167.314C119.717 168.46 122.928 167.82 122.99 169.874ZM128.12 166.612C128.481 166.137 129.173 165.683 130.102 165.683C131.599 165.683 132.776 166.839 132.776 168.594C132.776 170.349 131.599 171.557 130.102 171.557C129.162 171.557 128.491 171.082 128.12 170.638V174.169H126.943V165.776H128.12V166.612ZM131.578 168.594C131.578 167.366 130.732 166.705 129.844 166.705C128.966 166.705 128.12 167.397 128.12 168.615C128.12 169.843 128.966 170.535 129.844 170.535C130.732 170.535 131.578 169.823 131.578 168.594ZM135.116 168.471V171.464H133.939V165.776H135.116V166.602C135.447 166.034 136.014 165.683 136.82 165.683V166.901H136.52C135.653 166.901 135.116 167.263 135.116 168.471ZM140.296 166.674C139.501 166.674 138.861 167.211 138.737 168.109H141.886C141.865 167.232 141.174 166.674 140.296 166.674ZM142.96 169.771C142.64 170.762 141.742 171.557 140.348 171.557C138.717 171.557 137.509 170.401 137.509 168.615C137.509 166.829 138.665 165.683 140.348 165.683C141.969 165.683 143.114 166.808 143.114 168.481C143.114 168.677 143.104 168.863 143.073 169.059H138.727C138.81 169.998 139.481 170.566 140.348 170.566C141.07 170.566 141.473 170.215 141.69 169.771H142.96ZM148.515 169.874C148.515 170.835 147.679 171.557 146.337 171.557C144.975 171.557 144.015 170.752 143.963 169.72H145.181C145.222 170.184 145.666 170.566 146.317 170.566C146.998 170.566 147.359 170.277 147.359 169.885C147.359 168.77 144.056 169.41 144.056 167.325C144.056 166.416 144.902 165.683 146.244 165.683C147.535 165.683 148.381 166.375 148.443 167.51H147.266C147.225 167.015 146.843 166.674 146.203 166.674C145.573 166.674 145.243 166.932 145.243 167.314C145.243 168.46 148.454 167.82 148.515 169.874ZM152.182 166.674C151.387 166.674 150.747 167.211 150.623 168.109H153.772C153.751 167.232 153.06 166.674 152.182 166.674ZM154.845 169.771C154.525 170.762 153.627 171.557 152.234 171.557C150.603 171.557 149.395 170.401 149.395 168.615C149.395 166.829 150.551 165.683 152.234 165.683C153.854 165.683 155 166.808 155 168.481C155 168.677 154.99 168.863 154.959 169.059H150.613C150.696 169.998 151.367 170.566 152.234 170.566C152.956 170.566 153.359 170.215 153.576 169.771H154.845ZM160.195 171.464V168.285C160.195 167.242 159.627 166.705 158.77 166.705C157.903 166.705 157.335 167.242 157.335 168.285V171.464H156.158V165.776H157.335V166.427C157.717 165.962 158.347 165.683 159.028 165.683C160.36 165.683 161.361 166.519 161.361 168.109V171.464H160.195ZM162.47 168.615C162.47 166.839 163.626 165.683 165.257 165.683C166.651 165.683 167.56 166.375 167.88 167.572H166.61C166.414 167.025 165.959 166.674 165.257 166.674C164.308 166.674 163.678 167.376 163.678 168.615C163.678 169.864 164.308 170.566 165.257 170.566C165.959 170.566 166.393 170.256 166.61 169.668H167.88C167.56 170.783 166.651 171.557 165.257 171.557C163.626 171.557 162.47 170.401 162.47 168.615ZM169.052 171.464V165.776H170.229V171.464H169.052ZM169.651 165.023C169.228 165.023 168.897 164.692 168.897 164.269C168.897 163.846 169.228 163.515 169.651 163.515C170.064 163.515 170.394 163.846 170.394 164.269C170.394 164.692 170.064 165.023 169.651 165.023ZM171.382 168.594C171.382 166.839 172.569 165.683 174.066 165.683C175.026 165.683 175.687 166.137 176.038 166.602V165.776H177.225V171.464H176.038V170.618C175.676 171.103 174.995 171.557 174.045 171.557C172.569 171.557 171.382 170.349 171.382 168.594ZM176.038 168.615C176.038 167.397 175.202 166.705 174.314 166.705C173.436 166.705 172.59 167.366 172.59 168.594C172.59 169.823 173.436 170.535 174.314 170.535C175.202 170.535 176.038 169.843 176.038 168.615ZM178.771 171.464V165.776H179.948V171.464H178.771ZM179.369 165.023C178.946 165.023 178.616 164.692 178.616 164.269C178.616 163.846 178.946 163.515 179.369 163.515C179.782 163.515 180.113 163.846 180.113 164.269C180.113 164.692 179.782 165.023 179.369 165.023ZM185.735 169.874C185.735 170.835 184.899 171.557 183.557 171.557C182.195 171.557 181.235 170.752 181.183 169.72H182.401C182.442 170.184 182.886 170.566 183.537 170.566C184.218 170.566 184.579 170.277 184.579 169.885C184.579 168.77 181.276 169.41 181.276 167.325C181.276 166.416 182.122 165.683 183.464 165.683C184.755 165.683 185.601 166.375 185.663 167.51H184.486C184.445 167.015 184.063 166.674 183.423 166.674C182.793 166.674 182.463 166.932 182.463 167.314C182.463 168.46 185.674 167.82 185.735 169.874ZM78.186 183.615C78.186 185.401 76.8646 186.557 75.2335 186.557C73.6128 186.557 72.3843 185.401 72.3843 183.615C72.3843 181.829 73.6644 180.683 75.2851 180.683C76.9059 180.683 78.186 181.829 78.186 183.615ZM73.5818 183.615C73.5818 184.905 74.3457 185.535 75.2335 185.535C76.111 185.535 76.9782 184.905 76.9782 183.615C76.9782 182.325 76.142 181.705 75.2645 181.705C74.3767 181.705 73.5818 182.325 73.5818 183.615ZM84.5006 180.776V186.464H83.3238V185.783C82.9521 186.268 82.3121 186.547 81.6411 186.547C80.3094 186.547 79.2977 185.711 79.2977 184.121V180.776H80.4642V183.945C80.4642 184.988 81.032 185.525 81.8889 185.525C82.756 185.525 83.3238 184.988 83.3238 183.945V180.776H84.5006ZM88.064 180.776H89.3234L90.9338 185.411L92.5443 180.776H93.7934L91.6255 186.464H90.2215L88.064 180.776ZM94.6829 186.464V180.776H95.8598V186.464H94.6829ZM95.2817 180.023C94.8584 180.023 94.5281 179.692 94.5281 179.269C94.5281 178.846 94.8584 178.515 95.2817 178.515C95.6946 178.515 96.0249 178.846 96.0249 179.269C96.0249 179.692 95.6946 180.023 95.2817 180.023ZM98.5817 183.471V186.464H97.4049V180.776H98.5817V181.602C98.9121 181.034 99.4798 180.683 100.285 180.683V181.901H99.9857C99.1185 181.901 98.5817 182.263 98.5817 183.471ZM101.553 184.885V181.736H100.882V180.776H101.553V179.362H102.74V180.776H104.123V181.736H102.74V184.885C102.74 185.308 102.905 185.484 103.4 185.484H104.123V186.464H103.194C102.182 186.464 101.553 186.041 101.553 184.885ZM110.359 180.776V186.464H109.182V185.783C108.811 186.268 108.171 186.547 107.5 186.547C106.168 186.547 105.156 185.711 105.156 184.121V180.776H106.323V183.945C106.323 184.988 106.89 185.525 107.747 185.525C108.614 185.525 109.182 184.988 109.182 183.945V180.776H110.359ZM111.52 183.594C111.52 181.839 112.707 180.683 114.204 180.683C115.164 180.683 115.824 181.137 116.175 181.602V180.776H117.362V186.464H116.175V185.618C115.814 186.103 115.133 186.557 114.183 186.557C112.707 186.557 111.52 185.349 111.52 183.594ZM116.175 183.615C116.175 182.397 115.339 181.705 114.451 181.705C113.574 181.705 112.727 182.366 112.727 183.594C112.727 184.823 113.574 185.535 114.451 185.535C115.339 185.535 116.175 184.843 116.175 183.615ZM118.908 186.464V180.776H120.085V186.464H118.908ZM119.507 180.023C119.084 180.023 118.753 179.692 118.753 179.269C118.753 178.846 119.084 178.515 119.507 178.515C119.92 178.515 120.25 178.846 120.25 179.269C120.25 179.692 119.92 180.023 119.507 180.023ZM125.873 184.874C125.873 185.835 125.037 186.557 123.695 186.557C122.332 186.557 121.372 185.752 121.32 184.72H122.539C122.58 185.184 123.024 185.566 123.674 185.566C124.355 185.566 124.717 185.277 124.717 184.885C124.717 183.77 121.413 184.41 121.413 182.325C121.413 181.416 122.26 180.683 123.602 180.683C124.892 180.683 125.739 181.375 125.801 182.51H124.624C124.583 182.015 124.201 181.674 123.561 181.674C122.931 181.674 122.601 181.932 122.601 182.314C122.601 183.46 125.811 182.82 125.873 184.874Z" fill="white"/>
<path fill-rule="evenodd" clip-rule="evenodd" d="M148.523 244.6C155.038 244.6 160.321 249.882 160.321 256.398V274.995C160.321 281.511 155.038 286.793 148.523 286.793H104.853L110.702 304.001L76.5724 286.793H28.278C21.7622 286.793 16.4801 281.511 16.4801 274.995V256.398C16.4801 249.882 21.7622 244.6 28.2781 244.6H148.523Z" fill="#5A558F"/>
<path d="M104.853 286.793L104.154 287.03L103.823 286.055H104.853V286.793ZM110.702 304.001L111.4 303.764L111.98 305.471L110.37 304.659L110.702 304.001ZM76.5724 286.793V286.055H76.7478L76.9044 286.134L76.5724 286.793ZM159.583 256.398C159.583 250.289 154.631 245.337 148.523 245.337V243.862C155.446 243.862 161.058 249.474 161.058 256.398H159.583ZM159.583 274.995V256.398H161.058V274.995H159.583ZM148.523 286.055C154.631 286.055 159.583 281.103 159.583 274.995H161.058C161.058 281.918 155.446 287.53 148.523 287.53V286.055ZM104.853 286.055H148.523V287.53H104.853V286.055ZM105.551 286.556L111.4 303.764L110.004 304.238L104.154 287.03L105.551 286.556ZM110.37 304.659L76.2404 287.451L76.9044 286.134L111.034 303.343L110.37 304.659ZM28.278 286.055H76.5724V287.53H28.278V286.055ZM17.2175 274.995C17.2175 281.103 22.1695 286.055 28.278 286.055V287.53C21.355 287.53 15.7427 281.918 15.7427 274.995H17.2175ZM17.2175 256.398V274.995H15.7427V256.398H17.2175ZM28.2781 245.337C22.1695 245.337 17.2175 250.289 17.2175 256.398H15.7427C15.7427 249.474 21.355 243.862 28.2781 243.862V245.337ZM148.523 245.337H28.2781V243.862H148.523V245.337Z" fill="black"/>
<path d="M41.895 258.659C41.895 260.817 40.2742 262.334 38.2302 262.334C36.2069 262.334 34.5655 260.817 34.5655 258.659C34.5655 256.512 36.2069 254.994 38.2302 254.994C40.2742 254.994 41.895 256.512 41.895 258.659ZM35.7733 258.659C35.7733 260.28 36.8056 261.312 38.2302 261.312C39.6548 261.312 40.6871 260.28 40.6871 258.659C40.6871 257.038 39.6548 256.027 38.2302 256.027C36.8056 256.027 35.7733 257.038 35.7733 258.659ZM44.2299 257.41C44.5912 256.935 45.2828 256.481 46.2119 256.481C47.7088 256.481 48.8856 257.637 48.8856 259.392C48.8856 261.147 47.7088 262.355 46.2119 262.355C45.2725 262.355 44.6015 261.88 44.2299 261.436V264.967H43.053V256.574H44.2299V257.41ZM47.6881 259.392C47.6881 258.164 46.8416 257.503 45.9538 257.503C45.0764 257.503 44.2299 258.194 44.2299 259.413C44.2299 260.641 45.0764 261.333 45.9538 261.333C46.8416 261.333 47.6881 260.62 47.6881 259.392ZM55.4691 259.413C55.4691 261.199 54.1477 262.355 52.5166 262.355C50.8959 262.355 49.6674 261.199 49.6674 259.413C49.6674 257.627 50.9475 256.481 52.5683 256.481C54.189 256.481 55.4691 257.627 55.4691 259.413ZM50.8649 259.413C50.8649 260.703 51.6289 261.333 52.5166 261.333C53.3941 261.333 54.2613 260.703 54.2613 259.413C54.2613 258.122 53.4251 257.503 52.5476 257.503C51.6598 257.503 50.8649 258.122 50.8649 259.413ZM57.8093 259.268V262.262H56.6325V256.574H57.8093V257.4C58.1396 256.832 58.7074 256.481 59.5126 256.481V257.699H59.2133C58.3461 257.699 57.8093 258.06 57.8093 259.268ZM60.7802 260.682V257.534H60.1092V256.574H60.7802V255.159H61.9674V256.574H63.3507V257.534H61.9674V260.682C61.9674 261.106 62.1326 261.281 62.6281 261.281H63.3507V262.262H62.4216C61.4099 262.262 60.7802 261.839 60.7802 260.682ZM69.5866 256.574V262.262H68.4098V261.581C68.0381 262.066 67.3981 262.344 66.7271 262.344C65.3954 262.344 64.3837 261.508 64.3837 259.918V256.574H65.5503V259.743C65.5503 260.786 66.118 261.322 66.9749 261.322C67.842 261.322 68.4098 260.786 68.4098 259.743V256.574H69.5866ZM75.1758 262.262V259.082C75.1758 258.04 74.608 257.503 73.7512 257.503C72.884 257.503 72.3162 258.04 72.3162 259.082V262.262H71.1394V256.574H72.3162V257.224C72.6982 256.76 73.3279 256.481 74.0092 256.481C75.3409 256.481 76.3423 257.317 76.3423 258.907V262.262H75.1758ZM77.8434 262.262V256.574H79.0203V262.262H77.8434ZM78.4422 255.82C78.0189 255.82 77.6886 255.49 77.6886 255.067C77.6886 254.643 78.0189 254.313 78.4422 254.313C78.8551 254.313 79.1854 254.643 79.1854 255.067C79.1854 255.49 78.8551 255.82 78.4422 255.82ZM80.1731 259.392C80.1731 257.637 81.3602 256.481 82.8674 256.481C83.6107 256.481 84.3953 256.832 84.8288 257.369V254.623H86.016V262.262H84.8288V261.405C84.4675 261.921 83.7862 262.355 82.8571 262.355C81.3602 262.355 80.1731 261.147 80.1731 259.392ZM84.8288 259.413C84.8288 258.194 83.9927 257.503 83.1049 257.503C82.2274 257.503 81.3809 258.164 81.3809 259.392C81.3809 260.62 82.2274 261.333 83.1049 261.333C83.9927 261.333 84.8288 260.641 84.8288 259.413ZM87.1695 259.392C87.1695 257.637 88.3566 256.481 89.8535 256.481C90.8136 256.481 91.4742 256.935 91.8252 257.4V256.574H93.0124V262.262H91.8252V261.415C91.4639 261.901 90.7826 262.355 89.8329 262.355C88.3566 262.355 87.1695 261.147 87.1695 259.392ZM91.8252 259.413C91.8252 258.194 90.9891 257.503 90.1013 257.503C89.2238 257.503 88.3773 258.164 88.3773 259.392C88.3773 260.62 89.2238 261.333 90.1013 261.333C90.9891 261.333 91.8252 260.641 91.8252 259.413ZM94.1659 259.392C94.1659 257.637 95.353 256.481 96.8602 256.481C97.6035 256.481 98.388 256.832 98.8216 257.369V254.623H100.009V262.262H98.8216V261.405C98.4603 261.921 97.779 262.355 96.8499 262.355C95.353 262.355 94.1659 261.147 94.1659 259.392ZM98.8216 259.413C98.8216 258.194 97.9854 257.503 97.0976 257.503C96.2202 257.503 95.3737 258.164 95.3737 259.392C95.3737 260.62 96.2202 261.333 97.0976 261.333C97.9854 261.333 98.8216 260.641 98.8216 259.413ZM103.95 257.472C103.155 257.472 102.515 258.009 102.391 258.907H105.539C105.519 258.029 104.827 257.472 103.95 257.472ZM106.613 260.569C106.293 261.56 105.395 262.355 104.001 262.355C102.37 262.355 101.162 261.199 101.162 259.413C101.162 257.627 102.318 256.481 104.001 256.481C105.622 256.481 106.768 257.606 106.768 259.278C106.768 259.475 106.757 259.66 106.726 259.857H102.38C102.463 260.796 103.134 261.364 104.001 261.364C104.724 261.364 105.126 261.013 105.343 260.569H106.613ZM112.169 260.672C112.169 261.632 111.333 262.355 109.991 262.355C108.628 262.355 107.668 261.55 107.616 260.517H108.834C108.876 260.982 109.32 261.364 109.97 261.364C110.651 261.364 111.013 261.075 111.013 260.682C111.013 259.567 107.709 260.208 107.709 258.122C107.709 257.214 108.556 256.481 109.898 256.481C111.188 256.481 112.035 257.173 112.096 258.308H110.92C110.878 257.813 110.496 257.472 109.856 257.472C109.227 257.472 108.896 257.73 108.896 258.112C108.896 259.258 112.107 258.618 112.169 260.672ZM120.158 262.262V259.082C120.158 258.04 119.591 257.503 118.734 257.503C117.867 257.503 117.299 258.04 117.299 259.082V262.262H116.122V256.574H117.299V257.224C117.681 256.76 118.31 256.481 118.992 256.481C120.323 256.481 121.325 257.317 121.325 258.907V262.262H120.158ZM128.246 259.413C128.246 261.199 126.924 262.355 125.293 262.355C123.672 262.355 122.444 261.199 122.444 259.413C122.444 257.627 123.724 256.481 125.345 256.481C126.966 256.481 128.246 257.627 128.246 259.413ZM123.642 259.413C123.642 260.703 124.405 261.333 125.293 261.333C126.171 261.333 127.038 260.703 127.038 259.413C127.038 258.122 126.202 257.503 125.324 257.503C124.436 257.503 123.642 258.122 123.642 259.413ZM43.0202 277.262V274.082C43.0202 273.04 42.4524 272.503 41.5956 272.503C40.7284 272.503 40.1607 273.04 40.1607 274.082V277.262H38.9941V274.082C38.9941 273.04 38.4264 272.503 37.5695 272.503C36.7024 272.503 36.1346 273.04 36.1346 274.082V277.262H34.9578V271.574H36.1346V272.224C36.5166 271.76 37.136 271.481 37.8173 271.481C38.7154 271.481 39.469 271.863 39.8613 272.606C40.2123 271.914 41.0175 271.481 41.8433 271.481C43.175 271.481 44.1867 272.317 44.1867 273.907V277.262H43.0202ZM48.0792 272.472C47.2843 272.472 46.6443 273.009 46.5204 273.907H49.669C49.6483 273.029 48.9567 272.472 48.0792 272.472ZM50.7426 275.569C50.4226 276.56 49.5244 277.355 48.1308 277.355C46.4997 277.355 45.2919 276.199 45.2919 274.413C45.2919 272.627 46.4481 271.481 48.1308 271.481C49.7516 271.481 50.8974 272.606 50.8974 274.278C50.8974 274.475 50.8871 274.66 50.8561 274.857H46.5101C46.5927 275.796 47.2637 276.364 48.1308 276.364C48.8534 276.364 49.256 276.013 49.4728 275.569H50.7426ZM53.2324 274.268V277.262H52.0556V271.574H53.2324V272.4C53.5628 271.832 54.1305 271.481 54.9357 271.481V272.699H54.6364C53.7692 272.699 53.2324 273.06 53.2324 274.268ZM55.6252 274.413C55.6252 272.637 56.7814 271.481 58.4125 271.481C59.8061 271.481 60.7146 272.173 61.0346 273.37H59.7648C59.5687 272.823 59.1145 272.472 58.4125 272.472C57.4628 272.472 56.833 273.174 56.833 274.413C56.833 275.662 57.4628 276.364 58.4125 276.364C59.1145 276.364 59.548 276.054 59.7648 275.466H61.0346C60.7146 276.581 59.8061 277.355 58.4125 277.355C56.7814 277.355 55.6252 276.199 55.6252 274.413ZM61.8151 274.392C61.8151 272.637 63.0023 271.481 64.4991 271.481C65.4592 271.481 66.1199 271.935 66.4709 272.4V271.574H67.658V277.262H66.4709V276.415C66.1096 276.901 65.4282 277.355 64.4785 277.355C63.0023 277.355 61.8151 276.147 61.8151 274.392ZM66.4709 274.413C66.4709 273.194 65.6347 272.503 64.7469 272.503C63.8694 272.503 63.0229 273.164 63.0229 274.392C63.0229 275.62 63.8694 276.333 64.7469 276.333C65.6347 276.333 66.4709 275.641 66.4709 274.413ZM68.8115 274.392C68.8115 272.637 69.9987 271.481 71.5059 271.481C72.2491 271.481 73.0337 271.832 73.4673 272.369V269.623H74.6544V277.262H73.4673V276.405C73.106 276.921 72.4246 277.355 71.4955 277.355C69.9987 277.355 68.8115 276.147 68.8115 274.392ZM73.4673 274.413C73.4673 273.194 72.6311 272.503 71.7433 272.503C70.8658 272.503 70.0193 273.164 70.0193 274.392C70.0193 275.62 70.8658 276.333 71.7433 276.333C72.6311 276.333 73.4673 275.641 73.4673 274.413ZM81.6199 274.413C81.6199 276.199 80.2985 277.355 78.6674 277.355C77.0467 277.355 75.8182 276.199 75.8182 274.413C75.8182 272.627 77.0983 271.481 78.719 271.481C80.3398 271.481 81.6199 272.627 81.6199 274.413ZM77.0157 274.413C77.0157 275.703 77.7796 276.333 78.6674 276.333C79.5449 276.333 80.412 275.703 80.412 274.413C80.412 273.122 79.5759 272.503 78.6984 272.503C77.8106 272.503 77.0157 273.122 77.0157 274.413ZM85.0726 274.392C85.0726 272.637 86.2597 271.481 87.7669 271.481C88.5102 271.481 89.2948 271.832 89.7283 272.369V269.623H90.9155V277.262H89.7283V276.405C89.367 276.921 88.6857 277.355 87.7566 277.355C86.2597 277.355 85.0726 276.147 85.0726 274.392ZM89.7283 274.413C89.7283 273.194 88.8922 272.503 88.0044 272.503C87.1269 272.503 86.2804 273.164 86.2804 274.392C86.2804 275.62 87.1269 276.333 88.0044 276.333C88.8922 276.333 89.7283 275.641 89.7283 274.413ZM94.8562 272.472C94.0613 272.472 93.4213 273.009 93.2974 273.907H96.446C96.4253 273.029 95.7337 272.472 94.8562 272.472ZM97.5196 275.569C97.1996 276.56 96.3015 277.355 94.9078 277.355C93.2768 277.355 92.069 276.199 92.069 274.413C92.069 272.627 93.2252 271.481 94.9078 271.481C96.5286 271.481 97.6745 272.606 97.6745 274.278C97.6745 274.475 97.6641 274.66 97.6332 274.857H93.2871C93.3697 275.796 94.0407 276.364 94.9078 276.364C95.6305 276.364 96.0331 276.013 96.2499 275.569H97.5196ZM101.7 275.682V272.534H101.029V271.574H101.7V270.159H102.887V271.574H104.27V272.534H102.887V275.682C102.887 276.106 103.052 276.281 103.548 276.281H104.27V277.262H103.341C102.33 277.262 101.7 276.839 101.7 275.682ZM106.532 274.268V277.262H105.355V271.574H106.532V272.4C106.862 271.832 107.43 271.481 108.235 271.481V272.699H107.936C107.069 272.699 106.532 273.06 106.532 274.268ZM108.925 274.392C108.925 272.637 110.112 271.481 111.609 271.481C112.569 271.481 113.23 271.935 113.581 272.4V271.574H114.768V277.262H113.581V276.415C113.219 276.901 112.538 277.355 111.588 277.355C110.112 277.355 108.925 276.147 108.925 274.392ZM113.581 274.413C113.581 273.194 112.744 272.503 111.857 272.503C110.979 272.503 110.133 273.164 110.133 274.392C110.133 275.62 110.979 276.333 111.857 276.333C112.744 276.333 113.581 275.641 113.581 274.413ZM117.49 272.42C117.862 271.904 118.574 271.481 119.472 271.481C120.98 271.481 122.146 272.637 122.146 274.392C122.146 276.147 120.969 277.355 119.472 277.355C118.533 277.355 117.862 276.931 117.49 276.436V277.262H116.313V269.623H117.49V272.42ZM120.949 274.392C120.949 273.164 120.102 272.503 119.214 272.503C118.337 272.503 117.49 273.194 117.49 274.413C117.49 275.641 118.337 276.333 119.214 276.333C120.102 276.333 120.949 275.62 120.949 274.392ZM122.918 274.392C122.918 272.637 124.105 271.481 125.602 271.481C126.562 271.481 127.222 271.935 127.573 272.4V271.574H128.761V277.262H127.573V276.415C127.212 276.901 126.531 277.355 125.581 277.355C124.105 277.355 122.918 276.147 122.918 274.392ZM127.573 274.413C127.573 273.194 126.737 272.503 125.849 272.503C124.972 272.503 124.125 273.164 124.125 274.392C124.125 275.62 124.972 276.333 125.849 276.333C126.737 276.333 127.573 275.641 127.573 274.413ZM130.306 277.262V269.623H131.483V277.262H130.306ZM133.028 277.262V269.623H134.205V272.234C134.597 271.76 135.237 271.481 135.97 271.481C137.24 271.481 138.231 272.317 138.231 273.907V277.262H137.065V274.082C137.065 273.04 136.497 272.503 135.64 272.503C134.773 272.503 134.205 273.04 134.205 274.082V277.262H133.028ZM145.152 274.413C145.152 276.199 143.831 277.355 142.199 277.355C140.579 277.355 139.35 276.199 139.35 274.413C139.35 272.627 140.63 271.481 142.251 271.481C143.872 271.481 145.152 272.627 145.152 274.413ZM140.548 274.413C140.548 275.703 141.312 276.333 142.199 276.333C143.077 276.333 143.944 275.703 143.944 274.413C143.944 273.122 143.108 272.503 142.23 272.503C141.343 272.503 140.548 273.122 140.548 274.413Z" fill="white"/>
<path fill-rule="evenodd" clip-rule="evenodd" d="M145.374 203.833C138.858 203.833 133.576 209.115 133.576 215.631V251.016C133.576 257.532 138.858 262.814 145.374 262.814H211.831L206.435 278.69L237.922 262.814H252.751C259.267 262.814 264.549 257.532 264.549 251.016V215.631C264.549 209.115 259.267 203.833 252.751 203.833H145.374Z" fill="#E7E7FF"/>
<path d="M211.831 262.814L212.529 263.052L212.861 262.077H211.831V262.814ZM206.435 278.69L205.737 278.453L205.156 280.161L206.767 279.348L206.435 278.69ZM237.922 262.814V262.077H237.746L237.59 262.156L237.922 262.814ZM134.313 215.631C134.313 209.522 139.265 204.57 145.374 204.57V203.096C138.45 203.096 132.838 208.708 132.838 215.631H134.313ZM134.313 251.016V215.631H132.838V251.016H134.313ZM145.374 262.077C139.265 262.077 134.313 257.125 134.313 251.016H132.838C132.838 257.939 138.45 263.552 145.374 263.552V262.077ZM211.831 262.077H145.374V263.552H211.831V262.077ZM211.133 262.577L205.737 278.453L207.133 278.927L212.529 263.052L211.133 262.577ZM206.767 279.348L238.254 263.473L237.59 262.156L206.103 278.032L206.767 279.348ZM252.751 262.077H237.922V263.552H252.751V262.077ZM263.812 251.016C263.812 257.125 258.86 262.077 252.751 262.077V263.552C259.674 263.552 265.286 257.939 265.286 251.016H263.812ZM263.812 215.631V251.016H265.286V215.631H263.812ZM252.751 204.57C258.86 204.57 263.812 209.522 263.812 215.631H265.286C265.286 208.708 259.674 203.096 252.751 203.096V204.57ZM145.374 204.57H252.751V203.096H145.374V204.57Z" fill="black"/>
<path d="M153.069 220.904L152.553 219.438H149.549L149.033 220.904H147.805L150.375 213.719H151.738L154.308 220.904H153.069ZM152.223 218.478L151.056 215.144L149.88 218.478H152.223ZM155.612 219.325V216.176H154.941V215.216H155.612V213.802H156.799V215.216H158.182V216.176H156.799V219.325C156.799 219.748 156.964 219.924 157.46 219.924H158.182V220.904H157.253C156.241 220.904 155.612 220.481 155.612 219.325ZM159.267 220.904V215.216H160.444V220.904H159.267ZM159.866 214.463C159.442 214.463 159.112 214.132 159.112 213.709C159.112 213.286 159.442 212.955 159.866 212.955C160.278 212.955 160.609 213.286 160.609 213.709C160.609 214.132 160.278 214.463 159.866 214.463ZM161.318 215.216H162.577L164.188 219.851L165.798 215.216H167.047L164.879 220.904H163.475L161.318 215.216ZM167.937 220.904V215.216H169.114V220.904H167.937ZM168.535 214.463C168.112 214.463 167.782 214.132 167.782 213.709C167.782 213.286 168.112 212.955 168.535 212.955C168.948 212.955 169.279 213.286 169.279 213.709C169.279 214.132 168.948 214.463 168.535 214.463ZM170.266 218.035C170.266 216.28 171.454 215.123 172.961 215.123C173.704 215.123 174.489 215.474 174.922 216.011V213.265H176.109V220.904H174.922V220.048C174.561 220.564 173.879 220.997 172.95 220.997C171.454 220.997 170.266 219.789 170.266 218.035ZM174.922 218.055C174.922 216.837 174.086 216.145 173.198 216.145C172.321 216.145 171.474 216.806 171.474 218.035C171.474 219.263 172.321 219.975 173.198 219.975C174.086 219.975 174.922 219.284 174.922 218.055ZM177.263 218.035C177.263 216.28 178.45 215.123 179.947 215.123C180.907 215.123 181.568 215.578 181.919 216.042V215.216H183.106V220.904H181.919V220.058C181.557 220.543 180.876 220.997 179.926 220.997C178.45 220.997 177.263 219.789 177.263 218.035ZM181.919 218.055C181.919 216.837 181.082 216.145 180.195 216.145C179.317 216.145 178.471 216.806 178.471 218.035C178.471 219.263 179.317 219.975 180.195 219.975C181.082 219.975 181.919 219.284 181.919 218.055ZM184.259 218.035C184.259 216.28 185.446 215.123 186.953 215.123C187.697 215.123 188.481 215.474 188.915 216.011V213.265H190.102V220.904H188.915V220.048C188.554 220.564 187.872 220.997 186.943 220.997C185.446 220.997 184.259 219.789 184.259 218.035ZM188.915 218.055C188.915 216.837 188.079 216.145 187.191 216.145C186.313 216.145 185.467 216.806 185.467 218.035C185.467 219.263 186.313 219.975 187.191 219.975C188.079 219.975 188.915 219.284 188.915 218.055ZM194.043 216.114C193.248 216.114 192.608 216.651 192.484 217.549H195.633C195.612 216.672 194.92 216.114 194.043 216.114ZM196.706 219.211C196.386 220.202 195.488 220.997 194.094 220.997C192.463 220.997 191.256 219.841 191.256 218.055C191.256 216.269 192.412 215.123 194.094 215.123C195.715 215.123 196.861 216.249 196.861 217.921C196.861 218.117 196.851 218.303 196.82 218.499H192.474C192.556 219.438 193.227 220.006 194.094 220.006C194.817 220.006 195.22 219.655 195.436 219.211H196.706ZM202.262 219.315C202.262 220.275 201.426 220.997 200.084 220.997C198.721 220.997 197.761 220.192 197.709 219.16H198.928C198.969 219.624 199.413 220.006 200.063 220.006C200.744 220.006 201.106 219.717 201.106 219.325C201.106 218.21 197.802 218.85 197.802 216.765C197.802 215.856 198.649 215.123 199.991 215.123C201.281 215.123 202.128 215.815 202.19 216.951H201.013C200.972 216.455 200.59 216.114 199.95 216.114C199.32 216.114 198.99 216.372 198.99 216.754C198.99 217.9 202.2 217.26 202.262 219.315ZM148.228 235.904V230.216H149.405V235.904H148.228ZM148.827 229.463C148.403 229.463 148.073 229.132 148.073 228.709C148.073 228.286 148.403 227.955 148.827 227.955C149.24 227.955 149.57 228.286 149.57 228.709C149.57 229.132 149.24 229.463 148.827 229.463ZM154.986 235.904V232.725C154.986 231.682 154.418 231.145 153.562 231.145C152.694 231.145 152.127 231.682 152.127 232.725V235.904H150.95V230.216H152.127V230.867C152.509 230.402 153.138 230.123 153.82 230.123C155.151 230.123 156.153 230.96 156.153 232.549V235.904H154.986ZM157.84 234.325V231.176H157.169V230.216H157.84V228.802H159.027V230.216H160.41V231.176H159.027V234.325C159.027 234.748 159.192 234.924 159.687 234.924H160.41V235.904H159.481C158.469 235.904 157.84 235.481 157.84 234.325ZM163.89 231.114C163.095 231.114 162.455 231.651 162.331 232.549H165.48C165.459 231.672 164.767 231.114 163.89 231.114ZM166.553 234.211C166.233 235.202 165.335 235.997 163.941 235.997C162.31 235.997 161.102 234.841 161.102 233.055C161.102 231.269 162.259 230.123 163.941 230.123C165.562 230.123 166.708 231.249 166.708 232.921C166.708 233.117 166.698 233.303 166.667 233.499H162.321C162.403 234.438 163.074 235.006 163.941 235.006C164.664 235.006 165.067 234.655 165.283 234.211H166.553ZM167.474 233.035C167.474 231.28 168.661 230.123 170.158 230.123C171.087 230.123 171.779 230.557 172.13 231.042V230.216H173.317V235.997C173.317 237.546 172.315 238.712 170.54 238.712C169.022 238.712 167.897 237.959 167.753 236.699H168.919C169.095 237.288 169.724 237.69 170.54 237.69C171.448 237.69 172.13 237.133 172.13 235.997V235.048C171.768 235.533 171.087 235.997 170.158 235.997C168.661 235.997 167.474 234.789 167.474 233.035ZM172.13 233.055C172.13 231.837 171.293 231.145 170.406 231.145C169.528 231.145 168.682 231.806 168.682 233.035C168.682 234.263 169.528 234.975 170.406 234.975C171.293 234.975 172.13 234.284 172.13 233.055ZM176.039 232.911V235.904H174.863V230.216H176.039V231.042C176.37 230.474 176.937 230.123 177.743 230.123V231.342H177.443C176.576 231.342 176.039 231.703 176.039 232.911ZM178.432 233.035C178.432 231.28 179.619 230.123 181.116 230.123C182.076 230.123 182.737 230.578 183.088 231.042V230.216H184.275V235.904H183.088V235.058C182.727 235.543 182.045 235.997 181.096 235.997C179.619 235.997 178.432 234.789 178.432 233.035ZM183.088 233.055C183.088 231.837 182.252 231.145 181.364 231.145C180.486 231.145 179.64 231.806 179.64 233.035C179.64 234.263 180.486 234.975 181.364 234.975C182.252 234.975 183.088 234.284 183.088 233.055ZM193.883 235.904V232.725C193.883 231.682 193.315 231.145 192.459 231.145C191.592 231.145 191.024 231.682 191.024 232.725V235.904H189.857V232.725C189.857 231.682 189.289 231.145 188.433 231.145C187.565 231.145 186.998 231.682 186.998 232.725V235.904H185.821V230.216H186.998V230.867C187.38 230.402 187.999 230.123 188.68 230.123C189.578 230.123 190.332 230.505 190.724 231.249C191.075 230.557 191.881 230.123 192.706 230.123C194.038 230.123 195.05 230.96 195.05 232.549V235.904H193.883ZM199.415 234.325V231.176H198.744V230.216H199.415V228.802H200.602V230.216H201.985V231.176H200.602V234.325C200.602 234.748 200.767 234.924 201.263 234.924H201.985V235.904H201.056C200.044 235.904 199.415 235.481 199.415 234.325ZM205.465 231.114C204.67 231.114 204.03 231.651 203.906 232.549H207.055C207.034 231.672 206.342 231.114 205.465 231.114ZM208.128 234.211C207.808 235.202 206.91 235.997 205.516 235.997C203.885 235.997 202.678 234.841 202.678 233.055C202.678 231.269 203.834 230.123 205.516 230.123C207.137 230.123 208.283 231.249 208.283 232.921C208.283 233.117 208.273 233.303 208.242 233.499H203.896C203.978 234.438 204.649 235.006 205.516 235.006C206.239 235.006 206.642 234.655 206.858 234.211H208.128ZM214.861 233.055C214.861 234.841 213.54 235.997 211.908 235.997C210.288 235.997 209.059 234.841 209.059 233.055C209.059 231.269 210.339 230.123 211.96 230.123C213.581 230.123 214.861 231.269 214.861 233.055ZM210.257 233.055C210.257 234.346 211.021 234.975 211.908 234.975C212.786 234.975 213.653 234.346 213.653 233.055C213.653 231.765 212.817 231.145 211.939 231.145C211.052 231.145 210.257 231.765 210.257 233.055ZM217.201 232.911V235.904H216.024V230.216H217.201V231.042C217.531 230.474 218.099 230.123 218.904 230.123V231.342H218.605C217.738 231.342 217.201 231.703 217.201 232.911ZM219.986 235.904V230.216H221.163V235.904H219.986ZM220.585 229.463C220.162 229.463 219.831 229.132 219.831 228.709C219.831 228.286 220.162 227.955 220.585 227.955C220.998 227.955 221.328 228.286 221.328 228.709C221.328 229.132 220.998 229.463 220.585 229.463ZM222.316 233.035C222.316 231.28 223.503 230.123 225 230.123C225.96 230.123 226.621 230.578 226.972 231.042V230.216H228.159V235.904H226.972V235.058C226.61 235.543 225.929 235.997 224.979 235.997C223.503 235.997 222.316 234.789 222.316 233.035ZM226.972 233.055C226.972 231.837 226.135 231.145 225.248 231.145C224.37 231.145 223.524 231.806 223.524 233.035C223.524 234.263 224.37 234.975 225.248 234.975C226.135 234.975 226.972 234.284 226.972 233.055ZM234.781 231.114C233.986 231.114 233.346 231.651 233.222 232.549H236.371C236.35 231.672 235.659 231.114 234.781 231.114ZM237.445 234.211C237.125 235.202 236.226 235.997 234.833 235.997C233.202 235.997 231.994 234.841 231.994 233.055C231.994 231.269 233.15 230.123 234.833 230.123C236.453 230.123 237.599 231.249 237.599 232.921C237.599 233.117 237.589 233.303 237.558 233.499H233.212C233.295 234.438 233.966 235.006 234.833 235.006C235.555 235.006 235.958 234.655 236.175 234.211H237.445ZM149.405 246.052C149.766 245.578 150.458 245.123 151.387 245.123C152.884 245.123 154.06 246.28 154.06 248.035C154.06 249.789 152.884 250.997 151.387 250.997C150.447 250.997 149.776 250.522 149.405 250.079V253.609H148.228V245.216H149.405V246.052ZM152.863 248.035C152.863 246.806 152.016 246.145 151.129 246.145C150.251 246.145 149.405 246.837 149.405 248.055C149.405 249.284 150.251 249.975 151.129 249.975C152.016 249.975 152.863 249.263 152.863 248.035ZM156.401 247.911V250.904H155.224V245.216H156.401V246.042C156.731 245.474 157.299 245.123 158.104 245.123V246.342H157.805C156.938 246.342 156.401 246.703 156.401 247.911ZM158.794 248.035C158.794 246.28 159.981 245.123 161.478 245.123C162.438 245.123 163.099 245.578 163.45 246.042V245.216H164.637V250.904H163.45V250.058C163.088 250.543 162.407 250.997 161.457 250.997C159.981 250.997 158.794 249.789 158.794 248.035ZM163.45 248.055C163.45 246.837 162.613 246.145 161.726 246.145C160.848 246.145 160.002 246.806 160.002 248.035C160.002 249.263 160.848 249.975 161.726 249.975C162.613 249.975 163.45 249.284 163.45 248.055ZM160.693 243.947L162.975 242.687V243.688L160.693 244.814V243.947ZM166.368 249.325V246.176H165.697V245.216H166.368V243.802H167.556V245.216H168.939V246.176H167.556V249.325C167.556 249.748 167.721 249.924 168.216 249.924H168.939V250.904H168.01C166.998 250.904 166.368 250.481 166.368 249.325ZM170.024 250.904V245.216H171.2V250.904H170.024ZM170.622 244.463C170.199 244.463 169.869 244.132 169.869 243.709C169.869 243.286 170.199 242.955 170.622 242.955C171.035 242.955 171.366 243.286 171.366 243.709C171.366 244.132 171.035 244.463 170.622 244.463ZM172.353 248.055C172.353 246.28 173.509 245.123 175.14 245.123C176.534 245.123 177.443 245.815 177.763 247.013H176.493C176.297 246.465 175.842 246.114 175.14 246.114C174.191 246.114 173.561 246.816 173.561 248.055C173.561 249.304 174.191 250.006 175.14 250.006C175.842 250.006 176.276 249.697 176.493 249.108H177.763C177.443 250.223 176.534 250.997 175.14 250.997C173.509 250.997 172.353 249.841 172.353 248.055ZM178.543 248.035C178.543 246.28 179.73 245.123 181.227 245.123C182.187 245.123 182.848 245.578 183.199 246.042V245.216H184.386V250.904H183.199V250.058C182.838 250.543 182.156 250.997 181.206 250.997C179.73 250.997 178.543 249.789 178.543 248.035ZM183.199 248.055C183.199 246.837 182.363 246.145 181.475 246.145C180.597 246.145 179.751 246.806 179.751 248.035C179.751 249.263 180.597 249.975 181.475 249.975C182.363 249.975 183.199 249.284 183.199 248.055ZM189.79 246.052C190.152 245.578 190.843 245.123 191.772 245.123C193.269 245.123 194.446 246.28 194.446 248.035C194.446 249.789 193.269 250.997 191.772 250.997C190.833 250.997 190.162 250.522 189.79 250.079V253.609H188.613V245.216H189.79V246.052ZM193.248 248.035C193.248 246.806 192.402 246.145 191.514 246.145C190.637 246.145 189.79 246.837 189.79 248.055C189.79 249.284 190.637 249.975 191.514 249.975C192.402 249.975 193.248 249.263 193.248 248.035ZM196.787 247.911V250.904H195.61V245.216H196.787V246.042C197.117 245.474 197.685 245.123 198.49 245.123V246.342H198.191C197.323 246.342 196.787 246.703 196.787 247.911ZM204.991 248.055C204.991 249.841 203.67 250.997 202.039 250.997C200.418 250.997 199.19 249.841 199.19 248.055C199.19 246.269 200.47 245.123 202.091 245.123C203.711 245.123 204.991 246.269 204.991 248.055ZM200.387 248.055C200.387 249.346 201.151 249.975 202.039 249.975C202.916 249.975 203.784 249.346 203.784 248.055C203.784 246.765 202.947 246.145 202.07 246.145C201.182 246.145 200.387 246.765 200.387 248.055ZM206.299 250.904V246.176H205.628V245.216H206.299V244.814C206.299 243.503 206.97 242.935 208.457 242.935V243.916C207.734 243.916 207.486 244.163 207.486 244.814V245.216H208.539V246.176H207.486V250.904H206.299ZM209.582 250.904V245.216H210.759V250.904H209.582ZM210.181 244.463C209.758 244.463 209.428 244.132 209.428 243.709C209.428 243.286 209.758 242.955 210.181 242.955C210.594 242.955 210.924 243.286 210.924 243.709C210.924 244.132 210.594 244.463 210.181 244.463ZM216.547 249.315C216.547 250.275 215.711 250.997 214.369 250.997C213.006 250.997 212.046 250.192 211.995 249.16H213.213C213.254 249.624 213.698 250.006 214.348 250.006C215.03 250.006 215.391 249.717 215.391 249.325C215.391 248.21 212.088 248.85 212.088 246.765C212.088 245.856 212.934 245.123 214.276 245.123C215.566 245.123 216.413 245.815 216.475 246.951H215.298C215.257 246.455 214.875 246.114 214.235 246.114C213.605 246.114 213.275 246.372 213.275 246.754C213.275 247.9 216.485 247.26 216.547 249.315ZM222.062 249.315C222.062 250.275 221.225 250.997 219.883 250.997C218.521 250.997 217.561 250.192 217.509 249.16H218.727C218.768 249.624 219.212 250.006 219.863 250.006C220.544 250.006 220.905 249.717 220.905 249.325C220.905 248.21 217.602 248.85 217.602 246.765C217.602 245.856 218.448 245.123 219.79 245.123C221.081 245.123 221.927 245.815 221.989 246.951H220.812C220.771 246.455 220.389 246.114 219.749 246.114C219.119 246.114 218.789 246.372 218.789 246.754C218.789 247.9 222 247.26 222.062 249.315ZM223.333 250.904V245.216H224.51V250.904H223.333ZM223.932 244.463C223.509 244.463 223.178 244.132 223.178 243.709C223.178 243.286 223.509 242.955 223.932 242.955C224.345 242.955 224.675 243.286 224.675 243.709C224.675 244.132 224.345 244.463 223.932 244.463ZM231.475 248.055C231.475 249.841 230.153 250.997 228.522 250.997C226.902 250.997 225.673 249.841 225.673 248.055C225.673 246.269 226.953 245.123 228.574 245.123C230.195 245.123 231.475 246.269 231.475 248.055ZM226.871 248.055C226.871 249.346 227.635 249.975 228.522 249.975C229.4 249.975 230.267 249.346 230.267 248.055C230.267 246.765 229.431 246.145 228.553 246.145C227.666 246.145 226.871 246.765 226.871 248.055ZM236.675 250.904V247.725C236.675 246.682 236.107 246.145 235.25 246.145C234.383 246.145 233.815 246.682 233.815 247.725V250.904H232.638V245.216H233.815V245.867C234.197 245.402 234.827 245.123 235.508 245.123C236.84 245.123 237.841 245.96 237.841 247.549V250.904H236.675ZM238.95 248.035C238.95 246.28 240.137 245.123 241.634 245.123C242.594 245.123 243.255 245.578 243.606 246.042V245.216H244.793V250.904H243.606V250.058C243.244 250.543 242.563 250.997 241.613 250.997C240.137 250.997 238.95 249.789 238.95 248.035ZM243.606 248.055C243.606 246.837 242.77 246.145 241.882 246.145C241.004 246.145 240.158 246.806 240.158 248.035C240.158 249.263 241.004 249.975 241.882 249.975C242.77 249.975 243.606 249.284 243.606 248.055ZM246.339 250.904V243.265H247.515V250.904H246.339Z" fill="black"/>
<defs>
<clipPath id="clip0_1_803">
<rect width="301.846" height="313.122" fill="white" transform="translate(1.73475)"/>
</clipPath>
<clipPath id="clip1_1_803">
<rect width="179.546" height="309.653" fill="white" transform="translate(63.3183 17.3475)"/>
</clipPath>
</defs>
</svg>
