<svg width="17" height="20" viewBox="0 0 17 20" fill="none" xmlns="http://www.w3.org/2000/svg">
<g clip-path="url(#clip0_1_355)">
<path d="M0.26224 16.2154L0.228035 1.26348C0.228035 0.710348 0.667002 0.2562 1.21429 0.2562L10.0905 0.23291L12.6844 3.70889L12.7186 16.1863C12.7186 16.7395 12.2797 17.1936 11.7324 17.1936L1.25419 17.2227C0.706908 17.2227 0.267941 16.7744 0.26224 16.2213V16.2154Z" fill="white"/>
<path d="M1.24849 17.4498C0.581489 17.4498 0.0342052 16.8967 0.0342052 16.2154L0 1.26346C0 0.582242 0.541583 0.0232897 1.20858 0.0232897L10.1989 0L12.9068 3.62737L12.941 16.1863C12.941 16.8675 12.3994 17.4265 11.7324 17.4265L1.25419 17.4556L1.24849 17.4498ZM9.97653 0.459971L1.21429 0.483261C0.792421 0.483261 0.45607 0.832606 0.45607 1.26346L0.495976 16.2213C0.495976 16.6463 0.838028 16.9956 1.25989 16.9956L11.7381 16.9665C12.16 16.9665 12.4963 16.6172 12.4963 16.1863L12.4621 3.78457L9.97653 0.459971Z" fill="#302F2D"/>
<path d="M10.444 3.94179C10.2901 3.94179 10.1476 3.88357 10.0392 3.77294C9.93092 3.66231 9.86821 3.51675 9.86821 3.35955V0.23291H10.3129V3.35955C10.3186 3.39448 10.3357 3.42359 10.3585 3.44688C10.3813 3.47017 10.4155 3.48182 10.444 3.48182H12.6844V3.93597H10.4497L10.444 3.94179Z" fill="#302F2D"/>
<path d="M10.7575 4.96655H2.18914C2.0632 4.96655 1.9611 5.06952 1.9611 5.19654C1.9611 5.32356 2.0632 5.42652 2.18914 5.42652H10.7575C10.8835 5.42652 10.9856 5.32356 10.9856 5.19654C10.9856 5.06952 10.8835 4.96655 10.7575 4.96655Z" fill="#302F2D"/>
<path d="M10.7575 7.24304H2.18914C2.0632 7.24304 1.9611 7.34601 1.9611 7.47303C1.9611 7.60005 2.0632 7.70301 2.18914 7.70301H10.7575C10.8835 7.70301 10.9856 7.60005 10.9856 7.47303C10.9856 7.34601 10.8835 7.24304 10.7575 7.24304Z" fill="#302F2D"/>
<path d="M10.7575 9.52551H2.18914C2.0632 9.52551 1.9611 9.62848 1.9611 9.7555C1.9611 9.88251 2.0632 9.98548 2.18914 9.98548H10.7575C10.8835 9.98548 10.9856 9.88251 10.9856 9.7555C10.9856 9.62848 10.8835 9.52551 10.7575 9.52551Z" fill="#302F2D"/>
<path d="M10.7575 11.802H2.18914C2.0632 11.802 1.9611 11.905 1.9611 12.032C1.9611 12.159 2.0632 12.262 2.18914 12.262H10.7575C10.8835 12.262 10.9856 12.159 10.9856 12.032C10.9856 11.905 10.8835 11.802 10.7575 11.802Z" fill="#302F2D"/>
<path d="M11.3561 19.7671C14.3472 19.7671 16.772 17.2959 16.772 14.2474C16.772 11.199 14.3472 8.72778 11.3561 8.72778C8.36506 8.72778 5.94031 11.199 5.94031 14.2474C5.94031 17.2959 8.36506 19.7671 11.3561 19.7671Z" fill="#CFC8E5"/>
<path d="M11.3561 20C8.24346 20 5.71227 17.4206 5.71227 14.2474C5.71227 11.0742 8.24346 8.49487 11.3561 8.49487C14.4688 8.49487 17 11.0742 17 14.2474C17 17.4206 14.4688 20 11.3561 20ZM11.3561 8.95484C8.4943 8.95484 6.16834 11.3304 6.16834 14.2474C6.16834 17.1645 8.4943 19.54 11.3561 19.54C14.218 19.54 16.5439 17.1645 16.5439 14.2474C16.5439 11.3304 14.218 8.95484 11.3561 8.95484Z" fill="#302F2D"/>
<path d="M8.5057 14.853L10.119 16.4192C10.2502 16.5473 10.4554 16.5415 10.5808 16.4134L14.2066 12.6929" stroke="#302F2D" stroke-width="1.2" stroke-miterlimit="10" stroke-linecap="round"/>
</g>
<defs>
<clipPath id="clip0_1_355">
<rect width="17" height="20" fill="white"/>
</clipPath>
</defs>
</svg>
