<svg width="17" height="17" viewBox="0 0 17 17" fill="none" xmlns="http://www.w3.org/2000/svg">
<g clip-path="url(#clip0_1_33)">
<path d="M8.5 17C13.1944 17 17 13.1944 17 8.5C17 3.80558 13.1944 0 8.5 0C3.80558 0 0 3.80558 0 8.5C0 13.1944 3.80558 17 8.5 17Z" fill="#05E605"/>
<path d="M6.816 13.2427C6.70364 13.139 6.59129 13.0471 6.49215 12.9427C6.2258 12.6611 5.96474 12.3743 5.7017 12.0901C5.51268 11.8852 5.32366 11.6803 5.13331 11.4768C4.7784 11.0974 4.42217 10.7187 4.0666 10.34C3.81413 10.071 3.56034 9.80268 3.30919 9.53237C3.14595 9.35657 2.98204 9.18142 2.82673 8.99901C2.69256 8.84105 2.61788 8.65534 2.58682 8.44649C2.50949 7.92503 2.8525 7.4571 3.24112 7.28526C3.48962 7.17555 3.74474 7.16233 4.00712 7.23504C4.24306 7.30047 4.43142 7.43331 4.59533 7.61242C4.88878 7.9323 5.18817 8.24623 5.4836 8.56413C5.75854 8.85956 6.03083 9.15697 6.30577 9.45306C6.48554 9.64671 6.66861 9.83837 6.84838 10.0327C6.88804 10.0756 6.91514 10.0822 6.9614 10.038C7.28459 9.73196 7.61042 9.42993 7.93426 9.12525C8.24621 8.8318 8.55618 8.53637 8.86813 8.24293C9.20189 7.92899 9.53764 7.61704 9.87206 7.30443C10.1252 7.06782 10.377 6.8299 10.6321 6.59461C10.8885 6.358 11.1496 6.12602 11.406 5.88876C11.6717 5.64224 11.9308 5.38778 12.1991 5.14457C12.3815 4.97868 12.5692 4.81676 12.7675 4.67135C12.9017 4.57354 13.0663 4.54446 13.2368 4.53983C13.4701 4.53388 13.6888 4.57222 13.8891 4.69647C14.1687 4.87029 14.3484 5.11747 14.4026 5.4433C14.4707 5.85241 14.359 6.2093 14.0537 6.49547C13.6875 6.83915 13.3174 7.1782 12.9493 7.52055C12.7636 7.69305 12.5792 7.86753 12.3941 8.04069C12.1238 8.29448 11.8541 8.54893 11.5832 8.80272C11.2487 9.11665 10.9143 9.43059 10.5786 9.74254C10.145 10.1457 9.70881 10.5462 9.27459 10.9487C9.00296 11.2005 8.73198 11.4536 8.46167 11.7068C8.21647 11.9361 7.97194 12.1661 7.72674 12.3954C7.44387 12.6605 7.16166 12.9248 6.87879 13.1899C6.85499 13.2117 6.82922 13.2315 6.81468 13.2441L6.816 13.2427Z" fill="#FEFEFE"/>
</g>
<defs>
<clipPath id="clip0_1_33">
<rect width="17" height="17" fill="white"/>
</clipPath>
</defs>
</svg>
