<svg width="139" height="172" viewBox="0 0 139 172" fill="none" xmlns="http://www.w3.org/2000/svg">
<mask id="mask0_202_175" style="mask-type:alpha" maskUnits="userSpaceOnUse" x="0" y="0" width="139" height="172">
<rect width="139" height="172" fill="#D9D9D9"/>
</mask>
<g mask="url(#mask0_202_175)">
<path d="M30.3724 126.381C29.098 125.387 28.8007 123.715 27.7112 122.592C25.6947 120.254 23.7332 117.857 21.107 116.135C20.6472 115.817 20.2924 115.375 19.8551 115.032C18.3634 112.93 16.6192 111.044 14.7826 109.238C14.2529 108.836 14.013 108.195 13.5283 107.752C13.3509 107.559 13.2209 107.338 13.131 107.092C12.8861 106.622 12.5862 106.182 12.3589 105.7C9.95255 102.915 7.70867 99.9886 4.90256 97.5688C4.08797 96.811 3.38582 95.9514 2.65118 95.1216C1.89656 94.2719 0.424793 92.9179 0.914549 91.8471C1.38931 90.8086 3.37083 91.4248 4.37283 91.4223C6.88908 94.0533 9.02551 97.0396 11.7167 99.4992C15.17 102.659 19.1805 104.776 23.9381 105.315C24.9426 105.43 25.9671 105.569 26.9066 106.003C28.9256 107.551 31.3219 107.082 33.3109 108.699C33.3184 108.401 33.5308 108.766 33.8781 108.57C35.6622 108.155 36.6168 109.206 37.2739 110.58C38.221 112.555 37.3314 113.929 35.1025 113.998C33.4533 114.051 31.9016 113.477 30.3149 113.144C27.8886 112.637 25.4998 111.931 22.7437 111.834C32.2689 119.573 37.9836 130.259 45.6773 139.332C49.8102 144.204 53.6333 149.426 60.335 151.158C61.0671 151.347 61.7693 151.737 62.1566 152.477C62.2715 153.543 61.3744 153.538 60.8172 153.476C57.7513 153.136 54.5878 153.123 51.8867 151.285C45.8122 145.513 40.26 139.277 35.0451 132.738C34.6802 132.281 34.1655 131.926 34.0655 131.295C33.9556 131.163 33.8432 131.032 33.7332 130.902C32.5163 129.466 31.1145 128.167 30.3749 126.378L30.3724 126.381Z" fill="#E4E6E1"/>
<path d="M16.4843 92.6049C16.7167 92.6223 15.8421 91.0546 16.077 91.072C16.994 91.3204 16.8216 92.2993 17.2939 92.8508C17.5313 93.4446 18.2009 94.3788 17.4588 94.5974C16.2869 94.9427 15.1675 94.3291 14.5902 93.1042C14.6052 92.8633 14.6177 92.6247 14.6327 92.3838C16.047 92.5577 16.1795 93.0297 16.4868 92.6049H16.4843Z" fill="#7B7D83"/>
<path d="M14.5877 93.1018C15.5173 93.544 15.4298 93.1341 16.9041 93.8372C16.1695 92.8931 16.8391 93.298 16.4918 92.8508C17.2389 90.4732 16.7142 88.19 15.9895 85.9168C15.7372 85.1242 15.3199 84.2025 16.152 83.5764C16.9091 83.0075 17.8236 83.3727 18.5683 83.7628C21.5118 85.3081 23.8806 87.6633 26.6218 89.4919C27.1915 89.872 27.7937 90.9328 28.6233 89.7701C28.3459 89.0074 27.8586 88.3167 27.9311 87.4621C26.9291 86.5826 27.3189 85.4075 27.3989 84.3789C27.5538 82.3864 27.219 80.0908 27.4863 78.1082C28.8931 77.2858 29.9026 78.9206 30.3874 79.6361C33.0586 83.5814 35.2225 87.8025 37.0866 92.1751C37.6863 93.5862 38.3834 94.9253 39.4504 96.0483C39.6977 97.6781 38.136 98.0532 37.3864 98.9874C36.5718 99.5389 36.102 100.485 35.3299 101.089C36.2395 100.341 36.8517 99.2557 37.8387 98.5924C39.6328 97.1067 41.192 95.4818 43.0786 94.1005C44.2855 93.3899 45.4424 92.975 46.7392 92.421C48.296 92.9403 47.1066 93.2384 46.8817 93.9291C46.4194 95.3427 45.2475 96.5303 45.5448 98.1824C43.8732 100.471 42.9261 102.652 42.299 105.723C41.0221 107.688 40.0826 109.844 40.3249 112.54C41.4194 112.371 41.9941 110.826 43.2285 111.546C44.6778 113.275 46.2345 115.449 47.9361 117.236C50.2825 119.896 52.6438 122.54 55.0001 125.188C56.7917 126.945 58.3135 128.803 60.2975 130.338C61.4919 131.956 63.336 130.276 64.6603 130.497C65.1301 130.627 65.5824 130.806 66.0521 130.94C67.6963 131.417 69.2655 132.09 70.8372 132.753C71.8617 133.186 73.0886 133.63 73.0611 134.932C73.0287 136.42 71.5919 136.704 70.4874 137.019C68.1936 137.675 65.8272 137.948 63.3085 137.817C64.6878 138.805 66.0446 139.63 67.314 140.577C68.1161 141.176 69.2605 141.725 68.8982 142.927C68.5509 144.08 67.284 144.023 66.2945 144.187C64.333 144.515 62.3765 144.296 60.4424 144.092C61.0846 145.789 62.4739 146.773 63.8482 147.774C64.7678 148.515 65.6298 149.317 66.5219 150.082C67.279 150.731 68.1161 151.429 67.4614 152.629C65.6923 153.533 63.9082 153.796 62.0941 152.751C59.6978 151.66 57.3315 150.495 54.8927 149.508C53.321 148.872 52.234 147.777 51.0946 146.607C46.7018 142.087 43.121 136.902 39.0581 132.11C35.6248 128.06 32.9186 123.404 29.5178 119.325C27.0216 116.334 23.9181 113.839 20.8596 110.908C24.8276 111.149 28.3584 111.884 31.8591 112.796C32.4364 112.945 33.0186 113.251 33.5858 113.221C34.8127 113.159 36.4893 114.287 37.109 112.349C37.6038 110.811 35.7847 109.188 33.6508 109.044C31.4444 108.421 29.3404 107.519 27.2265 106.652C23.6457 105.738 19.8501 105.673 16.5193 103.775C11.4168 100.863 7.57124 96.7216 4.44529 91.8471C7.92856 91.4223 11.2769 92.0881 14.5827 93.0918L14.5877 93.1018Z" fill="white"/>
<path d="M62.0941 152.758C63.6833 152.746 65.2725 152.733 66.8617 152.721C67.2915 152.79 67.7313 152.532 68.1286 152.659C73.5984 154.42 78.3285 152.023 83.1211 150.02C86.9792 148.41 90.8673 146.867 94.6229 145.024C95.5349 144.577 96.4595 144.092 97.5414 144.212C97.9987 144.706 98.441 145.213 98.9133 145.69C100.183 146.967 99.8428 147.744 98.2586 148.452C96.2696 149.339 94.1182 149.921 92.1816 150.922C89.9927 151.295 87.9812 152.085 86.0422 153.076C84.8852 153.16 83.8758 153.603 82.8812 154.224C77.4115 155.18 72.6763 158.102 67.1741 158.994C64.1806 159.481 61.1221 159.645 58.8182 157.369C57.179 156.08 56.262 156.736 53.8332 153.297C53.4034 152.756 52.5913 152.075 52.1615 151.531C55.215 152.197 58.8882 153.128 62.0941 152.758Z" fill="#243F72"/>
<path d="M13.0885 106.033C10.4848 103.094 7.88108 100.155 5.27738 97.216C8.40332 99.6979 11.0695 102.58 13.0885 106.033Z" fill="#C3C4C4"/>
<path d="M20.2249 114.761C18.4083 112.714 16.5917 110.669 14.7752 108.622C17.069 110.249 18.8881 112.294 20.2249 114.761Z" fill="#BABBBC"/>
<path d="M97.5414 144.212C90.1401 148.033 82.5114 151.334 74.5404 153.764C71.9517 154.554 69.358 153.56 66.8617 152.721C68.0986 151.844 66.9417 151.158 66.5019 150.83C65.275 149.918 64.233 148.977 63.1561 147.938C61.9092 146.728 61.0071 145.655 59.9227 144.522C59.5803 144.164 59.2305 143.752 59.8452 143.305C62.289 143.839 64.7503 143.831 67.214 143.491C67.7888 143.412 68.5684 143.491 68.7583 142.823C68.9582 142.122 68.2061 141.859 67.7338 141.543C65.7023 140.177 63.6533 138.835 61.2395 137.24C64.8152 137.166 67.9812 137.337 70.9797 136.239C71.6468 135.996 72.6688 135.998 72.7163 135.014C72.7638 134.043 71.7868 133.899 71.1196 133.618C69.3155 132.86 67.4789 132.174 65.6573 131.459C65.5049 129.404 67.1691 129.794 68.3235 129.496C69.9377 130.408 71.5644 130.224 73.2335 129.608C77.0666 128.197 80.8922 126.761 84.7203 125.337C85.9747 124.87 87.2241 124.167 88.6434 124.801C90.4425 131.799 93.511 138.222 97.5439 144.207L97.5414 144.212Z" fill="#1F5F85"/>
<path d="M88.6409 124.806C83.6734 126.212 78.9707 128.366 74.0781 129.968C72.2615 130.562 67.4614 133.926 65.6548 131.464C65.7623 130.252 68.381 129.25 68.5284 129.022C74.5504 126.373 80.7173 124.177 87.2541 123.144C88.8033 122.801 88.5209 123.968 88.6409 124.803V124.806Z" fill="#3C84B6"/>
<path d="M29.3454 89.6956C29.6677 90.0658 30.1975 90.4211 29.8701 90.9701C29.5603 91.4894 28.9531 91.3229 28.4683 91.231C26.7042 90.8956 25.6297 89.4621 24.2354 88.5403C22.0615 87.1043 20.2924 85.0895 17.8086 84.0982C17.3514 83.9143 16.8266 83.4895 16.3769 83.8522C15.7522 84.3566 16.3868 84.8932 16.5118 85.4298C17.084 87.8993 18.5932 90.3863 16.4918 92.8533C16.3544 92.2595 16.2144 91.6658 16.077 91.072C14.7552 86.605 12.3539 81.5243 9.14795 77.8846C9.91507 77.0076 11.9965 78.1778 12.7562 78.384C17.2639 79.6113 21.022 82.1851 24.6477 84.9876C25.3124 85.7453 25.9771 86.5006 26.6442 87.2584C27.8336 87.7553 28.2759 89.0695 29.3454 89.6981V89.6956Z" fill="#E5E7E2"/>
<path d="M32.3164 78.3542C34.3154 80.2299 35.4698 82.682 36.8592 84.9702C37.7312 88.3466 39.4978 91.4794 39.5978 95.062L39.5928 94.98C39.5553 95.3899 39.7802 95.8943 39.188 96.1079C37.8612 95.7825 37.3764 94.7365 36.9241 93.6036C34.8951 88.5279 32.2215 83.7802 29.3779 79.1243C29.088 78.6523 28.066 78.1653 27.4663 78.2697C27.4313 77.1765 27.2514 76.2026 27.2165 75.112C28.9956 74.9033 30.1425 76.5082 30.9246 77.502C31.3269 77.8871 31.5268 78.5976 32.3164 78.3566V78.3542Z" fill="#E5E6E1"/>
<path d="M30.2724 77.4697C29.1905 76.8411 28.9531 75.1964 27.4114 75.1194C27.3639 74.6772 26.9091 73.5741 27.9086 74.2896C28.9306 75.0225 30.0151 76.0262 30.2724 77.4697Z" fill="#E5E6E1"/>
<path d="M42.164 105.685C41.8567 107.668 41.5343 109.303 42.7462 111.203C41.7617 111.643 41.4444 114.165 40.235 113.494C39.0256 112.823 39.4304 111.111 39.9201 109.847C40.4898 108.374 40.9546 106.826 42.164 105.685Z" fill="#E4E5E1"/>
<path d="M47.1041 91.9887C48.3035 91.1912 48.4459 91.6807 47.9536 92.7266C47.0791 94.5874 46.3744 96.5377 45.0975 98.1899C44.253 96.7936 45.3324 95.8297 45.8647 94.7315C46.302 93.8297 46.6918 92.903 47.1016 91.9887H47.1041Z" fill="#E4E5E3"/>
<path d="M37.5563 98.8855C39.3279 97.298 41.102 95.7129 42.8737 94.1253C43.1235 94.1079 43.3734 94.0906 43.6258 94.0732C41.6768 95.7974 39.7252 97.5241 37.7762 99.2483C37.5813 99.2557 37.4838 99.2035 37.4838 99.0942C37.4838 98.9998 37.5088 98.9302 37.5588 98.8855H37.5563Z" fill="#A2A3A7"/>
<path d="M59.8427 143.307C60.0351 145.496 62.3665 146.172 63.1536 147.938C61.6143 146.376 60.4324 145.143 59.1156 143.742C58.4309 143.012 59.8427 143.307 59.8427 143.307Z" fill="#1F5F85"/>
<path d="M64.4279 130.766C65.6548 129.822 67.1591 129.238 68.6933 129.096C68.5484 129.265 67.8937 129.121 67.7488 129.293C66.9792 130.06 66.0896 130.167 65.6548 131.461C65.0876 131.608 64.6628 131.151 64.4279 130.766Z" fill="white"/>
<path d="M77.1491 125.101C73.2485 126.522 69.3755 128.016 65.4874 129.469C64.3455 129.896 63.201 130.319 62.0541 130.736C61.8142 130.823 61.6468 131.034 61.7093 131.297C61.7618 131.521 62.0366 131.727 62.274 131.64C66.1746 130.219 70.0476 128.726 73.9357 127.273C75.0776 126.845 76.2221 126.423 77.369 126.006C77.6089 125.919 77.7763 125.707 77.7138 125.444C77.6613 125.221 77.3865 125.014 77.1491 125.101Z" fill="#030305"/>
<path d="M61.9966 130.748C61.5069 130.955 60.9622 130.647 60.5649 130.376C59.9752 129.971 59.4729 129.429 58.9582 128.937C57.7438 127.777 56.5544 126.592 55.3949 125.377C53.0286 122.905 50.7622 120.336 48.5084 117.762C46.4644 115.427 44.2755 112.957 43.136 110.031C42.6013 108.662 42.3714 107.208 42.5488 105.745C42.7137 104.403 43.1985 103.107 43.7632 101.887C44.4979 100.299 45.3549 98.7663 46.172 97.221C47.0766 95.5067 47.9811 93.7924 48.8857 92.0782C49.1156 91.6434 48.6783 91.2608 48.256 91.4322C44.308 93.0396 40.6398 95.303 37.4314 98.1004C36.5193 98.8955 35.6473 99.7327 34.8152 100.61C34.4029 101.044 35.0551 101.713 35.4699 101.276C38.3559 98.2346 41.7367 95.6831 45.4649 93.7452C46.5218 93.1962 47.6038 92.6968 48.7083 92.2496L48.0786 91.6036C47.2315 93.2086 46.3844 94.8135 45.5373 96.4185C44.7652 97.8818 43.9681 99.3327 43.2385 100.818C42.5963 102.128 42.0166 103.489 41.7342 104.925C41.4394 106.436 41.5019 107.969 41.9416 109.444C42.8812 112.587 45.0901 115.238 47.1965 117.685C49.5179 120.381 51.8867 123.047 54.333 125.628C55.6973 127.069 57.1016 128.475 58.5434 129.839C59.5654 130.808 60.8872 132.219 62.4414 131.563C62.6738 131.464 62.7388 131.133 62.6238 130.93C62.4914 130.691 62.2215 130.649 61.9866 130.748H61.9966Z" fill="#030305"/>
<path d="M26.5918 73.3903C31.9166 78.2473 36.6418 84.1454 38.251 91.2981C38.6708 93.1639 38.8557 95.0694 38.7782 96.98C38.7532 97.5812 39.6902 97.6011 39.7152 97.0023C40.0176 89.6608 36.5268 82.8137 31.8142 77.3703C30.3974 75.7331 28.8606 74.2002 27.2614 72.7393C26.8192 72.3369 26.1445 72.9853 26.5918 73.3903Z" fill="#030305"/>
<path d="M26.4793 73.0871C26.7242 77.9318 26.9691 82.7764 27.214 87.6211C27.2439 88.2174 28.181 88.2422 28.151 87.6434C27.9061 82.7988 27.6612 77.9542 27.4164 73.1095C27.3864 72.5132 26.4493 72.4884 26.4793 73.0871Z" fill="#030305"/>
<path d="M27.8986 86.9876C24.0455 82.7268 18.9681 79.5914 13.4333 77.9989C11.8691 77.5492 10.2699 77.2287 8.6557 77.0299C8.20342 76.9728 8.08598 77.5393 8.31087 77.8225C11.1869 81.4498 13.5033 85.5342 15.1225 89.8645C15.5797 91.0894 15.9821 92.3316 16.3319 93.5887C16.4918 94.1651 17.4038 93.949 17.2439 93.3701C15.9721 88.7937 13.9855 84.4112 11.3618 80.4436C10.6172 79.3181 9.82012 78.2274 8.98303 77.1691L8.6382 77.9616C14.163 78.6448 19.5003 80.9255 23.8207 84.4137C25.04 85.3975 26.182 86.4783 27.2315 87.6385C27.6338 88.0832 28.3059 87.4323 27.9011 86.9876H27.8986Z" fill="#030305"/>
<path d="M17.039 93.2061C13.0435 91.231 8.49078 90.508 4.06298 90.9304C2.8111 91.0496 1.57172 91.2509 0.349831 91.544C-0.237377 91.6856 -0.0174866 92.59 0.569721 92.4508C4.71016 91.462 9.11547 91.4869 13.2059 92.6993C14.3604 93.0421 15.4823 93.4769 16.5618 94.0086C17.099 94.2744 17.5813 93.4744 17.0415 93.2086L17.039 93.2061Z" fill="#030305"/>
<path d="M0.117446 92.4285C5.73715 98.9899 11.3768 105.531 17.024 112.07C22.6462 118.58 28.2759 125.084 33.9031 131.593C39.5503 138.127 45.1925 144.666 50.8172 151.223C52.0866 152.703 53.286 154.316 54.7602 155.603C56.1171 156.788 57.6663 157.757 59.3055 158.507C60.7922 159.185 62.4014 159.779 64.0481 159.866C65.6998 159.953 67.359 159.603 68.9332 159.138C70.6773 158.624 72.3765 157.963 74.0881 157.359C75.9622 156.701 77.8413 156.057 79.7228 155.421C83.336 154.201 86.9592 153.009 90.5599 151.749C91.5519 151.404 92.5414 151.054 93.5284 150.698C94.0907 150.497 93.8758 149.588 93.3086 149.792C85.9822 152.425 78.5559 154.773 71.2245 157.394C69.6953 157.941 68.1461 158.47 66.5394 158.758C64.8827 159.054 63.321 158.964 61.7193 158.455C60.0076 157.911 58.3784 157.096 56.8992 156.085C55.3325 155.014 54.143 153.67 52.9187 152.244C47.3789 145.782 41.8217 139.337 36.2595 132.897C30.6772 126.435 25.09 119.981 19.5053 113.521C13.9406 107.082 8.38333 100.64 2.84109 94.18C2.15643 93.38 1.47177 92.5825 0.787113 91.7825C0.397307 91.3254 -0.27236 91.9788 0.117446 92.4334V92.4285Z" fill="#030305"/>
<path d="M68.7858 62.655C68.5284 62.9854 68.4759 63.3134 68.5109 63.6885C69.388 73.7306 70.235 83.7826 73.306 93.4645C74.7203 97.9216 76.7818 102.093 79.5779 105.879C79.6029 105.912 79.6179 105.951 79.6429 105.986C80.6249 107.34 81.0272 107.362 82.309 106.262C86.0497 103.059 90.365 100.823 94.8653 98.8955C99.3305 96.9849 103.906 95.4371 108.703 94.5775C115.105 93.4322 121.527 92.6794 128.024 93.7452C136.897 95.2036 145.07 98.4011 152.544 103.395C155.635 105.462 158.716 107.546 161.552 109.939C164.326 112.282 167.074 114.672 169.546 117.347C175.313 123.596 180.365 130.338 183.951 138.082C184.835 139.993 185.61 141.958 185.81 144.072C185.882 144.828 186.772 145.228 186.585 146.117C183.494 143.831 179.883 143.394 176.142 142.833C176.607 143.63 176.899 144.343 176.45 145.156C176.017 145.936 175.385 146.448 174.541 146.604C173.948 146.713 173.951 146.999 174.013 147.446C174.066 147.814 174.111 148.162 174.303 148.505C178.454 155.955 182.594 163.414 186.737 170.87C189.458 175.766 192.187 180.658 194.885 185.57C195.205 186.151 195.565 186.556 196.205 186.78C196.727 186.964 197.084 186.862 197.374 186.435C198.943 184.122 201.047 182.246 202.699 180.005C204.306 177.826 206.255 175.918 207.689 173.607C207.911 173.25 208.109 172.907 208.159 172.482C208.416 170.316 209.503 168.609 211.162 167.237C213.226 165.53 215.575 164.47 218.281 164.328C220.5 164.211 222.354 165.056 223.779 166.728C225.885 169.205 226.435 172.062 225.685 175.192C225.508 175.93 224.916 176.353 224.438 176.855C224.173 177.133 223.949 177.322 224.083 177.781C224.951 180.71 223.629 182.996 221.815 185.113C220.678 186.442 219.273 187.436 217.742 188.275C215.503 189.503 213.114 190.412 210.823 191.52C208.881 192.459 207.127 193.714 205.515 195.152C204.148 196.29 202.906 197.547 201.775 198.914C200.94 199.888 200.153 200.906 199.258 201.823C197.089 204.049 194.031 203.503 192.764 200.673C191.912 198.77 191.747 196.72 192.074 194.715C192.414 192.636 191.785 190.832 190.753 189.202C183.299 177.458 176.857 165.16 170.42 152.857C170.273 152.577 170.103 152.308 169.923 152.003C168.651 153.205 167.367 153.844 165.877 152.457C165.802 152.388 165.628 152.343 165.545 152.383C164.063 153.076 163.449 152.134 162.961 150.929C159.471 156.363 154.038 159.076 148.524 161.762C148.956 162.107 149.398 162.393 149.758 162.758C150.982 164.005 150.795 165.866 149.243 166.601C148.434 166.986 148.636 167.294 148.968 167.752C151.102 170.698 152.469 174.035 154.036 177.287C159.128 187.866 162.811 198.976 166.754 209.989C167.579 212.295 168.564 214.034 171.302 214.439C172.916 214.678 174.348 215.694 175.643 216.755C176.36 217.237 176.952 217.848 177.469 218.531C178.486 220.235 178.331 221.468 176.622 223.145C174.925 224.809 173.089 226.33 171.157 227.728C170.822 227.972 170.533 228.272 170.223 228.548C169.048 229.497 168.011 230.583 167.042 231.733C164.82 233.582 163.828 236.153 162.801 238.727C161.61 241.721 160.225 244.58 157.756 246.839C155.515 248.888 153.074 249.544 150.23 248.493C149.621 248.267 149.223 248.404 148.651 248.593C146.962 249.152 145.248 249.008 143.539 248.451C141.122 247.663 139.778 245.984 139.451 243.567C138.981 240.071 139.845 236.869 141.964 234.016C142.492 233.336 143.069 232.702 143.788 232.213C144.503 231.557 145.385 231.204 146.285 230.911C150.483 229.542 154.276 227.487 157.522 224.479C158.576 223.641 159.506 222.677 160.355 221.639C162.864 219.8 162.911 217.719 161.842 214.837C157.137 202.161 151.939 189.699 146.215 177.451C144.858 174.549 143.611 171.595 142.232 168.484C141.662 169.058 141.157 169.518 140.71 170.03C140.26 170.544 139.708 170.897 139.108 171.18C138.204 171.605 137.257 171.771 136.395 171.118C135.585 170.504 135.48 169.6 135.59 168.658C135.617 168.415 135.672 168.174 135.732 167.814C134.213 168.166 132.761 168.564 131.247 168.571C128.593 168.586 126.102 168.174 124.293 165.973C123.993 165.608 123.603 165.563 123.191 165.511C113.798 164.293 105.295 160.808 97.6089 155.372C95.395 153.804 93.1536 152.234 91.2046 150.318C90.0327 149.354 88.9582 148.293 87.9712 147.146C81.6094 140.492 77.1666 132.806 75.2076 123.775C74.6803 121.345 74.2405 118.905 74.7028 116.416C74.7703 116.055 74.6204 115.884 74.4529 115.653C70.0976 109.72 67.7588 102.935 65.9996 95.9042C64.193 88.677 63.1536 81.3206 62.219 73.9443C62.1741 73.5816 62.1216 73.2188 62.0466 72.6499" fill="#030305"/>
<path d="M201.772 198.921C202.762 197.413 203.993 196.146 205.513 195.16C204.266 196.415 203.019 197.667 201.772 198.921Z" fill="#BCBCBC"/>
<path d="M167.039 231.743C167.856 230.441 168.903 229.366 170.22 228.558C169.161 229.619 168.099 230.68 167.039 231.743Z" fill="#4B4C4C"/>
<path d="M160.355 221.651C159.673 222.856 158.684 223.758 157.522 224.491C158.466 223.545 159.411 222.598 160.355 221.651Z" fill="#5C5D5D"/>
<path d="M143.788 232.225C143.181 232.826 142.572 233.428 141.964 234.029C142.324 233.179 142.946 232.59 143.788 232.225Z" fill="#5A5A5A"/>
<path d="M177.464 218.541C176.854 217.95 176.247 217.356 175.638 216.765C176.48 217.12 177.122 217.676 177.464 218.541Z" fill="#696969"/>
<path d="M148.244 149.809C148.326 150.606 149.001 150.698 149.573 150.892C151.147 151.419 152.784 151.173 154.393 151.257C155.415 151.387 156.467 151.223 157.472 151.553C157.829 151.67 158.289 151.717 158.406 152.087C158.559 152.567 158.096 152.805 157.776 153.054C154.146 155.878 150.163 158.092 145.847 159.687C143.471 160.567 140.98 161.138 138.604 161.98C129.718 165.123 121.455 162.733 113.211 159.565C110.857 158.661 109.103 156.991 107.177 155.488C102.994 152.226 98.6684 149.168 94.9153 145.369C90.4875 140.89 87.0517 135.774 84.343 130.142C83.2486 127.864 82.3765 125.494 81.4894 123.134C81.257 122.517 81.0547 121.881 81.0871 121.203L81.1046 121.228C80.7348 120.078 79.8278 119.081 80.1101 117.747C80.4475 116.391 81.302 115.673 82.6963 115.377C83.5184 115.203 83.8358 114.398 83.9857 113.576C84.2006 112.378 84.6004 112.259 85.5649 112.967C86.2846 113.494 86.9667 114.1 87.9812 114.262C86.3395 112.649 84.6978 111.037 83.0562 109.424C81.3995 107.797 81.4744 107.432 83.7058 106.254C87.0891 104.031 90.9322 102.801 94.6679 101.38C97.9987 100.113 101.479 99.2706 104.975 98.5153C109.615 97.5116 114.311 96.9924 119.041 96.6992C121.904 96.5228 124.668 96.9849 127.399 97.7601C134.031 99.6433 140.6 101.715 146.887 104.56C152.879 107.273 158.579 110.465 163.576 114.798C164.486 115.588 165.395 116.527 166.74 116.647C174.678 124.296 180.668 133.238 184.905 143.707C182.034 142.477 179.288 141.916 176.29 142.095C176.832 140.535 177.179 139.061 176.822 137.531C176.692 136.972 176.585 136.381 176.317 135.884C175.852 135.022 175.515 134.164 175.275 133.191C174.875 131.553 173.379 131.061 171.827 130.83C172.767 131.561 174.198 131.707 174.568 133.101C174.108 134.515 172.891 135.297 171.864 136.209C170.443 137.471 168.813 138.458 167.014 139.099C166.007 139.459 165.183 139.923 164.933 141.044C164.81 141.113 164.576 141.195 164.583 141.253C164.618 141.553 164.93 141.461 165.113 141.563C165.553 142.159 164.99 142.458 164.693 142.766C164.083 143.394 163.689 144.075 163.806 144.974C163.906 145.737 163.416 146.087 162.829 146.378C159.123 148.221 155.303 149.451 151.082 148.604C150.84 148.554 150.583 148.562 150.343 148.5C149.171 148.189 148.404 148.507 148.241 149.802L148.244 149.809Z" fill="#1E5F84"/>
<path d="M81.0896 121.206C81.7818 122.026 81.8543 123.104 82.1966 124.05C83.9757 129.004 86.317 133.658 89.2481 138.035C91.9567 142.082 95.3251 145.556 98.9632 148.733C101.709 151.136 104.785 153.165 107.714 155.362C107.814 155.436 107.914 155.513 107.996 155.605C110.965 158.907 115.075 160.022 119.091 161.314C123.519 162.738 128.086 163.153 132.706 163.083C133.958 163.066 135.18 162.989 136.375 162.281C137.369 161.692 138.656 161.585 139.818 161.28C145.887 159.695 151.527 157.18 156.65 153.558C157.214 153.158 157.602 152.542 158.551 152.336C157.074 151.491 155.61 151.869 154.398 151.255C157.044 150.733 159.736 150.375 162.177 149.126C163.289 148.557 164.311 147.854 165.073 146.84C165.17 146.711 165.285 146.525 165.26 146.39C164.91 144.49 166.517 144.142 167.639 143.434C168.439 142.93 168.983 142.299 168.863 141.32C168.811 140.897 168.963 140.694 169.306 140.574C171.587 139.784 173.226 138.147 174.815 136.445C176 136.835 175.7 137.769 175.553 138.587C175.458 139.123 175.075 139.578 174.631 139.874C172.537 141.277 171.557 143.501 170.37 145.561C169.136 147.705 167.617 149.566 165.5 150.902C165.073 151.173 164.648 151.414 164.126 151.406C163.596 150.808 163.679 149.948 163.251 149.235C162.217 151.995 159.933 153.536 157.801 155.143C153.526 158.368 148.923 161.051 143.828 162.827C139.491 164.34 134.998 164.755 130.453 164.651C123.896 164.499 117.484 163.486 111.332 161.121C105.73 158.967 100.635 155.958 95.7973 152.41C89.0857 147.491 84.348 140.984 80.0652 134.043C76.8942 128.902 75.7673 123.228 75.5474 117.248C76.362 118.222 77.324 119.017 78.281 119.809C79.1006 120.488 79.9252 121.191 81.0871 121.201L81.0896 121.206Z" fill="#223E6C"/>
<path d="M164.351 212.688C164.503 212.379 164.653 212.071 164.805 211.761C164.815 211.165 164.845 210.578 165.553 210.345C166.517 212.35 167.234 214.526 169.233 215.897C169.653 215.289 168.951 214.993 169.123 214.407C171.887 215.634 174.651 216.787 176.64 219.172C177.402 220.084 177.049 220.941 176.382 221.733C175.118 223.234 173.509 224.352 172.017 225.599C171.477 226.051 170.945 226.511 170.41 226.968C168.998 228.163 167.689 229.457 166.527 230.893C164.076 232.816 162.781 235.492 161.67 238.287C160.305 240.565 158.546 242.558 156.867 244.593C154.563 247.383 152.756 247.224 150.603 244.304C148.896 241.991 148.129 239.445 148.661 236.598C148.891 235.365 148.943 234.151 148.743 232.918C149.078 232.394 150.005 232.672 150.15 231.892C149.7 231.117 150.5 230.975 150.837 230.739C153.356 228.995 155.945 227.356 158.741 226.084C160.817 225.14 162.854 224.136 164.723 222.817C165.208 222.474 165.468 222.069 165.515 221.497C165.593 220.578 165.463 219.686 165.17 218.814C164.83 217.796 164.486 216.767 163.971 215.83C163.321 214.65 163.186 213.609 164.356 212.685L164.351 212.688Z" fill="white"/>
<path d="M209.606 175.846C210.358 175.247 211.17 174.76 212.099 174.482C213.094 174.8 214.118 174.837 215.15 174.929C217.754 175.16 219.696 176.633 221.202 178.646C221.812 179.461 221.84 180.517 221.64 181.518C221.367 182.879 220.278 183.801 218.879 183.697C217.572 183.6 216.417 183.967 215.273 184.474C210.698 186.502 206.375 188.969 202.509 192.136C200.468 193.808 198.381 195.473 196.745 197.587C196.485 197.923 196.195 198.233 195.713 198.149C195.195 198.057 195.11 197.629 195.06 197.212C194.738 194.534 193.499 192.166 192.347 189.801C191.76 188.593 191.447 187.657 192.589 186.698L192.534 186.685C192.534 186.231 192.702 185.821 192.944 185.453C193.211 185.048 193.534 184.887 193.846 185.431C194.301 186.271 195.135 186.837 195.36 187.883C195.475 188.417 196.232 188.439 196.785 188.094C197.679 187.535 198.131 186.601 198.761 185.816C199.97 184.78 201.11 183.674 202.102 182.427C203.651 180.484 205.223 178.561 206.74 176.594C207.774 175.247 208.401 173.737 208.911 172.082C210.028 168.44 214.721 165.349 218.581 165.389C221.18 165.416 222.919 166.815 224.078 168.991C224.703 170.161 225.07 171.433 225.003 172.79C224.633 173.255 224.326 172.882 224.066 172.678C221.405 170.586 218.441 170.214 215.225 171.029C214.563 171.197 213.891 171.558 213.164 171.252C212.517 170.892 212.132 169.831 211.002 170.537C211.432 170.745 211.775 170.981 212.069 171.289C212.996 172.261 212.919 172.763 211.77 173.384C211.087 173.751 210.448 174.196 209.788 174.606C208.906 175.277 208.134 176.057 207.467 176.941C207.442 176.971 207.412 177.001 207.389 177.033C206.959 177.647 206.47 178.231 206.46 179.036C207.362 178.994 207.214 177.943 207.829 177.625C208.331 176.941 208.913 176.34 209.606 175.846Z" fill="white"/>
<path d="M166.742 116.649C165.952 117.255 165.405 116.607 164.888 116.219C163.139 114.913 161.45 113.529 159.71 112.21C156.242 109.581 152.402 107.586 148.496 105.685C144.038 103.517 139.403 101.802 134.705 100.274C130.822 99.0097 126.922 97.6855 122.866 97.0967C120.285 96.7216 117.654 97.1042 115.045 97.3154C111.242 97.6259 107.482 98.2247 103.778 99.0992C100.25 99.9315 96.7368 100.851 93.356 102.217C90.1376 103.519 86.8518 104.659 83.8433 106.423C83.8258 106.433 83.7633 106.401 83.7408 106.371C83.7183 106.341 83.7183 106.294 83.7083 106.252C87.6264 103.114 91.9717 100.764 96.7144 99.0793C104.85 96.1849 113.221 94.6098 121.854 94.4111C123.056 94.3837 124.261 94.5253 125.463 94.5875C129.693 95.0371 133.831 95.9017 137.834 97.3576C142.811 99.0768 147.274 101.782 151.692 104.553C156.827 107.772 161.587 111.482 165.902 115.737C166.195 116.026 166.465 116.341 166.742 116.644V116.649Z" fill="#2F88C1"/>
<path d="M192.589 186.695C191.697 187.749 192.149 188.641 192.704 189.731C193.674 191.637 194.358 193.684 195.17 195.667C195.38 196.181 195.358 196.718 195.375 197.254C195.385 197.532 195.33 197.868 195.735 197.94C196.012 197.987 196.185 197.831 196.357 197.624C200.14 193.048 204.851 189.625 210.003 186.743C212.172 185.528 214.373 184.39 216.725 183.558C217.364 183.331 217.992 183.249 218.676 183.361C220.093 183.592 221.247 182.611 221.397 181.17C221.592 179.292 220.635 178.047 219.203 177.023C217.519 175.821 215.768 174.862 213.576 175.242C212.902 175.359 212.507 174.897 212.099 174.484C214.676 172.827 218.981 173.2 221.067 175.262C223.834 177.992 224.016 180.343 221.712 183.543C220.92 184.526 220.045 185.428 219.048 186.208C217.419 187.488 215.585 188.405 213.731 189.319C210.573 190.879 207.239 192.164 204.616 194.638C203.331 195.734 202.139 196.924 201.06 198.221C200.11 199.19 199.438 200.382 198.431 201.311C196.782 202.834 194.696 202.509 193.729 200.479C192.777 198.484 192.577 196.303 192.782 194.181C192.936 192.564 192.707 191.103 191.912 189.816C191.052 188.425 191.395 187.53 192.592 186.703L192.589 186.695Z" fill="#E3E3DF"/>
<path d="M64.5903 68.6773C65.4949 67.0152 66.7168 65.5817 67.9712 63.8227C67.9487 67.8152 68.236 71.512 68.6483 75.1989C69.3005 80.9926 70.0576 86.7689 71.7168 92.3862C72.8437 96.2073 74.3705 99.8644 76.4295 103.285C76.9792 104.197 77.4215 105.161 78.0661 106.038C79.1381 107.494 80.7198 108.376 81.8593 109.728C82.0717 109.981 82.339 110.187 82.5589 110.433C83.0761 111.01 83.1311 111.283 82.9837 112.185C82.9662 112.296 83.0262 112.423 83.0537 112.542C83.4585 114.249 82.8862 115.139 81.1221 115.283C80.325 115.347 79.9777 115.501 79.9827 116.366C79.9877 117.014 79.5304 117.561 78.8782 117.727C77.9787 117.959 77.254 117.598 76.7443 116.823C76.7618 116.642 76.8543 116.523 77.0317 116.468C78.5609 116.008 78.7158 115.723 77.9812 114.247C76.4919 111.253 74.8203 108.351 73.3985 105.325C70.2275 98.575 68.4859 91.3999 67.1616 84.118C66.3445 79.6113 65.3825 75.1343 64.6003 70.6201C64.4879 69.9642 64.3455 69.3257 64.5903 68.6748V68.6773Z" fill="#A1A1A9"/>
<path d="M64.5903 68.6773C65.33 72.558 66.0846 76.4337 66.8018 80.3193C67.5039 84.128 68.1211 87.9515 69.0806 91.708C70.4699 97.1464 72.1591 102.463 74.8303 107.459C76.0297 109.703 77.2615 111.941 78.3485 114.247C78.5259 114.624 78.7008 114.99 78.7308 115.412C78.8008 116.426 78.4884 116.764 77.449 116.721C77.1991 116.711 76.9592 116.634 76.7468 116.826C73.2086 112.617 70.8048 107.8 69.0431 102.64C66.7093 95.8098 65.3325 88.7565 64.1306 81.6634C63.6258 78.6896 63.1111 75.7182 62.5814 72.7493C62.4989 72.2872 62.4564 71.8847 62.7438 71.4598C63.366 70.5381 63.8382 69.517 64.5928 68.6798L64.5903 68.6773Z" fill="#7E83A9"/>
<path d="M164.351 212.688C163.091 213.979 164.058 215.157 164.558 216.345C165.243 217.979 166 219.587 165.877 221.435C165.82 222.292 165.443 222.752 164.681 223.249C160.085 226.243 154.723 227.907 150.428 231.405C150.253 231.549 150.113 231.656 150.148 231.892C148.793 232.148 147.524 232.595 146.442 233.485C146.292 233.609 146.09 233.711 145.9 233.738C145.398 233.813 144.441 233.52 145.325 234.561C145.37 234.613 145.21 234.846 145.133 234.99C143.061 238.799 143.968 242.277 146.317 245.596C146.797 246.304 147.412 246.876 148.104 247.373C148.291 247.527 148.479 247.681 148.761 247.912C147.849 248.372 147.017 248.501 146.097 248.329C144.818 248.093 143.594 247.631 142.524 246.98C141.14 246.14 140.637 244.62 140.505 243.072C140.23 239.86 141.147 236.961 143.046 234.359C143.741 233.507 144.496 232.715 145.37 232.039C145.997 231.539 146.724 231.308 147.497 231.09C151.42 229.974 154.988 228.178 157.981 225.368C159.823 223.639 161.657 221.902 163.249 219.92C163.684 220.248 163.611 220.755 163.806 221.157C164.348 220.991 164.086 220.578 164.088 220.245C164.106 218.456 163.341 216.847 162.896 215.167C162.704 214.439 162.537 213.885 163.454 213.532C163.808 213.396 164.058 212.983 164.356 212.695L164.351 212.688Z" fill="#E3E3DF"/>
<path d="M160.688 200.024C160.493 200.236 160.308 200.457 160.098 200.653C158.831 201.836 158.341 201.729 157.687 200.136C157.219 199.001 156.744 197.868 156.275 196.735C156.295 196.372 156.557 196.26 156.852 196.218C157.776 196.082 158.336 195.493 158.881 194.596C158.276 195.473 157.801 196.231 156.714 196.052C156.4 195.935 156.102 195.783 155.98 195.451C155.39 193.848 154.728 192.273 154.236 190.633C154.126 190.266 154.148 189.908 154.423 189.602C154.773 189.075 155.21 188.616 155.62 188.131C155.308 188.531 155.035 188.969 154.468 189.061L154.451 188.998C153.931 189.19 153.656 188.897 153.501 188.477C152.956 187.011 152.412 185.545 152.009 184.032C151.877 183.533 151.987 183.051 152.314 182.633C153.149 182.067 153.266 180.884 154.231 180.43C156.065 184.517 157.856 188.613 159.248 192.884C159.893 194.864 160.755 196.775 161.252 198.809C161.252 199.299 161.142 199.739 160.69 200.019L160.688 200.024Z" fill="#FEFEFE"/>
<path d="M148.736 232.921C149.351 233.455 149.471 234.103 149.271 234.879C148.351 238.486 148.883 241.758 151.31 244.739C152.679 246.424 154.216 246.744 155.775 245.261C157.364 243.748 158.506 241.867 159.918 240.205C160.48 239.544 161.07 238.918 161.662 238.287C160.925 240.434 159.965 242.468 158.574 244.282C157.874 245.147 157.099 245.937 156.23 246.632C153.878 248.322 151.49 248.28 148.973 246.498C148.291 245.981 147.676 245.395 147.164 244.709C145.762 242.886 145.055 240.829 145.13 238.528C145.213 235.954 146.585 234.185 148.733 232.916L148.736 232.921Z" fill="#E3E3DF"/>
<path d="M164.126 151.409C168.024 149.409 169.885 145.695 171.962 142.172C172.454 141.337 172.984 140.631 173.838 140.102C175.538 139.049 175.85 137.687 174.813 136.445C174.888 136.174 174.883 135.859 175.218 135.735C176.487 137.851 176.367 140.296 174.893 142.356C174.583 142.788 174.231 143.106 175.173 143.327C176.005 143.523 175.992 144.254 175.533 144.907C175.063 145.573 174.478 145.819 172.754 146.122C173.369 146.979 173.429 147.876 172.856 148.738C172.299 149.575 171.482 149.7 170.558 149.394C170.018 149.215 169.99 149.511 169.933 149.965C169.823 150.808 169.406 151.526 168.636 151.97C167.829 152.438 167.087 152.599 166.597 151.521C166.375 151.031 166.152 150.761 165.668 151.429C165.28 151.961 164.631 152.144 164.128 151.409H164.126Z" fill="#1E5F84"/>
<path d="M148.244 149.809C147.986 148.132 148.289 147.757 150.02 148.154C154.506 149.183 158.621 148.179 162.604 146.174C163.244 145.854 163.676 145.553 163.481 144.703C163.316 143.988 163.669 143.362 164.206 142.825C164.568 142.465 165.125 142.212 165.113 141.571C165.89 141.459 166.667 141.352 167.442 141.235C167.714 141.195 168.039 140.959 168.221 141.302C168.391 141.62 168.201 141.936 167.991 142.204C167.379 142.987 166.507 143.409 165.615 143.72C164.723 144.03 164.371 144.39 164.593 145.424C164.828 146.507 163.908 147.108 163.096 147.628C161.07 148.922 158.811 149.566 156.457 149.916C154.446 150.216 152.422 150.405 150.385 150.353C149.633 150.333 148.898 150.229 148.246 149.806L148.244 149.809Z" fill="#22416F"/>
<path d="M148.129 162.554C148.621 163.098 149.286 163.516 149.403 164.328C149.481 164.86 149.373 165.329 148.898 165.627C148.549 165.844 148.166 166.04 147.749 165.737C147.497 165.553 146.989 165.175 146.972 165.347C146.894 166.144 145.603 166.025 145.832 167.026C145.96 167.575 146.275 168.405 145.575 168.698C144.905 168.979 144.388 168.303 143.908 167.856C143.726 167.687 143.524 167.528 143.384 167.329C142.866 166.594 142.389 166.8 141.997 167.409C141.202 168.641 139.958 169.307 138.733 169.968C137.354 170.711 136.669 170.238 136.769 168.708C136.817 168.005 136.894 167.297 137.579 166.86C138.191 166.281 138.941 166.035 139.753 165.834C142.132 165.245 144.346 164.219 146.512 163.096C147.027 162.83 147.519 162.517 148.131 162.554H148.129Z" fill="#1E5E83"/>
<path d="M213.164 171.25C215.83 170.484 218.499 169.819 221.272 170.783C222.372 171.165 223.384 171.684 224.253 172.46C224.471 172.653 224.668 172.867 225.003 172.788C225.18 173.965 224.963 175.081 224.416 176.124C224.176 176.584 223.929 176.981 223.434 176.206C221.457 173.11 218.456 172.139 214.965 172.482C214.043 172.574 213.499 172.569 213.389 171.54C213.379 171.436 213.241 171.347 213.164 171.25Z" fill="#E3E3DF"/>
<path d="M148.129 162.554C145.195 164.246 142.152 165.685 138.806 166.365C138.339 166.46 138.059 166.889 137.577 166.86C137.651 166.76 137.786 166.663 137.789 166.564C137.806 166.062 137.527 166.489 137.477 166.509C135.105 167.379 132.641 167.607 130.148 167.481C128.573 167.401 127.052 167.058 125.887 166.179C127.279 166.112 128.778 165.975 130.275 165.98C135.997 165.995 141.427 164.671 146.692 162.554C147.172 162.36 147.649 161.943 148.126 162.557L148.129 162.554Z" fill="#22406D"/>
<path d="M183.081 169.371C182.2 170.814 181.352 170.8 180.538 169.329C179.641 167.714 178.729 166.109 177.824 164.499C177.649 164.162 177.447 163.784 177.926 163.56C178.771 163.165 179.258 162.331 180.078 161.916C181.46 163.789 182.452 165.873 183.431 167.968C183.666 168.522 183.374 168.949 183.081 169.374V169.371Z" fill="#FCFCFC"/>
<path d="M161.997 207.604C160.835 208.295 160.84 208.293 160.378 207.058C159.828 205.592 159.261 204.131 158.713 202.665C158.629 202.437 158.314 202.007 158.718 201.977C159.9 201.888 160.12 200.76 160.862 200.216C161.037 199.905 160.822 199.195 161.602 199.51C162.299 201.493 162.994 203.473 163.691 205.455C163.679 206.601 163.076 207.286 161.999 207.607L161.997 207.604Z" fill="#FEFEFE"/>
<path d="M150.155 182.755C148.856 180.045 147.559 177.332 146.257 174.621C145.975 174.032 145.563 173.52 146.637 173.18C147.334 172.959 147.517 172.052 148.014 171.52C148.536 171.553 148.713 171.95 148.806 172.35C149.131 173.761 149.77 175.076 150.073 176.492C150.013 177.066 149.563 177.242 149.078 177.411C149.561 177.498 149.925 176.81 150.418 177.274C150.917 179.038 151.809 180.683 151.994 182.541C151.45 183.2 150.875 183.587 150.158 182.755H150.155Z" fill="#E3E3DF"/>
<path d="M174.031 156.244C174.423 156.251 174.656 155.965 174.933 155.762C175.52 156.03 175.68 156.621 175.93 157.123C176.68 158.636 177.349 160.186 178.074 161.709C178.284 162.149 178.509 162.609 178.336 163.128C177.896 163.719 177.467 163.903 177.054 163.103C175.165 159.523 173.174 156 170.997 152.584C170.658 152.05 170.138 151.605 170.57 150.82C170.975 150.085 171.587 150.574 172.077 150.41C173.006 151.859 174.186 153.165 174.638 154.885C174.603 155.28 174.253 155.454 174.041 155.727C173.918 155.886 173.639 156.065 174.033 156.241L174.031 156.244Z" fill="#E3E3DF"/>
<path d="M184.031 168.825C184.868 170.348 185.623 171.92 186.57 173.371C187.207 174.35 186.932 175.001 186.262 175.724C185.328 176.729 184.542 176.649 183.906 175.483C183.886 175.446 183.866 175.411 183.843 175.376C182.587 173.453 181.335 171.53 183.384 169.359C183.399 169.061 183.286 168.698 183.621 168.529C183.808 168.435 183.961 168.631 184.033 168.827L184.031 168.825Z" fill="#FEFEFE"/>
<path d="M187.951 182.83C186.862 181.23 186.097 179.453 185.158 177.771C185.045 177.57 184.843 177.312 185.215 177.178C186.3 176.792 186.407 175.56 187.397 174.917C188.214 176.502 189.353 177.987 190.003 179.754C190.12 179.95 190.1 180.156 190.05 180.365C189.548 181.354 189.111 182.395 187.951 182.83Z" fill="#FEFEFE"/>
<path d="M164.933 141.054C164.531 139.956 164.963 139.481 166.062 139.123C169.508 138.008 172.192 135.76 174.568 133.111C175.09 134.507 174.456 135.605 173.576 136.577C171.262 139.133 168.204 140.309 164.93 141.054H164.933Z" fill="#22406E"/>
<path d="M189.92 180.156C189.948 180.022 189.975 179.891 190.003 179.756C191.07 181.364 192.139 182.971 193.206 184.579C193.241 185.918 192.257 186.566 191.36 187.272C190.992 187.59 190.76 187.441 190.44 187.128C189.473 186.176 189.043 184.909 188.351 183.799C187.994 183.225 188.624 183.031 188.799 182.663C189.018 181.759 189.716 181.066 189.92 180.156Z" fill="#FDFDFD"/>
<path d="M178.329 162.976C177.197 160.572 176.065 158.167 174.93 155.759C175.293 155.136 175.655 154.512 176.1 153.744C177.382 156.239 178.599 158.589 179.791 160.954C179.888 161.145 179.816 161.421 179.823 161.657C179.603 162.408 179.296 163.063 178.329 162.976Z" fill="#FEFEFE"/>
<path d="M164.438 211.783C163.866 212.347 163.396 213.381 162.557 213.152C161.962 212.988 162.024 211.883 161.772 211.204C161.557 210.63 161.41 210.032 161.197 209.458C161.052 209.065 161.052 208.747 161.457 208.524C162.229 208.029 162.637 207.209 163.234 206.556C163.506 206.258 163.773 205.801 164.093 206.516C164.508 207.622 164.92 208.73 165.335 209.835C165.283 210.596 164.965 211.237 164.436 211.781L164.438 211.783Z" fill="#FCFCFC"/>
<path d="M151.972 182.442C151.28 180.763 150.473 179.118 150.34 177.262C150.623 176.415 151.01 175.697 152.104 175.866C152.751 177.212 153.396 178.556 154.043 179.903C153.768 181.431 153.064 182.293 151.972 182.44V182.442Z" fill="#FEFEFE"/>
<path d="M146.072 172.788C145.682 173.19 145.455 172.989 145.245 172.591C144.601 171.359 143.943 170.134 143.164 168.668C143.633 169.036 143.878 169.262 144.158 169.439C145.66 170.388 146.932 169.694 147.029 167.911C147.047 167.61 146.687 167.096 147.304 167.019C147.774 166.959 147.869 167.456 148.014 167.762C148.349 168.472 148.611 169.215 148.903 169.945C148.811 170.02 148.721 170.097 148.634 170.179C147.964 171.23 147.027 172.017 146.072 172.788Z" fill="#E5E5E1"/>
<path d="M174.528 155.004C173.704 153.737 173.229 152.249 172.077 151.19C171.809 150.944 171.902 150.671 172.072 150.41C172.796 150.107 173.364 149.593 173.873 148.907C174.521 150.303 175.083 151.57 175.698 152.81C176.03 153.478 175.61 153.878 175.288 154.338C175.118 154.651 174.945 154.964 174.531 155.001L174.528 155.004Z" fill="#FDFDFD"/>
<path d="M148.723 169.776C148.773 169.843 148.833 169.898 148.903 169.943C149.935 171.727 150.975 173.506 151.42 175.55C151.115 176.137 150.902 176.85 149.978 176.601C149.341 175.406 148.991 174.109 148.634 172.82C148.501 172.343 148.404 171.868 148.016 171.52H147.959C147.999 170.842 148.269 170.268 148.726 169.776H148.723Z" fill="#FDFDFD"/>
<path d="M152.494 182.852C152.287 183.123 152.134 183.431 152.242 183.761C152.786 185.423 153.346 187.083 153.933 188.733C153.981 188.867 154.273 188.916 154.451 189.003C153.586 189.784 153.144 189.513 152.739 188.487C152.114 186.892 151.335 185.359 150.62 183.799C151.005 183.013 151.672 182.785 152.494 182.852Z" fill="#E1E1DD"/>
<path d="M137.831 97.3601C136.24 96.98 134.643 96.6197 133.056 96.2148C130.69 95.611 128.294 95.1812 125.88 94.8309C125.73 94.8086 125.6 94.6719 125.46 94.5899C129.813 94.508 133.906 95.5589 137.831 97.3601Z" fill="#1E5D83"/>
<path d="M154.478 189.672C154.908 191.87 155.308 194.079 156.807 195.883C156.147 196.636 156.012 195.865 155.732 195.515C155.103 193.997 154.518 192.459 153.828 190.971C153.509 190.28 153.536 189.858 154.286 189.592C154.351 189.555 154.403 189.552 154.438 189.59C154.478 189.632 154.493 189.659 154.478 189.672Z" fill="#DDDDD9"/>
<path d="M80.1101 117.747C80.3725 118.927 81.0447 119.991 81.1046 121.228C80.0577 120.52 79.1431 119.668 78.2436 118.647C78.9307 118.391 79.6404 118.291 80.1076 117.747L80.1101 117.747Z" fill="#223E6C"/>
<path d="M152.494 182.852C151.877 183.182 151.157 183.309 150.62 183.799C150.478 183.446 150.123 183.185 150.155 182.755C150.897 183.436 151.377 182.611 151.972 182.44C153.034 181.893 153.721 181.043 154.043 179.903C154.216 180.042 154.348 180.196 154.228 180.437C153.776 181.331 153.336 182.236 152.492 182.852L152.494 182.852Z" fill="#484848"/>
<path d="M149.975 176.604C150.643 176.507 150.912 175.873 151.417 175.553C151.672 175.6 152.132 175.205 152.104 175.866C151.175 175.903 151.015 176.904 150.34 177.262C149.805 177.433 149.356 177.861 148.743 177.796C148.549 177.774 148.321 177.761 148.284 177.498C148.241 177.215 148.434 177.17 148.653 177.15C149.151 177.105 149.621 176.991 149.978 176.604H149.975Z" fill="#2F2F2F"/>
<path d="M155.732 195.515C156.035 195.803 156.31 196.161 156.807 195.883C157.981 195.781 158.499 194.872 159.136 193.893C158.978 195.801 157.664 196.31 156.272 196.737C156.02 196.362 155.722 196.005 155.732 195.515Z" fill="#3D3D3E"/>
<path d="M178.329 162.976C179.031 162.765 179.378 162.157 179.823 161.657C179.908 161.742 179.993 161.829 180.078 161.913C179.693 162.758 179.076 163.411 178.211 163.712C177.712 163.888 177.757 164.142 177.824 164.497C177.352 164.149 177.202 163.625 177.052 163.101C177.529 163.58 177.936 163.354 178.329 162.974L178.329 162.976Z" fill="#3E3E3F"/>
<path d="M164.096 206.519C163.671 206.014 163.534 206.467 163.336 206.742C162.826 207.455 162.367 208.226 161.46 208.526C161.567 208.178 162.124 208.089 161.997 207.607C162.549 206.879 163.379 206.372 163.689 205.455C163.818 205.813 164.178 206.081 164.096 206.521V206.519Z" fill="#474748"/>
<path d="M166.522 230.896C167.517 229.296 168.868 228.041 170.405 226.971C169.111 228.28 167.816 229.587 166.522 230.896Z" fill="#5D5D5E"/>
<path d="M189.92 180.156C189.99 181.19 189.383 181.92 188.799 182.663C188.484 182.559 188.281 183.004 187.951 182.832C188.871 182.131 189.216 181.014 189.92 180.159L189.92 180.156Z" fill="#4E4F4F"/>
<path d="M191.357 187.272C192.107 186.464 192.881 185.674 193.204 184.579C193.499 184.805 193.871 184.971 193.846 185.433C193.631 185.351 193.411 184.974 193.221 185.473C193.056 185.91 192.964 186.392 192.534 186.685C192.002 186.606 191.894 187.366 191.355 187.272H191.357Z" fill="#6A6A6A"/>
<path d="M201.062 198.213C201.992 196.77 203.171 195.57 204.618 194.631C203.434 195.826 202.249 197.018 201.062 198.213Z" fill="#5B5B5B"/>
<path d="M148.723 169.776C148.384 170.32 148.421 171.029 147.956 171.518C147.149 171.677 146.934 172.703 146.075 172.788C146.972 171.93 147.874 171.078 148.334 169.886C148.401 169.709 148.551 169.657 148.723 169.779L148.723 169.776Z" fill="#7A7A7A"/>
<path d="M202.102 182.427C201.25 183.811 200.148 184.954 198.761 185.816C199.875 184.685 200.987 183.555 202.102 182.427Z" fill="#9A9A9B"/>
<path d="M154.478 189.672C154.413 189.644 154.351 189.62 154.286 189.592C154.346 189.416 154.408 189.242 154.468 189.066L155.915 187.607C155.795 188.673 155.063 189.12 154.478 189.669V189.672Z" fill="#4C4D4D"/>
<path d="M219.048 186.203C219.936 185.314 220.825 184.427 221.712 183.538C221.1 184.698 220.193 185.567 219.048 186.203Z" fill="#696969"/>
<path d="M145.365 232.036C144.591 232.809 143.816 233.584 143.041 234.357C143.546 233.316 144.336 232.558 145.365 232.036Z" fill="#6D6D6D"/>
<path d="M164.438 211.783C164.738 211.135 165.038 210.486 165.338 209.838C165.478 209.98 165.668 210.101 165.55 210.347C165.3 210.819 165.053 211.291 164.803 211.763C164.681 211.771 164.561 211.778 164.438 211.786V211.783Z" fill="#434344"/>
<path d="M207.467 176.941C207.976 175.903 208.756 175.133 209.788 174.606C209.013 175.384 208.241 176.161 207.467 176.941Z" fill="#6F6F70"/>
<path d="M156.232 246.635C157.014 245.852 157.794 245.067 158.576 244.285C158.044 245.313 157.277 246.111 156.232 246.635Z" fill="#8E8E8D"/>
<path d="M174.528 155.004C174.781 154.783 175.033 154.562 175.285 154.341C175.198 155.193 174.088 155.377 174.028 156.244C173.616 156.393 173.606 156.119 173.746 155.906C173.961 155.575 174.263 155.302 174.528 155.004Z" fill="#747474"/>
<path d="M209.606 175.846C209.013 176.44 208.421 177.031 207.829 177.625C208.174 176.787 208.774 176.201 209.606 175.846Z" fill="#525253"/>
<path d="M161.6 199.51C160.987 199.366 161.262 200.141 160.86 200.216C160.802 200.151 160.745 200.089 160.688 200.024C160.688 199.535 161.067 199.219 161.25 198.814C161.49 198.986 161.675 199.182 161.597 199.51H161.6Z" fill="#767676"/>
<path d="M148.099 247.37C147.257 247.022 146.667 246.424 146.312 245.594C146.907 246.185 147.504 246.776 148.099 247.37Z" fill="#888888"/>
<path d="M147.169 244.712C147.771 245.308 148.376 245.904 148.978 246.501C148.134 246.148 147.534 245.547 147.169 244.712Z" fill="#6F6F6F"/>
<path d="M184.031 168.825C183.244 168.313 183.716 169.322 183.381 169.357C183.281 169.361 183.181 169.366 183.081 169.371C183.199 168.902 183.316 168.435 183.431 167.965C183.749 168.171 184.068 168.373 184.031 168.822L184.031 168.825Z" fill="#646565"/>
<path d="M145.67 111.293C145.702 112.115 146.34 111.601 146.679 111.745C148.174 111.715 149.503 112.314 150.815 112.89C153.931 114.262 156.867 115.941 159.491 118.13C160.348 118.99 161.222 119.829 162.084 120.681C162.996 121.737 163.806 122.833 163.461 124.356C163.024 124.947 162.327 124.975 161.7 125.161C157.277 126.475 152.784 126.443 148.256 125.889C147.482 125.794 146.477 125.355 145.995 126.289C145.535 127.181 146.492 127.648 146.972 128.229C147.207 128.515 147.497 128.776 147.374 129.206C147.099 129.618 146.704 129.591 146.285 129.516C147.069 129.635 147.914 129.534 148.574 130.112C148.666 130.897 148.016 130.791 147.587 130.875C145.13 131.352 142.664 131.352 140.195 130.942C139.828 130.88 139.461 130.835 139.091 130.798C138.406 130.731 137.714 130.746 137.382 131.466C137.069 132.142 137.512 132.637 137.954 133.091C138.291 133.437 138.776 133.7 138.574 134.316C138.201 134.798 138.059 135.379 137.861 135.938C137.382 136.276 136.832 136.212 136.297 136.187C130.47 135.904 125.363 133.68 120.637 130.43C117.639 128.368 114.935 125.899 111.764 124.073C111.537 123.941 110.94 123.842 111.345 123.3C111.852 122.821 112.434 123.049 112.999 123.129C116.784 123.66 120.58 124.095 124.413 124.008C125.113 123.993 125.81 123.906 126.737 123.834C125.075 122.672 123.501 121.777 122.212 120.515C122.034 120.341 121.837 120.182 121.684 119.991C121.415 119.653 120.875 119.414 121.075 118.87C121.282 118.301 121.849 118.316 122.342 118.282C126.282 117.998 130.23 118.075 134.176 118.115C134.663 118.12 135.15 118.177 135.912 118.229C135.303 117.315 134.67 116.885 134.038 116.458C132.327 115.305 130.715 114.001 128.861 113.059C128.326 112.786 128.616 112.446 128.921 112.207C129.516 111.742 130.225 111.497 130.932 111.258C133.369 110.441 135.885 110.274 138.431 110.344C139.218 110.366 140.005 110.383 140.792 110.401C142.492 110.294 144.181 110.239 145.665 111.295L145.67 111.293Z" fill="white"/>
<path d="M164.436 125.255C164.536 127.221 163.459 128.642 162.052 129.742C159.813 131.496 157.169 132.324 154.321 132.42C153.616 132.445 153.176 132.634 152.876 133.317C152.332 134.56 151.402 135.526 150.188 136.13C148.391 137.022 146.937 138.597 144.8 138.808C144.583 138.83 144.431 138.932 144.303 139.121C142.776 141.394 140.375 141.725 137.944 141.819C132.402 142.033 127.214 140.515 122.149 138.45C118.349 136.9 114.743 134.999 111.372 132.654C109.663 131.464 108.191 130.023 106.742 128.55C106.31 128.11 106.007 127.618 106.572 127.049C106.824 126.796 106.782 126.537 106.592 126.271C107.027 125.944 107.289 126.331 107.564 126.53C113.716 130.965 120.223 134.768 127.349 137.451C129.845 138.391 132.424 139.032 135.143 138.9C137.369 138.793 138.316 138.112 138.938 135.961C139.193 135.079 139.838 135.213 140.438 135.312C142.844 135.71 145.235 135.757 147.614 135.138C148.381 134.94 149.158 134.751 149.835 134.336C151.092 133.568 152.122 132.617 151.904 130.962C151.772 129.943 152.269 129.675 153.186 129.648C154.853 129.598 156.487 129.26 158.114 128.912C160.625 128.376 162.749 127.193 164.433 125.25L164.436 125.255Z" fill="#22406F"/>
<path d="M164.436 125.255C163.686 126.853 162.344 127.755 160.755 128.383C158.299 129.355 155.74 129.829 153.116 129.963C152.462 129.996 152.067 129.963 152.234 130.88C152.557 132.644 151.522 133.807 150.078 134.55C147.372 135.943 144.453 136.137 141.475 135.789C141.27 135.764 141.062 135.745 140.86 135.697C139.873 135.469 139.116 135.312 139.118 136.845C139.118 138.053 137.407 139.066 135.702 139.213C132.779 139.466 130 138.776 127.309 137.779C120.438 135.238 114.191 131.533 108.159 127.444C107.616 127.076 107.307 126.408 106.594 126.271C106.062 125.775 105.527 125.28 104.995 124.783C104.151 124.242 103.546 123.442 102.826 122.766C102.689 122.637 102.706 122.48 102.874 122.361C106.699 125.752 110.935 128.54 115.498 130.845C116.102 130.711 116.52 131.114 116.982 131.37C121.167 133.685 125.413 135.864 130.033 137.213C131.874 137.75 133.741 138.12 135.687 137.856C136.954 137.685 137.789 137.133 137.904 135.779C137.394 135.066 137.726 134.624 138.391 134.291C139.968 133.919 141.477 134.582 143.036 134.592C145.13 134.604 147.164 134.396 149.106 133.563C149.733 133.295 150.243 132.89 150.643 132.348C151.005 131.859 151.185 131.288 150.972 130.716C150.742 130.1 150.13 130.341 149.663 130.311C149.248 130.284 148.833 130.301 148.451 130.105C147.459 129.807 146.367 129.936 145.09 129.382C146.017 129.315 146.612 129.27 147.209 129.228C149.416 128.587 151.722 128.835 153.963 128.465C155.76 128.17 157.537 127.859 159.283 127.312C160.977 126.783 162.327 125.894 163.259 124.388C163.459 123.059 162.779 122.05 162.032 121.067C161.172 120.016 160.213 119.064 159.138 118.229C155.35 115.37 151.272 113.064 146.674 111.742C147.212 110.98 147.881 111.549 148.409 111.673C152.347 112.595 155.78 114.585 159.078 116.828C160.663 117.904 162.054 119.188 163.199 120.734C164.203 122.09 164.686 123.566 164.428 125.253L164.436 125.255Z" fill="#030405"/>
<path d="M137.904 135.779C138.566 136.84 137.854 137.382 137.057 137.787C135.74 138.46 134.313 138.333 132.911 138.15C129.795 137.74 126.909 136.592 124.073 135.317C121.13 133.996 118.241 132.56 115.5 130.845C115.19 130.197 114.77 129.673 114.196 129.198C112.826 128.065 111.787 126.637 110.96 125.071C110.615 124.421 110.53 123.74 111.347 123.298C112.487 124.358 113.916 125.002 115.163 125.926C117.671 127.787 120.08 129.789 122.771 131.407C127.429 134.209 132.352 136.055 137.904 135.777V135.779Z" fill="#E3E3DF"/>
<path d="M145.67 111.293C144.101 110.704 142.407 110.774 140.797 110.398C139.076 109.417 137.107 109.231 135.243 108.714C132.651 107.996 130.038 107.36 127.437 106.682C127.199 106.62 126.969 106.51 126.752 106.393C126.487 106.249 125.97 106.237 126.127 105.802C126.26 105.437 126.704 105.613 127.024 105.641C133.339 106.167 139.216 108.331 145.083 110.495C145.508 110.652 146.105 110.565 146.42 111.156C146.145 111.206 145.907 111.251 145.67 111.295V111.293Z" fill="#2F87C0"/>
<path d="M102.874 122.363C103.281 123.432 104.363 123.911 104.995 124.783C103.181 123.66 101.879 122.048 100.742 120.269C101.452 120.967 102.164 121.665 102.874 122.363Z" fill="#112B41"/>
<path d="M148.451 130.107C149.211 129.829 149.99 130.1 150.76 130.025C151.292 129.973 151.34 130.356 151.392 130.738C151.56 131.924 150.917 132.992 149.576 133.678C147.447 134.761 145.145 134.997 142.811 134.855C141.332 134.766 139.863 134.49 138.391 134.296C138.501 133.896 138.249 133.7 137.969 133.494C137.192 132.922 136.565 132.222 137.084 131.218C137.529 130.358 138.394 130.348 139.253 130.507C142.129 131.037 145.005 131.111 147.889 130.552C148.161 130.5 148.516 130.577 148.454 130.112L148.451 130.107Z" fill="#E3E3DF"/>
<path d="M163.264 124.391C163.239 125.658 162.307 126.239 161.377 126.771C159.703 127.725 157.844 128.167 155.965 128.473C153.069 128.945 150.158 129.275 147.214 129.23C147.144 128.473 146.452 128.189 146.01 127.737C145.505 127.221 145.4 126.654 145.605 126.04C145.822 125.392 146.435 125.442 146.974 125.469C149.323 125.586 151.652 125.958 154.016 125.968C157.204 125.983 160.248 125.285 163.269 124.391H163.264Z" fill="#E3E3DF"/>
<path d="M159.143 118.232C160.345 118.937 161.332 119.859 162.037 121.069C161.072 120.122 160.108 119.178 159.143 118.232Z" fill="#A4A4A4"/>
<path d="M55.4949 75.7033C52.8187 76.7343 50.5398 78.1032 48.2485 79.4349C45.7098 80.9106 43.0986 82.2448 40.4199 83.4473C39.8027 83.7255 39.1555 83.9267 38.5008 83.9392C37.1115 83.9665 36.2994 83.5168 36.3519 81.9814C36.4918 77.7877 36.5868 73.599 37.9661 69.3953C37.0216 69.5717 36.2994 69.7158 35.5748 69.8425C33.3534 70.2325 30.5298 69.2512 30.7397 65.8053C30.8621 63.7829 30.7922 61.773 30.2699 59.7929C29.8227 58.1035 29.198 56.506 28.151 55.0874C27.6812 54.4514 27.149 53.875 26.4743 53.4477C25.205 52.6427 24.7952 51.726 25.2849 50.3198C25.9521 48.3993 27.0965 46.8838 29.2729 46.5186C29.7452 46.4391 29.7402 46.1907 29.8027 45.8627C30.4873 42.2379 31.3719 38.6852 33.7207 35.6939C34.0231 35.3088 34.088 34.9685 33.7032 34.6107C32.5163 33.5101 32.5838 32.094 32.7662 30.6903C33.4034 25.786 37.129 21.9674 42.0366 21.1351C43.9956 20.8022 45.5873 21.468 46.6043 23.155C46.9092 23.6618 47.124 23.8804 47.8037 23.9003C50.6523 23.9897 53.5059 24.1289 56.2995 24.7674C57.0416 24.9363 57.4964 24.8121 57.5663 23.945C57.5988 23.5351 57.7987 23.0481 58.1636 22.8991C59.3755 22.4047 59.8002 20.9761 61.0671 20.5811C61.2445 20.5264 61.317 20.4097 61.367 20.2358C62.374 16.6184 65.1726 14.534 68.1111 12.6408C72.3865 9.88561 77.1316 8.27073 82.1516 7.5726C88.6784 6.66578 95.0977 7.15521 101.295 9.5676C100.982 10.375 100.393 9.92288 99.9453 9.81108C98.4985 9.44587 97.0667 9.01854 95.5724 8.86948C90.0502 8.09433 84.5604 8.20862 79.1156 9.47816C74.0731 10.6558 69.418 12.621 65.4349 15.9948C64.2205 17.0234 63.231 18.2358 62.4164 19.5873C62.0741 20.1364 62.279 20.5066 62.7962 20.8022C63.6283 21.2792 64.378 21.8631 65.0101 22.5885C65.29 22.7624 65.5749 22.7127 65.8472 22.5885C68.9832 21.1426 72.3015 21.3239 75.6174 21.5227C80.0177 21.7861 84.3205 22.8469 88.7183 23.1326C92.1616 23.3562 95.5999 23.4904 99.0357 23.0407C102.114 22.6929 105.2 22.4121 107.302 21.9376C103.908 22.6233 99.5954 22.4842 95.2951 21.5898C93.7333 21.2643 92.1516 21.3662 90.5799 21.2792C88.506 21.1649 86.4395 20.9786 84.383 20.6879C83.9357 20.6258 83.4635 20.5985 83.1561 20.1836C83.466 19.3538 84.1906 19.6196 84.7453 19.6693C87.9712 19.965 91.1971 20.0022 94.433 19.9227C102.184 19.7314 109.64 18.2457 116.719 15.0532C123.341 12.0769 129.281 8.19868 133.866 2.20871C133.034 2.61118 132.589 3.2795 131.832 3.42359C131.707 3.41863 131.602 3.36894 131.52 3.27701C132.844 2.18386 134.166 1.09071 135.49 -0.00244141C135.333 1.17518 134.775 2.13417 134.158 3.05093C131.315 7.29186 127.369 10.3353 123.086 12.9837C118.094 16.0694 112.694 18.2134 106.989 19.6022C105.453 20.0147 103.896 20.3178 102.309 20.4718C101.747 20.5513 101.185 20.6308 100.625 20.7078C100.07 20.6258 99.5504 21.0631 99.1706 20.8966C99.383 20.8718 99.8028 20.8221 100.163 21.0531C102.921 21.155 105.67 21.078 108.396 20.5985C109.84 20.4668 111.257 20.196 112.651 19.8035C113.593 19.632 114.481 19.3165 115.358 18.7451C115.31 19.6296 114.703 19.9376 114.113 20.2209C110.767 21.8233 107.222 22.7873 103.591 23.5202C96.3421 24.9835 89.1281 24.509 81.9042 23.3488C78.2336 22.76 74.5529 22.2159 70.8073 22.4295C69.2205 22.519 67.6788 22.832 66.1521 23.2295C65.5224 23.3935 64.9052 23.6568 64.9277 24.5338C64.9352 24.8369 64.6653 25.1276 64.3655 25.304C64.2005 25.1549 64.1256 24.9612 64.1256 24.7525C64.1331 22.8792 62.7888 22.2805 61.8192 21.9003C62.7163 22.1562 63.6483 22.9885 64.0131 24.4046C64.0931 24.7152 64.0506 25.0804 64.3805 25.2891C64.9527 26.4792 65.6573 27.4506 67.0416 27.9201C68.8757 28.5412 70.6373 29.3735 72.414 30.1487C72.8013 30.3176 73.0262 30.1164 73.326 29.9921C74.8328 29.3661 76.3645 28.8915 78.0362 29.1623C81.6943 29.7561 83.6534 32.4095 83.331 36.2604C83.1886 37.9548 82.6339 39.5572 82.3465 41.2193C82.0167 43.1273 82.1016 44.9981 82.444 46.8689C82.6439 47.9621 82.6014 49.0676 82.7863 50.1658C83.1036 52.049 83.7908 53.8278 84.1656 55.6862C84.7753 58.7122 83.7883 60.7867 81.1346 62.1656C79.5929 62.9656 78.9307 63.5544 78.2011 65.0624C76.8692 67.8251 74.5804 69.286 71.6643 69.8648C69.9852 70.1978 68.391 70.7717 66.7693 71.2835L55.4999 75.7033H55.4949Z" fill="#030305"/>
<path d="M102.329 10.0421C101.847 10.0645 102.871 11.0806 101.894 10.7278C98.8583 9.6322 95.7049 9.42599 92.519 9.43593C92.6964 9.05581 93.0662 8.98127 93.4185 8.87941C94.1581 8.60861 94.9702 8.87941 95.7049 8.5788C97.2341 8.71792 98.6934 9.17258 100.173 9.54276C100.525 9.6322 100.912 10.0297 101.292 9.57009C101.677 9.64462 102.044 9.75145 102.329 10.0446V10.0421Z" fill="#1D587C"/>
<path d="M112.646 19.8084C111.292 20.4097 109.87 20.6556 108.391 20.6035C109.81 20.3376 111.227 20.0743 112.646 19.8084Z" fill="#030305"/>
<path d="M100.158 21.0606C99.7304 21.0507 99.3031 21.0432 98.8758 21.0333C99.4305 20.6929 99.9952 20.5115 100.617 20.7128C100.465 20.8295 100.31 20.9438 100.158 21.0606Z" fill="#030305"/>
<path d="M46.2445 23.8804C46.4994 24.3897 46.7567 24.8991 47.0116 25.4084C47.1066 24.273 47.8812 24.5264 48.5433 24.5661C56.0996 25.0084 63.256 27.1152 70.29 29.7412C70.4474 30.012 70.295 30.2033 70.1176 30.3797C69.9427 30.5536 69.6978 30.6331 69.4979 30.7723C68.9557 31.1524 68.2485 31.6244 68.5109 32.2878C68.7783 32.966 69.5004 32.2679 70.0176 32.3474C71.9192 31.4182 73.8233 30.489 75.9447 30.1437C76.7243 30.017 77.5064 29.9077 78.266 30.248C77.9537 31.207 78.2261 32.0145 78.8832 32.7474C79.2406 33.1474 79.5329 33.5995 79.8128 34.0592C80.6024 35.3635 81.0172 36.5958 80.4075 38.2231C79.5179 40.5907 79.6728 43.1721 79.5279 45.6789C79.4754 46.5882 80.2825 47.2366 80.1551 48.1385C79.6029 48.4018 79.8328 48.8291 79.9627 49.1968C80.8972 51.8527 80.7948 54.5384 80.0402 57.1818C79.5829 58.7843 79.0631 60.3569 78.9232 62.0264C78.401 61.3432 78.5009 60.4662 78.1861 59.7085C77.4739 57.9892 76.1321 56.8265 74.7203 55.7433C74.2206 55.3607 74.1981 55.0551 74.323 54.5185C75.2201 50.6353 74.6953 46.8192 73.6458 43.0503C73.4759 42.4392 73.331 42.1038 74.2006 42.0466C74.9477 41.9969 75.6099 41.6044 76.2096 40.7994C74.9602 41.2839 73.8532 41.7261 72.5614 40.8094C73.6683 40.4914 74.6403 40.2529 75.2051 39.1771C74.393 39.4554 73.7183 39.7113 73.0262 39.9075C72.7388 39.9895 72.284 40.1535 72.1966 39.6914C72.1166 39.2715 72.5889 39.3883 72.8263 39.3162C73.5834 39.0852 74.313 38.8293 74.8802 37.9299C74.393 38.0989 74.0831 38.2305 73.7583 38.3125C72.5464 38.6131 71.4594 38.7125 70.5649 37.4753C69.7028 36.2852 68.4134 35.5573 66.9941 35.1126C66.362 34.6356 65.5899 34.6977 64.8777 34.6728C64.0006 34.6405 63.4159 35.443 63.5259 36.3374C63.5759 36.7523 63.9407 37.1945 63.3884 37.5399C60.4374 38.7547 57.8087 40.4392 55.6098 42.7646C53.5458 44.9484 52.0866 47.4378 51.6168 50.767C50.4524 48.3223 48.5358 47.7111 46.3244 47.7236C45.7747 47.726 45.7072 47.5969 45.8322 47.1024C46.4219 44.787 46.312 42.4392 46.1345 40.0864C45.9671 38.5088 45.6698 36.956 45.25 35.4256C44.5828 33.2741 43.6583 31.2791 41.7492 29.7362C41.9141 30.8841 41.2645 30.8319 40.6473 30.5338C39.9076 30.176 39.198 29.7189 38.8632 28.894C38.6832 28.4543 38.5258 28.7127 38.3659 28.9064C38.2585 29.0307 38.1685 29.1723 38.0311 29.2667C37.7137 29.4878 37.3114 29.7039 37.0116 29.4182C36.6692 29.0928 36.9991 28.7276 37.2215 28.4468C38.101 27.3363 39.168 26.4245 40.3674 25.6792C41.8167 24.7823 43.4159 24.2034 45.0201 23.6519C45.4624 23.5003 45.9121 23.3885 46.237 23.8829L46.2445 23.8804Z" fill="#A1A1A9"/>
<path d="M40.4274 78.9305C42.5613 78.8908 44.4104 77.8647 46.3569 77.2039C51.9916 75.2884 57.1516 72.4362 62.1216 69.199C64.5154 67.6388 66.5794 65.6661 68.9757 64.1084C70.0002 63.4426 70.7823 63.3308 71.7468 63.9742C71.9417 64.1034 72.1716 64.1854 72.4265 64.3096C71.7868 62.2923 70.0251 61.3954 68.0886 62.0662C68.226 62.5854 68.8157 62.3718 69.253 62.891C65.5399 64.409 61.7593 65.3804 57.9087 66.1133C57.0416 66.0264 56.242 66.491 55.3749 66.4115C55.0576 66.4487 54.7403 66.4885 54.4204 66.5258C54.5154 65.2637 55.7822 65.5717 56.3345 65.0624C51.247 65.7829 46.0621 66.4636 40.8497 66.9531C39.2805 67.0997 37.7637 67.6438 36.162 67.5593C35.0601 67.5021 34.8552 67.2388 35.3124 66.2823C38.3109 59.9992 42.0866 54.2502 47.0866 49.3409C47.264 49.167 47.4289 48.9807 47.6488 48.854C47.7562 48.7571 47.8787 48.7322 48.0161 48.777C49.6628 49.1223 50.6723 50.1707 51.312 51.6664C51.8792 52.993 52.5289 54.2849 53.4634 55.4029C55.9921 58.424 59.2855 59.6339 63.1761 59.3954C64.268 59.0203 65.3675 58.8116 66.5044 59.2016C69.1931 58.901 71.5744 57.8277 73.7733 56.3147C74.0132 56.1483 74.1206 56.0613 74.3755 56.2799C75.7923 57.5073 77.2041 58.7346 77.7238 60.6401C77.9887 61.4451 78.1961 62.2625 78.1611 63.1196C77.0966 66.1531 75.1526 68.2847 71.9417 69.1195C71.1621 69.4971 70.245 69.3481 69.4779 69.763C63.7758 71.4474 58.2185 73.4797 52.9786 76.3318C48.4659 78.7864 43.8632 81.0796 39.1655 83.1715C38.2884 83.5615 37.5288 83.6286 37.3539 82.3889C37.6962 81.415 38.201 80.5181 38.6733 79.6038C38.9181 79.1343 39.233 78.7964 39.7852 78.7343C40.0326 78.702 40.245 78.774 40.4299 78.9355L40.4274 78.9305Z" fill="white"/>
<path d="M93.5759 9.18997C93.2236 9.27195 92.8713 9.35146 92.519 9.43344C91.3845 9.64213 90.2526 9.89306 89.1231 10.0918C87.9687 10.2931 88.5734 10.6483 88.8758 11.0632C88.7958 11.7787 89.378 11.9427 89.8453 12.1763C91.347 12.9241 92.9662 13.3017 94.6029 13.5824C100.71 14.6358 106.782 14.3352 112.756 12.7874C117.477 11.5651 121.924 9.62226 126.102 7.10553C127.434 6.30305 128.893 5.68691 130.02 4.56643C130.408 3.99501 131.205 3.92793 131.565 3.32422C132.482 2.72795 133.399 2.13169 134.593 1.35406C133.711 3.09068 132.661 4.28072 131.547 5.40866C127.384 9.62474 122.559 12.8769 117.072 15.1551C115.832 15.6296 114.558 15.9799 113.254 16.2234C106.882 17.4159 100.542 18.8147 94.0057 18.8271C90.0927 18.8345 86.1896 18.6283 82.284 18.4867C81.4944 18.4594 80.7023 18.4668 79.9152 18.5265C79.6778 18.5439 79.3805 18.5786 79.4055 18.9265C79.423 19.1749 79.6604 19.237 79.8603 19.2768C80.5549 19.4084 81.2471 19.5501 81.9542 19.5948C82.4739 19.6271 82.9437 19.7438 83.2411 20.2184C86.8593 20.6755 90.505 20.8022 94.1306 21.1128C97.0067 21.3587 99.8553 22.0494 102.774 21.955C104.798 21.8904 106.822 21.7314 108.901 21.6097C105.695 22.8196 102.372 23.078 99.0457 23.3314C92.2516 22.5637 85.48 21.5451 78.6209 21.4606C75.435 21.4208 72.2515 21.4556 69.0781 21.7587C68.0861 21.8531 67.1316 22.1562 66.2145 22.5513C65.7073 22.7674 65.2125 22.9612 64.6678 22.6978C64.1181 21.9451 63.3984 21.3736 62.5639 20.9935C61.8942 20.6879 61.6818 20.3178 62.0166 19.6619C62.6013 19.9053 63.0436 19.6445 63.4884 19.2892C68.7483 15.0905 74.8053 12.6657 81.312 11.0806C84.8303 10.2235 88.3885 9.62971 91.9268 8.90923C92.474 8.79743 93.1436 8.44712 93.5759 9.19245V9.18997Z" fill="#1E5F84"/>
<path d="M67.5739 37.7784C69.0806 37.92 70.6998 37.9026 70.7698 40.0442C72.1991 41.1249 72.4364 42.8416 73.0936 44.3348C73.4659 45.4577 73.6608 46.6155 73.7608 47.7906C73.9132 50.1409 73.8957 52.4812 73.406 54.8042C73.1761 55.8899 72.6788 56.6352 71.6019 57.0973C70.4599 57.5892 69.3055 58.0414 68.1411 58.4687C66.5844 58.8588 65.0576 59.4675 63.4009 59.1047C60.6173 59.0327 58.0011 58.4066 55.7123 56.7545C54.6678 56.0017 53.7582 55.1147 53.2335 53.9073C55.5823 50.3322 57.2665 46.3273 60.3325 43.2168C61.8992 41.6267 63.4334 40.0119 65.1975 38.6231C65.9147 38.0591 66.6593 37.7088 67.5789 37.7784H67.5739Z" fill="white"/>
<path d="M47.7787 48.9136C46.5468 50.5657 45.0126 51.9496 43.7032 53.5421C41.2295 56.5483 39.088 59.7532 37.2739 63.1842C36.6967 64.2749 36.1345 65.373 35.5648 66.4661C35.4549 66.6773 35.21 66.8711 35.3524 67.1295C35.5098 67.4127 35.7947 67.2313 36.0271 67.2338C38.3134 67.2611 40.5273 66.6624 42.7862 66.4214C47.5089 65.9171 52.2365 65.4301 56.9192 64.5904C57.0666 64.563 57.229 64.6326 57.5614 64.6848C56.7892 65.3158 55.9971 65.5693 55.245 65.8724C54.8852 66.0164 54.5329 66.0984 54.4204 66.5208C51.6668 67.2785 48.7982 67.122 46.0071 67.5866C45.0576 67.5121 44.1755 67.9841 43.231 67.9369C40.3849 68.409 37.5438 68.8611 34.6503 69.0027C32.2365 69.1195 31.2969 68.2971 31.3394 65.8897C31.3619 64.6177 31.2819 63.3432 31.247 62.0687C31.2045 60.9755 30.9896 59.9147 30.6497 58.8762C29.8701 56.4265 28.7482 54.2079 26.4868 52.7545C25.7322 52.2701 25.5148 51.6241 25.7547 50.7496C26.2444 48.9732 27.1815 47.6068 28.9931 46.9583C29.5303 46.7646 29.7877 46.8764 29.9576 47.4875C30.7422 50.3198 32.7662 51.7757 35.7222 51.6986C36.262 51.6837 36.7992 51.6291 37.3389 51.5918C38.2884 51.6042 39.2005 51.4055 40.09 51.0875C41.9241 50.5011 43.5083 49.249 45.4974 49.0726C46.2745 49.2092 46.9991 48.6353 47.7862 48.9111L47.7787 48.9136Z" fill="#E3E3DF"/>
<path d="M45.2625 39.52C45.5648 42.1535 45.5973 44.7745 44.9751 47.3782C44.7852 48.1683 44.4079 48.6378 43.5758 48.9037C42.0441 49.3931 40.5773 50.0813 39.0581 50.6105C37.7312 51.0726 36.3594 51.3831 34.9301 51.1223C33.4059 50.2428 33.3234 48.7248 33.3034 47.254C33.2609 44.1808 34.4504 41.4553 35.9846 38.879C37.3389 36.6082 39.0781 34.6033 40.7297 32.5437C41.0671 32.1213 41.5618 32.0418 41.9741 31.7859C42.4589 31.5325 42.8162 31.5872 43.0711 32.1337C43.6233 33.3287 44.2755 34.479 44.5528 35.7834C44.9151 37.0057 45.15 38.2504 45.2625 39.52Z" fill="white"/>
<path d="M93.5759 9.18997C93.461 9.14525 93.336 9.04587 93.2336 9.06575C89.5679 9.75145 85.8748 10.2782 82.2566 11.2396C79.7003 11.9204 77.1341 12.5216 74.6553 13.4706C70.4624 15.0781 66.5119 17.0756 63.1336 20.0643C62.4089 20.7053 62.1066 20.5587 62.0191 19.6544C63.6783 16.4669 66.4544 14.4296 69.4904 12.7601C76.417 8.95146 83.8933 7.59993 91.7468 8.14899C93.0712 8.24091 94.388 8.42973 95.7074 8.57383C95.1052 9.14773 94.2756 8.94401 93.5784 9.18748L93.5759 9.18997Z" fill="#2E87C0"/>
<path d="M40.4274 78.9305C40.2949 78.9032 40.1625 78.8759 40.0276 78.8486C39.9201 78.8312 39.8602 78.7715 39.8452 78.6622C39.8852 78.4684 39.9251 78.2746 40.1025 78.1479C41.1795 75.4275 42.0391 72.625 43.266 69.9593C43.5758 69.286 43.9631 68.9307 44.7202 68.8313C45.9796 68.6649 47.2215 68.3816 48.8282 68.0785C48.0111 69.3083 47.3964 70.1729 47.1365 71.2089C47.0041 71.7729 47.4089 71.9791 47.8012 72.1927C48.4959 71.7853 49.0631 71.1741 49.8427 70.8959C52.209 71.3828 54.5079 70.6922 56.8317 70.471C57.6413 70.394 57.6363 70.3443 57.5464 70.9977C52.9137 73.8996 47.8437 75.8647 42.7687 77.825C41.9666 78.1355 41.207 78.5579 40.4274 78.9281V78.9305Z" fill="#B94238"/>
<path d="M83.2411 20.2184C82.1516 20.0345 81.0647 19.7314 79.9702 19.7066C79.1381 19.6867 78.7683 19.1526 78.7608 18.6557C78.7483 17.9103 79.5779 18.1141 80.0227 18.1215C83.1561 18.1811 86.287 18.3227 89.4205 18.4122C93.0062 18.5141 96.5844 18.437 100.16 18.0768C105.87 17.5029 111.422 16.0495 117.072 15.1551C114.663 16.4495 112.089 17.329 109.471 18.0842C101.145 20.4867 92.6514 20.6879 84.0906 20.0097C83.7833 19.9848 83.4285 19.7662 83.2411 20.2209L83.2411 20.2184Z" fill="#224170"/>
<path d="M41.9741 31.7859C39.3504 34.5312 37.0016 37.4728 35.2849 40.8839C34.0755 43.2913 33.3834 45.7733 33.7032 48.4912C33.8232 49.5223 34.3354 50.3322 34.9301 51.1247C32.9936 51.0875 31.6867 50.0415 30.7622 48.4689C30.5248 48.0639 30.3399 47.4875 30.4349 47.0552C31.082 44.0516 31.6567 41.0379 33.0261 38.2231C34.8701 34.4393 37.9511 32.5014 41.9766 31.7859L41.9741 31.7859Z" fill="#E3E3DF"/>
<path d="M67.5739 37.7784C66.7618 37.8802 66.1046 38.2852 65.4824 38.7895C61.1371 42.3274 57.5089 46.4341 55.0926 51.5322C54.6628 52.439 54.253 53.4303 53.2285 53.9073C52.2615 52.6725 52.0141 51.49 52.5588 49.8428C54.4579 44.1137 58.1586 40.233 63.8032 38.1411C65.0176 37.6914 66.2795 37.5175 67.5739 37.7784Z" fill="#E3E3DF"/>
<path d="M46.2445 23.8804C44.9701 23.6146 43.9781 24.432 42.8912 24.8121C40.5998 25.6146 38.7307 27.0729 37.194 28.9437C37.1265 29.0257 37.124 29.1599 37.0865 29.2915C37.6088 29.3984 37.9061 28.8667 38.3734 28.9089C38.4634 29.8381 39.0006 30.4965 40.0651 31.1772C38.161 31.3884 37.3764 30.1611 36.2669 29.3636C36.142 30.9064 37.4539 31.1499 38.2984 31.8704C37.5913 32.0865 36.9241 32.166 36.252 32.0617C34.2979 31.7511 33.5733 30.5685 34.233 28.7698C35.6872 24.8071 38.6733 22.7177 42.7337 22.0221C44.4254 21.7314 45.5049 22.3674 46.2445 23.8854V23.8804Z" fill="#7E83A9"/>
<path d="M57.5489 71.0002C57.5164 70.8536 57.7762 70.4835 57.3614 70.6226C56.1071 71.0474 54.8452 71.1915 53.5234 71.0449C53.1061 70.9977 52.6488 71.2288 52.2215 71.3679C51.3344 71.6586 50.5323 71.5791 49.8452 70.8959C50.5598 70.4859 51.282 70.0884 51.9816 69.6562C52.2765 69.4748 52.7912 69.445 52.7487 68.9655C52.7113 68.5506 52.274 68.4264 51.9591 68.2425C51.7917 68.1431 51.5968 68.086 51.1695 67.9071C56.5419 66.8189 61.8067 66.3469 66.8867 64.8065C64.0381 67.3108 60.8172 69.1916 57.5489 71.0002Z" fill="#A33834"/>
<path d="M80.1126 48.1062C78.5884 46.2478 79.3405 44.1162 79.413 42.0814C79.4779 40.2752 79.7203 38.479 80.5074 36.8169C80.7148 36.3796 80.4674 36.1212 80.325 35.7958C79.7603 34.5064 78.9857 33.3511 78.1161 32.243C77.5914 31.5772 77.3865 30.8493 78.266 30.248C81.2471 31.0331 82.364 32.5784 82.464 35.6567C82.5089 37.0976 81.9842 38.3175 81.6094 39.6367C81.0422 41.6367 81.272 43.7286 81.4819 45.7857C81.5319 46.2776 81.6194 46.7671 81.6918 47.2565C81.6718 48.0763 81.9667 48.849 82.0617 49.6515C82.0916 49.8999 82.2865 50.2378 81.8093 50.3024C81.2945 49.5968 80.8947 48.8018 80.1551 48.2776C80.1401 48.2229 80.1276 48.1658 80.1126 48.1111V48.1062Z" fill="#A49EC4"/>
<path d="M80.1126 48.1062C80.1301 48.1608 80.1451 48.218 80.1551 48.2726C80.1851 48.6999 80.385 49.0279 80.6224 49.3981C82.1541 51.7732 83.326 54.3098 83.6359 57.1495C83.8857 59.4352 81.1421 62.2376 78.9232 62.0289C78.5534 60.7395 78.8707 59.5693 79.3355 58.3346C80.4425 55.3806 80.6673 52.352 79.6154 49.3012C79.448 48.8142 79.2131 48.2006 80.1126 48.1086L80.1126 48.1062Z" fill="#A59FC4"/>
<path d="M64.6678 22.6929C66.7893 22.1711 68.8957 21.6767 71.0971 21.4382C75.0626 21.0084 79.0057 21.1004 82.9662 21.2941C88.0986 21.5451 93.1836 22.2084 98.2536 23.0109C98.5285 23.0531 98.7808 23.2196 99.0457 23.3264C95.0427 23.9699 91.0372 23.7065 87.0367 23.3115C82.7913 22.8941 78.6084 21.9376 74.333 21.7711C71.347 21.6544 68.351 21.6519 65.5899 23.0581C65.0501 23.3339 64.8452 23.1326 64.6678 22.6904V22.6929Z" fill="#22406F"/>
<path d="M39.9801 78.6771C40.0251 78.7268 40.0401 78.784 40.0276 78.8486C38.7432 79.0448 38.8057 80.3367 38.226 81.097C37.9186 81.4994 37.7687 82.0336 37.3514 82.3814C37.259 79.2361 37.8936 76.1753 38.4734 73.1095C38.5583 72.6648 38.6807 72.2275 38.7807 71.7878C38.9506 71.0276 38.8906 70.0487 39.3529 69.5642C39.7902 69.1046 40.8147 69.4922 41.6318 69.1468C41.0021 70.7791 40.3674 72.2872 39.8402 73.83C39.3604 75.2387 39.0731 76.6995 39.3654 78.2001C39.4604 78.6871 39.5853 78.5107 39.6653 78.1802C40.135 78.1156 39.9951 78.4361 39.9826 78.6746L39.9801 78.6771Z" fill="#E2E2DE"/>
<path d="M63.3934 37.5374C63.4959 37.2566 63.4484 37.0206 63.3335 36.725C62.7987 35.3436 63.8157 34.0716 65.2625 34.3474C65.8697 34.4641 66.6143 34.4269 66.9992 35.1101C66.6993 35.1946 66.3745 34.797 66.0346 35.2194C67.0266 35.6765 67.9987 36.1486 68.9957 37.1101C66.9342 36.8591 65.1251 36.8616 63.3934 37.5374Z" fill="#7F83A8"/>
<path d="M47.8037 72.1927C46.6143 72.5108 47.0716 71.7306 47.139 71.2089C47.2315 71.3406 47.249 71.6934 47.4939 71.2934C47.9236 70.5903 48.4134 69.9195 48.8157 69.2015C49.2505 68.4288 49.9301 68.2475 50.7123 68.3419C51.1895 68.399 51.8667 68.4413 51.9541 68.9655C52.0366 69.445 51.3295 69.3555 51.0021 69.5742C49.8502 70.3468 48.4809 70.8462 47.8037 72.1903V72.1927Z" fill="#8E2240"/>
<path d="M57.9437 24.9189C60.315 23.7811 62.7937 24.5835 65.0051 26.9909C62.5789 26.2779 60.3575 25.627 57.9437 24.9189Z" fill="#DA5171"/>
<path d="M70.0176 32.3474C69.4179 32.6455 68.7558 33.52 68.1611 32.6828C67.6014 31.8952 68.4909 31.3064 68.9757 30.73C69.3355 30.2977 70.1401 30.4493 70.2925 29.7412C70.8497 29.9847 71.4045 30.2257 71.9817 30.4766C71.372 31.2567 70.2725 31.3586 70.0201 32.3474L70.0176 32.3474Z" fill="#7D81A5"/>
<path d="M33.6707 31.2368C34.5103 32.2157 35.3849 32.7126 36.6817 32.7573C36.0446 33.2666 35.6248 33.5896 35.2175 33.9275C34.4054 34.6008 34.0855 34.5262 33.7282 33.5225C33.4908 32.8567 33.5333 32.166 33.6707 31.2344V31.2368Z" fill="#777B9D"/>
<path d="M39.9801 78.6771C39.8752 78.5132 39.7677 78.3467 39.6628 78.1827C39.8826 74.8536 41.8617 69.3555 43.0461 69.0425C42.4789 70.3766 41.8967 71.6362 41.4069 72.9331C40.7722 74.6176 39.9901 76.2772 40.105 78.1504C40.0651 78.3268 40.0226 78.5032 39.9826 78.6796L39.9801 78.6771Z" fill="#C0C1BF"/>
<path d="M64.373 25.2941C64.0356 25.2146 63.7633 25.0928 63.7058 24.6804C63.4584 22.8891 62.194 22.1687 60.6073 21.8034C61.4194 21.3612 61.8642 21.4606 63.1036 22.2283C64.2905 22.9637 64.5779 24.0245 64.3555 25.3065L64.3705 25.2916L64.373 25.2941Z" fill="#C95771"/>
<path d="M61.3495 22.827C62.1466 23.0904 62.7638 23.5475 63.1736 24.5214C62.2065 24.181 61.4269 23.7512 60.5449 23.6891C60.305 22.9363 60.6198 22.6904 61.347 22.827H61.3495Z" fill="#D7506F"/>
<path d="M61.3495 22.827C60.7922 22.8469 60.6073 23.2121 60.5474 23.6891C59.8502 23.7189 59.1531 23.7512 58.4684 23.7811C58.9132 22.7003 59.6128 22.4618 61.3495 22.827Z" fill="#8D203E"/>
<path d="M63.3934 59.1047C64.9727 58.8936 66.5544 58.6799 68.1336 58.4687C67.7688 59.1097 66.9092 58.6526 66.4994 59.1967C65.3975 59.3905 64.2905 59.4849 63.1711 59.3905C63.2435 59.2961 63.3185 59.2016 63.391 59.1047H63.3934Z" fill="#4A4A4B"/>
<path d="M45.2575 35.4256C45.8697 36.9187 46.167 38.4715 46.142 40.0864C45.8472 38.5336 45.5523 36.9809 45.2575 35.4256Z" fill="#66676C"/>
<path d="M81.8093 50.2999C82.2366 49.2664 81.372 48.2825 81.6918 47.254C81.8942 48.2602 82.1041 49.2664 82.2965 50.2751C82.329 50.4415 82.4839 50.7198 82.1516 50.7397C81.9142 50.7546 81.8368 50.5161 81.8093 50.2999Z" fill="#474858"/>
<path d="M45.2625 39.52C45.0251 38.2753 44.7902 37.0281 44.5528 35.7834C45.1175 36.9684 45.3549 38.2131 45.2625 39.52Z" fill="#A2A3A3"/>
<path d="M73.7583 47.7906C73.5359 46.6378 73.3135 45.4876 73.0911 44.3348C73.7133 45.4105 73.8332 46.5807 73.7583 47.7906Z" fill="#787877"/>
<path d="M30.6472 58.8787C31.2045 59.8774 31.3944 60.9432 31.2445 62.0712C31.0446 61.0078 30.8447 59.9445 30.6472 58.8787Z" fill="#9A9A98"/>
<path d="M40.0826 51.0875C39.2355 51.6291 38.3184 51.7931 37.3314 51.5918C38.2485 51.4229 39.1655 51.2564 40.0826 51.0875Z" fill="#4F4F50"/>
<path d="M43.2285 67.9394C44.1355 67.681 45.0501 67.4723 46.0046 67.5891C45.0976 67.8475 44.1855 68.0686 43.2285 67.9394Z" fill="#5F5F60"/>
<path d="M47.7787 48.9136C47.0091 48.8813 46.2745 49.3285 45.4899 49.0751C46.3219 48.8912 47.1365 48.5707 48.0161 48.7745C47.9361 48.8217 47.8587 48.8689 47.7787 48.9161L47.7787 48.9136Z" fill="#7E7E7E"/>
<path d="M69.4779 69.7555C70.2275 69.2661 71.0871 69.194 71.9417 69.112C71.0796 69.3605 70.335 69.517 69.4779 69.7555Z" fill="white"/>
<path d="M55.3724 66.4065C56.197 66.1456 57.0316 65.9568 57.9062 66.1084C57.0791 66.3494 56.242 66.5059 55.3724 66.4065Z" fill="#999999"/>
<path d="M78.1611 63.1121C78.0162 62.2848 77.8687 61.46 77.7238 60.6327C78.1736 61.4053 78.4484 62.2103 78.1611 63.1121Z" fill="white"/>
<path d="M130.02 4.56643C129.396 5.77884 128.111 6.21113 127.079 6.88193C122.836 9.6471 118.219 11.6992 113.341 13.0036C107.536 14.5563 101.607 15.0259 95.6074 14.0719C93.5559 13.7464 91.5344 13.3713 89.6454 12.4744C89.2731 12.298 88.9007 12.1017 88.5734 11.8558C87.8163 11.2918 88.411 11.1924 88.8733 11.0583C94.5629 13.821 100.57 13.9576 106.649 13.0085C114.98 11.7067 122.761 8.83469 130.018 4.56147L130.02 4.56643Z" fill="#2E86BF"/>
<path d="M131.512 3.2795C131.29 3.38384 131.057 3.47328 130.842 3.59502C124.765 7.03099 118.321 9.54773 111.524 11.175C110.575 11.5924 109.498 11.493 108.546 11.9005C107.861 12.0421 107.177 12.1912 106.489 12.3278C106.22 12.38 105.992 12.4595 105.74 12.1539C104.85 11.0732 103.563 10.5937 102.329 10.0421C102.032 10.1167 101.837 10.4322 101.437 10.2881C98.486 9.22227 95.4125 9.09307 92.319 9.15519C91.2446 9.24711 90.1926 9.45332 89.1581 9.76139C88.2511 10.0322 87.9887 10.5017 88.7133 11.2545C91.8893 12.9589 95.3076 13.7092 98.8933 13.8259C103.798 13.9849 108.566 13.252 113.294 11.9502C119.181 10.3278 124.775 8.07446 130.003 4.92916C130.468 4.34035 131.542 4.33787 131.562 3.32173L131.51 3.2795H131.512ZM89.4505 10.3701C94.7279 9.76636 99.6779 10.0794 104.443 12.3079C101.072 13.3613 91.3071 12.5986 89.4505 10.3701Z" fill="#030305"/>
<path d="M49.3404 50.8366C49.6678 51.3881 49.5054 51.8477 49.178 52.3545C48.9981 51.8229 49.0523 51.3169 49.3404 50.8366Z" fill="#4B4B4C"/>
<path d="M68.8183 48.7695C69.248 51.1869 68.1736 52.6502 65.6473 53.085C63.8832 53.3881 62.314 52.1136 61.9417 50.0738C61.5694 48.0242 62.8137 46.2254 64.8352 45.89C66.8992 45.5472 68.4409 46.6627 68.8158 48.7695H68.8183Z" fill="#020203"/>
<path d="M43.0161 50.9657C43.1135 50.2378 43.5083 50.0962 44.1205 50.0067C43.9156 50.5807 43.5983 50.8142 43.0161 50.9657Z" fill="#3F4040"/>
<path d="M38.6358 40.4715C40.5823 40.1088 41.9316 40.9659 42.2965 42.7944C42.6738 44.6776 41.3969 46.5708 39.4903 46.9534C37.6313 47.3285 36.0271 46.1459 35.6822 44.146C35.3724 42.3597 36.5868 40.8516 38.6358 40.4715Z" fill="#020203"/>
<path d="M64.3979 48.4465C63.9007 48.4838 63.5459 48.2975 63.4434 47.8279C63.3535 47.4105 63.5284 47.1 63.9907 47.0279C64.4254 46.9608 64.7153 47.1447 64.8327 47.5645C64.9477 47.9869 64.7803 48.2801 64.4005 48.4465H64.3979Z" fill="#EBEBEB"/>
<path d="M39.0531 41.8926C39.0531 42.4168 38.8657 42.8565 38.2884 42.946C37.8337 43.018 37.4564 42.7795 37.4139 42.3075C37.3589 41.7187 37.8087 41.4504 38.3009 41.3162C38.7482 41.1945 38.9856 41.4429 39.0556 41.8926H39.0531Z" fill="#E4E4E4"/>
</g>
</svg>
