<svg width="18" height="24" viewBox="0 0 18 24" fill="none" xmlns="http://www.w3.org/2000/svg">
<g clip-path="url(#clip0_1_153)">
<path d="M0.237537 24C0.0603268 23.8844 0 23.7226 0 23.4992C0.00377042 15.8292 0.00377042 8.15923 0.00377042 0.489246C0.00377042 0.104013 0.109342 0 0.486385 0C6.13448 0 11.7826 0 17.4307 0C17.8605 0 17.9962 0.134831 17.9962 0.566292C17.9962 6.57978 17.9962 12.5933 17.9962 18.6067C17.9962 18.8148 17.9359 18.9727 17.7926 19.1191C16.2581 20.6793 14.731 22.2433 13.2002 23.8035C13.1324 23.8729 13.0607 23.9345 12.9891 23.9961H0.237537V24ZM16.6615 19.1769C15.9225 19.173 15.1835 19.1653 14.4407 19.1615C14.0524 19.1615 13.6678 19.1615 13.2719 19.1615V22.6517C13.3284 22.5939 13.3661 22.5592 13.4039 22.5246C14.4558 21.4498 15.5077 20.375 16.5597 19.2963C16.5974 19.2578 16.6238 19.2154 16.6577 19.173C16.6653 19.1653 16.6766 19.1576 16.6841 19.1499C16.6766 19.1499 16.6728 19.1461 16.6653 19.1422C16.6653 19.1538 16.6615 19.1653 16.6577 19.173L16.6615 19.1769ZM0.795559 0.782022C0.795559 0.782022 0.772937 0.801284 0.761625 0.808989C0.761625 0.862921 0.757855 0.916854 0.757855 0.974639C0.757855 8.32488 0.757855 15.6751 0.757855 23.0292C0.757855 23.0831 0.757855 23.1371 0.761625 23.1949C0.772937 23.2026 0.784248 23.2141 0.795559 23.2218C0.833263 23.2218 0.870968 23.2295 0.908672 23.2295C4.71303 23.2295 8.52116 23.2295 12.3255 23.2295C12.3745 23.2295 12.4235 23.2295 12.4876 23.2295C12.4876 23.1101 12.4876 23.0177 12.4876 22.9252C12.4876 21.5345 12.4952 20.1477 12.4952 18.757C12.4952 18.7262 12.4952 18.6953 12.4952 18.6607C12.6008 18.5721 12.7026 18.4796 12.8081 18.391C12.8232 18.391 12.8383 18.391 12.8534 18.391H17.2421C17.2421 18.2639 17.2421 18.1714 17.2421 18.0828C17.2421 12.443 17.2421 6.80706 17.2421 1.16726C17.2421 1.05169 17.2421 0.932263 17.2384 0.816693C17.2271 0.808989 17.2158 0.797432 17.2044 0.789727C17.1517 0.789727 17.0989 0.782022 17.0461 0.782022C11.6808 0.782022 6.31923 0.782022 0.953917 0.782022C0.901131 0.782022 0.848345 0.785875 0.795559 0.789727V0.782022Z" fill="#3B3666"/>
<path d="M0.761625 23.191C0.761625 23.191 0.784248 23.2103 0.795559 23.218C0.784248 23.2103 0.772937 23.1987 0.761625 23.191Z" fill="#8D8A8F"/>
<path d="M17.2384 0.808979C17.2384 0.808979 17.2158 0.789718 17.2044 0.782013C17.2158 0.789718 17.2271 0.801275 17.2384 0.808979Z" fill="#8D8A8F"/>
<path d="M16.6615 19.1769C16.6615 19.1769 16.6653 19.1538 16.669 19.1461C16.6766 19.1461 16.6804 19.1499 16.6879 19.1538C16.6804 19.1615 16.669 19.1692 16.6615 19.1769Z" fill="#3B3666"/>
<path d="M0.795559 0.782013C0.795559 0.782013 0.772937 0.801275 0.761625 0.808979C0.772937 0.801275 0.784248 0.789718 0.795559 0.782013Z" fill="#8D8A8F"/>
<path d="M6.84332 8.42888C6.60578 8.40962 6.49267 8.23626 6.4889 8.03594C6.4889 7.87415 6.56431 7.68538 6.7943 7.68153C6.81316 7.66997 6.82824 7.66227 6.84709 7.65071C7.65773 7.65071 8.46837 7.64301 9.27524 7.64301C11.0473 7.64301 12.8194 7.64301 14.5953 7.64686C14.6142 7.65841 14.6292 7.66612 14.6481 7.67768C14.8366 7.68538 14.946 7.77784 14.9648 7.97816C14.9837 8.19389 14.9309 8.35569 14.6933 8.3865C14.6783 8.39806 14.6594 8.40962 14.6443 8.41732C14.5689 8.41732 14.4935 8.42503 14.4181 8.42503C11.9862 8.42503 9.55425 8.42503 7.12233 8.42503C7.04692 8.42503 6.97151 8.42118 6.89234 8.41732C6.87725 8.41732 6.86217 8.41732 6.84709 8.41732L6.84332 8.42888Z" fill="#3B3666"/>
<path d="M14.6481 11.2449C14.912 11.3104 14.9874 11.4183 14.9648 11.6995C14.9497 11.8729 14.7951 12 14.5765 12C12.0088 12 9.43737 12 6.86971 12.0038C6.65857 12.0038 6.53037 11.8382 6.48136 11.6417C6.44742 11.503 6.62463 11.2873 6.7943 11.2526C6.87725 11.2372 6.9602 11.2295 7.04315 11.2295C9.55802 11.2295 12.0729 11.2295 14.5878 11.2295C14.6066 11.2372 14.6255 11.2411 14.6481 11.2488V11.2449Z" fill="#3B3666"/>
<path d="M10.7457 15.5788C9.50147 15.5788 8.25346 15.5788 7.00922 15.5788C6.81315 15.5788 6.61709 15.5827 6.52283 15.34C6.43611 15.1165 6.57185 14.8469 6.80561 14.8199C6.88856 14.8122 6.97528 14.8122 7.05823 14.8122C9.52032 14.8122 11.9786 14.8122 14.4407 14.8122C14.5425 14.8122 14.6481 14.8392 14.7461 14.8623C14.9535 14.9124 14.9723 15.0742 14.9648 15.2591C14.9573 15.4478 14.8366 15.5249 14.6858 15.5634C14.5991 15.5865 14.5048 15.5788 14.4106 15.5788C13.1889 15.5788 11.9636 15.5788 10.7419 15.5788H10.7457Z" fill="#3B3666"/>
<path d="M7.43904 4.08732C8.73607 4.08732 10.0293 4.07962 11.3263 4.07962C12.4311 4.07962 13.5358 4.08347 14.6406 4.08732C14.6556 4.09888 14.6745 4.11044 14.6896 4.122C14.9158 4.122 14.9723 4.28765 14.9799 4.461C14.9837 4.66517 14.8743 4.81156 14.6594 4.84623C14.6368 4.85009 14.6142 4.85394 14.5953 4.86164C12.2275 4.86164 9.85965 4.86164 7.49183 4.86164C7.44281 4.85394 7.3938 4.84238 7.34478 4.83468C7.11479 4.81156 7.03938 4.61509 7.04315 4.4533C7.04692 4.27224 7.16757 4.09888 7.3938 4.09118H7.43904V4.08732Z" fill="#3B3666"/>
<path d="M3.00126 14.061C3.09552 13.853 3.24256 13.7721 3.47256 13.7759C4.0532 13.7913 4.63385 13.7836 5.21449 13.7798C5.61039 13.7798 5.76875 13.9647 5.7612 14.3268C5.74235 14.9201 5.7612 15.5133 5.75366 16.1066C5.75366 16.4648 5.6217 16.5958 5.27859 16.5958C4.66024 16.5958 4.04189 16.592 3.42354 16.5958C3.2124 16.5958 3.06158 16.5265 3.00126 16.3108C3.00126 16.2799 3.00126 16.2491 3.00126 16.2144C3.00126 15.5287 3.00126 14.8392 3.00126 14.1534C3.00126 14.1226 3.00126 14.0918 3.00126 14.0571V14.061ZM4.99581 15.7868C4.99581 15.3862 4.99581 14.9894 4.99958 14.5888C4.98827 14.5811 4.97319 14.5734 4.96187 14.5656H3.78173V15.8177H4.9581L4.99958 15.7868H4.99581Z" fill="#3B3666"/>
<path d="M3.40469 17.3548C4.04567 17.3548 4.68664 17.3548 5.32761 17.3548C5.36154 17.3663 5.39171 17.3779 5.42564 17.3856C5.65564 17.3971 5.74236 17.5666 5.74613 17.7592C5.75744 18.4295 5.75744 19.0999 5.74613 19.7702C5.74613 20.0167 5.59154 20.167 5.33892 20.1708C4.69041 20.1785 4.04189 20.1708 3.39338 20.1708C3.18978 20.1708 3.05781 20.0706 2.99749 19.8703C2.99749 19.8395 2.99749 19.8087 2.99749 19.774C2.99749 19.0883 2.99749 18.3987 2.99749 17.713C3.00126 17.7092 3.01257 17.7015 3.01257 17.6976C3.0088 17.6861 3.00126 17.6745 2.99372 17.6629C3.08044 17.5666 3.17093 17.4742 3.25765 17.3779C3.30666 17.3663 3.35191 17.3548 3.40092 17.347L3.40469 17.3548ZM3.77419 19.4003H3.79305L3.8119 19.3965C4.19271 19.3965 4.57352 19.3965 4.95811 19.3965C4.96942 19.3811 4.98073 19.3695 4.99204 19.3541V18.1522H3.75534V19.3618C3.75534 19.3618 3.76665 19.3888 3.77042 19.4003H3.77419Z" fill="#3B3666"/>
<path d="M3.33682 9.44204C3.15207 9.42664 3.05027 9.31492 2.99749 9.14156C3.00503 9.13771 3.01257 9.13001 3.01257 9.13001C3.01257 9.11845 3.00503 9.10689 2.99749 9.09534C2.99749 8.40962 2.99749 7.72005 2.99749 7.03434C2.99749 7.00352 2.99749 6.9727 2.99749 6.93803C3.09929 6.84172 3.20109 6.74542 3.30666 6.65296C3.32551 6.64525 3.34437 6.6414 3.36699 6.6337C3.99288 6.6337 4.61877 6.6337 5.24466 6.6337C5.60662 6.6337 5.7499 6.78394 5.75367 7.15376C5.75367 7.76243 5.75367 8.3711 5.75367 8.97976C5.75367 9.24943 5.65186 9.37655 5.42941 9.42664C4.73188 9.43049 4.03812 9.43819 3.34059 9.44204H3.33682ZM4.99581 7.4581C4.99581 7.4581 4.97319 7.43113 4.96188 7.41572H3.77796V8.66002H4.99958V7.4581H4.99581Z" fill="#3B3666"/>
<path d="M3.00503 12.6549C3.00503 11.9692 3.00503 11.2796 3.00503 10.5939C3.00503 10.5631 3.00503 10.5323 3.00503 10.4976C3.06535 10.2934 3.20486 10.2125 3.40846 10.2125C4.04944 10.2125 4.69041 10.2125 5.33138 10.2125C5.6217 10.2125 5.75744 10.3551 5.76121 10.6594C5.76498 11.2989 5.76121 11.9384 5.76121 12.5779C5.76121 12.8167 5.64432 12.9554 5.42941 13.0247C5.41433 13.0247 5.39925 13.0247 5.38416 13.0247C4.71303 13.0247 4.03812 13.0247 3.36699 13.0247C3.33683 13.0247 3.30666 13.0247 3.2765 13.0247L3.01257 12.7551C3.01257 12.7242 3.01257 12.6934 3.01257 12.6588L3.00503 12.6549ZM3.81567 12.2466C4.19648 12.2543 4.57729 12.262 4.96188 12.2697C4.97696 12.2697 4.99204 12.2388 5.00335 12.2234C5.00335 11.8228 4.99958 11.4222 4.99581 11.0254C4.9845 11.0138 4.97319 11.0023 4.95811 10.9945H3.76665C3.76665 11.349 3.76665 11.6841 3.76665 12.0193C3.76665 12.0963 3.79682 12.1772 3.8119 12.2543L3.81567 12.2466Z" fill="#3B3666"/>
<path d="M6.79053 19.1307C6.56808 19.1191 6.50775 18.9419 6.48136 18.7724C6.45496 18.5952 6.62463 18.4334 6.84332 18.3833C6.8584 18.3833 6.87348 18.3833 6.88856 18.3833C8.38919 18.3833 9.88605 18.3833 11.3867 18.3833C11.4018 18.3949 11.4206 18.4064 11.4357 18.418C11.6581 18.418 11.7147 18.5836 11.726 18.7531C11.7373 18.9457 11.6506 19.096 11.4357 19.1268C11.4018 19.1384 11.3678 19.1461 11.3377 19.1576C9.8408 19.1576 8.34395 19.1576 6.85086 19.1576C6.83201 19.1499 6.81315 19.1422 6.7943 19.1345L6.79053 19.1307Z" fill="#3B3666"/>
<path d="M4.35861 4.96181C4.95057 4.357 5.50482 3.78685 6.05907 3.22056C6.21366 3.06262 6.48136 3.0395 6.62463 3.17433C6.75283 3.29376 6.79807 3.55571 6.59824 3.75603C5.9535 4.39937 5.32384 5.05427 4.68664 5.70531C4.46418 5.9326 4.27189 5.9326 4.04944 5.70531C3.82321 5.47417 3.59321 5.24303 3.37076 5.00804C3.21617 4.84624 3.2124 4.58428 3.35191 4.4456C3.46879 4.32618 3.7478 4.32618 3.89108 4.46486C4.04944 4.61896 4.19648 4.78846 4.36238 4.96567L4.35861 4.96181Z" fill="#3B3666"/>
<path d="M3.33682 9.44205C4.03435 9.43819 4.72811 9.43049 5.42564 9.42664C5.38416 9.44205 5.34646 9.46901 5.30498 9.46901C4.67532 9.46901 4.04943 9.46901 3.41977 9.46901C3.39338 9.46901 3.36322 9.44975 3.33682 9.44205Z" fill="#5D5B60"/>
<path d="M3.40469 17.3547C3.35568 17.3663 3.31043 17.3779 3.26142 17.3856C3.31043 17.374 3.35568 17.3624 3.40469 17.3547Z" fill="#48464C"/>
<path d="M11.3377 19.1576C11.3716 19.1461 11.4055 19.1384 11.4357 19.1268C11.4018 19.1384 11.3678 19.1461 11.3377 19.1576Z" fill="#3B3666"/>
<path d="M5.42564 17.3856C5.3917 17.374 5.36154 17.3624 5.32761 17.3547C5.36154 17.3663 5.3917 17.3779 5.42564 17.3856Z" fill="#48464C"/>
<path d="M14.6443 8.42504C14.6443 8.42504 14.6783 8.40193 14.6933 8.39423C14.6783 8.40578 14.6594 8.41734 14.6443 8.42504Z" fill="#2B2B30"/>
<path d="M14.5953 4.86163C14.6179 4.85778 14.6406 4.85393 14.6594 4.84622C14.6368 4.85007 14.6142 4.85393 14.5953 4.86163Z" fill="#3B3666"/>
<path d="M14.6481 11.2449C14.6292 11.2372 14.6104 11.2334 14.5878 11.2257C14.6066 11.2334 14.6255 11.2372 14.6481 11.2449Z" fill="#8D8A8F"/>
<path d="M14.6933 4.12198C14.6933 4.12198 14.6594 4.09887 14.6443 4.08731C14.6594 4.09887 14.6783 4.11042 14.6933 4.12198Z" fill="#3B3666"/>
<path d="M6.84709 7.65457C6.84709 7.65457 6.81316 7.67383 6.7943 7.68539C6.81316 7.67383 6.82824 7.66613 6.84709 7.65457Z" fill="#4D4B50"/>
<path d="M2.99749 17.6706C2.99749 17.6706 3.01257 17.6937 3.01634 17.7053C3.01634 17.7053 3.00503 17.713 3.00126 17.7207C3.00126 17.7053 3.00126 17.6899 3.00126 17.6706H2.99749Z" fill="#323137"/>
<path d="M11.4357 18.418C11.4357 18.418 11.4018 18.3949 11.3867 18.3833C11.4018 18.3949 11.4206 18.4064 11.4357 18.418Z" fill="#3B3666"/>
<path d="M14.6481 7.68539C14.6481 7.68539 14.6142 7.66613 14.5953 7.65457C14.6142 7.66613 14.6292 7.67383 14.6481 7.68539Z" fill="#4D4B50"/>
<path d="M3.00126 9.0915C3.00126 9.0915 3.01257 9.11461 3.01634 9.12617C3.01634 9.12617 3.00503 9.13387 3.00126 9.13773C3.00126 9.12232 3.00126 9.10691 3.00126 9.08765V9.0915Z" fill="#323137"/>
<path d="M3.36699 6.62985C3.34813 6.63756 3.32928 6.64141 3.30666 6.64911C3.32551 6.64141 3.34436 6.63756 3.36699 6.62985Z" fill="#858288"/>
<path d="M4.99958 14.5888C4.99958 14.5888 4.97319 14.5733 4.96188 14.5656C4.97319 14.5733 4.98827 14.5811 4.99958 14.5888Z" fill="#6A676D"/>
<path d="M4.95434 15.8177C4.95434 15.8177 4.98073 15.7984 4.99581 15.7868C4.98073 15.7984 4.96942 15.8061 4.95434 15.8177Z" fill="#979499"/>
<path d="M3.77796 19.4003C3.77796 19.4003 3.76665 19.3734 3.76288 19.3618L3.77042 19.3503H3.78173C3.78173 19.3695 3.78173 19.3849 3.78173 19.4003H3.77796Z" fill="#454349"/>
<path d="M3.77797 19.4003V19.3541C3.77797 19.3541 3.80436 19.3811 3.81944 19.3965L3.80059 19.4042H3.78174L3.77797 19.4003Z" fill="#F4F3F4"/>
<path d="M4.96188 19.3965C4.96188 19.3965 4.9845 19.3695 4.99581 19.3541C4.9845 19.3695 4.97319 19.3811 4.96188 19.3965Z" fill="#C8C5C8"/>
<path d="M4.99581 7.45424C4.99581 7.45424 4.97319 7.42727 4.96188 7.41187C4.97319 7.42727 4.9845 7.43883 4.99581 7.45424Z" fill="#C8C5C8"/>
<path d="M3.81567 12.2465C4.21156 12.2388 4.60746 12.2273 5.00335 12.2196C4.98827 12.235 4.97319 12.2658 4.96187 12.2658C4.58106 12.2619 4.20025 12.2504 3.81567 12.2427V12.2465Z" fill="#535157"/>
<path d="M4.99204 11.0215C4.99204 11.0215 4.96942 10.9984 4.95434 10.9907C4.96565 11.0022 4.97696 11.0138 4.99204 11.0215Z" fill="#B2B0B3"/>
</g>
<defs>
<clipPath id="clip0_1_153">
<rect width="18" height="24" fill="white"/>
</clipPath>
</defs>
</svg>
