<svg width="147" height="45" viewBox="0 0 147 45" fill="none" xmlns="http://www.w3.org/2000/svg">
<path d="M40.2362 32.3589C41.1077 32.3589 41.8607 32.5233 42.4953 32.852C43.1374 33.1731 43.6267 33.6356 43.9631 34.2396C44.3071 34.8435 44.4791 35.5545 44.4791 36.3725C44.4791 37.1904 44.3071 37.9014 43.9631 38.5053C43.6267 39.1016 43.1374 39.5603 42.4953 39.8814C41.8607 40.1948 41.1077 40.3516 40.2362 40.3516H37.7478V32.3589H40.2362ZM40.2362 39.4915C41.2683 39.4915 42.0557 39.2201 42.5985 38.6774C43.1412 38.1269 43.4126 37.3586 43.4126 36.3725C43.4126 35.3786 43.1374 34.6027 42.587 34.0446C42.0442 33.4865 41.2606 33.2075 40.2362 33.2075H38.7914V39.4915H40.2362ZM51.5891 36.9687C51.5891 37.1675 51.5776 37.3777 51.5547 37.5994H46.5321C46.5703 38.2187 46.7805 38.7041 47.1628 39.0558C47.5526 39.3998 48.0228 39.5718 48.5732 39.5718C49.0243 39.5718 49.3989 39.4686 49.697 39.2622C50.0028 39.0481 50.2168 38.7653 50.3392 38.4136H51.4629C51.2948 39.0175 50.9584 39.5106 50.4538 39.8929C49.9493 40.2675 49.3224 40.4548 48.5732 40.4548C47.9769 40.4548 47.4418 40.321 46.9678 40.0534C46.5015 39.7858 46.1345 39.4074 45.867 38.9182C45.5994 38.4213 45.4656 37.8479 45.4656 37.1981C45.4656 36.5483 45.5956 35.9787 45.8555 35.4895C46.1154 35.0002 46.4785 34.6256 46.9449 34.3657C47.4189 34.0981 47.9616 33.9643 48.5732 33.9643C49.1695 33.9643 49.697 34.0943 50.1557 34.3542C50.6144 34.6141 50.966 34.9735 51.2107 35.4321C51.4629 35.8832 51.5891 36.3954 51.5891 36.9687ZM50.5112 36.7509C50.5112 36.3533 50.4233 36.0131 50.2474 35.7303C50.0716 35.4398 49.8308 35.2219 49.525 35.0767C49.2268 34.9238 48.8943 34.8473 48.5273 34.8473C47.9999 34.8473 47.5488 35.0155 47.1742 35.3519C46.8073 35.6882 46.597 36.1546 46.5435 36.7509H50.5112ZM57.0672 31.8658V40.3516H56.0237V31.8658H57.0672ZM61.5863 40.4548C60.9977 40.4548 60.4625 40.321 59.9809 40.0534C59.5069 39.7858 59.1323 39.4074 58.8571 38.9182C58.5896 38.4213 58.4558 37.8479 58.4558 37.1981C58.4558 36.5559 58.5934 35.9902 58.8686 35.5009C59.1515 35.004 59.5337 34.6256 60.0153 34.3657C60.4969 34.0981 61.0359 33.9643 61.6322 33.9643C62.2285 33.9643 62.7674 34.0981 63.2491 34.3657C63.7307 34.6256 64.1091 35.0002 64.3843 35.4895C64.6672 35.9787 64.8086 36.5483 64.8086 37.1981C64.8086 37.8479 64.6633 38.4213 64.3728 38.9182C64.09 39.4074 63.7039 39.7858 63.2147 40.0534C62.7254 40.321 62.1826 40.4548 61.5863 40.4548ZM61.5863 39.5374C61.9609 39.5374 62.3126 39.4495 62.6413 39.2736C62.97 39.0978 63.2338 38.8341 63.4325 38.4824C63.6389 38.1308 63.7421 37.7026 63.7421 37.1981C63.7421 36.6935 63.6428 36.2654 63.444 35.9138C63.2452 35.5621 62.9853 35.3022 62.6642 35.134C62.3432 34.9582 61.9953 34.8702 61.6207 34.8702C61.2385 34.8702 60.8868 34.9582 60.5657 35.134C60.2523 35.3022 60 35.5621 59.8089 35.9138C59.6178 36.2654 59.5222 36.6935 59.5222 37.1981C59.5222 37.7103 59.614 38.1422 59.7974 38.4939C59.9886 38.8455 60.2408 39.1093 60.5543 39.2851C60.8677 39.4533 61.2117 39.5374 61.5863 39.5374ZM69.2424 33.9529C70.0068 33.9529 70.6261 34.186 71.1 34.6524C71.574 35.1111 71.811 35.7762 71.811 36.6477V40.3516H70.779V36.7967C70.779 36.1699 70.6222 35.6921 70.3088 35.3633C69.9954 35.027 69.5673 34.8588 69.0245 34.8588C68.4741 34.8588 68.0345 35.0308 67.7058 35.3748C67.3847 35.7188 67.2241 36.2196 67.2241 36.877V40.3516H66.1806V34.0675H67.2241V34.962C67.4306 34.6409 67.7096 34.3925 68.0612 34.2166C68.4206 34.0408 68.8143 33.9529 69.2424 33.9529ZM76.1072 33.9643C76.65 33.9643 77.1239 34.0828 77.5291 34.3198C77.9419 34.5568 78.2477 34.855 78.4465 35.2143V34.0675H79.5015V40.4892C79.5015 41.0625 79.3791 41.5709 79.1345 42.0143C78.8899 42.4653 78.5382 42.817 78.0795 43.0693C77.6285 43.3216 77.101 43.4477 76.4971 43.4477C75.6714 43.4477 74.9834 43.2528 74.433 42.8629C73.8825 42.473 73.5576 41.9417 73.4583 41.2689H74.4903C74.605 41.6512 74.842 41.957 75.2013 42.1863C75.5606 42.4233 75.9925 42.5418 76.4971 42.5418C77.0704 42.5418 77.5367 42.3621 77.8961 42.0028C78.263 41.6435 78.4465 41.139 78.4465 40.4892V39.1704C78.2401 39.5374 77.9343 39.8432 77.5291 40.0878C77.1239 40.3325 76.65 40.4548 76.1072 40.4548C75.5491 40.4548 75.0407 40.3172 74.582 40.0419C74.131 39.7667 73.7755 39.3807 73.5156 38.8838C73.2557 38.3869 73.1257 37.8211 73.1257 37.1866C73.1257 36.5445 73.2557 35.9826 73.5156 35.5009C73.7755 35.0117 74.131 34.6333 74.582 34.3657C75.0407 34.0981 75.5491 33.9643 76.1072 33.9643ZM78.4465 37.1981C78.4465 36.7241 78.3509 36.3113 78.1598 35.9596C77.9687 35.608 77.7088 35.3404 77.38 35.1569C77.059 34.9658 76.7035 34.8702 76.3136 34.8702C75.9237 34.8702 75.5682 34.962 75.2471 35.1455C74.9261 35.3289 74.67 35.5965 74.4788 35.9482C74.2877 36.2998 74.1922 36.7126 74.1922 37.1866C74.1922 37.6682 74.2877 38.0887 74.4788 38.448C74.67 38.7997 74.9261 39.0711 75.2471 39.2622C75.5682 39.4457 75.9237 39.5374 76.3136 39.5374C76.7035 39.5374 77.059 39.4457 77.38 39.2622C77.7088 39.0711 77.9687 38.7997 78.1598 38.448C78.3509 38.0887 78.4465 37.6721 78.4465 37.1981ZM86.9985 36.9687C86.9985 37.1675 86.987 37.3777 86.9641 37.5994H81.9415C81.9797 38.2187 82.1899 38.7041 82.5722 39.0558C82.962 39.3998 83.4322 39.5718 83.9826 39.5718C84.4337 39.5718 84.8083 39.4686 85.1064 39.2622C85.4122 39.0481 85.6263 38.7653 85.7486 38.4136H86.8724C86.7042 39.0175 86.3678 39.5106 85.8632 39.8929C85.3587 40.2675 84.7318 40.4548 83.9826 40.4548C83.3863 40.4548 82.8512 40.321 82.3772 40.0534C81.9109 39.7858 81.5439 39.4074 81.2764 38.9182C81.0088 38.4213 80.875 37.8479 80.875 37.1981C80.875 36.5483 81.005 35.9787 81.2649 35.4895C81.5248 35.0002 81.888 34.6256 82.3543 34.3657C82.8283 34.0981 83.371 33.9643 83.9826 33.9643C84.5789 33.9643 85.1064 34.0943 85.5651 34.3542C86.0238 34.6141 86.3754 34.9735 86.6201 35.4321C86.8724 35.8832 86.9985 36.3954 86.9985 36.9687ZM85.9206 36.7509C85.9206 36.3533 85.8327 36.0131 85.6568 35.7303C85.481 35.4398 85.2402 35.2219 84.9344 35.0767C84.6363 34.9238 84.3037 34.8473 83.9368 34.8473C83.4093 34.8473 82.9582 35.0155 82.5836 35.3519C82.2167 35.6882 82.0064 36.1546 81.9529 36.7509H85.9206ZM89.4538 38.9067L88.1695 41.9914H87.47L88.3071 38.9067H89.4538ZM93.1444 37.1408C93.1444 35.1225 94.3944 33.8611 95.9654 33.8611C96.9172 33.8611 97.5937 34.2969 97.9377 34.8588V33.9529H99.8986V40.3516H97.9377V39.4457C97.5822 40.0075 96.9057 40.4433 95.9539 40.4433C94.3944 40.4433 93.1444 39.159 93.1444 37.1408ZM97.9377 37.1522C97.9377 36.1316 97.2841 35.5697 96.5387 35.5697C95.8048 35.5697 95.1397 36.1202 95.1397 37.1408C95.1397 38.1613 95.8048 38.7347 96.5387 38.7347C97.2841 38.7347 97.9377 38.1728 97.9377 37.1522ZM112.566 40.3516V36.877C112.566 36.0399 112.084 35.5812 111.339 35.5812C110.593 35.5812 110.112 36.0399 110.112 36.877V40.3516H108.162V36.877C108.162 36.0399 107.681 35.5812 106.935 35.5812C106.19 35.5812 105.708 36.0399 105.708 36.877V40.3516H103.747V33.9529H105.708V34.7556C106.087 34.2396 106.74 33.8841 107.577 33.8841C108.541 33.8841 109.32 34.3084 109.756 35.0767C110.18 34.4001 110.983 33.8841 111.912 33.8841C113.494 33.8841 114.515 34.8932 114.515 36.6133V40.3516H112.566ZM118.707 35.4321C118.065 35.4321 117.572 35.822 117.457 36.533H119.911C119.911 35.8335 119.361 35.4321 118.707 35.4321ZM121.769 38.2301C121.459 39.4801 120.324 40.4433 118.73 40.4433C116.85 40.4433 115.496 39.1819 115.496 37.1522C115.496 35.1225 116.827 33.8611 118.73 33.8611C120.599 33.8611 121.918 35.0996 121.918 37.049C121.918 37.2325 121.907 37.4274 121.884 37.6224H117.446C117.515 38.4595 118.031 38.8494 118.661 38.8494C119.212 38.8494 119.521 38.5741 119.682 38.2301H121.769ZM122.953 40.3516V31.8658H124.913V40.3516H122.953ZM126.335 40.3516V31.8658H128.295V34.8129C128.685 34.2625 129.385 33.8841 130.268 33.8841C131.724 33.8841 132.699 34.8932 132.699 36.6133V40.3516H130.749V36.877C130.749 36.0055 130.268 35.5239 129.522 35.5239C128.777 35.5239 128.295 36.0055 128.295 36.877V40.3516H126.335ZM140.322 37.1522C140.322 39.1819 138.855 40.4433 136.974 40.4433C135.093 40.4433 133.672 39.1819 133.672 37.1522C133.672 35.1225 135.128 33.8611 136.997 33.8611C138.878 33.8611 140.322 35.1225 140.322 37.1522ZM135.667 37.1522C135.667 38.2301 136.263 38.7462 136.974 38.7462C137.674 38.7462 138.327 38.2301 138.327 37.1522C138.327 36.0628 137.685 35.5583 136.997 35.5583C136.286 35.5583 135.667 36.0628 135.667 37.1522ZM143.324 37.3816V40.3516H141.363V33.9529H143.324V35.0193C143.771 34.3428 144.47 33.8841 145.33 33.8841V35.9596H144.791C143.863 35.9596 143.324 36.2807 143.324 37.3816Z" fill="white"/>
<g clip-path="url(#clip0_1_638)">
<mask id="mask0_1_638" style="mask-type:luminance" maskUnits="userSpaceOnUse" x="0" y="0" width="147" height="31">
<path d="M146.27 0H0V30.9189H146.27V0Z" fill="white"/>
</mask>
<g mask="url(#mask0_1_638)">
<path d="M37.2091 23.98V6.93945H47.7322V9.77868H40.0807V14.0401H46.7768V16.8793H40.0807V21.6122H47.7322V23.98H37.2091Z" fill="white"/>
<mask id="mask1_1_638" style="mask-type:luminance" maskUnits="userSpaceOnUse" x="0" y="0" width="147" height="31">
<path d="M146.27 0H0V30.9189H146.27V0Z" fill="white"/>
</mask>
<g mask="url(#mask1_1_638)">
<path d="M47.9005 23.9797L54.1202 6.93921H57.2067L63.4263 23.9797H60.0679L58.7318 20.1924H52.551L51.2149 23.9797H47.9031H47.9005ZM53.3175 17.8272H57.9861L56.0052 12.3204C55.8628 11.8771 55.6997 11.3646 55.6505 11.0136C55.5806 11.3416 55.4382 11.8541 55.2724 12.3204L53.3149 17.8272H53.3175Z" fill="white"/>
<path d="M63.996 23.9797V6.93921H70.0266C75.1147 6.93921 78.6259 10.4139 78.6259 15.4953C78.6259 20.5767 75.1872 23.9823 70.1923 23.9823H63.996V23.9797ZM67.344 9.77844V21.1405H70.1975C73.5844 21.1405 75.6481 18.9829 75.6481 15.4953C75.6481 12.0078 73.5378 9.781 70.0344 9.781H67.344V9.77844Z" fill="white"/>
<path d="M85.0423 6.93921H87.9113V17.5786C87.9113 20.095 89.338 21.4557 91.9352 21.3788C93.973 21.3173 95.5655 19.603 95.5655 17.5838V6.93921H98.9135V17.7657C98.9135 21.7555 96.2309 24.2744 91.9662 24.2744C87.7016 24.2744 85.0423 21.7785 85.0423 17.7657V6.93921Z" fill="white"/>
<path d="M100.351 23.9795V12.6174H103.002L103.238 14.0883C103.965 12.9377 105.371 12.2715 106.943 12.2715C109.851 12.2715 111.353 14.0422 111.353 16.9865V23.9769H108.484V17.5604C108.484 15.6232 107.526 14.6905 106.052 14.6905C104.299 14.6905 103.222 15.9051 103.222 17.7706V23.9769H100.353L100.351 23.9795Z" fill="white"/>
<path d="M113.419 8.50215C113.419 7.54634 114.196 6.7981 115.188 6.7981C116.179 6.7981 116.91 7.54378 116.91 8.50215C116.91 9.46052 116.13 10.2293 115.188 10.2293C114.198 10.2293 113.419 9.46052 113.419 8.50215ZM113.745 12.6175H116.614V23.9795H113.745V12.6175Z" fill="white"/>
<path d="M119.483 12.6178V11.1623C119.483 8.00535 121.174 6.68311 123.722 6.68311C124.175 6.68311 124.722 6.70617 125.224 6.80098V9.30453H124.196C122.712 9.30453 122.355 10.0502 122.355 11.1956V12.6204H125.224V14.9881H122.355V23.9824H119.486V14.9881H118.051V12.6204H119.486L119.483 12.6178Z" fill="white"/>
<path d="M131.407 12.2126C135.014 12.2126 137.632 14.6854 137.632 18.278C137.632 21.8706 135.014 24.3434 131.407 24.3434C127.8 24.3434 125.183 21.8706 125.183 18.278C125.183 14.6854 127.8 12.2126 131.407 12.2126ZM131.407 21.8015C133.388 21.8015 134.755 20.3793 134.755 18.278C134.755 16.1768 133.388 14.7546 131.407 14.7546C129.426 14.7546 128.059 16.1794 128.059 18.278C128.059 20.3767 129.426 21.8015 131.407 21.8015Z" fill="white"/>
<path d="M146.27 14.9851H145.33C143.259 14.9851 141.967 16.0895 141.967 18.3445V23.9794H139.098V12.6173H141.76L141.92 14.1676C142.407 13.1145 143.494 12.4021 145.022 12.4021C145.416 12.4021 145.809 12.4457 146.273 12.5533V14.9851H146.27Z" fill="white"/>
<path d="M27.6415 20.6665H23.9077C24.8295 19.0649 25.3551 17.2148 25.3551 15.2443C25.3551 13.4531 24.9201 11.7593 24.1485 10.2654L24.2236 10.2526H27.7399C28.5323 10.2526 28.8534 9.19938 28.2034 8.75094L15.4224 0.356246C14.7336 -0.120376 13.8169 -0.120376 13.1282 0.356246L0.347108 8.75094C-0.302821 9.19938 0.0182592 10.2526 0.810603 10.2526H4.33731L4.40463 10.2628C3.633 11.7567 3.19799 13.4505 3.19799 15.2443C3.19799 17.2174 3.72363 19.0675 4.64544 20.6665H4.6325H0.813192C0.0208486 20.6665 -0.300232 21.7197 0.349697 22.1681L13.1308 30.5628C13.8195 31.0394 14.7362 31.0394 15.4249 30.5628L28.206 22.1681C28.8559 21.7197 28.5349 20.6665 27.7425 20.6665M17.6829 22.0451C17.6363 22.1579 17.4731 22.145 17.4446 22.0272C17.108 20.6229 16.08 19.2956 14.3115 19.2956C12.543 19.2956 11.515 20.6229 11.1784 22.0272C11.1499 22.145 10.9868 22.1579 10.9402 22.0451C10.7641 21.6223 10.6683 21.161 10.6683 20.6742C10.6683 18.6831 12.2996 17.0688 14.3115 17.0688C16.3234 17.0688 17.9444 18.6652 17.9547 20.6562C17.9547 21.1482 17.8589 21.6172 17.6829 22.0425M20.5674 20.5102C20.3214 21.0867 19.9926 21.6018 19.5964 22.0502C19.4488 22.2168 19.1795 22.0554 19.2572 21.8529L19.265 21.835C20.1324 19.3519 18.8947 16.6024 16.3882 15.5748C13.8791 14.5473 11.0153 15.621 9.82675 17.9759L9.81898 17.9913C9.72576 18.1911 9.42022 18.1143 9.43834 17.8939C9.48236 17.3045 9.62478 16.71 9.87077 16.1335C11.1033 13.2378 14.4954 11.872 17.4498 13.0815C20.4043 14.291 21.7999 17.6171 20.5674 20.5127M22.8201 16.6741C22.7735 17.0047 22.2945 17.0098 22.2375 16.6818C22.1547 16.2078 22.0226 15.7363 21.8388 15.2725C20.3965 11.667 16.0412 9.75031 12.3876 11.152C8.73404 12.5562 7.1623 16.7484 8.60457 20.3539C8.79101 20.8177 9.02146 21.2533 9.29075 21.653C9.47719 21.9324 9.11985 22.245 8.85833 22.0349C7.75267 21.1431 6.85417 19.9695 6.29486 18.5678C4.54964 14.2065 6.71952 9.29675 11.1396 7.59782C15.5596 5.90146 20.5571 8.05907 22.3023 12.4204C22.8642 13.8221 23.0195 15.2801 22.8279 16.6716" fill="white"/>
</g>
</g>
</g>
<defs>
<clipPath id="clip0_1_638">
<rect width="146.27" height="30.9189" fill="white"/>
</clipPath>
</defs>
</svg>
