<svg width="75" height="16" viewBox="0 0 75 16" fill="none" xmlns="http://www.w3.org/2000/svg">
<g id="Modo_de_isolamento" clip-path="url(#clip0_17_463)">
<g id="Logo EAD Unifor Gello">
<g id="Logo EAD Unifor">
<g id="Group">
<g id="Group_2">
<path id="Vector" d="M18.9689 12.2688V3.5481H24.336V5.02006H20.4409V7.17941H23.8153V8.65137H20.4409V11.0676H24.336V12.2757H18.9689V12.2688Z" fill="white"/>
<path id="Vector_2" d="M24.3985 12.2687L27.5577 3.54102H29.1269L32.286 12.2687H30.5363L29.8698 10.3662H26.7939L26.1274 12.2687H24.4055H24.3985ZM27.148 9.15809H29.5226L28.5159 6.33219C28.4464 6.10307 28.3631 5.83923 28.3353 5.6587C28.3006 5.82534 28.2242 6.08918 28.1409 6.33219L27.148 9.15809Z" fill="white"/>
<path id="Vector_3" d="M32.5499 12.2688V3.5481H35.6118C38.1947 3.5481 39.9791 5.32556 39.9791 7.92928C39.9791 10.533 38.2364 12.2757 35.7021 12.2757H32.5568L32.5499 12.2688ZM34.2787 5.01312V10.8038H35.716C37.424 10.8038 38.4655 9.70674 38.4655 7.92928C38.4655 6.15181 37.3962 5.02006 35.6327 5.02006H34.2718L34.2787 5.01312Z" fill="white"/>
<path id="Vector_4" d="M43.2841 3.54796H44.7561V9.00534C44.7561 10.2829 45.4712 10.9842 46.7627 10.9564C47.7972 10.9356 48.6512 10.0468 48.6512 9.00534V3.54102H50.3801V9.0956C50.3801 11.1439 49.0053 12.4353 46.8252 12.4353C44.645 12.4353 43.2841 11.1508 43.2841 9.0956V3.54796Z" fill="white"/>
</g>
<g id="Group_3">
<path id="Vector_5" d="M51.0675 12.2687V6.47802H52.4214L52.5394 7.22789C52.9144 6.64466 53.6295 6.30444 54.4349 6.30444C55.9208 6.30444 56.6915 7.20706 56.6915 8.7068V12.2687H55.2195V8.97759C55.2195 7.98471 54.7335 7.50562 53.9767 7.50562C53.081 7.50562 52.5325 8.13051 52.5325 9.08868V12.2756H51.0605L51.0675 12.2687Z" fill="white"/>
<path id="Vector_6" d="M57.7191 4.36752C57.7191 3.87455 58.1149 3.49268 58.6217 3.49268C59.1286 3.49268 59.4966 3.87455 59.4966 4.36752C59.4966 4.86049 59.1008 5.25626 58.6217 5.25626C58.1149 5.25626 57.7191 4.86049 57.7191 4.36752ZM57.9066 6.48521H59.3785V12.2759H57.9066V6.48521Z" fill="white"/>
<path id="Vector_7" d="M60.7602 6.48506V5.74214C60.7602 4.11048 61.6281 3.4231 62.9335 3.4231C63.1626 3.4231 63.4473 3.43698 63.7042 3.48558V4.7562H63.1765C62.4197 4.7562 62.2322 5.13807 62.2322 5.72825V6.48506H63.7042V7.69318H62.2322V12.2688H60.7602V7.69318H60.0659V6.48506H60.7602Z" fill="white"/>
<path id="Vector_8" d="M66.8703 6.27002C68.7033 6.27002 70.0364 7.54063 70.0364 9.38059C70.0364 11.2205 68.7033 12.4912 66.8703 12.4912C65.0372 12.4912 63.7041 11.2205 63.7041 9.38059C63.7041 7.54063 65.0372 6.27002 66.8703 6.27002ZM66.8703 11.1928C67.877 11.1928 68.5714 10.4637 68.5714 9.38753C68.5714 8.31133 67.877 7.58229 66.8703 7.58229C65.8635 7.58229 65.1692 8.31133 65.1692 9.38753C65.1692 10.4637 65.8635 11.1928 66.8703 11.1928Z" fill="white"/>
<path id="Vector_9" d="M74.4314 7.6931H73.994C72.9317 7.6931 72.2721 8.2555 72.2721 9.40114V12.2687H70.8001V6.47803H72.1471L72.2304 7.26956C72.4734 6.72799 73.0289 6.36694 73.7996 6.36694C74.001 6.36694 74.1954 6.38777 74.4314 6.44332V7.68616V7.6931Z" fill="white"/>
</g>
<path id="Vector_10" d="M14.1225 10.6301H12.1923C12.6645 9.80387 12.9283 8.85265 12.9283 7.83894C12.9283 6.91549 12.7061 6.04758 12.3104 5.27688H12.3451H14.1364C14.5391 5.27688 14.7058 4.73531 14.3725 4.50618L7.85974 0.180551C7.50564 -0.0624623 7.04044 -0.0624623 6.69328 0.180551L0.180527 4.49924C-0.152748 4.72837 0.0138893 5.26994 0.416597 5.26994H2.24961C1.85385 6.04758 1.63166 6.91549 1.63166 7.83894C1.63166 8.85265 1.90245 9.80387 2.36764 10.6301H2.3607H0.416597C0.0138893 10.6301 -0.152748 11.1717 0.180527 11.4008L6.69328 15.7195C7.04738 15.9625 7.51258 15.9625 7.85974 15.7195L14.3725 11.4008C14.7058 11.1717 14.5391 10.6301 14.1364 10.6301M9.00537 11.3175C8.98454 11.373 8.90123 11.3661 8.88734 11.3106C8.71376 10.5885 8.19302 9.90802 7.2904 9.90802C6.38778 9.90802 5.86703 10.5885 5.69345 11.3106C5.67957 11.373 5.59625 11.38 5.57542 11.3175C5.48516 11.1023 5.43655 10.8662 5.43655 10.6162C5.43655 9.59557 6.26974 8.76239 7.2904 8.76239C8.31105 8.76239 9.13729 9.58169 9.14424 10.6023C9.14424 10.8523 9.09564 11.0953 9.00537 11.3175ZM10.4704 10.5329C10.3454 10.8315 10.1788 11.0953 9.97743 11.3244C9.90105 11.4078 9.76219 11.3244 9.80385 11.2203C10.2482 9.93579 9.61638 8.52632 8.33882 7.99863C7.06127 7.47094 5.60319 8.01946 4.99913 9.22758C4.95053 9.33867 4.79778 9.29701 4.80472 9.18592C4.82555 8.88042 4.90192 8.58186 5.0269 8.2833C5.65179 6.79745 7.38066 6.09618 8.88039 6.71413C10.3801 7.33208 11.0953 9.04011 10.4704 10.526M11.616 8.55409C11.5952 8.72073 11.3452 8.72767 11.3175 8.55409C11.2758 8.31108 11.2064 8.06806 11.1161 7.83199C10.3801 5.97815 8.16524 4.99915 6.30446 5.71431C4.44367 6.4364 3.6452 8.5888 4.38118 10.4357C4.47839 10.6718 4.59642 10.894 4.72834 11.1023C4.82555 11.2481 4.63808 11.4078 4.50616 11.2967C3.94376 10.8384 3.48551 10.2344 3.20083 9.5192C2.3121 7.28348 3.41607 4.76308 5.66568 3.88824C7.91529 3.02033 10.4565 4.12431 11.3452 6.36697C11.6299 7.08907 11.7132 7.83199 11.6091 8.54714" fill="white"/>
</g>
</g>
</g>
</g>
<defs>
<clipPath id="clip0_17_463">
<rect width="74.4314" height="15.9" fill="white"/>
</clipPath>
</defs>
</svg>
