<svg width="20" height="17" viewBox="0 0 20 17" fill="none" xmlns="http://www.w3.org/2000/svg">
<g clip-path="url(#clip0_8_1200)">
<path d="M15.3492 7.17778C15.3954 7.16921 15.4448 7.16814 15.4868 7.15099C16.7241 6.6324 17.9613 6.11167 19.1997 5.59521C19.2942 5.55557 19.3436 5.51164 19.3383 5.39378C19.3289 5.20734 19.4916 5.08841 19.7175 5.09484C19.8918 5.09912 19.9937 5.2202 19.9895 5.40985C19.9863 5.53414 19.979 5.6595 19.9905 5.78272C20.0053 5.94452 19.9254 6.03238 19.7941 6.08809C19.4612 6.22953 19.1282 6.37096 18.7942 6.51025C17.6893 6.9742 16.5844 7.43922 15.4784 7.89995C15.3891 7.93746 15.3566 7.98139 15.3566 8.08425C15.3618 9.23072 15.3618 10.3761 15.3597 11.5226C15.3597 11.7155 15.3419 11.9083 15.3314 12.1023C15.3419 12.1087 15.3534 12.1151 15.3639 12.1216C15.4448 12.0283 15.5309 11.9383 15.6045 11.8398C15.6874 11.7262 15.761 11.6051 15.8355 11.4851C15.9553 11.2933 16.0036 11.0876 15.9994 10.8551C15.9857 10.2026 15.9931 9.54895 15.9941 8.89643C15.9941 8.83964 16.0025 8.78071 16.0183 8.72606C16.0687 8.55034 16.1947 8.48498 16.4352 8.50641C16.5529 8.51712 16.6569 8.63498 16.6705 8.78499C16.6831 8.92964 16.6947 9.07429 16.6957 9.22001C16.6989 9.74396 16.6842 10.269 16.701 10.7919C16.7136 11.1797 16.6043 11.5205 16.4132 11.8451C16.1527 12.2866 15.8408 12.6809 15.4448 13.0045C15.4017 13.0398 15.3839 13.1127 15.3629 13.1716C15.3513 13.2037 15.3576 13.2423 15.3576 13.2777C15.3513 13.8006 15.3482 14.3245 15.3356 14.8474C15.3335 14.9567 15.3692 15.0145 15.4627 15.0638C15.72 15.201 15.9048 15.4003 15.9679 15.7024C16.1034 16.3421 15.7599 16.85 15.1654 16.9839C14.7453 17.0793 14.2506 16.7493 14.0973 16.4042C13.8599 15.8696 14.0794 15.2867 14.5836 15.0349C14.6182 15.0178 14.6529 14.9599 14.655 14.9192C14.6623 14.7424 14.6581 14.5645 14.6581 14.3867C14.6581 11.8462 14.6581 9.30466 14.6623 6.76419C14.6623 6.66669 14.6287 6.62276 14.5426 6.59061C13.6708 6.26167 12.8001 5.92844 11.9284 5.59736C11.6227 5.48057 11.315 5.36699 11.0093 5.24913C10.9222 5.21591 10.8476 5.21698 10.7562 5.25984C10.1975 5.51807 9.645 5.51807 9.11459 5.17734C8.78794 4.96733 8.6241 4.66196 8.67976 4.26873C8.71547 4.01372 8.87092 3.81335 9.07888 3.66871C9.42968 3.42441 9.8162 3.35369 10.2395 3.40941C10.5955 3.45655 10.9001 3.58406 11.1375 3.8605C11.2961 4.04479 11.3696 4.25909 11.316 4.5066C11.294 4.61053 11.3581 4.64375 11.4379 4.67375C11.8034 4.80982 12.1678 4.94697 12.5312 5.08734C13.0343 5.28127 13.5374 5.4795 14.0405 5.67343C14.3283 5.78487 14.6161 5.89416 14.9081 5.99702C14.9564 6.01416 15.0247 5.99702 15.0751 5.97666C16.1832 5.51057 17.2902 5.04019 18.3972 4.57196C18.4729 4.53981 18.5516 4.51624 18.6251 4.48195C18.6567 4.46802 18.6798 4.43695 18.7071 4.41338C18.6819 4.39195 18.6609 4.36302 18.6314 4.35016C18.3762 4.23873 18.1189 4.12837 17.8626 4.02015C15.3534 2.96046 12.8432 1.90077 10.334 0.841086C10.2584 0.808942 10.1849 0.766083 10.1061 0.751083C10.0347 0.737154 9.94854 0.733939 9.88342 0.761797C8.52537 1.33182 7.17047 1.9072 5.81452 2.47937C4.35774 3.0944 2.89991 3.70728 1.44208 4.32123C1.39061 4.34266 1.3381 4.36516 1.26878 4.39516C1.30554 4.43052 1.32759 4.46695 1.35805 4.47981C2.67934 5.03376 4.00273 5.5845 5.32402 6.13952C6.85117 6.78134 8.37517 7.42851 9.90232 8.06925C9.96429 8.09496 10.0567 8.09068 10.1197 8.06496C11.0209 7.68995 11.9189 7.3085 12.818 6.92813C12.9818 6.85848 13.1415 6.77384 13.3116 6.72348C13.6435 6.62597 13.8494 6.72348 13.8242 7.08563C13.8137 7.23671 13.7023 7.30422 13.5837 7.35565C13.2917 7.48208 12.9976 7.60423 12.7045 7.72745C11.8979 8.06818 11.0892 8.40569 10.2846 8.75178C10.083 8.83857 9.90652 8.83321 9.70276 8.74535C8.76379 8.33604 7.81746 7.94281 6.87428 7.54423C5.46476 6.94849 4.0563 6.35275 2.64678 5.75701C1.8601 5.42485 1.07342 5.09162 0.284637 4.76161C0.130241 4.69732 0.00315353 4.61375 0.00105291 4.42409C-0.00104771 4.2323 0.120788 4.12944 0.278335 4.06301C1.24987 3.65263 2.22141 3.2444 3.19294 2.83403C4.85453 2.13221 6.51507 1.42933 8.17666 0.72751C8.71022 0.501429 9.24588 0.279634 9.77839 0.0514104C9.93488 -0.0150209 10.0788 -0.0150209 10.2363 0.0514104C12.6678 1.08217 15.1014 2.10864 17.5349 3.13618C18.246 3.4362 18.957 3.73407 19.6681 4.03301C19.708 4.05015 19.7479 4.06837 19.7868 4.08765C19.9265 4.15623 20.0053 4.26123 19.999 4.42945C19.9926 4.59339 19.9086 4.68768 19.7679 4.74661C19.2774 4.95126 18.7869 5.15805 18.2974 5.36485C17.3501 5.76451 16.4027 6.16524 15.4543 6.56276C15.3776 6.5949 15.3503 6.63347 15.3545 6.71919C15.3618 6.86063 15.3513 7.00313 15.3492 7.14457C15.3492 7.15635 15.3492 7.16707 15.3503 7.17885L15.3492 7.17778ZM10.0137 4.08122C9.77944 4.08122 9.62609 4.11015 9.4948 4.21623C9.27949 4.38981 9.26373 4.4391 9.50005 4.59982C9.8309 4.82375 10.1775 4.7884 10.5157 4.60732C10.7069 4.50445 10.7121 4.34481 10.5294 4.22266C10.3739 4.11872 10.2006 4.07051 10.0126 4.08015L10.0137 4.08122ZM15.3104 15.9692C15.3104 15.7581 15.2074 15.6499 15.0047 15.6499C14.8388 15.6499 14.6508 15.8256 14.6571 15.9767C14.6623 16.1128 14.8692 16.3175 14.9984 16.3164C15.1833 16.3142 15.3093 16.1749 15.3093 15.9703L15.3104 15.9692Z" fill="white"/>
<path d="M9.68596 14.2495C9.68596 13.2359 9.68596 12.2544 9.68701 11.274C9.68701 11.1958 9.68386 11.1079 9.71642 11.0415C9.78889 10.8883 9.93278 10.8647 10.084 10.8765C10.1901 10.8851 10.3025 10.9976 10.3298 11.1219C10.3403 11.169 10.3435 11.2183 10.3435 11.2665C10.3435 12.1815 10.3435 13.0966 10.3445 14.0116C10.3445 14.0931 10.3519 14.1745 10.3561 14.2559C10.4327 14.2506 10.5094 14.242 10.585 14.2388C11.3528 14.2098 12.0985 14.0556 12.8253 13.808C13.0511 13.7309 13.2675 13.6259 13.486 13.5295C13.6551 13.4545 13.8147 13.4748 13.9187 13.5916C14.0731 13.763 14.0374 14.032 13.82 14.1273C13.4429 14.2945 13.0617 14.4541 12.6699 14.5816C12.1321 14.7574 11.5776 14.8742 11.0125 14.902C10.4758 14.9288 9.93698 14.9363 9.39922 14.9342C8.73648 14.9309 8.08423 14.8184 7.44985 14.6331C5.97206 14.2013 4.70644 13.4309 3.80842 12.1237C3.61937 11.8483 3.48703 11.5312 3.33473 11.2301C3.31163 11.1829 3.31898 11.1176 3.31898 11.0608C3.31898 10.3408 3.31688 9.6218 3.32003 8.90177C3.32003 8.82998 3.33999 8.7539 3.36939 8.68747C3.43871 8.52675 3.5616 8.47103 3.77271 8.50854C3.9061 8.53211 3.98383 8.6264 4.00588 8.76247C4.01533 8.81926 4.02059 8.87712 4.02059 8.93391C4.02269 9.52429 4.02269 10.1157 4.02164 10.7061C4.02164 10.7586 4.00273 10.8111 4.00588 10.8626C4.01323 10.9697 4.00168 11.0897 4.04474 11.1819C4.42811 11.9876 5.03203 12.593 5.74835 13.0891C6.30081 13.4716 6.90474 13.7502 7.54753 13.9302C8.04537 14.0706 8.55057 14.1852 9.06943 14.2131C9.26268 14.2238 9.45594 14.2366 9.68386 14.2506L9.68596 14.2495Z" fill="white"/>
<path d="M0.339269 5.09375C0.552482 5.09375 0.657513 5.18911 0.651211 5.40233C0.64701 5.5502 0.757293 5.57698 0.845519 5.61556C1.18372 5.76449 1.52507 5.90378 1.86642 6.04522C2.38527 6.26058 2.90413 6.47381 3.42193 6.69239C3.91557 6.90025 4.40502 7.11669 4.89866 7.32456C5.85024 7.72529 6.80393 8.11959 7.75446 8.51925C8.44871 8.81069 9.14192 9.10428 9.83302 9.40322C9.9496 9.45358 10.0525 9.45679 10.1649 9.40857C10.7615 9.15356 11.3581 8.89855 11.9557 8.64676C12.4777 8.4271 12.9997 8.20745 13.5249 7.99637C13.6551 7.94387 13.7969 7.9353 13.9103 8.05637C14.0185 8.17209 14.0448 8.31139 13.9723 8.44639C13.9303 8.52354 13.8473 8.5964 13.7664 8.63176C13.2434 8.86105 12.7172 9.0807 12.191 9.3025C11.5534 9.57144 10.9148 9.83716 10.2784 10.1104C10.0924 10.1907 9.92755 10.195 9.73324 10.1104C8.73545 9.67537 7.7303 9.25642 6.72725 8.83319C5.42697 8.2846 4.12669 7.73815 2.8264 7.18955C1.97145 6.82954 1.1165 6.46631 0.260496 6.10844C0.0819435 6.03343 -0.00838318 5.90807 0.00106961 5.71092C0.00737147 5.58341 -0.00103102 5.45269 0.0273274 5.32947C0.0661888 5.15482 0.162817 5.09375 0.339269 5.09375Z" fill="white"/>
<path d="M15.3493 7.17784C15.3493 7.16606 15.3493 7.15534 15.3482 7.14355C15.3482 7.15534 15.3482 7.16606 15.3493 7.17784Z" fill="white"/>
</g>
<defs>
<clipPath id="clip0_8_1200">
<rect width="20" height="17" fill="white"/>
</clipPath>
</defs>
</svg>
