<svg width="20" height="20" viewBox="0 0 20 20" fill="none" xmlns="http://www.w3.org/2000/svg">
<g clip-path="url(#clip0_8_1171)">
<path d="M6.67944 0H16.1715C16.5225 0.183124 16.6076 0.479952 16.604 0.858169C16.5896 2.32795 16.598 3.79653 16.598 5.26631V5.48654C17.3095 5.48654 17.9983 5.47935 18.6871 5.49132C18.874 5.49491 19.0716 5.52603 19.2429 5.59665C19.794 5.82645 19.9976 6.28486 19.9976 6.85099C20 8.48953 20 10.1281 19.9952 11.7666C19.9952 11.9306 19.9713 12.0981 19.9317 12.2573C19.8191 12.7169 19.3028 13.1502 18.7302 13.1394C18.0858 13.1263 17.4413 13.137 16.798 13.137C16.7357 13.137 16.6735 13.137 16.598 13.137V13.368C16.598 14.9479 16.592 16.5278 16.6016 18.1077C16.604 18.4955 16.3165 18.8235 15.89 18.8211C12.5264 18.8055 9.16148 18.8127 5.7978 18.8127C5.60853 18.8127 5.42046 18.8055 5.23239 18.8163C5.1713 18.8199 5.09463 18.8546 5.0551 18.9013C4.80954 19.1957 4.59272 19.5165 4.32798 19.7905C4.06445 20.0634 3.73383 20.0754 3.47508 19.7977C3.21873 19.5212 2.98994 19.2184 2.75395 18.9252C2.28558 18.3435 1.8196 17.7594 1.35122 17.1765C0.900815 16.6152 0.450407 16.0539 0 15.4937C0 15.3633 0 15.234 0 15.1035C0.160517 14.8043 0.401294 14.6798 0.747484 14.7062C1.05654 14.7301 1.36919 14.7074 1.67944 14.7062C1.69023 14.6954 1.70101 14.6846 1.71179 14.675C1.71418 14.6032 1.71778 14.5326 1.71778 14.4608C1.71778 13.1813 1.71778 11.9007 1.71778 10.6212C1.71778 10.383 1.86512 10.1747 2.09631 10.1113C2.22329 10.0766 2.35625 10.0694 2.50359 10.0467C2.50359 9.98205 2.50359 9.91263 2.50359 9.84201C2.50359 8.03591 2.50719 6.2298 2.4988 4.4237C2.4976 4.17115 2.58026 3.98923 2.75515 3.81568C3.93268 2.64871 5.10062 1.47337 6.27695 0.305206C6.39435 0.187911 6.54288 0.101735 6.67705 0L6.67944 0ZM6.13321 14.6978C6.14638 14.7002 6.15836 14.7026 6.17154 14.705C6.51653 14.7074 6.86152 14.7026 7.20532 14.7133C7.42932 14.7205 7.62578 14.7923 7.74078 15.0114C7.86416 15.2448 7.839 15.4686 7.68448 15.6673C7.39818 16.0359 7.09631 16.3926 6.80283 16.7552C6.56804 17.0437 6.33325 17.3333 6.08529 17.6397C9.18903 17.6397 12.2604 17.6397 15.3318 17.6397C15.351 17.6397 15.3701 17.6361 15.3893 17.6338C15.4001 17.623 15.4097 17.6122 15.4205 17.6002V13.1406C15.3678 13.1382 15.3354 13.1346 15.3031 13.1346C12.9217 13.1323 10.5402 13.1394 8.15884 13.1239C7.54312 13.1203 7.05678 12.5937 7.05079 12.0024C7.03282 10.2214 7.0472 8.44046 7.04839 6.65829C7.04839 6.31598 7.19574 6.04548 7.43172 5.81209C7.69406 5.55236 8.01989 5.48294 8.37686 5.48414C10.6481 5.48773 12.9193 5.48534 15.1905 5.48534C15.2671 5.48534 15.3426 5.48534 15.4217 5.48534V1.21005C15.4109 1.19928 15.4013 1.18851 15.3905 1.17654C15.3642 1.17415 15.339 1.17056 15.3126 1.17056C12.7156 1.17056 10.1198 1.17056 7.52276 1.17056C7.48682 1.17056 7.44969 1.18013 7.41016 1.18612C7.41016 2.19749 7.41016 3.19809 7.41016 4.19988C7.41016 4.63555 7.15501 4.89048 6.72377 4.89048C5.77983 4.89048 4.83709 4.89048 3.89315 4.89048C3.82367 4.89048 3.75539 4.89048 3.68951 4.89048V10.067C4.26809 10.067 4.83349 10.067 5.3989 10.067C5.88165 10.067 6.11045 10.2968 6.11164 10.784C6.11164 12.0191 6.11164 13.2543 6.11164 14.4907C6.11164 14.5601 6.12602 14.6284 6.13321 14.6978ZM18.8165 11.9521V6.66906H8.21634V6.87253C8.21634 8.4979 8.21873 10.1233 8.21274 11.7487C8.21274 11.9186 8.25467 11.9689 8.42956 11.9677C11.8196 11.9629 15.2096 11.9641 18.5997 11.9629C18.6691 11.9629 18.7398 11.9557 18.8165 11.9509V11.9521ZM2.89051 11.2436C2.89051 11.3273 2.89051 11.392 2.89051 11.4566C2.89051 12.699 2.88812 13.9402 2.89051 15.1825C2.89051 15.629 2.62937 15.8887 2.19454 15.8839C2.07595 15.8827 1.95616 15.8839 1.80402 15.8839C2.52276 16.7684 3.21155 17.6158 3.90273 18.4668C4.6011 17.605 5.28749 16.7576 5.99545 15.8839C5.81457 15.8839 5.684 15.8767 5.55462 15.8863C5.37374 15.8995 5.23838 15.8241 5.10781 15.708C4.9425 15.5619 4.93651 15.3716 4.93651 15.1777C4.93651 13.9354 4.93651 12.6942 4.93651 11.4518V11.2436H2.88812H2.89051ZM6.23023 2.09455C5.69358 2.62956 5.13776 3.18372 4.61069 3.70796H6.23023V2.09455Z" fill="white"/>
<path d="M15.4205 1.21003C15.4097 1.19925 15.4001 1.18848 15.3893 1.17651C15.4001 1.18729 15.4097 1.19806 15.4205 1.21003Z" fill="white"/>
<path d="M15.3893 17.6337C15.4001 17.623 15.4097 17.6122 15.4205 17.6002C15.4097 17.611 15.4001 17.6218 15.3893 17.6337Z" fill="white"/>
<path d="M12.3251 9.31536C12.3251 8.81506 12.3287 8.31476 12.3239 7.81446C12.3203 7.51883 12.4197 7.34408 12.7707 7.37161C13.0355 7.39196 13.3038 7.38597 13.5697 7.374C14.4106 7.33331 14.9653 7.8767 15.1473 8.59244C15.3318 9.31775 15.2815 10.0299 14.8024 10.6547C14.5436 10.9922 14.1866 11.1789 13.7746 11.2328C13.4559 11.2747 13.1313 11.2711 12.8091 11.2759C12.5 11.2806 12.3335 11.1215 12.3299 10.8151C12.3239 10.3148 12.3287 9.81446 12.3287 9.31416C12.3275 9.31416 12.3263 9.31416 12.3251 9.31416V9.31536ZM13.1217 8.15557V10.4572C13.323 10.4572 13.5122 10.4727 13.6979 10.4536C13.9123 10.4309 14.098 10.3327 14.2166 10.1436C14.5352 9.63493 14.5292 9.1047 14.2968 8.57089C14.1986 8.34468 14.0165 8.18909 13.7686 8.16156C13.5577 8.13762 13.3421 8.15677 13.1229 8.15677L13.1217 8.15557Z" fill="white"/>
<path d="M9.97843 9.93777C9.97843 10.225 9.98442 10.5111 9.97723 10.7959C9.97005 11.1023 9.80953 11.2543 9.52443 11.2412C9.33876 11.2328 9.1974 11.0844 9.1974 10.8953C9.1974 9.87434 9.19501 8.85339 9.2022 7.83245C9.2022 7.71276 9.23574 7.57152 9.30641 7.48056C9.36631 7.40396 9.50287 7.3501 9.60469 7.35249C10.0096 7.35968 10.4205 7.35728 10.8182 7.4255C11.2841 7.5045 11.7166 8.03352 11.7286 8.55776C11.7453 9.22921 11.3045 9.70917 10.7822 9.84801C10.5319 9.91503 10.2623 9.90905 9.97963 9.93897L9.97843 9.93777ZM9.98562 9.09397C10.1773 9.09397 10.351 9.09875 10.5247 9.09277C10.696 9.08678 10.908 8.89768 10.9391 8.73251C10.9835 8.50031 10.92 8.30282 10.7163 8.23819C10.4863 8.16638 10.236 8.1592 9.98562 8.12329V9.09397Z" fill="white"/>
<path d="M16.5896 9.67922C16.5896 10.0538 16.5932 10.4045 16.5896 10.7552C16.586 11.0748 16.4291 11.2447 16.1524 11.24C15.9787 11.2376 15.8265 11.1023 15.8182 10.9264C15.8074 10.7061 15.8098 10.4847 15.8098 10.2633C15.8098 9.45779 15.8098 8.65109 15.8098 7.84559C15.8098 7.46258 15.9308 7.34529 16.3213 7.34529C16.6663 7.34529 17.0113 7.3417 17.3562 7.34648C17.5383 7.34888 17.7084 7.38478 17.8007 7.57748C17.924 7.83481 17.7527 8.11608 17.4617 8.11848C17.2149 8.11967 16.9669 8.12326 16.7202 8.11728C16.6004 8.11369 16.5573 8.16037 16.562 8.27766C16.5692 8.43326 16.5692 8.59005 16.562 8.74565C16.5561 8.86773 16.6076 8.90483 16.7238 8.90124C16.9322 8.89526 17.1406 8.89885 17.3479 8.90004C17.5371 8.90004 17.7024 9.02093 17.7348 9.17892C17.7743 9.37401 17.6701 9.58825 17.4724 9.63015C17.2748 9.67323 17.0664 9.66725 16.8615 9.67922C16.7789 9.68401 16.695 9.67922 16.5908 9.67922H16.5896Z" fill="white"/>
</g>
<defs>
<clipPath id="clip0_8_1171">
<rect width="20" height="20" fill="white"/>
</clipPath>
</defs>
</svg>
