<svg width="12" height="17" viewBox="0 0 12 17" fill="none" xmlns="http://www.w3.org/2000/svg">
<g id="Camada_1" clip-path="url(#clip0_1_341)">
<g id="Group">
<path id="Vector" d="M11.2479 0.324951H0.752125C0.512749 0.324951 0.318697 0.522795 0.318697 0.766847V1.82393C0.318697 2.06798 0.512749 2.26583 0.752125 2.26583H11.2479C11.4873 2.26583 11.6813 2.06798 11.6813 1.82393V0.766847C11.6813 0.522795 11.4873 0.324951 11.2479 0.324951Z" fill="#CFC8E5"/>
<path id="Vector_2" d="M11.2479 2.59072H0.752125C0.339943 2.59072 0 2.24847 0 1.8239V0.762487C0 0.342253 0.335694 0 0.752125 0H11.2521C11.6643 0 12.0042 0.342253 12.0042 0.762487V1.8239C12.0042 2.24414 11.6686 2.59072 11.2521 2.59072H11.2479ZM0.752125 0.649847C0.688385 0.649847 0.637394 0.701835 0.637394 0.762487V1.8239C0.637394 1.88889 0.688385 1.94088 0.752125 1.94088H11.2521C11.3159 1.94088 11.3669 1.88889 11.3669 1.8239V0.762487C11.3669 0.697502 11.3159 0.649847 11.2521 0.649847H0.752125Z" fill="#302F2D"/>
</g>
<g id="Group_2">
<path id="Vector_3" d="M0.752125 16.675H11.2479C11.4873 16.675 11.6813 16.4772 11.6813 16.2332V15.1761C11.6813 14.932 11.4873 14.7342 11.2479 14.7342L0.752125 14.7342C0.51275 14.7342 0.318697 14.932 0.318697 15.1761V16.2332C0.318697 16.4772 0.51275 16.675 0.752125 16.675Z" fill="#CFC8E5"/>
<path id="Vector_4" d="M11.2479 17H0.752125C0.339943 17 0 16.6578 0 16.2375V15.1761C0 14.7559 0.335694 14.4093 0.752125 14.4093H11.2521C11.6643 14.4093 12.0042 14.7516 12.0042 15.1761V16.2375C12.0042 16.6578 11.6686 17 11.2521 17H11.2479ZM0.752125 15.0591C0.688385 15.0591 0.637394 15.1111 0.637394 15.1761V16.2375C0.637394 16.3025 0.688385 16.3502 0.752125 16.3502H11.2521C11.3159 16.3502 11.3669 16.2982 11.3669 16.2375V15.1761C11.3669 15.1111 11.3159 15.0591 11.2521 15.0591H0.752125Z" fill="#302F2D"/>
</g>
<g id="Group_3">
<path id="Vector_5" d="M10.0666 2.26587H1.93343C1.61898 2.26587 1.35977 2.52581 1.35977 2.85073V3.96414C1.35977 4.1201 1.41926 4.27173 1.52975 4.38004L5.21813 8.08417C5.44759 8.31378 5.44759 8.68636 5.21813 8.91597L1.52975 12.6201C1.41926 12.7284 1.35977 12.88 1.35977 13.036V14.1494C1.35977 14.47 1.61473 14.7343 1.93343 14.7343H10.0666C10.381 14.7343 10.6402 14.4743 10.6402 14.1494V13.036C10.6402 12.88 10.5807 12.7284 10.4703 12.6201L6.78187 8.91597C6.55241 8.68636 6.55241 8.31378 6.78187 8.08417L10.4703 4.38004C10.5807 4.27173 10.6402 4.1201 10.6402 3.96414V2.85073C10.6402 2.53014 10.3853 2.26587 10.0666 2.26587Z" fill="white"/>
<path id="Vector_6" d="M10.0666 15.0592H1.93343C1.44051 15.0592 1.04108 14.6519 1.04108 14.1494V13.036C1.04108 12.7934 1.13881 12.5594 1.30453 12.3905L4.99292 8.68633C5.03966 8.63867 5.06941 8.57369 5.06941 8.50437C5.06941 8.43506 5.04391 8.37007 4.99292 8.32242L1.30878 4.60962C1.13881 4.44066 1.04533 4.20672 1.04533 3.96411V2.8507C1.04533 2.34816 1.44476 1.94092 1.93768 1.94092H10.0708C10.5637 1.94092 10.9632 2.34816 10.9632 2.8507V3.96411C10.9632 4.20672 10.8654 4.44066 10.6997 4.60962L7.01133 8.31375C6.96459 8.36141 6.93484 8.42639 6.93484 8.49571C6.93484 8.56503 6.96034 8.63001 7.01133 8.67767L10.6997 12.3818C10.8697 12.5508 10.9632 12.7847 10.9632 13.0273V14.1407C10.9632 14.6433 10.5637 15.0505 10.0708 15.0505L10.0666 15.0592ZM1.93343 2.59076C1.7932 2.59076 1.67847 2.70774 1.67847 2.8507V3.96411C1.67847 4.03343 1.70397 4.09841 1.75496 4.14607L5.44334 7.85019C5.61331 8.02349 5.71105 8.2531 5.7068 8.49571C5.70255 8.73832 5.61331 8.97226 5.43909 9.14122L1.75071 12.8454C1.70397 12.893 1.67422 12.958 1.67422 13.0273V14.1407C1.67422 14.2837 1.78895 14.4007 1.92918 14.4007H10.0623C10.2025 14.4007 10.3173 14.2837 10.3173 14.1407V13.0273C10.3173 12.958 10.2918 12.893 10.2408 12.8454L6.55241 9.14122C6.38244 8.96793 6.28895 8.73832 6.28895 8.49571C6.28895 8.2531 6.38244 8.01915 6.55241 7.85019L10.2408 4.14607C10.2875 4.09841 10.3173 4.02909 10.3173 3.96411V2.8507C10.3173 2.70774 10.2025 2.59076 10.0623 2.59076H1.93343Z" fill="#302F2D"/>
</g>
<path id="Vector_7" d="M4.70396 6.46817L5.77479 7.54692C5.89802 7.67255 6.10198 7.67255 6.22521 7.54692L7.29603 6.46817C7.5 6.26455 7.35552 5.9093 7.07082 5.9093H4.92493C4.63598 5.9093 4.49575 6.26455 4.69972 6.46817H4.70396Z" fill="#302F2D"/>
<path id="Vector_8" d="M4.47875 11.4979H7.55949C7.64448 11.4979 7.72521 11.5326 7.7847 11.5932L8.93626 12.75C8.99575 12.8106 9.02975 12.8973 9.02975 12.9839V13.7897C9.02975 13.9717 8.88527 14.1146 8.7068 14.1146H3.28895C3.11048 14.1146 2.96601 13.9673 2.96601 13.7897V12.9882C2.96601 12.8973 3 12.8149 3.06374 12.7543L4.24929 11.5932C4.30878 11.5326 4.38952 11.5023 4.47025 11.5023L4.47875 11.4979Z" fill="#302F2D"/>
</g>
<defs>
<clipPath id="clip0_1_341">
<rect width="12" height="17" fill="white"/>
</clipPath>
</defs>
</svg>
