<svg width="25" height="25" viewBox="0 0 25 25" fill="none" xmlns="http://www.w3.org/2000/svg">
<g clip-path="url(#clip0_1_225)">
<path d="M25 2.73681C25 7.07537 25 11.4139 25 15.7475C24.995 15.7674 24.9851 15.7921 24.9802 15.812C24.9306 17.0714 24.1919 18.0234 22.9724 18.3804C22.6899 18.4647 22.3776 18.4746 22.0801 18.4796C19.9931 18.4895 17.911 18.4796 15.8239 18.4796C15.8041 18.4895 15.7892 18.4994 15.7694 18.5093V20.6414C16.1511 20.7753 16.5427 20.8645 16.8897 21.043C17.9853 21.5984 18.7041 22.4611 18.9223 23.7007C18.9619 23.9387 19.0115 24.1767 19.0165 24.4147C19.0264 24.7271 18.7934 24.9651 18.4811 24.9948C18.4067 25.0048 18.3274 24.9948 18.253 24.9948C14.421 24.9948 10.5889 24.9948 6.75689 24.9948C6.628 24.9948 6.50406 24.9899 6.37517 24.9651C6.15705 24.9254 5.99346 24.732 5.99346 24.5089C5.96371 23.0264 6.628 21.9207 7.86734 21.1571C8.22923 20.934 8.66052 20.8249 9.07198 20.696C9.20583 20.6563 9.2554 20.6216 9.2554 20.4877C9.25045 19.8282 9.25045 19.1638 9.24549 18.5044C9.22566 18.4944 9.21079 18.4845 9.19096 18.4746C7.0345 18.4746 4.88301 18.4597 2.72655 18.4746C1.38806 18.4845 0.163593 17.3986 0.0396589 16.0946C0.0198295 15.9111 0.0148721 15.7227 0.0148721 15.5393C0 11.3395 0.00991473 7.12991 0 2.92523C0 2.25585 0.123934 1.6311 0.540353 1.10055C0.961729 0.570011 1.47234 0.158468 2.17628 0.0741761C2.31013 0.0593011 2.43902 0.0394677 2.56792 0.0196343C2.58775 0.0196343 2.61253 0.00971758 2.63236 0.00475923C2.75134 0.00475923 2.87032 -0.00515747 2.98929 -0.00515747C9.32976 -0.000199121 15.6653 -0.000199121 22.0008 -0.000199121C22.7494 -0.000199121 23.4533 0.15351 24.0383 0.654303C24.5241 1.07576 24.8463 1.59639 24.9256 2.24593C24.9405 2.38477 24.9653 2.5236 24.9802 2.66243C24.9802 2.67235 24.9703 2.68227 24.9752 2.68723C24.9802 2.7021 24.9901 2.71698 25 2.72689V2.73681ZM10.3659 18.4994C10.3659 18.4994 10.351 18.4895 10.3411 18.4845C10.3411 18.4944 10.351 18.4994 10.3559 18.5093C10.351 19.2035 10.346 19.8927 10.3411 20.5869C10.351 20.6067 10.3609 20.6216 10.3708 20.6414C11.7936 20.6414 13.2163 20.6414 14.6341 20.6414C14.6441 20.6216 14.654 20.6067 14.6639 20.5869C14.6589 19.8927 14.654 19.2035 14.649 18.5093L14.6639 18.4845C14.6639 18.4845 14.649 18.4944 14.6391 18.4994C13.7468 18.4944 12.8495 18.4845 11.9572 18.4845C11.4267 18.4845 10.8963 18.4944 10.3659 18.4994ZM9.91969 21.7422C9.91969 21.7422 9.87507 21.7521 9.85524 21.762C9.66686 21.762 9.47353 21.7372 9.29506 21.7769C8.14495 22.0397 7.41126 22.7438 7.12374 23.8842H17.8614C17.678 23.2346 17.3805 22.6942 16.8352 22.2975C16.3147 21.9157 15.7446 21.7322 15.1051 21.757C15.0853 21.7521 15.0605 21.7471 15.0407 21.7372C13.3353 21.7372 11.625 21.7372 9.91969 21.7372V21.7422ZM12.4281 17.3887C15.6851 17.3887 18.9421 17.3887 22.1991 17.3887C22.3776 17.3887 22.5709 17.3689 22.7345 17.3094C23.5723 17.0119 23.8945 16.4466 23.8995 15.5988C23.9143 11.3643 23.9094 7.12991 23.8995 2.90044C23.8995 2.54839 23.8449 2.19139 23.6516 1.87902C23.2798 1.28897 22.7097 1.10055 22.0553 1.10055C15.7595 1.10055 9.46857 1.10055 3.17271 1.10055C2.91493 1.10055 2.65219 1.12039 2.39937 1.15014C1.66568 1.24435 1.10549 1.95835 1.10054 2.62277C1.10054 7.04066 1.09558 11.4635 1.10054 15.8814C1.10054 16.645 1.83423 17.3838 2.60262 17.3838C5.87448 17.3937 9.1513 17.3838 12.4232 17.3838L12.4281 17.3887Z" fill="#3B3666"/>
<path d="M2.63732 0.00991821C2.63732 0.00991821 2.5927 0.0198349 2.57287 0.0247933C2.5927 0.0247933 2.61749 0.0148766 2.63732 0.00991821Z" fill="#3B3666"/>
<path d="M25 2.737C25 2.737 24.9802 2.71221 24.9752 2.69734C24.9752 2.69238 24.9752 2.68246 24.9802 2.67255C24.9851 2.69238 24.995 2.71717 25 2.737Z" fill="#3B3666"/>
<path d="M24.9802 15.8122C24.9802 15.8122 24.995 15.7675 25 15.7477C24.995 15.7675 24.9851 15.7923 24.9802 15.8122Z" fill="#3B3666"/>
<path d="M9.18104 18.4847C9.18104 18.4847 9.21574 18.5046 9.23557 18.5145C9.21574 18.5046 9.20087 18.4947 9.18104 18.4847Z" fill="#3B3666"/>
<path d="M15.7644 18.5145C15.7644 18.5145 15.7991 18.4947 15.819 18.4847C15.7991 18.4947 15.7843 18.5046 15.7644 18.5145Z" fill="#3B3666"/>
<path d="M10.3565 18.5105C10.3565 18.5105 10.3462 18.4951 10.3411 18.4847C10.3514 18.4847 10.3565 18.4951 10.3668 18.5002L10.3565 18.5105Z" fill="#3B3666"/>
<path d="M14.6391 18.5002C14.6391 18.5002 14.6546 18.4899 14.6649 18.4847C14.6649 18.4951 14.6546 18.5002 14.6494 18.5105L14.6391 18.5002Z" fill="#3B3666"/>
<path d="M10.3411 20.5871C10.3411 20.5871 10.3609 20.6218 10.3708 20.6416C10.3609 20.6218 10.351 20.6069 10.3411 20.5871Z" fill="#3B3666"/>
<path d="M14.6341 20.6416C14.6341 20.6416 14.654 20.6069 14.6639 20.5871C14.654 20.6069 14.6441 20.6218 14.6341 20.6416Z" fill="#3B3666"/>
<path d="M9.91473 21.7424C9.91473 21.7424 9.87012 21.7523 9.85029 21.7622C9.87012 21.7572 9.8949 21.7523 9.91473 21.7424Z" fill="#3B3666"/>
<path d="M15.1051 21.7622C15.1051 21.7622 15.0605 21.7523 15.0407 21.7424C15.0605 21.7473 15.0853 21.7523 15.1051 21.7622Z" fill="#3B3666"/>
<path d="M17.3855 15.2321C15.2984 15.2321 13.2163 15.237 11.1293 15.237C9.95935 15.237 8.78941 15.237 7.61947 15.2321C7.59964 15.2321 7.57981 15.2321 7.55998 15.2321C6.36526 15.2321 5.17053 15.2321 3.97581 15.2221C3.77751 15.2221 3.57426 15.242 3.42058 15.0585C3.2669 14.8701 3.19254 14.6817 3.30161 14.4486C3.40571 14.2255 3.58418 14.1363 3.81717 14.1363C4.68967 14.1363 5.56216 14.1363 6.43962 14.1363C6.63296 14.1363 6.82629 14.1363 7.02955 14.1363C7.16835 11.786 8.26889 10.0853 10.4154 9.0837C8.72497 7.54661 8.99266 5.34015 10.237 4.16006C11.516 2.94527 13.4345 3.05931 14.6292 4.06585C16.0173 5.23602 16.2502 7.66066 14.53 9.07874C16.6617 10.0853 17.8366 11.7315 17.9209 14.1313C18.952 14.1313 19.9931 14.1313 21.0341 14.1313C21.1382 14.1313 21.2473 14.1511 21.3514 14.1809C21.5992 14.2602 21.7331 14.4586 21.7133 14.7065C21.6885 14.9544 21.5596 15.1428 21.282 15.1973C21.1729 15.2172 21.0639 15.2221 20.9548 15.2221C19.7849 15.2221 18.6149 15.2271 17.445 15.2271C17.4251 15.2271 17.4053 15.2271 17.3855 15.2271V15.2321ZM16.8203 14.1214C16.8352 12.6537 16.0767 11.1265 14.5945 10.3481C12.9288 9.47541 11.283 9.58945 9.7908 10.7348C8.71009 11.5678 8.18461 12.738 8.13504 14.1214H16.8203ZM12.4727 8.68208C13.5534 8.7267 14.7829 7.78957 14.6441 6.31694C14.535 5.17652 13.6675 4.3584 12.443 4.36831C11.2433 4.37823 10.351 5.28065 10.3262 6.51528C10.3014 7.6557 11.2879 8.73166 12.4727 8.68208Z" fill="#3B3666"/>
</g>
<defs>
<clipPath id="clip0_1_225">
<rect width="25" height="25" fill="white"/>
</clipPath>
</defs>
</svg>
